
<svg xmlns="http://www.w3.org/2000/svg" version="1.1" xmlns:xlink="http://www.w3.org/1999/xlink" preserveAspectRatio="none" x="0px" y="0px" width="140px" height="200px" viewBox="0 0 140 200">
<defs>
<radialGradient id="Gradient_1" gradientUnits="userSpaceOnUse" cx="0" cy="0" r="5.950000000000001" fx="0" fy="0" gradientTransform="matrix( 1, 0, 0, 1, 15.15,10.5) " spreadMethod="pad">
<stop  offset="0%" stop-color="#F693B5"/>

<stop  offset="4.313725490196078%" stop-color="#F68DB1"/>

<stop  offset="21.568627450980394%" stop-color="#F58AAF"/>

<stop  offset="38.03921568627451%" stop-color="#F3739F"/>

<stop  offset="51.372549019607845%" stop-color="#F26D9B"/>

<stop  offset="70.19607843137256%" stop-color="#F05B8E"/>

<stop  offset="87.45098039215686%" stop-color="#E15585"/>

<stop  offset="100%" stop-color="#A94064"/>
</radialGradient>

<radialGradient id="Gradient_2" gradientUnits="userSpaceOnUse" cx="0" cy="0" r="19" fx="0" fy="0" gradientTransform="matrix( 1, 0, 0, 1, -2.95,-1.3) " spreadMethod="pad">
<stop  offset="0%" stop-color="#F693B5"/>

<stop  offset="4.313725490196078%" stop-color="#F68DB1"/>

<stop  offset="21.568627450980394%" stop-color="#F58AAF"/>

<stop  offset="38.03921568627451%" stop-color="#F3739F"/>

<stop  offset="51.372549019607845%" stop-color="#F26D9B"/>

<stop  offset="70.19607843137256%" stop-color="#F05B8E"/>

<stop  offset="100%" stop-color="#A94064" stop-opacity="0"/>
</radialGradient>

<radialGradient id="Gradient_3" gradientUnits="userSpaceOnUse" cx="0" cy="0" r="18.37457482501296" fx="0" fy="0" gradientTransform="matrix( 0.9660087468166754, -0.2585093829509413, 0.2585093829509413, 0.9660087468166754, -1.2,0.6) " spreadMethod="pad">
<stop  offset="0%" stop-color="#F693B5"/>

<stop  offset="4.313725490196078%" stop-color="#F68DB1"/>

<stop  offset="21.568627450980394%" stop-color="#F58AAF"/>

<stop  offset="38.03921568627451%" stop-color="#F3739F"/>

<stop  offset="51.372549019607845%" stop-color="#F26D9B"/>

<stop  offset="70.19607843137256%" stop-color="#F05B8E"/>

<stop  offset="87.45098039215686%" stop-color="#E15585"/>

<stop  offset="100%" stop-color="#A94064"/>
</radialGradient>

<radialGradient id="Gradient_4" gradientUnits="userSpaceOnUse" cx="0" cy="0" r="13.547422494703559" fx="0" fy="0" gradientTransform="matrix( 0.966050922610307, -0.25835172715461885, 0.25835172715461885, 0.966050922610307, 7.1,15.35) " spreadMethod="pad">
<stop  offset="5.490196078431373%" stop-color="#FFFFFF"/>

<stop  offset="7.450980392156863%" stop-color="#969696"/>

<stop  offset="10.196078431372548%" stop-color="#7E7E7E"/>

<stop  offset="22.352941176470587%" stop-color="#5D5D5D"/>

<stop  offset="75.68627450980392%" stop-color="#2A2A2A"/>

<stop  offset="92.15686274509804%" stop-color="#292929"/>

<stop  offset="100%" stop-color="#000000"/>
</radialGradient>

<radialGradient id="Gradient_5" gradientUnits="userSpaceOnUse" cx="0" cy="0" r="63.1875" fx="0" fy="0" gradientTransform="matrix( 1, 0, 0, 1.510385756676558, -13.1,-36.75) " spreadMethod="pad">
<stop  offset="0%" stop-color="#F693B5"/>

<stop  offset="4.313725490196078%" stop-color="#F68DB1"/>

<stop  offset="21.568627450980394%" stop-color="#F58AAF"/>

<stop  offset="38.03921568627451%" stop-color="#F3739F"/>

<stop  offset="51.372549019607845%" stop-color="#F26D9B"/>

<stop  offset="70.19607843137256%" stop-color="#F05B8E"/>

<stop  offset="87.45098039215686%" stop-color="#E15585"/>

<stop  offset="100%" stop-color="#A94064"/>
</radialGradient>

<radialGradient id="Gradient_6" gradientUnits="userSpaceOnUse" cx="0" cy="0" r="34.951224942768455" fx="0" fy="0" gradientTransform="matrix( 0.94774932936517, -0.31901600067687985, 0.45313147181346053, 1.1916606662055647, 12.25,32.1) " spreadMethod="pad">
<stop  offset="0%" stop-color="#FFFFFF"/>

<stop  offset="12.941176470588236%" stop-color="#F3D1A0"/>

<stop  offset="72.15686274509804%" stop-color="#E7A343"/>

<stop  offset="100%" stop-color="#B78135"/>
</radialGradient>

<linearGradient id="Gradient_7" gradientUnits="userSpaceOnUse" x1="4.625000000000001" y1="-4.0125" x2="-11.525000000000002" y2="1.4125000000000003" spreadMethod="pad">
<stop  offset="0%" stop-color="#FFFFFF"/>

<stop  offset="12.941176470588236%" stop-color="#F3D1A0"/>

<stop  offset="72.15686274509804%" stop-color="#E7A343"/>

<stop  offset="100%" stop-color="#B78135"/>
</linearGradient>

<radialGradient id="Gradient_8" gradientUnits="userSpaceOnUse" cx="0" cy="0" r="21.6854357807262" fx="0" fy="0" gradientTransform="matrix( 0.9476406288438363, -0.319338752055648, 0.4530690597757027, 1.1920442946770398, -2.25,-21) " spreadMethod="pad">
<stop  offset="0%" stop-color="#FFFFFF"/>

<stop  offset="12.941176470588236%" stop-color="#F3D1A0"/>

<stop  offset="72.15686274509804%" stop-color="#E7A343"/>

<stop  offset="100%" stop-color="#B78135"/>
</radialGradient>

<radialGradient id="Gradient_9" gradientUnits="userSpaceOnUse" cx="0" cy="0" r="22.1" fx="0" fy="0" gradientTransform="matrix( 0.9999999999999999, 0, 0, 0.9999999999999999, -1.7,-3.75) " spreadMethod="pad">
<stop  offset="0%" stop-color="#F693B5"/>

<stop  offset="4.313725490196078%" stop-color="#F68DB1"/>

<stop  offset="21.568627450980394%" stop-color="#F58AAF"/>

<stop  offset="38.03921568627451%" stop-color="#F3739F"/>

<stop  offset="51.372549019607845%" stop-color="#F26D9B"/>

<stop  offset="70.19607843137256%" stop-color="#F05B8E"/>

<stop  offset="87.45098039215686%" stop-color="#E15585"/>

<stop  offset="100%" stop-color="#A94064"/>
</radialGradient>

<radialGradient id="Gradient_10" gradientUnits="userSpaceOnUse" cx="0" cy="0" r="16.294002922854776" fx="0" fy="0" gradientTransform="matrix( 0.9735176847029082, 0.2286117179207775, -0.2286117179207775, 0.9735176847029082, 5.3,20.65) " spreadMethod="pad">
<stop  offset="5.490196078431373%" stop-color="#FFFFFF"/>

<stop  offset="7.450980392156863%" stop-color="#969696"/>

<stop  offset="10.196078431372548%" stop-color="#7E7E7E"/>

<stop  offset="22.352941176470587%" stop-color="#5D5D5D"/>

<stop  offset="75.68627450980392%" stop-color="#2A2A2A"/>

<stop  offset="92.15686274509804%" stop-color="#292929"/>

<stop  offset="100%" stop-color="#000000"/>
</radialGradient>

<radialGradient id="Gradient_11" gradientUnits="userSpaceOnUse" cx="0" cy="0" r="25.6" fx="0" fy="0" gradientTransform="matrix( 1, 0, 0, 1, 0,4.2) " spreadMethod="pad">
<stop  offset="0%" stop-color="#F693B5"/>

<stop  offset="4.313725490196078%" stop-color="#F68DB1"/>

<stop  offset="21.568627450980394%" stop-color="#F58AAF"/>

<stop  offset="38.03921568627451%" stop-color="#F3739F"/>

<stop  offset="51.372549019607845%" stop-color="#F26D9B"/>

<stop  offset="70.19607843137256%" stop-color="#F05B8E"/>

<stop  offset="87.45098039215686%" stop-color="#E15585"/>

<stop  offset="100%" stop-color="#A94064"/>
</radialGradient>

<linearGradient id="Gradient_12" gradientUnits="userSpaceOnUse" x1="-2.525" y1="48.6" x2="4.725" y2="48.6" spreadMethod="pad">
<stop  offset="0%" stop-color="#890000"/>

<stop  offset="29.41176470588235%" stop-color="#FF4148"/>

<stop  offset="52.94117647058823%" stop-color="#DE5559"/>

<stop  offset="81.96078431372548%" stop-color="#EF383E"/>

<stop  offset="100%" stop-color="#890000"/>
</linearGradient>

<linearGradient id="Gradient_13" gradientUnits="userSpaceOnUse" x1="-2.5250000000000004" y1="43.6" x2="6.425000000000001" y2="43.6" spreadMethod="pad">
<stop  offset="0%" stop-color="#F99500"/>

<stop  offset="41.1764705882353%" stop-color="#FFD7A2"/>

<stop  offset="52.549019607843135%" stop-color="#FF9900"/>

<stop  offset="100%" stop-color="#A56300"/>
</linearGradient>

<linearGradient id="Gradient_14" gradientUnits="userSpaceOnUse" x1="-2.5250000000000004" y1="86.85" x2="6.425000000000001" y2="86.85" spreadMethod="pad">
<stop  offset="0%" stop-color="#F99500"/>

<stop  offset="41.1764705882353%" stop-color="#FFD7A2"/>

<stop  offset="52.549019607843135%" stop-color="#FF9900"/>

<stop  offset="100%" stop-color="#A56300"/>
</linearGradient>

<linearGradient id="Gradient_15" gradientUnits="userSpaceOnUse" x1="-2.5" y1="71.45" x2="5.2" y2="71.45" spreadMethod="pad">
<stop  offset="0%" stop-color="#890000"/>

<stop  offset="29.41176470588235%" stop-color="#FF4148"/>

<stop  offset="52.94117647058823%" stop-color="#DE5559"/>

<stop  offset="81.96078431372548%" stop-color="#EF383E"/>

<stop  offset="100%" stop-color="#890000"/>
</linearGradient>

<radialGradient id="Gradient_16" gradientUnits="userSpaceOnUse" cx="0" cy="0" r="10.3" fx="0" fy="0" gradientTransform="matrix( 0.9999999999999999, 0, 0, 0.9999999999999999, 3.75,60.4) " spreadMethod="pad">
<stop  offset="46.27450980392157%" stop-color="#FFFFFF"/>

<stop  offset="100%" stop-color="#898989"/>
</radialGradient>

<linearGradient id="Gradient_17" gradientUnits="userSpaceOnUse" x1="-2.525" y1="30.1" x2="4.725" y2="30.1" spreadMethod="pad">
<stop  offset="0%" stop-color="#890000"/>

<stop  offset="29.41176470588235%" stop-color="#FF4148"/>

<stop  offset="52.94117647058823%" stop-color="#DE5559"/>

<stop  offset="81.96078431372548%" stop-color="#EF383E"/>

<stop  offset="100%" stop-color="#890000"/>
</linearGradient>

<linearGradient id="Gradient_18" gradientUnits="userSpaceOnUse" x1="-2.5" y1="52.95" x2="5.2" y2="52.95" spreadMethod="pad">
<stop  offset="0%" stop-color="#890000"/>

<stop  offset="29.41176470588235%" stop-color="#FF4148"/>

<stop  offset="52.94117647058823%" stop-color="#DE5559"/>

<stop  offset="81.96078431372548%" stop-color="#EF383E"/>

<stop  offset="100%" stop-color="#890000"/>
</linearGradient>

<radialGradient id="Gradient_19" gradientUnits="userSpaceOnUse" cx="0" cy="0" r="10.3" fx="0" fy="0" gradientTransform="matrix( 0.9999999999999999, 0, 0, 0.9999999999999999, 3.75,41.9) " spreadMethod="pad">
<stop  offset="46.27450980392157%" stop-color="#FFFFFF"/>

<stop  offset="100%" stop-color="#898989"/>
</radialGradient>

<linearGradient id="Gradient_20" gradientUnits="userSpaceOnUse" x1="-2.525" y1="5.35" x2="4.725" y2="5.35" spreadMethod="pad">
<stop  offset="0%" stop-color="#890000"/>

<stop  offset="29.41176470588235%" stop-color="#FF4148"/>

<stop  offset="52.94117647058823%" stop-color="#DE5559"/>

<stop  offset="81.96078431372548%" stop-color="#EF383E"/>

<stop  offset="100%" stop-color="#890000"/>
</linearGradient>

<linearGradient id="Gradient_21" gradientUnits="userSpaceOnUse" x1="-2.5" y1="28.2" x2="5.2" y2="28.2" spreadMethod="pad">
<stop  offset="0%" stop-color="#890000"/>

<stop  offset="29.41176470588235%" stop-color="#FF4148"/>

<stop  offset="52.94117647058823%" stop-color="#DE5559"/>

<stop  offset="81.96078431372548%" stop-color="#EF383E"/>

<stop  offset="100%" stop-color="#890000"/>
</linearGradient>

<radialGradient id="Gradient_22" gradientUnits="userSpaceOnUse" cx="0" cy="0" r="10.3" fx="0" fy="0" gradientTransform="matrix( 0.9999999999999999, 0, 0, 0.9999999999999999, 3.75,17.15) " spreadMethod="pad">
<stop  offset="46.27450980392157%" stop-color="#FFFFFF"/>

<stop  offset="100%" stop-color="#898989"/>
</radialGradient>

<radialGradient id="Gradient_23" gradientUnits="userSpaceOnUse" cx="0" cy="0" r="9.55" fx="0" fy="0" gradientTransform="matrix( 1, 0, 0, 1, 3.35,-6.65) " spreadMethod="pad">
<stop  offset="46.27450980392157%" stop-color="#FFFFFF"/>

<stop  offset="100%" stop-color="#898989"/>
</radialGradient>

<radialGradient id="Gradient_24" gradientUnits="userSpaceOnUse" cx="0" cy="0" r="29.450000000000003" fx="0" fy="0" gradientTransform="matrix( 1, 0, 0, 1, 0.45,-24.6) " spreadMethod="pad">
<stop  offset="46.27450980392157%" stop-color="#FFFFFF"/>

<stop  offset="100%" stop-color="#898989"/>
</radialGradient>

<radialGradient id="Gradient_25" gradientUnits="userSpaceOnUse" cx="0" cy="0" r="9.25" fx="0" fy="0" gradientTransform="matrix( 1, 0, 0, 1.0851351351351353, 1.4,-32.5) " spreadMethod="pad">
<stop  offset="7.8431372549019605%" stop-color="#FFFFFF"/>

<stop  offset="20.784313725490197%" stop-color="#B3DFEF"/>

<stop  offset="40.78431372549019%" stop-color="#41AFD7"/>

<stop  offset="76.47058823529412%" stop-color="#258CC5"/>

<stop  offset="81.56862745098039%" stop-color="#005DAD"/>
</radialGradient>

<linearGradient id="Gradient_26" gradientUnits="userSpaceOnUse" x1="26.450000000000003" y1="-75.2625" x2="19.75" y2="14.662500000000005" spreadMethod="pad">
<stop  offset="0%" stop-color="#FF0000" stop-opacity="0"/>

<stop  offset="97.6470588235294%" stop-color="#FF0000" stop-opacity="0.4980392156862745"/>
</linearGradient>

<linearGradient id="Gradient_27" gradientUnits="userSpaceOnUse" x1="1.7750000000000004" y1="79.48750000000001" x2="-14.975" y2="-9.087499999999999" spreadMethod="pad">
<stop  offset="0%" stop-color="#FF0000" stop-opacity="0"/>

<stop  offset="97.6470588235294%" stop-color="#FF0000" stop-opacity="0.4980392156862745"/>
</linearGradient>

<linearGradient id="Gradient_28" gradientUnits="userSpaceOnUse" x1="-9.287500000000001" y1="-77.4125" x2="24.387500000000003" y2="6.212499999999999" spreadMethod="pad">
<stop  offset="0%" stop-color="#FF0000" stop-opacity="0"/>

<stop  offset="97.6470588235294%" stop-color="#FF0000" stop-opacity="0.4980392156862745"/>
</linearGradient>

<linearGradient id="Gradient_29" gradientUnits="userSpaceOnUse" x1="71.15" y1="41.825" x2="-13.950000000000003" y2="12.075" spreadMethod="pad">
<stop  offset="0%" stop-color="#FF0000" stop-opacity="0"/>

<stop  offset="97.6470588235294%" stop-color="#FF0000" stop-opacity="0.4980392156862745"/>
</linearGradient>

<linearGradient id="Gradient_30" gradientUnits="userSpaceOnUse" x1="-74.92500000000001" y1="5.812500000000001" x2="11.625000000000007" y2="-19.4125" spreadMethod="pad">
<stop  offset="0%" stop-color="#FF0000" stop-opacity="0"/>

<stop  offset="97.6470588235294%" stop-color="#FF0000" stop-opacity="0.4980392156862745"/>
</linearGradient>

<linearGradient id="Gradient_31" gradientUnits="userSpaceOnUse" x1="-43.962500000000006" y1="-62.425" x2="24.762500000000003" y2="-4.074999999999999" spreadMethod="pad">
<stop  offset="0%" stop-color="#FF0000" stop-opacity="0"/>

<stop  offset="97.6470588235294%" stop-color="#FF0000" stop-opacity="0.4980392156862745"/>
</linearGradient>

<linearGradient id="Gradient_32" gradientUnits="userSpaceOnUse" x1="68.23750000000001" y1="-39.4375" x2="7.662500000000001" y2="27.337500000000002" spreadMethod="pad">
<stop  offset="0%" stop-color="#FF0000" stop-opacity="0"/>

<stop  offset="97.6470588235294%" stop-color="#FF0000" stop-opacity="0.4980392156862745"/>
</linearGradient>

<linearGradient id="Gradient_33" gradientUnits="userSpaceOnUse" x1="6.1625" y1="-78.6" x2="22.9375" y2="10.000000000000007" spreadMethod="pad">
<stop  offset="0%" stop-color="#FF0000" stop-opacity="0"/>

<stop  offset="97.6470588235294%" stop-color="#FF0000" stop-opacity="0.4980392156862745"/>
</linearGradient>

<linearGradient id="Gradient_34" gradientUnits="userSpaceOnUse" x1="-66.48750000000001" y1="-35.375" x2="20.7875" y2="-12.725" spreadMethod="pad">
<stop  offset="0%" stop-color="#FF0000" stop-opacity="0"/>

<stop  offset="97.6470588235294%" stop-color="#FF0000" stop-opacity="0.4980392156862745"/>
</linearGradient>

<linearGradient id="Gradient_35" gradientUnits="userSpaceOnUse" x1="50.400000000000006" y1="-63.4125" x2="14.099999999999998" y2="19.112500000000004" spreadMethod="pad">
<stop  offset="0%" stop-color="#FF0000" stop-opacity="0"/>

<stop  offset="97.6470588235294%" stop-color="#FF0000" stop-opacity="0.4980392156862745"/>
</linearGradient>

<linearGradient id="Gradient_36" gradientUnits="userSpaceOnUse" x1="52.0625" y1="62.95" x2="-16.962500000000002" y2="4.950000000000003" spreadMethod="pad">
<stop  offset="0%" stop-color="#FF0000" stop-opacity="0"/>

<stop  offset="97.6470588235294%" stop-color="#FF0000" stop-opacity="0.4980392156862745"/>
</linearGradient>

<linearGradient id="Gradient_37" gradientUnits="userSpaceOnUse" x1="-53.487500000000004" y1="54.6" x2="-2.7124999999999986" y2="-19.9" spreadMethod="pad">
<stop  offset="0%" stop-color="#FF0000" stop-opacity="0"/>

<stop  offset="97.6470588235294%" stop-color="#FF0000" stop-opacity="0.4980392156862745"/>
</linearGradient>

<filter id="Filter_1" x="-20%" y="-20%" width="140%" height="140%" color-interpolation-filters="sRGB">
<feColorMatrix in="SourceGraphic" type="matrix" values="0.67 0 0 0 0 0 0.67 0 0 0 0 0 0.67 0 0 0 0 0 1 0" result="result1"/>
</filter>

<filter id="Filter_2" x="-20%" y="-20%" width="140%" height="140%" color-interpolation-filters="sRGB">
<feColorMatrix in="SourceGraphic" type="matrix" values="-0.45 0 0 0 0.00784313725490196 0 0.59 0 0 1 0 0 1 0 1 0 0 0 0.13770000000000002 0" result="result1"/>
</filter>

<g id="____Personajes____Luly_Xtras_Brazoj1_0_Layer0_0_FILL">
<path fill="url(#Gradient_1)" stroke="none" d="
M 10 10.7
Q 10.1 11.05 10.35 11.3
L 9.95 9.8
Q 9.8 10.2 10 10.7 Z"/>

<path fill="url(#Gradient_2)" stroke="none" d="
M -16.4 -7.2
Q -16.65 -4.55 -15.9 -1.4 -13.9 6.75 -10.6 10.45 -7.3 14.1 1.9 14.1 6.95 14.1 10.55 12.05
L 10.35 11.3
Q 10.1 11.05 10 10.7 9.8 10.2 9.95 9.8
L 7.5 0.65
Q -0.65 0.75 -1.35 -1.35 -2.2 -3.7 -5 -11.75 -5.9 -14.3 -7 -15.55 -9.45 -18.2 -12.85 -14.7 -15.95 -11.55 -16.4 -7.2 Z"/>
</g>

<g id="____Personajes____Luly_Xtras_Brazoj1_0_Layer0_0_MEMBER_0_FILL">
<path fill="#FFFFFF" stroke="none" d="
M 10.35 13
L 10.35 12.95
Q 9.85 7.25 7.85 0.45 6.95 0.75 5.85 -0.7
L 8.3 13.5 10.35 13
M 12.55 -8.15
Q 10.65 -7.1 9.45 -2.35 8.8 0 7.85 0.45 9.85 7.25 10.35 12.95
L 10.35 13
Q 12.95 14.35 15.75 14 18.55 13.5 21.05 13.2 23.55 12.95 23.75 12.5 23.8 12 24.4 11.85 24.9 11.7 26.15 10.65 27.3 9.5 26.3 8.85 25.2 8.2 23.8 9.05 22.4 9.85 21.25 9.75 20.15 9.7 22.75 8.7 25.3 7.7 26.05 7.55 26.65 7.4 27.1 7.1 27.5 6.75 28.1 6.7 28.7 6.55 28.2 5.1 27.75 3.6 27.05 3.75 26.25 3.8 25.45 4.3
L 19.7 5.95 19.45 6.05 19.7 5.95
Q 21.35 5.2 23.6 4.25 25.95 3.1 26.1 2.75 26.25 2.3 26.1 1.45 26 0.6 25.25 0.15 24.55 -0.35 22.85 0.65 21.1 1.65 19.3 2.05
L 18.1 2.05
Q 17.65 2.65 17.4 2.05
L 18.1 2.05
Q 18.1 1.95 18.15 1.95 18.85 0.95 20.9 0.15 22.95 -0.6 23.15 -2.05 22.65 -5.2 19.65 -3.3 16.6 -1.35 13.95 -0.55
L 12.15 -0.55
Q 11.15 -1.9 12.95 -4.35 14.65 -6.8 12.55 -8.15 Z"/>
</g>

<g id="Interpol_Interpolaci_n_2_0_Layer0_0_FILL">
<path fill="url(#Gradient_3)" stroke="none" d="
M -3.7 -16.45
L -12.25 -16.4 -8.8 9.35 -0.25 7.05 -3.7 -16.45 Z"/>
</g>

<g id="Interpol_Interpolaci_n_2_0_Layer0_1_FILL">
<path fill="url(#Gradient_4)" stroke="none" d="
M -11.3 9.35
Q -11.5 10.85 -10.9 16.45 28.9 16.55 0.35 5.25 -3.75 6.2 -7.45 7.05 -11.2 7.95 -11.3 9.35 Z"/>
</g>

<g id="____Personajes____Luly_Xtras_CuerpoJ1_0_Layer0_0_FILL">
<path fill="url(#Gradient_5)" stroke="none" d="
M 15.95 -55.05
Q 9.6 -58.3 1.2 -58.8 -23.95 -60.25 -33.4 -32.75 -42.9 -5.3 -41.85 15 -40.8 35.25 -36.05 47.1 -31.35 58.9 -1 58.8 29.35 58.65 36.55 44.95 43.75 31.2 41.3 13.1 38.8 -5 32.55 -31.15 30.2 -40.95 25.25 -47.3 20.45 -51.55 15.95 -55.05 Z"/>
</g>

<g id="____Personajes____Luly_Xtras_GorroJ1_0_Layer0_0_MEMBER_0_FILL">
<path fill="url(#Gradient_6)" stroke="none" d="
M 22.65 -2.4
Q 21.75 -4.8 14.45 -4.25 7.2 -3.7 -2.15 -0.55 -11.6 2.6 -17.55 6.55 -23.55 10.45 -22.65 12.85 -21.75 15.2 -14.45 14.75 -7.2 14.15 2.25 11 11.6 7.85 17.55 3.95 23.55 -0.05 22.65 -2.4 Z"/>
</g>

<g id="____Personajes____Luly_Xtras_GorroJ1_0_Layer0_0_MEMBER_1_FILL">
<path fill="url(#Gradient_7)" stroke="none" d="
M 9.35 -1.3
L 4.95 -13.3
Q 5.25 -11.9 2.5 -9.95 -0.5 -7.8 -5.3 -6.15 -10.05 -4.55 -13.85 -4.45 -17.1 -4.35 -17.95 -5.4
L -13.35 6.7
Q -13.3 6.85 -13.25 7.05 -12.7 8.45 -9 8.35 -5.2 8.2 -0.45 6.6 4.35 4.95 7.35 2.85 9.6 1.25 9.85 0.05
L 9.35 -1.3 Z"/>

<path fill="url(#Gradient_8)" stroke="none" d="
M 4.95 -13.5
Q 4.4 -14.9 0.65 -14.8 -3.15 -14.7 -7.95 -13.05 -12.7 -11.45 -15.7 -9.3 -18.65 -7.15 -18.1 -5.75 -18.05 -5.6 -17.95 -5.4 -17.1 -4.35 -13.85 -4.45 -10.05 -4.55 -5.3 -6.15 -0.5 -7.8 2.5 -9.95 5.25 -11.9 4.95 -13.3 4.95 -13.4 4.95 -13.5 Z"/>
</g>

<g id="____Personajes____Luly_Xtras_Piernaj1_0_Layer0_0_FILL">
<path fill="url(#Gradient_9)" stroke="none" d="
M 1.2 7.25
Q 7.6140625 -11.084765625 4.5 -21.15
L -5.5 -23.75
Q 0.2998046875 -8.053125 -11.05 5.85
L 1.2 7.25 Z"/>
</g>

<g id="____Personajes____Luly_Xtras_Piernaj1_0_Layer0_1_FILL">
<path fill="url(#Gradient_10)" stroke="none" d="
M -10.8 3.85
Q -11.8 5.3 -14.4 11.5 27.8 34.25 3.9 6.05 -1 4.75 -5.4 3.55 -9.85 2.35 -10.8 3.85 Z"/>
</g>

<g id="____Personajes____Luly_Xtras_Ojo_16_Layer2_0_FILL">
<path fill="url(#Gradient_11)" stroke="none" d="
M 17.65 -13.8
Q 10.35 -21.3 0 -21.3 -10.35 -21.3 -17.7 -13.8 -25 -6.35 -25 4.2 -25 14.75 -17.7 22.25 -10.35 29.7 0 29.7 10.35 29.7 17.65 22.25 25 14.75 25 4.2 25 -6.35 17.65 -13.8 Z"/>
</g>

<g id="Mask_Mask_____Personajes____Luly_Xtras_Mascara_0_Layer0_0_FILL">
<path fill="#FFFFFF" stroke="none" d="
M -43.65 -20.4
L -43.65 20.35 43.7 20.35 43.7 -20.4 -43.65 -20.4 Z"/>
</g>

<g id="____Personajes____Luly_Xtras_Ojo_16_Layer1_0_FILL">
<path fill="#CCCCCC" stroke="none" d="
M 17.65 -13.8
Q 10.35 -21.3 0 -21.3 -10.35 -21.3 -17.7 -13.8 -25 -6.35 -25 4.2 -25 14.75 -17.7 22.25 -10.35 29.7 0 29.7 10.35 29.7 17.65 22.25 25 14.75 25 4.2 25 -6.35 17.65 -13.8 Z"/>
</g>

<g id="____Personajes____Luly_Xtras_Ojo_16_Layer1_1_FILL">
<path fill="#000000" stroke="none" d="
M 17.7 -4.9
Q 14.5 -8.3 9.95 -8.3 5.4 -8.3 2.15 -4.9 -1.05 -1.55 -1.05 3.2 -1.05 7.95 2.15 11.35 5.4 14.7 9.95 14.7 14.5 14.7 17.7 11.35 20.95 7.95 20.95 3.2 20.95 -1.55 17.7 -4.9 Z"/>
</g>

<g id="Arma1_2_Layer2_0_FILL">
<path fill="url(#Gradient_12)" stroke="none" d="
M -2 52.8
Q -1.3 53.8 -0.55 54.3 3.55 58.05 4.65 52.8
L -2 52.8 Z"/>

<path fill="url(#Gradient_13)" stroke="none" d="
M -2.5 33.5
L -2.5 34.3 -2 34.3
Q -2.2568359375 33.9361328125 -2.5 33.5 Z"/>

<path fill="url(#Gradient_14)" stroke="none" d="
M 5.2 76.75
Q 4.525 77.564453125 3.85 78.15 0.1451171875 81.485546875 -2.5 76.75
L -2.5 95.05
Q 1.95 98.95 6.45 95.05
L 5.2 76.75 Z"/>

<path fill="url(#Gradient_15)" stroke="none" d="
M 5.2 63.45
Q 5.15 63.55 5.1 63.6 2.05 68.75 -2.35 63.6 -2.45 63.55 -2.5 63.45
L -2.5 76.75
Q 0.1451171875 81.485546875 3.85 78.15 4.525 77.564453125 5.2 76.75
L 5.2 63.45 Z"/>

<path fill="url(#Gradient_16)" stroke="none" d="
M 4.75 52.8
L 4.65 52.8
Q 3.55 58.05 -0.55 54.3 -1.3 53.8 -2 52.8
L -2.5 52.8 -2.5 63.45
Q -2.45 63.55 -2.35 63.6 2.05 68.75 5.1 63.6 5.15 63.55 5.2 63.45
L 5 58.5 4.75 52.8 Z"/>

<path fill="url(#Gradient_17)" stroke="none" d="
M 4.65 34.3
L 4.45 34.3 -2 34.3
Q -1.3109375 35.3046875 -0.55 35.8 3.5361328125 39.5267578125 4.65 34.3 Z"/>

<path fill="url(#Gradient_18)" stroke="none" d="
M 5.2 44.95
Q 5.15 45.05 5.1 45.1 5.0587890625 45.1697265625 5 45.25 1.9904296875 50.1802734375 -2.35 45.1 -2.45 45.05 -2.5 44.95
L -2.5 52.8 -2 52.8 4.65 52.8 4.75 52.8 5 58.5
Q 5.0951171875 58.3765625 5.2 58.25
L 5.2 44.95 Z"/>

<path fill="url(#Gradient_19)" stroke="none" d="
M 5.2 44.95
L 4.75 34.3 4.65 34.3
Q 3.5361328125 39.5267578125 -0.55 35.8 -1.3109375 35.3046875 -2 34.3
L -2.5 34.3 -2.5 44.95
Q -2.45 45.05 -2.35 45.1 1.9904296875 50.1802734375 5 45.25 5.0587890625 45.1697265625 5.1 45.1 5.15 45.05 5.2 44.95 Z"/>

<path fill="url(#Gradient_20)" stroke="none" d="
M 4.6 9.55
Q 4.6740234375 9.263671875 4.7 8.95
L 4.75 -1.9
Q 1.125 6.297265625 -2.5 -1.9
L -2.5 8.95
Q -2.2396484375 9.2638671875 -2 9.55 3.3390625 15.6291015625 4.6 9.55 Z"/>

<path fill="url(#Gradient_21)" stroke="none" d="
M 5.15 20.2
Q 5.13203125 20.2763671875 5.1 20.35 2.0708984375 25.5193359375 -2.4 20.35 -2.4359375 20.276171875 -2.5 20.2
L -2.5 33.5
Q -2.2568359375 33.9361328125 -2 34.3
L 4.45 34.3
Q 4.8380859375 33.9341796875 5.2 33.5
L 5.15 20.2 Z"/>

<path fill="url(#Gradient_22)" stroke="none" d="
M 5.15 20.2
L 4.7 8.95
Q 4.6740234375 9.263671875 4.6 9.55 3.3390625 15.6291015625 -2 9.55 -2.2396484375 9.2638671875 -2.5 8.95
L -2.5 20.2
Q -2.4359375 20.276171875 -2.4 20.35 2.0708984375 25.5193359375 5.1 20.35 5.13203125 20.2763671875 5.15 20.2 Z"/>

<path fill="url(#Gradient_23)" stroke="none" d="
M 4.75 -1.9
L 4.75 -13.55
Q 2.2625 -7.3103515625 -2.5 -8.55
L -2.5 -1.9
Q 1.125 6.297265625 4.75 -1.9 Z"/>

<path fill="url(#Gradient_24)" stroke="none" d="
M 11.3 -43
Q 13.15 -41.1 14.15 -38.85 16.6 -26.7 10.1 -27.75 9.23203125 -27.896875 8.45 -28.1 8.3546875 -27.919140625 8.25 -27.75 7.75 -27 7.15 -26.35 5.129296875 -24.1048828125 2.3 -23.8 4.5009765625 -22.6259765625 7.55 -21.8 17.7 -19.05 19.7 -28.9 21.75 -38.8 16.15 -46.1 10.55 -53.45 1.65 -53.7 -7.3 -54 -13.8 -47.85 -20.25 -41.7 -20.25 -33 -20.25 -24.3 -13.8 -18.15 -8.9 -13.5 -2.5 -8.55 2.2625 -7.3103515625 4.75 -13.55 -5.95 -21.25 -8.05 -23.4 -12.05 -27.45 -12.05 -33.2 -12.05 -38.95 -8.05 -43 -4.05 -47.05 1.6 -47.05 7.25 -47.05 11.3 -43 Z"/>
</g>

<g id="Arma1_2_Layer1_0_FILL">
<path fill="url(#Gradient_25)" stroke="none" d="
M 9.55 -32.7
Q 9.55 -32.801171875 9.55 -32.9 9.4146484375 -36.246484375 7.15 -38.7 4.8 -41.25 1.4 -41.25 -2 -41.25 -4.4 -38.7 -6.6185546875 -36.2455078125 -6.75 -32.9 -6.75 -32.799609375 -6.75 -32.7 -6.75 -32.600390625 -6.75 -32.5 -6.75 -28.9 -4.4 -26.35 -2 -23.75 1.4 -23.75 1.55 -23.75 1.65 -23.75 1.98125 -23.76015625 2.3 -23.8 5.129296875 -24.1048828125 7.15 -26.35 7.75 -27 8.25 -27.75 8.3546875 -27.919140625 8.45 -28.1 9.55 -30.0634765625 9.55 -32.5 9.55 -32.6021484375 9.55 -32.7 Z"/>
</g>

<g id="Inrerruptor_Luz_Roja_0_Layer0_0_FILL">
<path fill="url(#Gradient_26)" stroke="none" d="
M 54.85 -120.95
L 15 -130.75 -3.6 -8.6 5.45 0.8 54.85 -120.95 Z"/>
</g>

<g id="Inrerruptor_Luz_Roja_0_Layer0_1_FILL">
<path fill="url(#Gradient_27)" stroke="none" d="
M 13.5 7.35
L 2.35 0.6 -13.85 131 27.15 130.1 13.5 7.35 Z"/>
</g>

<g id="Inrerruptor_Luz_Roja_0_Layer0_2_FILL">
<path fill="url(#Gradient_28)" stroke="none" d="
M -4 -131
L -44 -122.15 -6.75 -4.4 5.5 0.05 -4 -131 Z"/>
</g>

<g id="Inrerruptor_Luz_Roja_0_Layer0_3_FILL">
<path fill="url(#Gradient_29)" stroke="none" d="
M 108 81.1
L 127.7 45.15 14.55 -4.35 3.15 1.9 108 81.1 Z"/>
</g>

<g id="Inrerruptor_Luz_Roja_0_Layer0_4_FILL">
<path fill="url(#Gradient_30)" stroke="none" d="
M 3.65 -1.15
L -127.7 -4.7 -122.85 36.05 -2.05 10.6 3.65 -1.15 Z"/>
</g>

<g id="Inrerruptor_Luz_Roja_0_Layer0_5_FILL">
<path fill="url(#Gradient_31)" stroke="none" d="
M -64.3 -112.25
L -95.55 -85.8 -7.8 1.15 5.1 -0.6 -64.3 -112.25 Z"/>
</g>

<g id="Inrerruptor_Luz_Roja_0_Layer0_6_FILL">
<path fill="url(#Gradient_32)" stroke="none" d="
M 118.75 -58
L 93.35 -90.2 3.65 -5.3 4.95 7.65 118.75 -58 Z"/>
</g>

<g id="Inrerruptor_Luz_Roja_0_Layer0_7_FILL">
<path fill="url(#Gradient_33)" stroke="none" d="
M -19.25 -129.2
L -5.6 -6.45 5.55 0.3 21.75 -130.1 -19.25 -129.2 Z"/>
</g>

<g id="Inrerruptor_Luz_Roja_0_Layer0_8_FILL">
<path fill="url(#Gradient_34)" stroke="none" d="
M -106.4 -71.45
L -123.1 -33.95 -6.3 6.1 4.55 -1.1 -106.4 -71.45 Z"/>
</g>

<g id="Inrerruptor_Luz_Roja_0_Layer0_9_FILL">
<path fill="url(#Gradient_35)" stroke="none" d="
M 92.45 -97.05
L 58.15 -119.5 -0.1 -10.6 5.3 1.3 92.45 -97.05 Z"/>
</g>

<g id="Inrerruptor_Luz_Roja_0_Layer0_10_FILL">
<path fill="url(#Gradient_36)" stroke="none" d="
M 72.6 112.7
L 103.8 86.1 15.55 -0.35 2.65 1.5 72.6 112.7 Z"/>
</g>

<g id="Inrerruptor_Luz_Roja_0_Layer0_11_FILL">
<path fill="url(#Gradient_37)" stroke="none" d="
M -101 80.05
L -71.35 108.4 5.8 11.95 2.65 -0.7 -101 80.05 Z"/>
</g>

<g id="Layer0_7_FILL">
<path fill="#CCCCCC" fill-opacity="0" stroke="none" d="
M -64.15 -103.95
L -64.15 90.65 68.55 90.65 68.55 -103.95 -64.15 -103.95 Z"/>
</g>

<path id="____Personajes____Luly_Xtras_Brazoj1_0_Layer0_0_1_STROKES" stroke="#8C3553" stroke-width="2" stroke-linejoin="round" stroke-linecap="round" fill="none" d="
M 10.55 12.05
Q 6.95 14.1 1.9 14.1 -7.3 14.1 -10.6 10.45 -13.9 6.75 -15.9 -1.4 -16.65 -4.55 -16.4 -7.2
M -7 -15.55
Q -5.9 -14.3 -5 -11.75 -2.2 -3.7 -1.35 -1.35 -0.65 0.75 7.5 0.65"/>

<path id="____Personajes____Luly_Xtras_Brazoj1_0_Layer0_0_MEMBER_0_1_STROKES" stroke="#999999" stroke-width="1" stroke-linejoin="round" stroke-linecap="round" fill="none" d="
M 7.85 0.45
Q 8.8 0 9.45 -2.35 10.65 -7.1 12.55 -8.15 14.65 -6.8 12.95 -4.35 11.15 -1.9 12.15 -0.55
L 13.95 -0.55
Q 16.6 -1.35 19.65 -3.3 22.65 -5.2 23.15 -2.05 22.95 -0.6 20.9 0.15 18.85 0.95 18.15 1.95 18.1 1.95 18.1 2.05
L 19.3 2.05
Q 21.1 1.65 22.85 0.65 24.55 -0.35 25.25 0.15 26 0.6 26.1 1.45 26.25 2.3 26.1 2.75 25.95 3.1 23.6 4.25 21.35 5.2 19.7 5.95
L 25.45 4.3
Q 26.25 3.8 27.05 3.75 27.75 3.6 28.2 5.1 28.7 6.55 28.1 6.7 27.5 6.75 27.1 7.1 26.65 7.4 26.05 7.55 25.3 7.7 22.75 8.7 20.15 9.7 21.25 9.75 22.4 9.85 23.8 9.05 25.2 8.2 26.3 8.85 27.3 9.5 26.15 10.65 24.9 11.7 24.4 11.85 23.8 12 23.75 12.5 23.55 12.95 21.05 13.2 18.55 13.5 15.75 14 12.95 14.35 10.35 13
L 8.3 13.5 5.85 -0.7
Q 6.95 0.75 7.85 0.45 9.85 7.25 10.35 12.95
L 10.35 13
M 17.4 2.05
Q 17.65 2.65 18.1 2.05
L 17.4 2.05 Z
M 19.7 5.95
L 19.45 6.05"/>

<path id="Interpol_Interpolaci_n_2_0_Layer0_0_1_STROKES" stroke="#8C3553" stroke-width="2" stroke-linejoin="round" stroke-linecap="round" fill="none" d="
M -3.7 -16.45
L -0.25 7.05
M -12.25 -16.4
L -8.8 9.35"/>

<path id="Interpol_Interpolaci_n_2_0_Layer0_1_1_STROKES" stroke="#000000" stroke-width="2" stroke-linejoin="round" stroke-linecap="round" fill="none" d="
M -10.9 16.45
Q -11.5 10.85 -11.3 9.35 -11.2 7.95 -7.45 7.05 -3.75 6.2 0.35 5.25 28.9 16.55 -10.9 16.45 Z"/>

<path id="____Personajes____Luly_Xtras_CuerpoJ1_0_Layer0_0_1_STROKES" stroke="#8C3553" stroke-width="2" stroke-linejoin="round" stroke-linecap="round" fill="none" d="
M 41.3 13.1
Q 43.75 31.2 36.55 44.95 29.35 58.65 -1 58.8 -31.35 58.9 -36.05 47.1 -40.8 35.25 -41.85 15 -42.9 -5.3 -33.4 -32.75 -23.95 -60.25 1.2 -58.8 9.6 -58.3 15.95 -55.05 20.45 -51.55 25.25 -47.3 30.2 -40.95 32.55 -31.15 38.8 -5 41.3 13.1 Z"/>

<path id="____Personajes____Luly_Xtras_GorroJ1_0_Layer0_0_MEMBER_0_1_STROKES" stroke="#B78135" stroke-width="3" stroke-linejoin="round" stroke-linecap="round" fill="none" d="
M 22.65 -2.4
Q 23.55 -0.05 17.55 3.95 11.6 7.85 2.25 11 -7.2 14.15 -14.45 14.75 -21.75 15.2 -22.65 12.85 -23.55 10.45 -17.55 6.55 -11.6 2.6 -2.15 -0.55 7.2 -3.7 14.45 -4.25 21.75 -4.8 22.65 -2.4 Z"/>

<path id="____Personajes____Luly_Xtras_GorroJ1_0_Layer0_0_MEMBER_1_1_STROKES" stroke="#B78135" stroke-width="2" stroke-linejoin="round" stroke-linecap="round" fill="none" d="
M -17.95 -5.4
Q -18.05 -5.6 -18.1 -5.75 -18.65 -7.15 -15.7 -9.3 -12.7 -11.45 -7.95 -13.05 -3.15 -14.7 0.65 -14.8 4.4 -14.9 4.95 -13.5 4.95 -13.4 4.95 -13.3
L 9.35 -1.3
Q 9.65 -1.05 9.8 -0.7 9.95 -0.35 9.85 0.05 9.6 1.25 7.35 2.85 4.35 4.95 -0.45 6.6 -5.2 8.2 -9 8.35 -12.7 8.45 -13.25 7.05 -13.3 6.85 -13.35 6.7
L -17.95 -5.4
Q -17.1 -4.35 -13.85 -4.45 -10.05 -4.55 -5.3 -6.15 -0.5 -7.8 2.5 -9.95 5.25 -11.9 4.95 -13.3
M 9.35 -1.3
L 9.85 0.05"/>

<path id="____Personajes____Luly_Xtras_Piernaj1_0_Layer0_0_1_STROKES" stroke="#8C3553" stroke-width="2" stroke-linejoin="round" stroke-linecap="round" fill="none" d="
M 4.5 -21.15
Q 7.6140625 -11.084765625 1.2 7.25
M -5.5 -23.75
Q 0.2998046875 -8.053125 -11.05 5.85"/>

<path id="____Personajes____Luly_Xtras_Piernaj1_0_Layer0_1_1_STROKES" stroke="#000000" stroke-width="2" stroke-linejoin="round" stroke-linecap="round" fill="none" d="
M -14.4 11.5
Q -11.8 5.3 -10.8 3.85 -9.85 2.35 -5.4 3.55 -1 4.75 3.9 6.05 27.8 34.25 -14.4 11.5 Z"/>

<path id="____Personajes____Luly_Xtras_Ojo_16_Layer2_0_1_STROKES" stroke="#C64B75" stroke-width="2" stroke-linejoin="round" stroke-linecap="round" fill="none" d="
M 0 -21.3
Q 10.35 -21.3 17.65 -13.8 25 -6.35 25 4.2 25 14.75 17.65 22.25 10.35 29.7 0 29.7 -10.35 29.7 -17.7 22.25 -25 14.75 -25 4.2 -25 -6.35 -17.7 -13.8 -10.35 -21.3 0 -21.3 Z"/>

<path id="____Personajes____Luly_Xtras_Ojo_16_Layer1_0_1_STROKES" stroke="#CCCCCC" stroke-width="1" stroke-linejoin="round" stroke-linecap="round" fill="none" d="
M 0 -21.3
Q 10.35 -21.3 17.65 -13.8 25 -6.35 25 4.2 25 14.75 17.65 22.25 10.35 29.7 0 29.7 -10.35 29.7 -17.7 22.25 -25 14.75 -25 4.2 -25 -6.35 -17.7 -13.8 -10.35 -21.3 0 -21.3 Z"/>

<path id="____Personajes____Luly_Xtras_Ojo_16_Layer1_1_1_STROKES" stroke="#CCCCCC" stroke-width="5.05" stroke-linejoin="round" stroke-linecap="round" fill="none" d="
M 9.95 -8.3
Q 14.5 -8.3 17.7 -4.9 20.95 -1.55 20.95 3.2 20.95 7.95 17.7 11.35 14.5 14.7 9.95 14.7 5.4 14.7 2.15 11.35 -1.05 7.95 -1.05 3.2 -1.05 -1.55 2.15 -4.9 5.4 -8.3 9.95 -8.3 Z"/>

<path id="Arma1_2_Layer2_0_1_STROKES" stroke="#000000" stroke-opacity="0.3686274509803922" stroke-width="1" stroke-linejoin="round" stroke-linecap="round" fill="none" d="
M 8.45 -28.1
Q 9.23203125 -27.896875 10.1 -27.75 16.6 -26.7 14.15 -38.85 13.15 -41.1 11.3 -43 7.25 -47.05 1.6 -47.05 -4.05 -47.05 -8.05 -43 -12.05 -38.95 -12.05 -33.2 -12.05 -27.45 -8.05 -23.4 -5.95 -21.25 4.75 -13.55
L 4.75 -1.9 4.725 8.95 5.175 20.2 5.2 33.5
M 4.75 34.3
L 5.2 44.95 5.2 58.25
M 5 58.5
L 5.2 63.45 5.2 76.75 6.45 95.05
Q 1.95 98.95 -2.5 95.05
L -2.5 76.75 -2.5 63.45 -2.5 52.8 -2.5 44.95 -2.5 34.3 -2.5 33.5 -2.5 20.2 -2.5 8.95 -2.5 -1.9 -2.5 -8.55
Q -8.9 -13.5 -13.8 -18.15 -20.25 -24.3 -20.25 -33 -20.25 -41.7 -13.8 -47.85 -7.3 -54 1.65 -53.7 10.55 -53.45 16.15 -46.1 21.75 -38.8 19.7 -28.9 17.7 -19.05 7.55 -21.8 4.5009765625 -22.6259765625 2.3 -23.8
M -6.75 -32.9
Q -6.75 -36.5 -4.4 -39.1 -2 -41.65 1.4 -41.65 4.8 -41.65 7.15 -39.1 9.55 -36.5 9.55 -32.9
M 4.75 52.8
L 5 58.5"/>

<path id="Arma1_2_Layer1_0_1_STROKES" stroke="#000000" stroke-opacity="0.3686274509803922" stroke-width="1" stroke-linejoin="round" stroke-linecap="round" fill="none" d="
M 9.55 -32.9
Q 9.55 -32.801171875 9.55 -32.7
M -6.75 -32.7
Q -6.75 -32.799609375 -6.75 -32.9"/>
</defs>

<g transform="matrix( 0.4306640625, 0.051544189453125, -0.051544189453125, 0.4306640625, 88.7,105.3) ">
<g transform="matrix( 1, 0, 0, 1, 0,0) ">
<use filter="url(#Filter_1)" xlink:href="#____Personajes____Luly_Xtras_Brazoj1_0_Layer0_0_FILL"/>

<use filter="url(#Filter_1)" xlink:href="#____Personajes____Luly_Xtras_Brazoj1_0_Layer0_0_1_STROKES"/>
</g>

<g transform="matrix( 1, 0, 0, 1, 0,0) ">
<use filter="url(#Filter_1)" xlink:href="#____Personajes____Luly_Xtras_Brazoj1_0_Layer0_0_MEMBER_0_FILL"/>

<use filter="url(#Filter_1)" xlink:href="#____Personajes____Luly_Xtras_Brazoj1_0_Layer0_0_MEMBER_0_1_STROKES"/>
</g>
</g>

<g transform="matrix( 0.5287933349609375, 0.01605224609375, -0.01605224609375, 0.5287933349609375, 79.95,137.05) ">
<g transform="matrix( 1, 0, 0, 1, 0,0) ">
<use xlink:href="#Interpol_Interpolaci_n_2_0_Layer0_0_FILL"/>

<use xlink:href="#Interpol_Interpolaci_n_2_0_Layer0_0_1_STROKES"/>
</g>

<g transform="matrix( 1, 0, 0, 1, 0,0) ">
<use xlink:href="#Interpol_Interpolaci_n_2_0_Layer0_1_FILL"/>

<use xlink:href="#Interpol_Interpolaci_n_2_0_Layer0_1_1_STROKES"/>
</g>
</g>

<g transform="matrix( 0.53631591796875, 0, 0, 0.5290985107421875, 66.65,94.4) ">
<g transform="matrix( 1, 0, 0, 1, 0,9.1) ">
<g transform="matrix( 1, 0, 0, 1, 0,0) ">
<use xlink:href="#____Personajes____Luly_Xtras_CuerpoJ1_0_Layer0_0_FILL"/>

<use xlink:href="#____Personajes____Luly_Xtras_CuerpoJ1_0_Layer0_0_1_STROKES"/>
</g>
</g>

<g transform="matrix( 1, 0, 0, 1, -12.25,-53.1) ">
<g transform="matrix( 1, 0, 0, 1, 0,0) ">
<use xlink:href="#____Personajes____Luly_Xtras_GorroJ1_0_Layer0_0_MEMBER_0_FILL"/>

<use xlink:href="#____Personajes____Luly_Xtras_GorroJ1_0_Layer0_0_MEMBER_0_1_STROKES"/>
</g>

<g transform="matrix( 1, 0, 0, 1, 0,0) ">
<use xlink:href="#____Personajes____Luly_Xtras_GorroJ1_0_Layer0_0_MEMBER_1_FILL"/>

<use xlink:href="#____Personajes____Luly_Xtras_GorroJ1_0_Layer0_0_MEMBER_1_1_STROKES"/>
</g>
</g>
</g>

<g transform="matrix( 0.52862548828125, -0.0222015380859375, 0.0222015380859375, 0.52862548828125, 58.25,138.9) ">
<g transform="matrix( 1, 0, 0, 1, 0,0) ">
<use xlink:href="#____Personajes____Luly_Xtras_Piernaj1_0_Layer0_0_FILL"/>

<use xlink:href="#____Personajes____Luly_Xtras_Piernaj1_0_Layer0_0_1_STROKES"/>
</g>

<g transform="matrix( 1, 0, 0, 1, 0,0) ">
<use xlink:href="#____Personajes____Luly_Xtras_Piernaj1_0_Layer0_1_FILL"/>

<use xlink:href="#____Personajes____Luly_Xtras_Piernaj1_0_Layer0_1_1_STROKES"/>
</g>
</g>

<g transform="matrix( 0.5290985107421875, 0, 0, 0.5290985107421875, 74.1,89.35) ">
<g transform="matrix( 0.531341552734375, 0, 0, 0.531341552734375, 13.85,-7.2) ">
<g transform="matrix( 1, 0, 0, 1, 0,0) ">
<use xlink:href="#____Personajes____Luly_Xtras_Ojo_16_Layer2_0_FILL"/>

<use xlink:href="#____Personajes____Luly_Xtras_Ojo_16_Layer2_0_1_STROKES"/>
</g>

<mask id="Mask_Mask_1">
<g transform="matrix( 1, 0, 0, 1.37591552734375, -0.5,4.8) ">
<g transform="matrix( 1, 0, 0, 1, 0,0) ">
<use xlink:href="#Mask_Mask_____Personajes____Luly_Xtras_Mascara_0_Layer0_0_FILL"/>
</g>
</g>
</mask>

<g mask="url(#Mask_Mask_1)">
<g transform="matrix( 1, 0, 0, 1, 0,0) ">
<use xlink:href="#____Personajes____Luly_Xtras_Ojo_16_Layer1_0_FILL"/>

<use xlink:href="#____Personajes____Luly_Xtras_Ojo_16_Layer1_0_1_STROKES"/>
</g>

<g transform="matrix( 1, 0, 0, 1, 0,0) ">
<use xlink:href="#____Personajes____Luly_Xtras_Ojo_16_Layer1_1_FILL"/>

<use xlink:href="#____Personajes____Luly_Xtras_Ojo_16_Layer1_1_1_STROKES"/>
</g>
</g>
</g>

<g transform="matrix( 0.686279296875, 0, 0, 0.686279296875, -9.95,-1.9) ">
<g transform="matrix( 1, 0, 0, 1, 0,0) ">
<use xlink:href="#____Personajes____Luly_Xtras_Ojo_16_Layer2_0_FILL"/>

<use xlink:href="#____Personajes____Luly_Xtras_Ojo_16_Layer2_0_1_STROKES"/>
</g>

<mask id="Mask_Mask_2">
<g transform="matrix( 1, 0, 0, 1.37591552734375, -0.5,4.8) ">
<g transform="matrix( 1, 0, 0, 1, 0,0) ">
<use xlink:href="#Mask_Mask_____Personajes____Luly_Xtras_Mascara_0_Layer0_0_FILL"/>
</g>
</g>
</mask>

<g mask="url(#Mask_Mask_2)">
<g transform="matrix( 1, 0, 0, 1, 0,0) ">
<use xlink:href="#____Personajes____Luly_Xtras_Ojo_16_Layer1_0_FILL"/>

<use xlink:href="#____Personajes____Luly_Xtras_Ojo_16_Layer1_0_1_STROKES"/>
</g>

<g transform="matrix( 1, 0, 0, 1, 0,0) ">
<use xlink:href="#____Personajes____Luly_Xtras_Ojo_16_Layer1_1_FILL"/>

<use xlink:href="#____Personajes____Luly_Xtras_Ojo_16_Layer1_1_1_STROKES"/>
</g>
</g>
</g>
</g>

<g transform="matrix( 0.4051513671875, 0.089019775390625, -0.089019775390625, 0.4051513671875, 70.7,96.35) ">
<g transform="matrix( 1, 0, 0, 1, 0,0) ">
<use xlink:href="#Arma1_2_Layer2_0_FILL"/>

<use xlink:href="#Arma1_2_Layer2_0_1_STROKES"/>
</g>

<g transform="matrix( 1, 0, 0, 1, 0,0) ">
<use xlink:href="#Arma1_2_Layer1_0_FILL"/>

<use xlink:href="#Arma1_2_Layer1_0_1_STROKES"/>
</g>

<g transform="matrix( 0.81561279296875, 0.5767364501953125, -0.5767364501953125, 0.81561279296875, 2.6,-31.3) ">
<g transform="matrix( 1, 0, 0, 1, -0.05,0.05) ">
<g transform="matrix( 1, 0, 0, 1, 0,0) ">
<use filter="url(#Filter_2)" xlink:href="#Inrerruptor_Luz_Roja_0_Layer0_0_FILL"/>
</g>

<g transform="matrix( 1, 0, 0, 1, 0,0) ">
<use filter="url(#Filter_2)" xlink:href="#Inrerruptor_Luz_Roja_0_Layer0_1_FILL"/>
</g>

<g transform="matrix( 1, 0, 0, 1, 0,0) ">
<use filter="url(#Filter_2)" xlink:href="#Inrerruptor_Luz_Roja_0_Layer0_2_FILL"/>
</g>

<g transform="matrix( 1, 0, 0, 1, 0,0) ">
<use filter="url(#Filter_2)" xlink:href="#Inrerruptor_Luz_Roja_0_Layer0_3_FILL"/>
</g>

<g transform="matrix( 1, 0, 0, 1, 0,0) ">
<use filter="url(#Filter_2)" xlink:href="#Inrerruptor_Luz_Roja_0_Layer0_4_FILL"/>
</g>

<g transform="matrix( 1, 0, 0, 1, 0,0) ">
<use filter="url(#Filter_2)" xlink:href="#Inrerruptor_Luz_Roja_0_Layer0_5_FILL"/>
</g>

<g transform="matrix( 1, 0, 0, 1, 0,0) ">
<use filter="url(#Filter_2)" xlink:href="#Inrerruptor_Luz_Roja_0_Layer0_6_FILL"/>
</g>

<g transform="matrix( 1, 0, 0, 1, 0,0) ">
<use filter="url(#Filter_2)" xlink:href="#Inrerruptor_Luz_Roja_0_Layer0_7_FILL"/>
</g>

<g transform="matrix( 1, 0, 0, 1, 0,0) ">
<use filter="url(#Filter_2)" xlink:href="#Inrerruptor_Luz_Roja_0_Layer0_8_FILL"/>
</g>

<g transform="matrix( 1, 0, 0, 1, 0,0) ">
<use filter="url(#Filter_2)" xlink:href="#Inrerruptor_Luz_Roja_0_Layer0_9_FILL"/>
</g>

<g transform="matrix( 1, 0, 0, 1, 0,0) ">
<use filter="url(#Filter_2)" xlink:href="#Inrerruptor_Luz_Roja_0_Layer0_10_FILL"/>
</g>

<g transform="matrix( 1, 0, 0, 1, 0,0) ">
<use filter="url(#Filter_2)" xlink:href="#Inrerruptor_Luz_Roja_0_Layer0_11_FILL"/>
</g>
</g>

<g transform="matrix( -0.9940643310546875, -0.1087799072265625, 0.1087799072265625, -0.9940643310546875, 0,0) ">
<g transform="matrix( 1, 0, 0, 1, 0,0) ">
<use filter="url(#Filter_2)" xlink:href="#Inrerruptor_Luz_Roja_0_Layer0_0_FILL"/>
</g>

<g transform="matrix( 1, 0, 0, 1, 0,0) ">
<use filter="url(#Filter_2)" xlink:href="#Inrerruptor_Luz_Roja_0_Layer0_1_FILL"/>
</g>

<g transform="matrix( 1, 0, 0, 1, 0,0) ">
<use filter="url(#Filter_2)" xlink:href="#Inrerruptor_Luz_Roja_0_Layer0_2_FILL"/>
</g>

<g transform="matrix( 1, 0, 0, 1, 0,0) ">
<use filter="url(#Filter_2)" xlink:href="#Inrerruptor_Luz_Roja_0_Layer0_3_FILL"/>
</g>

<g transform="matrix( 1, 0, 0, 1, 0,0) ">
<use filter="url(#Filter_2)" xlink:href="#Inrerruptor_Luz_Roja_0_Layer0_4_FILL"/>
</g>

<g transform="matrix( 1, 0, 0, 1, 0,0) ">
<use filter="url(#Filter_2)" xlink:href="#Inrerruptor_Luz_Roja_0_Layer0_5_FILL"/>
</g>

<g transform="matrix( 1, 0, 0, 1, 0,0) ">
<use filter="url(#Filter_2)" xlink:href="#Inrerruptor_Luz_Roja_0_Layer0_6_FILL"/>
</g>

<g transform="matrix( 1, 0, 0, 1, 0,0) ">
<use filter="url(#Filter_2)" xlink:href="#Inrerruptor_Luz_Roja_0_Layer0_7_FILL"/>
</g>

<g transform="matrix( 1, 0, 0, 1, 0,0) ">
<use filter="url(#Filter_2)" xlink:href="#Inrerruptor_Luz_Roja_0_Layer0_8_FILL"/>
</g>

<g transform="matrix( 1, 0, 0, 1, 0,0) ">
<use filter="url(#Filter_2)" xlink:href="#Inrerruptor_Luz_Roja_0_Layer0_9_FILL"/>
</g>

<g transform="matrix( 1, 0, 0, 1, 0,0) ">
<use filter="url(#Filter_2)" xlink:href="#Inrerruptor_Luz_Roja_0_Layer0_10_FILL"/>
</g>

<g transform="matrix( 1, 0, 0, 1, 0,0) ">
<use filter="url(#Filter_2)" xlink:href="#Inrerruptor_Luz_Roja_0_Layer0_11_FILL"/>
</g>
</g>
</g>
</g>

<g transform="matrix( 0.4989776611328125, 0.175872802734375, -0.175872802734375, 0.4989776611328125, 59.25,110.45) ">
<g transform="matrix( 1, 0, 0, 1, 0,0) ">
<use xlink:href="#____Personajes____Luly_Xtras_Brazoj1_0_Layer0_0_FILL"/>

<use xlink:href="#____Personajes____Luly_Xtras_Brazoj1_0_Layer0_0_1_STROKES"/>
</g>

<g transform="matrix( 1, 0, 0, 1, 0,0) ">
<use xlink:href="#____Personajes____Luly_Xtras_Brazoj1_0_Layer0_0_MEMBER_0_FILL"/>

<use xlink:href="#____Personajes____Luly_Xtras_Brazoj1_0_Layer0_0_MEMBER_0_1_STROKES"/>
</g>
</g>

<g transform="matrix( 0.5290985107421875, 0, 0, 0.5290985107421875, 68.35,108.35) ">
<use xlink:href="#Layer0_7_FILL"/>
</g>
</svg>
