<svg xmlns="http://www.w3.org/2000/svg" externalresourcesrequired="true" width="150" height="155"><svg xmlns="http://www.w3.org/2000/svg" xmlns:xlink="http://www.w3.org/1999/xlink" preserveAspectRatio="none" width="150" height="155" id="frame_1"><defs><path fill="#27528D" fill-opacity="0" d="M150.1 0H0v155.5h150.1V0Z" id="b_0_0"></path><g id="a_0_1"><path fill="#27528D" d="M131.95 46.95q-15 58.75-45.95 57.25 33.15 13.4 45.95-57.25M66.1 104.2q-30.95 1.5-45.95-57.25 12.8 70.65 45.95 57.25m.3 26.6q5.25 4.05 9.65 3.55 4.4.5 9.65-3.55 5.25-4.15 11.65-.65-.25-21.3-21.3-22.4-21.05 1.1-21.3 22.4 6.4-3.5 11.65.65M38.55 18.3l15.8 31.65q2.9-2.45 5.8-4.15l-21.6-27.5m28 59q-7.7-12.4-22.35-20.45-14.65-8-24.05-25.4 5.5 17.6 19.8 27.45 14.3 9.85 22.5 21.35 8.2 11.45 6.45 23.95 5.3-14.55-2.35-26.9m-10.3 7.8q-.25-3.05-2.45-5.95-2.1-2.85-4.95-3.85-2.95-1-4.8.45-2 1.5-1.85 4.55.15 3 2.3 5.95 2.2 2.85 5.05 3.8 2.85 1 4.85-.45 1.9-1.45 1.85-4.5M11.3 72.7q-1.25 15.15 4.75 24.2 5.9 9 12.7 17.15 6.75 8.05 3.9 14.6-8.55.55-17.2-18.4.2 40.3 53.5 35-.45-.4-.75-.95-2.05-3.35-11.15-3.4-9.15-.05-13-14.3-3.85-14.35-11.2-19.05-7.4-4.75-12.9-10.8-5.5-6.05-8.65-24.05m67.4-28.45q-1.3-.2-2.65-.2-1.35 0-2.65.2-7 .95-13.65 7.45 10.75 7.4 16.3 14.65 5.55-7.25 16.3-14.65-6.65-6.5-13.65-7.45m-6.4 4.3q.1-.1.3-.1h6.85q.2 0 .3.1.15.15.15.3t-.1.3l-3.2 3.6 3.2 3.7q.1.1.1.3 0 .1-.15.25-.1.15-.3.15H72.6q-.2 0-.3-.15-.15-.15-.15-.25 0-.2.15-.3l3.2-3.7-3.2-3.6q-.15-.15-.15-.3t.15-.3m3.75 4.85-2.5 2.85h4.95l-2.45-2.85m2.45-4.1h-4.95l2.5 2.8 2.45-2.8m-16.3-4.65q3.7-1.95 7.3-2.85L55.9 13.25l6.3 31.4m14-33.35h-.3l-4.05 30.1q.45-.15.9-.2 1.65-.15 3.3-.15t3.3.15q.45.05.9.2L76.2 11.3m64.6 61.4q-3.15 18-8.65 24.05-5.5 6.05-12.9 10.8-7.35 4.7-11.2 19.05-3.85 14.25-13 14.3-9.1.05-11.15 3.4-.3.55-.75.95 52.55 3.25 53.5-35-8.65 18.95-17.2 18.4-2.85-6.55 3.9-14.6 6.8-8.15 12.7-17.15 6-9.05 4.75-24.2m-52.85-7.85q11.2-10.45 19.15-15.1 8-4.7 22.6-23.45-18.75 17.8-24.1 21.05-5.3 3.3-14.9 10.6-9.65 7.25-14.65 16-5-8.75-14.65-16-9.6-7.3-14.9-10.6-5.35-3.25-24.1-21.05Q37 45.05 45 49.75q7.95 4.65 19.15 15.1 11.15 10.4 11.9 31.95.75-21.55 11.9-31.95m19.95-8Q93.25 64.9 85.55 77.3q-7.65 12.35-2.35 26.9-1.75-12.5 6.45-23.95 8.2-11.5 22.5-21.35 14.3-9.85 19.8-27.45-9.4 17.4-24.05 25.4m-9.6 22.3q-2.2 2.9-2.45 5.95-.05 3.05 1.85 4.5 2 1.45 4.85.45 2.85-.95 5.05-3.8 2.15-2.95 2.3-5.95.15-3.05-1.85-4.55-1.85-1.45-4.8-.45-2.85 1-4.95 3.85m15.25-60.85-21.6 27.5q2.9 1.7 5.8 4.15l15.8-31.65M96.2 13.25 82.6 41.8q3.6.9 7.3 2.85l6.3-31.4Z"></path><path fill="#8CABCA" d="M48.9 72.6q-4.1-1.4-6.75.6-2.7 2.1-2.6 6.35.2 4.15 3.2 8 2.9 4 6.85 5.3 3.95 1.3 6.75-.75 2.65-2.05 2.5-6.25-.25-4.1-3.2-8.05-2.9-3.85-6.75-5.2m-6.25 1.3q2.35-1.75 5.95-.5 3.6 1.35 6.4 4.95 2.75 3.65 2.95 7.55.2 3.75-2.1 5.5-2.45 1.75-6 .6-3.65-1.25-6.45-4.95-2.8-3.6-2.95-7.55-.15-3.75 2.2-5.6m67.3-.7q-2.65-2-6.75-.6-3.85 1.35-6.75 5.2-2.95 3.95-3.2 8.05-.15 4.2 2.5 6.25 2.8 2.05 6.75.75 3.95-1.3 6.85-5.3 3-3.85 3.2-8 .1-4.25-2.6-6.35m-6.45.2q3.6-1.25 5.95.5 2.35 1.85 2.2 5.6-.15 3.95-2.95 7.55-2.8 3.7-6.45 4.95-3.55 1.15-6-.6-2.3-1.75-2.1-5.5.2-3.9 2.95-7.55 2.8-3.6 6.45-4.95h-.05Z"></path></g></defs><use xlink:href="#a_0_1"></use><use xlink:href="#b_0_0"></use></svg><svg xmlns="http://www.w3.org/2000/svg" xmlns:xlink="http://www.w3.org/1999/xlink" preserveAspectRatio="none" width="150" height="155" id="frame_2" display="none"><defs><path fill="#27528D" fill-opacity="0" d="M150.1 0H0v155.5h150.1V0Z" id="b_1_0"></path><g id="a_1_1"><path fill="#27528D" d="M21.75 51.15Q34.2 117.1 66.1 104.2q-29.85 1.5-44.35-53.05m33.65-.45q2.6-2.2 5.4-3.85l-20.65-26.1L55.4 50.7m7.5 21.8q-6.6-8-17.05-13.85-13.75-7.65-23-24 5.6 16.55 19 26 10.4 7.35 17.3 15.5Q61.2 78.6 63 81.1q7.05 10.15 6.2 20.9-.05.85-.15 1.75 4.9-13.8-2.2-25.6-1.8-2.95-3.95-5.65m-49.25 3.4-.1-.2q-1.1 13.05 3.35 21.4.5.95 1.1 1.85 5.55 8.55 12.2 16.5 2.35 2.9 3.55 5.55 1.95 4.5.5 8.45-3.1.6-6.8-2.6-4.95-4.25-9.7-14.4-.1 6 1.2 10.65 7.05 26.3 49.6 22.2-.35-.4-.6-.85-.9-1.75-3.8-2.55l-.7-.2q-.35-.1-.75-.2-2.05-.4-4.85-.4-.6 0-1.15-.05l-.6-.1q-2.65-.45-4.95-2.4-3.75-3.25-6.1-10.95-.65-2.35-1.5-4.5-3.7-9.9-9.45-13.7-1.45-1-2.85-2.1-5.2-3.85-9.3-8.45-.3-.35-.6-.75-3.7-4.7-6.25-15.4-.8-3.1-1.45-6.8m49.1-30.15q3.5-1.95 7.05-2.75L56.75 15.8l6 29.95m13.3 62q-21.05 1.1-20.3 20.45 6.3-3.2 10.85 1.55 4.6 4.75 9.45 4 5.75-.15 9.6-4.4 3.8-4.25 10.7-.95.75-19.55-20.3-20.65m59.6-19.55q-2.3 7-5.25 10.35-1.55 1.8-3.35 3.5-3.9 3.8-8.75 7.05-1.1.75-2.15 1.7-5.35 5.1-8.75 16.55-.25.7-.45 1.35-3.75 11.4-11.05 12.25-.55.1-1.15.1-2.5.05-4.4.25-.3.05-.65.1-3.95.7-5.45 2.6-.15.2-.25.35-.05.15-.15.25-.25.35-.55.65 47.4 3.05 51.15-29.1.25-1.95.2-4-7.5 16.4-15.4 17.55-.65.1-1.3.05-2.85-5.95 3.9-14.05.1-.05.25-.2 6.4-7.85 12-16.2 2.25-3.55 3.45-7.9 1.85-6.6 1.15-15.35-.5 2.8-1.15 5.25-.05.1-.1.25-.8 3.65-1.8 6.65m-5.2-37.05Q116 105.7 86.1 104.2q31.9 12.9 44.35-53.05m-1.2-16.4h-.05q-9.25 16.3-23 23.95-9.4 5.25-15.65 12.3-3.05 3.4-5.35 7.25Q78.15 90 83.1 103.8q-1.6-11.75 6.05-22.75Q90.6 79 92.3 77q7-8.65 18-16.4 13.3-9.4 18.95-25.85m-17.25-14-20.55 26.1q2.75 1.7 5.35 3.9l15.2-30m-24.05 44.1q11.2-10.45 19.15-15.1 8-4.7 21.35-22.1-17.5 16.45-22.85 19.7-5.3 3.3-14.9 10.6-9.65 7.25-14.65 16-5-8.75-14.65-16-9.6-7.3-14.9-10.6-5.35-3.25-22.85-19.45Q37 45.05 45 49.75q7.95 4.65 19.15 15.1 11.15 10.4 11.9 31.95.75-21.55 11.9-31.95M95.4 15.7 82.35 43q3.45.8 7.05 2.7 2.95-15 6-30m-3.75 36.75-.1-.1q-6.35-6.1-12.95-7.05-1.25-.15-2.5-.15h-.2q-1.15 0-2.3.15-.25.05-.4.1-1.15.15-2.3.5-5.3 1.6-10.35 6.55 8.3 5.65 13.35 11.3 1.15 1.3 2.2 2.65 1.5-2 3.45-4.05 4.75-4.9 12.1-9.9m-14.2-3.15h1.9q.4.55.35.75-1.55 1.65-3.05 3.4.85.95 1.75 1.9l1.3 1.6q.05.4-.05.55-.15.1-.3.1H72.8q-.15 0-.3-.1-.1-.15-.1-.25 0-.15.1-.3.15-.2.35-.4 1.35-1.6 2.7-3.1-1.4-1.55-2.85-3.1l-.35-.6q0-.2.15-.3 2.65-.15 4.95-.15m-.2 6.05q-.55-.65-1.15-1.3-.3.35-1.2 1.2-.6.75-1.25 1.55H78.45q-.6-.7-1.2-1.45m-.7-3q.8-.9 1.9-2.2-1.05-.05-2.85-.05-.95 0-1.95.05.95 1.05 1.9 2.05.25.3 1 .15m-.45-38.4h-.2l-3.85 28.6.9-.2q1.55-.15 3.1-.15 1.6 0 3.15.15.45.05.85.2-.6-4.5-1.2-9.05l-2.6-19.55h-.15Z"></path><path fill="#87A7C7" fill-opacity=".949" d="M49.2 73.25q-3.85-1.35-6.45.55-2.55 2-2.45 6.05.15 3.25 2.05 6.25.4.7 1 1.4 2.2 2.95 4.95 4.35.8.4 1.6.7 3.2 1.05 5.7-.25.35-.15.75-.45 2.4-1.85 2.35-5.5v-.45q-.1-2.35-1.15-4.6-.7-1.55-1.85-3.1-2.15-2.8-4.8-4.2-.75-.45-1.65-.75h-.05M55 78.7q.65.75 1.05 1.5 1.4 2.3 1.7 4.75.1.5.15 1 .15 3.35-1.8 4.95-.15.15-.25.3-2.35 1.65-5.7.55l-.8-.3q-3-1.3-5.35-4.4-.7-.95-1.25-1.9-1.4-2.45-1.6-5.1v-.25q-.15-3.55 2.1-5.3 2.5-1.6 5.7-.5 4.1 2.15 6.05 4.7m54.4-4.9q-2.55-1.9-6.45-.55-.15.05-.35.15-3.5 1.35-6.15 4.8-.4.55-.8 1.2-2.05 3.15-2.15 6.5-.2 4 2.3 5.95 2.7 1.95 6.45.7 1.2-.35 2.25-1.05 2.4-1.4 4.35-4l.4-.5q2.2-3 2.6-6.35.05-.35.05-.8.05-2.7-1.05-4.45-.55-.9-1.45-1.6M94.3 86.6v-.7q.15-3.2 2.15-6.25 3.2-4.15 6.4-5.45 3.85-1.4 6.1.25.85.7 1.35 1.7.85 1.45.75 3.6-.1 3.3-2.15 6.3-.3.45-.7.95-1.7 2.3-3.7 3.6-1.2.75-2.5 1.15-3.3 1.1-5.65-.55-2-1.55-2.05-4.6Z"></path><path fill="#27528D" fill-opacity=".949" d="M56.25 85.15q-.25-2.9-2.3-5.65-2.05-2.7-4.75-3.7-2.85-.95-4.6.4-1.9 1.5-1.8 4.4.15 2.85 2.2 5.65 2.15 2.75 4.85 3.65 2.75.95 4.65-.45 1.8-1.4 1.75-4.3m42-5.65q-2.1 2.75-2.3 5.65-.1 2.9 1.75 4.3 1.9 1.4 4.6.45 2.75-.9 4.85-3.65 2.1-2.8 2.2-5.65.15-2.9-1.75-4.4-1.8-1.35-4.6-.4-2.7 1-4.75 3.7Z"></path></g></defs><use xlink:href="#a_1_1"></use><use xlink:href="#b_1_0"></use></svg><svg xmlns="http://www.w3.org/2000/svg" xmlns:xlink="http://www.w3.org/1999/xlink" preserveAspectRatio="none" width="150" height="155" id="frame_3" display="none"><defs><path fill="#27528D" fill-opacity="0" d="M150.1 0H0v155.5h150.1V0Z" id="b_2_0"></path><g id="a_2_1"><path fill="#27528D" d="M23.4 55.3q12.05 61.35 42.7 48.9-28.8 1.45-42.7-48.9m40.1 18.35q-6.1-7.5-16-13.25-12.85-7.3-21.9-22.55 5.7 15.5 18.2 24.5 9.8 7.1 16.15 14.85 1.9 2.35 3.55 4.75 6.6 9.75 5.75 19.9-.05.7-.1 1.45 4.65-13.05-1.95-24.25-1.65-2.85-3.7-5.4m-47.55 5.2q-.05-.1-.15-.15-1.15 12.55 3.15 20.6.45.9 1 1.75 5.2 8.1 11.65 15.85 2.25 2.7 3.45 5.25 2 4.35.75 8-2.5 1-6.05-1.95-5.05-4-9.65-13.5-.4 5.1.7 8.95 6.55 25.45 47.4 21.65-.3-.35-.5-.75-.65-1.55-3.1-2.3-.3-.15-.65-.2-.3-.2-.65-.25-2-.4-4.75-.5-.5-.05-1.05-.1-.25-.05-.55-.1-2.45-.35-4.8-2.15Q48.6 136 46.1 128.6q-.75-2.2-1.55-4.2-3.8-9.35-9.15-13.15-1.4-1-2.7-2-4.9-3.85-8.75-8.35-.3-.35-.55-.7-3.55-4.6-6.05-14.8-.75-3-1.4-6.55M61.4 47.9 41.8 23.1l14.6 28.3q2.35-1.9 5-3.5m1.9-1.1q3.4-1.85 6.7-2.65l-12.4-25.8 5.7 28.45m12.75 60.95q-21.05 1.1-19.3 18.55 6.15-3.05 10.1 2.4 3.9 5.4 9.2 4.5 7.1-.9 9.5-5.25 2.45-4.4 9.8-1.35 1.75-17.75-19.3-18.85M135.4 83.9q-.8 3.55-1.75 6.45-2.15 6.7-4.95 10-1.5 1.8-3.15 3.4-3.7 3.65-8.2 6.9-1.05.75-2 1.7-5.05 4.9-8.6 15.8l-.5 1.3q-3.95 10.8-10.7 11.65-.55.05-1.15.05-2.45.05-4.15.25-.3.05-.65.15-3.75.65-5.25 2.45-.1.2-.25.35-.1.15-.15.25-.2.35-.5.65 45.55 3 49.15-27.85.15-1.6.1-3.35-7.05 15.45-15 16.7-.65.1-1.3.05-2.85-5.25 3.85-13.35.15-.15.3-.25 6.25-7.6 11.5-15.55 2.25-3.4 3.4-7.5 1.85-6.4 1.15-14.8-.5 2.35-1.05 4.4-.05.1-.15.15m-6.45-28.6Q115 105.65 86.2 104.2q30.6 12.45 42.75-48.9m-2.4-17.45-.1.1q-9.1 15.25-21.9 22.5-9 5.2-14.75 11.85-2.75 3.25-4.9 6.9-6.55 11.2-1.9 24.25-1.45-11.05 5.7-21.6 1.35-1.95 2.85-3.85 6.5-8.2 16.8-15.7 12.55-9 18.2-24.45m-16.1-14.75L90.9 48q2.65 1.55 4.9 3.65l14.65-28.55m-22.5 41.75q11.2-10.45 19.15-15.1 8-4.7 20.1-20.75-16.25 15.1-21.6 18.35-5.3 3.3-14.9 10.6-9.65 7.25-14.65 16-5-8.75-14.65-16-9.6-7.3-14.9-10.6-5.35-3.25-21.6-17.8Q37 45.05 45 49.75q7.95 4.65 19.15 15.1 11.15 10.4 11.9 31.95.75-21.55 11.9-31.95m6.6-46.65-12.4 25.95q3.25.8 6.65 2.6 2.85-14.3 5.75-28.55m-3.7 35q-.05-.05-.05-.1-6-5.8-12.3-6.65-1.15-.2-2.35-.2h-.2q-1.1 0-2.2.2-.2 0-.35.05-1.05.1-2.2.45-5 1.55-9.8 6.25 7.85 5.35 12.6 10.7 1.15 1.25 2.15 2.5 1.4-1.85 3.3-3.75 4.5-4.75 11.4-9.45m-13.45-3h1.8q.4.55.3.65-1.35 1.6-2.8 3.25.8.9 1.65 1.85l1.2 1.5q.1.35-.05.5-.1.15-.25.15H73q-.15 0-.25-.1-.1-.15-.1-.25 0-.15.1-.25l.3-.4q1.25-1.5 2.5-2.95-1.25-1.5-2.6-2.95l-.35-.6q0-.15.05-.25 2.55-.15 4.75-.15M75 55.85l-1.2 1.4h.05l2.5.1q.7-.05 2.05-.05-.6-.7-1.15-1.35l-1.1-1.3q-.3.35-1.15 1.2m1.55-2.7q.8-.85 1.85-2.15h-4.6q.9 1 1.75 2 .35.3 1 .15m-.4-36.55h-.2L72.3 43.7l.8-.15q1.5-.15 3-.15 1.45 0 2.95.15.4.05.8.15-.55-4.25-1.1-8.55l-2.5-18.55h-.1Z"></path><path fill="#82A2C4" fill-opacity=".898" d="M49.55 73.9h-.05q-3.65-1.3-6.1.5-2.45 1.95-2.35 5.8.1 3.05 1.95 5.9.4.7.95 1.35 2.05 2.8 4.7 4.1.8.4 1.55.65 3.1 1.05 5.45-.15.35-.2.7-.5 2.3-1.7 2.25-5.2v-.45q-.1-2.2-1.1-4.3-.65-1.55-1.8-3-2-2.7-4.55-4-.75-.4-1.6-.7M57.7 85q.1.45.15.95.1 3.15-1.75 4.75-.15.1-.2.2-2.25 1.65-5.45.6-.4-.15-.75-.25-2.9-1.3-5.15-4.25-.65-.9-1.15-1.8-1.35-2.3-1.6-4.85v-.2q-.05-3.4 2.05-5.1 2.45-1.5 5.45-.45 3.9 2.05 5.8 4.45.55.7 1 1.45 1.3 2.2 1.6 4.5m45.05-11.1q-.2 0-.45.1-3.25 1.3-5.75 4.6l-.8 1.1q-1.9 3.05-2.1 6.2-.1 3.8 2.25 5.65 2.55 1.85 6.15.65 1.15-.3 2.15-.95 2.25-1.3 4.15-3.8.2-.25.35-.45 2.15-2.85 2.5-6.05.05-.35.05-.75 0-2.55-1.05-4.3-.5-.8-1.3-1.5-2.45-1.8-6.15-.5m-8.3 12.65v-.6Q94.6 82.9 96.5 80q3.05-4 6.1-5.25 3.65-1.25 5.8.3.85.65 1.35 1.6.75 1.4.7 3.4-.15 3.15-2.1 6-.3.45-.65.95-1.6 2.15-3.55 3.4-1.1.7-2.3 1.1-3.2 1.05-5.45-.6-1.9-1.45-1.95-4.35Z"></path><path fill="#27528D" fill-opacity=".898" d="M56.25 85.2q-.2-2.75-2.2-5.4-1.95-2.55-4.55-3.45-2.65-.9-4.4.4-1.8 1.35-1.65 4.1.1 2.75 2.1 5.45 2 2.55 4.6 3.4 2.6.9 4.45-.4 1.7-1.3 1.65-4.1m42-5.4q-2.05 2.65-2.2 5.4-.1 2.8 1.65 4.1 1.8 1.3 4.4.4 2.65-.85 4.65-3.4 1.95-2.7 2.05-5.45.2-2.75-1.65-4.1-1.7-1.3-4.4-.4-2.6.9-4.5 3.45Z"></path></g></defs><use xlink:href="#a_2_1"></use><use xlink:href="#b_2_0"></use></svg><svg xmlns="http://www.w3.org/2000/svg" xmlns:xlink="http://www.w3.org/1999/xlink" preserveAspectRatio="none" width="150" height="155" id="frame_4" display="none"><defs><path fill="#27528D" fill-opacity="0" d="M150.1 0H0v155.5h150.1V0Z" id="b_3_0"></path><g id="a_3_1"><path fill="#27528D" d="M25 59.5q11.75 56.6 41.1 44.7-27.75 1.35-41.1-44.7m35.75 18.8q1.75 2.25 3.25 4.55 6.1 9.35 5.35 18.75 0 .6-.1 1.2 4.35-12.25-1.75-22.85-1.55-2.7-3.45-5.15-5.55-7.05-14.85-12.65-11.95-6.9-20.9-21.05 5.8 14.45 17.4 22.95Q54.9 71 60.75 78.3M18.2 81.8l-.1-.2q-1.2 12.1 2.8 19.8.5.85 1 1.75 4.9 7.6 11.1 15.15 2.15 2.6 3.35 5.05 2 4.1 1.05 7.6-1.9 1.35-5.4-1.4-5.1-3.8-9.6-12.6-.55 4.2.3 7.25 5.95 24.65 45.15 21.15-.25-.35-.35-.7-.45-1.4-2.45-2.1l-.6-.2q-.3-.2-.65-.3-1.85-.45-4.45-.6-.5 0-1.05-.05l-.5-.1q-2.3-.4-4.65-2-3.35-2.65-6.05-9.65-.8-2.05-1.6-4-3.85-8.85-8.85-12.55-1.3-1-2.55-2-4.55-3.8-8.15-8.1-.25-.35-.55-.7-3.4-4.5-5.8-14.2-.75-2.95-1.4-6.3m43.85-32.85L43.4 25.55l14.05 26.6q2.05-1.7 4.6-3.2m1.75-1.1q3.3-1.8 6.4-2.55L58.45 20.9l5.35 26.95m12.25 59.9q-21.05 1.1-18.3 16.6 5.95-2.8 9.3 3.3 3.3 6.1 9 4.95 8.45-1.55 9.5-6.05.95-4.55 8.8-1.75 2.75-15.95-18.3-17.05m57.4-21.45q-.85 3.35-1.75 6.2-2.1 6.4-4.7 9.65-1.4 1.7-2.9 3.25-3.5 3.6-7.7 6.8-.95.75-1.9 1.65-4.7 4.75-8.4 15.05-.3.65-.5 1.25-4.1 10.3-10.4 11.05-.55.1-1.1.1-2.4.1-4 .3l-.6.1q-3.65.65-5 2.35-.2.2-.25.35-.1.15-.2.2-.15.35-.45.65 43.75 3 47.15-26.65.1-1.25-.05-2.65-6.6 14.5-14.6 15.85-.65.1-1.25.1-2.8-4.65 3.9-12.75.15-.1.25-.25 6.1-7.4 11.05-14.9 2.15-3.3 3.3-7.2 1.8-6.05 1.15-14.15-.4 1.9-1 3.45-.05.1-.05.2m-6.05-26.8q-13.35 46.05-41.1 44.7 29.35 11.9 41.1-44.7M88.15 82.65q1.25-1.85 2.7-3.65 5.95-7.75 15.65-15.05Q118 55.5 123.8 41.2q-9 14.1-20.9 21.1-8.5 5.05-13.8 11.3-2.6 3.1-4.55 6.6-6 10.55-1.6 22.9-1.35-10.3 5.2-20.45m20.7-57.1L90.35 49.1q2.55 1.5 4.55 3.35l13.95-26.9m-20.9 39.3q11.2-10.45 19.15-15.1 8-4.7 18.8-19.4-14.95 13.75-20.3 17-5.3 3.3-14.9 10.6-9.65 7.25-14.65 16-5-8.75-14.65-16-9.6-7.3-14.9-10.6-5.35-3.25-20.35-16.2Q37 45.05 45 49.75q7.95 4.65 19.15 15.1 11.15 10.4 11.9 31.95.75-21.55 11.9-31.95m5.85-44.2L81.95 45.3q3 .75 6.35 2.5 2.7-13.6 5.5-27.15m-3.7 33.3q-.05-.05-.05-.1-5.7-5.5-11.6-6.35-1.1-.15-2.25-.15h-.15q-1.1 0-2.1.15-.2.05-.35.05-1.05.15-2.1.5-4.7 1.4-9.3 5.9h.05q7.4 5.05 11.95 10.1 1.05 1.15 2 2.35 1.35-1.75 3.1-3.55 4.3-4.45 10.8-8.9m-12.75-2.9h1.75q.35.5.3.65-1.3 1.55-2.65 3.1l1.5 1.7q.6.7 1.2 1.45.05.35-.05.5-.1.05-.3.05-1.85.05-3.7.05h-2.15q-.15 0-.25-.1-.15-.1-.15-.2 0-.15.15-.25.1-.2.3-.35 1.15-1.45 2.35-2.8-1.3-1.45-2.55-2.85l-.35-.5q0-.15.15-.25 2.35-.2 4.45-.2m-2.2 5.35-1.2 1.4q1.25 0 2.45.05.65-.05 1.9-.05-.5-.65-1.05-1.3-.5-.6-1.05-1.2-.3.35-1.05 1.1m1.4-2.5q.75-.85 1.8-2.05-1-.05-2.6-.05-.85 0-1.8.05l1.7 1.9q.25.25.9.15m-.35-34.7H76l-3.5 25.7.8-.2q1.4-.1 2.8-.1t2.8.15q.45 0 .8.15-.55-4.05-1.05-8.05L76.3 19.2h-.1Z"></path><path fill="#7D9EC1" fill-opacity=".851" d="M58.5 86.35v-.45q-.1-2.05-1.05-4.1-.65-1.45-1.7-2.8-1.95-2.55-4.35-3.85-.7-.35-1.55-.65-3.55-1.2-5.8.5-2.35 1.85-2.25 5.5.1 2.95 1.85 5.65.4.65.9 1.25 2 2.65 4.5 3.9.7.4 1.45.65 2.9.95 5.15-.2.35-.2.7-.45 2.2-1.65 2.15-4.95m-.85-1.25q.05.4.1.9.15 3-1.65 4.5l-.2.2q-2.15 1.5-5.15.55-.4-.15-.75-.3-2.75-1.15-4.9-3.95-.6-.85-1.1-1.7-1.25-2.2-1.5-4.65v-.2q-.05-3.25 1.95-4.85 2.3-1.4 5.15-.4 3.75 1.9 5.55 4.2.5.7.95 1.35 1.25 2.15 1.55 4.35m36.25.8v.05q-.15 3.6 2.15 5.35 2.4 1.75 5.8.65 1.05-.35 2-.95 2.25-1.25 4-3.6.2-.2.35-.4 2.05-2.8 2.35-5.75.05-.35.05-.75 0-2.45-1-4.05-.5-.8-1.25-1.45-2.35-1.7-5.85-.5-.2.05-.4.15-3.1 1.2-5.5 4.35-.45.5-.75 1.05Q94 82.9 93.9 85.9m.7.05q.15-2.9 1.95-5.65 2.9-3.75 5.8-4.95 3.5-1.2 5.55.25.8.65 1.25 1.5.75 1.35.7 3.3-.15 3-1.95 5.7-.3.4-.65.9-1.55 2-3.4 3.2-1.05.7-2.25 1.05-3 .95-5.15-.55-1.8-1.4-1.85-4.15v-.6Z"></path><path fill="#27528D" fill-opacity=".851" d="M56.25 85.25q-.2-2.6-2.1-5.1-1.8-2.45-4.3-3.35-2.6-.8-4.2.4-1.7 1.35-1.6 3.95.15 2.6 2 5.15 1.9 2.4 4.4 3.25 2.45.85 4.2-.4 1.65-1.25 1.6-3.9m41.95-5.1q-1.9 2.5-2.05 5.1-.1 2.65 1.6 3.9 1.7 1.25 4.2.4 2.45-.85 4.35-3.25 1.85-2.55 2-5.15.1-2.6-1.6-3.95-1.6-1.2-4.15-.4-2.55.9-4.35 3.35Z"></path></g></defs><use xlink:href="#a_3_1"></use><use xlink:href="#b_3_0"></use></svg><svg xmlns="http://www.w3.org/2000/svg" xmlns:xlink="http://www.w3.org/1999/xlink" preserveAspectRatio="none" width="150" height="155" id="frame_5" display="none"><defs><path fill="#27528D" fill-opacity="0" d="M150.1 0H0v155.5h150.1V0Z" id="b_4_0"></path><g id="a_4_1"><path fill="#27528D" d="M26.6 63.7q11.4 51.9 39.5 40.5-26.7 1.3-39.5-40.5m31.85-10.8q1.8-1.45 4.2-2.85L45 27.9l13.45 25m3.05 26.45q1.65 2.2 3.05 4.35 5.55 8.9 4.9 17.75 0 .45-.05.95 3.95-11.6-1.55-21.6-1.4-2.5-3.2-4.85-5.1-6.6-13.85-12.05-11-6.55-19.75-19.55Q37 57.75 47.6 65.8q8.6 6.65 13.9 13.55M21.85 90.8q-.75-2.8-1.4-6.05-.05-.05-.1-.15-1.25 11.55 2.6 18.9.45.9.9 1.7 4.55 7.2 10.55 14.55 2.05 2.4 3.25 4.75 2.05 3.95 1.35 7.2-1.3 1.7-4.75-.8-5.2-3.55-9.5-11.75-.8 3.35-.2 5.6 5.45 23.85 42.9 20.6-.15-.25-.25-.6-.15-1.25-1.65-1.85-.3-.15-.6-.25-.3-.2-.6-.3-1.75-.55-4.2-.7-.55 0-1-.1-.3-.05-.55-.1-2.05-.35-4.45-1.75-3.2-2.4-6.05-9-.8-1.95-1.65-3.75-3.9-8.35-8.55-12-1.25-1-2.35-2-4.25-3.7-7.6-7.9-.3-.3-.55-.65-3.2-4.4-5.55-13.6m42.5-41.9q3.2-1.7 6.1-2.4L59.3 23.45l5.05 25.45m67.05 39.75q-.8 3.25-1.7 6-2 6.05-4.45 9.25-1.3 1.7-2.7 3.2-3.25 3.5-7.1 6.65-.9.75-1.75 1.6-4.35 4.6-8.25 14.35-.3.6-.5 1.15-4.3 9.75-10.1 10.5-.55.05-1.05.05-2.35.1-3.8.3l-.6.1q-3.45.65-4.85 2.3-.1.2-.25.35-.05.15-.1.2-.2.3-.5.6 41.95 3 45.2-25.4.05-.95-.2-2-6.2 13.5-14.25 15.05-.55.1-1.1.1-2.8-4.1 3.9-12.15l.2-.2q5.9-7.2 10.6-14.3 2.1-3.2 3.15-6.8 1.85-5.8 1.25-13.55-.4 1.4-.95 2.55-.05.1-.1.1m-5.5-24.95q-12.8 41.8-39.5 40.5 28.05 11.4 39.5-40.5m-4.75-19.35-.05.05q-8.85 13.05-19.85 19.65-8 5-12.85 10.85-2.4 2.95-4.15 6.25-5.45 10-1.35 21.55-1.25-9.55 4.8-19.2 1.1-1.8 2.45-3.5 5.45-7.35 14.5-14.35 10.6-8 16.5-21.3M89.8 50.2q2.4 1.4 4.15 3.1l13.35-25.4-17.5 22.3m-1.85 14.65q11.2-10.45 19.15-15.1 8-4.7 17.55-18.05-13.7 12.4-19.05 15.65-5.3 3.3-14.9 10.6-9.65 7.25-14.65 16-5-8.75-14.65-16-9.6-7.3-14.9-10.6-5.35-3.25-19.1-14.55Q37 45.05 45 49.75q7.95 4.65 19.15 15.1 11.15 10.4 11.9 31.95.75-21.55 11.9-31.95m5-41.75L81.7 46.5q2.85.65 6.1 2.3 2.55-12.85 5.15-25.7M89.4 54.65q-.05-.05-.1-.05-5.35-5.2-10.95-6-1.05-.1-2.15-.1h-.1q-1.05 0-2 .1l-.3.1q-1 .1-2 .4-4.45 1.35-8.75 5.55 7.05 4.8 11.25 9.6 1.05 1.1 1.9 2.2 1.3-1.7 2.95-3.4 4.05-4.2 10.25-8.4M77.35 52h1.6q.4.4.3.55-1.25 1.4-2.45 2.95.7.75 1.4 1.6.6.7 1.1 1.35.1.3-.05.45-.1.1-.2.1-1.8.05-3.55.05-1.05 0-2.05.05-.15 0-.25-.15-.1-.1-.1-.2 0-.15.1-.25.1-.15.25-.35 1.15-1.3 2.25-2.6-1.2-1.35-2.4-2.65l-.3-.55q0-.1.05-.25 2.3-.1 4.3-.1m-2.1 5q-.6.6-1.15 1.3l2.3.1q.6 0 1.8-.05-.4-.6-.9-1.25-.5-.6-1.05-1.15-.3.3-1 1.05m1.3-2.35q.75-.8 1.7-2H75.8q-.85 0-1.7.05.8.95 1.6 1.8.25.3.85.15M76.2 21.8h-.15L72.7 46.05l.75-.15q1.35-.15 2.65-.15 1.35 0 2.7.15.35.05.7.15-.45-3.8-.95-7.55l-2.2-16.7h-.15m-8.95 104.8q2.65 6.75 8.8 5.4 9.8-2.25 9.4-6.9-.45-4.65 7.9-2.05 3.75-14.2-17.3-15.3-21.05 1.1-17.3 14.65 5.85-2.55 8.5 4.2Z"></path><path fill="#7899BE" fill-opacity=".8" d="M58.4 85.95q-.1-2-1.05-3.95-.6-1.35-1.6-2.65-1.85-2.35-4.1-3.55-.7-.4-1.45-.65h-.05q-3.3-1.15-5.5.5-2.2 1.75-2.15 5.2.1 2.75 1.8 5.3.4.6.85 1.25 1.85 2.5 4.25 3.65.7.35 1.4.6 2.8.9 4.85-.2.35-.2.7-.45 2.05-1.55 2.05-4.65v-.4m-2.3-4.9q1.2 2 1.45 4.1.1.4.1.85.15 2.85-1.55 4.3-.1.05-.2.15-2.05 1.45-4.9.5-.35-.05-.7-.25-2.6-1.05-4.6-3.75-.6-.8-1.05-1.55-1.25-2.15-1.4-4.4v-.2q-.15-3.05 1.8-4.6 2.2-1.35 4.9-.4 3.55 1.85 5.25 4 .5.65.9 1.25m40.55-1.7q-.4.5-.7 1.05-1.75 2.7-1.9 5.55-.15 3.4 2.1 5.1 2.25 1.65 5.45.6 1-.3 1.95-.85 2.1-1.2 3.8-3.4.15-.25.3-.45 1.95-2.6 2.25-5.4.05-.4.05-.75 0-2.3-.95-3.8-.5-.8-1.25-1.4-2.2-1.6-5.5-.45-.2.05-.35.1-2.95 1.2-5.25 4.1m-1.85 7.2V86q.1-2.8 1.8-5.35 2.75-3.55 5.55-4.7 3.3-1.15 5.25.25.7.6 1.15 1.45.75 1.2.65 3.05-.1 2.85-1.8 5.4-.3.4-.65.85-1.45 1.95-3.2 3.05-1 .6-2.15.95-2.85.95-4.85-.5-1.7-1.3-1.75-3.9Z"></path><path fill="#27528D" fill-opacity=".8" d="M56.25 85.3q-.15-2.45-2-4.8-1.75-2.35-4.1-3.15-2.4-.8-3.95.4-1.65 1.2-1.5 3.65.1 2.5 1.9 4.9 1.8 2.35 4.15 3.05 2.3.85 3.95-.35 1.6-1.2 1.55-3.7m41.95-4.8q-1.85 2.35-2 4.8-.05 2.5 1.55 3.7 1.6 1.2 3.95.35 2.35-.7 4.15-3.05 1.8-2.4 1.9-4.9.15-2.45-1.5-3.65-1.55-1.2-4-.4-2.3.8-4.05 3.15Z"></path></g></defs><use xlink:href="#a_4_1"></use><use xlink:href="#b_4_0"></use></svg><svg xmlns="http://www.w3.org/2000/svg" xmlns:xlink="http://www.w3.org/1999/xlink" preserveAspectRatio="none" width="150" height="155" id="frame_6" display="none"><defs><path fill="#27528D" fill-opacity="0" d="M150.1 0H0v155.5h150.1V0Z" id="b_5_0"></path><g id="a_5_1"><path fill="#27528D" d="M28.2 67.85q11.05 47.2 37.9 36.35-25.6 1.25-37.9-36.35m31.3-14.2q1.55-1.2 3.8-2.6l-16.65-20.7 12.85 23.3m2.85 26.8q1.45 2.05 2.7 4.1 5.1 8.55 4.45 16.65v.7q3.7-10.8-1.35-20.25-1.25-2.35-2.85-4.55-4.65-6.1-12.85-11.4-10.1-6.25-18.7-18.1Q39.8 59.9 49.5 67.5q8 6.45 12.85 12.95M24.1 93.5q-.75-2.7-1.4-5.8l-.1-.1q-1.25 11.05 2.35 18.05.45.8.9 1.65 4.15 6.7 10 13.85 1.9 2.3 3.05 4.5 2.1 3.75 1.7 6.8-.7 2.1-4.1-.2-5.3-3.3-9.5-10.9-.95 2.55-.6 3.95 4.95 23.05 40.7 20.1-.1-.25-.15-.5.1-1.1-1-1.65l-.5-.3q-.25-.2-.55-.3-1.65-.6-4-.8-.5-.05-1-.15-.2 0-.45-.05-1.9-.3-4.25-1.6-3.1-2.1-6.1-8.3-.8-1.85-1.7-3.55-3.95-7.8-8.25-11.4-1.15-1-2.15-2-3.95-3.6-7.1-7.65l-.5-.7q-3-4.25-5.3-12.95m46.65-45.85L60.15 26l4.8 24q2.95-1.7 5.8-2.35m5.3 60.1q-21.05 1.1-16.8 13.95 5.4-3.75 8.5 2.55 3.05 6.25 8.55 4.85 8.45-2.15 8.8-6.05.35-4 8.25-.85 3.75-13.35-17.3-14.45m53.3-16.7q-.75 3.1-1.65 5.7-1.9 5.8-4.2 8.95-1.15 1.65-2.45 3.1-3 3.4-6.6 6.55-.8.7-1.6 1.55-4 4.45-8.05 13.55l-.55 1.1q-4.45 9.2-9.8 9.9-.5.1-.95.1-2.3.15-3.65.3-.3.05-.5.1-3.3.65-4.65 2.15-.15.2-.25.4l-.15.15q-.15.3-.4.6 40.05 2.95 43.1-24.1 0-.65-.25-1.4-5.8 12.5-13.85 14.25-.55.05-1.05.05-2.85-3.45 3.9-11.5.05-.1.2-.2 5.7-6.95 10.1-13.6 2-3.1 3.05-6.55 1.8-5.5 1.25-12.9-.4 1-.9 1.65l-.1.1m-4.95-23.2q-12.3 37.6-37.9 36.35 26.8 10.85 37.9-36.35m-6-20.25-.05.05q-8.7 11.9-18.8 18.2-7.5 4.85-11.85 10.35-2.2 2.8-3.8 5.9-4.9 9.4-1.1 20.2-1.1-8.8 4.4-18.05 1.05-1.65 2.2-3.3 4.95-6.8 13.4-13.6 9.7-7.55 15.6-19.75m-29.1 3.7q2.25 1.35 3.7 2.85l12.75-23.8L89.3 51.3m-1.35 13.55q11.2-10.45 19.15-15.1 8-4.7 16.3-16.7-12.45 11.05-17.8 14.3-5.3 3.3-14.9 10.6-9.65 7.25-14.65 16-5-8.75-14.65-16-9.6-7.3-14.9-10.6-5.35-3.25-17.85-12.95Q37 45.05 45 49.75q7.95 4.65 19.15 15.1 11.15 10.4 11.9 31.95.75-21.55 11.9-31.95m4.2-39.25L81.5 47.65q2.65.6 5.75 2.25 2.4-12.2 4.9-24.3m-3.5 29.8-.1-.1q-5-4.9-10.3-5.6-.95-.15-2-.15h-.1q-.95 0-1.85.15-.2.05-.35.05-.9.1-1.8.4-4.25 1.25-8.25 5.25 6.6 4.5 10.6 9 .95 1.05 1.75 2.1 1.25-1.6 2.8-3.25 3.8-3.9 9.6-7.85M77.3 52.85h1.5q.35.45.3.55-1.15 1.35-2.25 2.8.65.7 1.3 1.5.55.6 1 1.25.1.3 0 .45-.1.05-.25.05-1.65.05-3.35.05-.95.05-1.9.05-.1 0-.2-.1t-.1-.2q0-.15.1-.2.15-.2.2-.3 1.1-1.25 2.1-2.55-1.15-1.25-2.25-2.5l-.3-.45q0-.15.1-.25 2.1-.15 4-.15m-2 4.7q-.55.6-1.05 1.2 1.1.1 2.2.15.55 0 1.7-.05-.4-.6-.85-1.15-.45-.55-1-1.1-.25.25-1 .95m1.3-2.15q.7-.75 1.6-1.85-.85-.05-2.3-.05-.85 0-1.65.1.8.85 1.55 1.65.25.3.8.15m-.4-30.95h-.1L72.95 47.2l.7-.1q1.25-.15 2.5-.15t2.5.15l.7.1-.9-7.1-2.1-15.65h-.15Z"></path><path fill="#7395BB" fill-opacity=".749" d="M58.25 86q-.05-1.9-.95-3.75-.55-1.25-1.5-2.5-1.75-2.25-3.9-3.35-.65-.35-1.35-.6h-.05q-3.15-1.05-5.2.45-2.15 1.65-2.05 4.9.1 2.65 1.7 5.05.35.55.8 1.15 1.8 2.3 4.05 3.45.65.35 1.35.55 2.55.85 4.55-.15.35-.2.65-.45 1.95-1.45 1.9-4.4V86m-.7-.8q0 .45.05.85.1 2.65-1.5 4-.1.1-.15.2-1.95 1.35-4.65.45-.35-.1-.65-.2-2.45-1.05-4.35-3.55-.6-.75-1.05-1.5-1.2-1.95-1.3-4.15v-.2q-.1-2.85 1.7-4.3 2.05-1.3 4.65-.35 3.35 1.65 5 3.75.45.55.8 1.15 1.15 1.85 1.45 3.85m39.2-5.45q-.4.5-.7.95-1.65 2.6-1.8 5.3-.1 3.25 1.95 4.8 2.2 1.55 5.25.55.9-.3 1.75-.8 2-1.15 3.65-3.2.15-.25.25-.4 1.9-2.45 2.15-5.15.05-.35.05-.65.05-2.2-.95-3.65-.4-.7-1.1-1.25-2.1-1.5-5.25-.45-.15 0-.35.1-2.8 1.1-4.9 3.85M94.9 86.5V86q.15-2.6 1.8-5.05 2.6-3.35 5.2-4.4 3.1-1.05 4.95.25.7.55 1.15 1.3.7 1.2.6 2.95-.1 2.7-1.75 5.05-.25.4-.55.85-1.45 1.8-3.1 2.85-.95.6-1.95.9-2.7.9-4.65-.45Q95 89 94.9 86.5Z"></path><path fill="#27528D" fill-opacity=".749" d="M56.3 85.4q-.2-2.35-1.95-4.55-1.6-2.2-3.85-3-2.25-.75-3.75.35-1.55 1.15-1.4 3.5.05 2.35 1.75 4.6 1.7 2.2 3.95 2.95 2.2.7 3.75-.4 1.5-1.1 1.5-3.45m41.85-4.55q-1.7 2.2-1.85 4.55-.1 2.35 1.45 3.45t3.75.4q2.25-.75 3.95-2.95 1.65-2.25 1.75-4.6.15-2.35-1.4-3.5-1.5-1.1-3.8-.35-2.2.8-3.85 3Z"></path></g></defs><use xlink:href="#a_5_1"></use><use xlink:href="#b_5_0"></use></svg><svg xmlns="http://www.w3.org/2000/svg" xmlns:xlink="http://www.w3.org/1999/xlink" preserveAspectRatio="none" width="150" height="155" id="frame_7" display="none"><defs><path fill="#27528D" fill-opacity="0" d="M150.1 0H0v155.5h150.1V0Z" id="b_6_0"></path><g id="a_6_1"><path fill="#27528D" d="M29.85 72.05Q40.5 114.6 66.1 104.2q-24.6 1.2-36.25-32.15m30.6-17.65q1.35-.95 3.5-2.3l-15.7-19.35 12.2 21.65m2.65 27.15q1.35 1.95 2.5 3.85 4.6 8.1 3.95 15.65.05.2.05.45 3.4-10.15-1.1-18.95-1.15-2.25-2.6-4.3-4.15-5.65-11.8-10.8-9.2-5.9-17.65-16.65 6.2 11.25 15 18.45 7.4 6.2 11.65 12.3m-36.7 14.6q-.75-2.55-1.4-5.55h-.15q-1.3 10.55 2.15 17.2.35.8.8 1.55 3.8 6.3 9.5 13.2 1.7 2.15 2.95 4.25 2.1 3.6 1.9 6.4-.05 2.5-3.35.45-5.4-3.1-9.45-10.05-1.2 1.65-1.05 2.25 4.45 22.25 38.4 19.55-.05-.15 0-.45.35-.9-.25-1.35-.25-.2-.5-.3-.2-.3-.5-.4-1.5-.6-3.8-.85l-.9-.1q-.25-.1-.45-.15-1.7-.25-4.1-1.35-2.85-1.8-6.05-7.75-.85-1.6-1.75-3.2-4-7.3-7.95-10.85-1.15-1-2.1-1.95-3.55-3.6-6.45-7.45-.25-.3-.45-.7-2.8-4.1-5.05-12.4M70.95 48.8l-9.9-20.25 4.4 22.5q2.85-1.6 5.5-2.25m5.1 58.95Q55 108.85 59.75 121q4.9-5 8.45.85 3.5 5.8 8.35 4.35 7.05-2 8.2-5.25 1.1-3.35 8.6.45 3.75-12.55-17.3-13.65m51.3-14.3q-.75 2.95-1.65 5.5-1.75 5.45-3.85 8.55-1.15 1.6-2.3 3.05-2.75 3.2-6.05 6.35-.7.7-1.4 1.55-3.75 4.25-7.95 12.8-.3.5-.55 1.05-4.65 8.7-9.5 9.3-.5.05-.95.1-2.2.1-3.45.3l-.5.1q-3.05.6-4.4 2.05-.15.15-.25.35-.05.1-.15.2-.15.3-.4.55 38.3 2.95 41.15-22.85-.05-.3-.4-.8-5.3 11.55-13.45 13.4-.55.15-1 .15-2.75-2.8 3.85-10.85l.25-.25q5.55-6.7 9.65-12.9 2-3.05 2.95-6.2 1.8-5.2 1.25-12.35-.3.55-.8.8-.05.05-.1.05m-4.5-21.4q-11.7 33.35-36.3 32.15 25.6 10.4 36.3-32.15m-7.1-21.25-.05.05q-8.6 10.85-17.8 16.8-7.05 4.7-10.95 9.8-1.95 2.7-3.35 5.6-4.35 8.85-.9 18.9-1-8.15 4.05-16.85.9-1.55 2-3.15 4.4-6.4 12.15-12.9 8.75-7.1 14.85-18.25m-27 1.55q2.15 1.3 3.3 2.6l12.15-22.2-15.45 19.6m-.8 12.5q11.2-10.45 19.15-15.1 8-4.7 15.05-15.4-11.2 9.75-16.55 13-5.3 3.3-14.9 10.6-9.65 7.25-14.65 16-5-8.75-14.65-16-9.6-7.3-14.9-10.6-5.35-3.25-16.55-11.3 7.05 9 15.05 13.7 7.95 4.65 19.15 15.1 11.15 10.4 11.9 31.95.75-21.55 11.9-31.95m3.35-36.8-10 20.75q2.45.6 5.4 2.15 2.25-11.45 4.6-22.9M87.85 56.1q-.05 0-.05-.05-4.7-4.55-9.65-5.25-.9-.1-1.85-.1h-.1q-.9 0-1.75.1-.15 0-.3.05-.85.1-1.7.35-3.95 1.2-7.75 4.9 6.2 4.25 9.95 8.45.9.95 1.65 1.95 1.15-1.5 2.55-2.95 3.6-3.75 9-7.45m-10.6-2.4h1.45q.35.45.25.55l-2.1 2.6q.65.65 1.3 1.4.4.6.9 1.15.05.35 0 .4-.15.15-.25.15-1.55 0-3.15.05-.85.05-1.75.05-.15 0-.25-.1-.05-.1-.05-.2t.05-.2q.15-.15.25-.3 1-1.15 1.9-2.35-1.05-1.15-2.15-2.3l-.25-.5q0-.15.1-.2 2-.15 3.75-.2m-1.85 4.45q-.5.55-1.05 1.15h.05q1.05.1 2.1.15.5-.05 1.6-.05-.4-.6-.8-1.15-.45-.5-.95-1.05-.25.3-.95.95m.5-3.85q-.75.05-1.55.1.8.85 1.55 1.65.2.2.75.1.65-.7 1.5-1.75-.85-.05-2.25-.1m.35-27.2h-.1l-3 21.25.65-.1q1.15-.1 2.35-.1 1.15 0 2.3.1.35.05.65.15-.35-3.3-.75-6.65L76.4 27.1h-.15Z"></path><path fill="#6E90B8" fill-opacity=".698" d="M52.1 77q-.6-.35-1.25-.55h-.05q-2.9-1-4.9.4-1.95 1.55-1.9 4.6.05 2.45 1.55 4.8.4.5.75 1.05 1.7 2.2 3.85 3.25.65.3 1.3.5 2.4.8 4.3-.15.3-.2.55-.4 1.9-1.4 1.9-4.15V86q-.1-1.85-.95-3.5-.55-1.2-1.45-2.4-1.65-2.05-3.7-3.1m5.35 8.3q.05.4.1.75.05 2.5-1.45 3.75-.1.1-.15.2-1.85 1.25-4.4.45l-.6-.2q-2.3-1-4.1-3.35-.55-.65-.95-1.4-1.15-1.85-1.25-3.9v-.15q-.1-2.75 1.65-4.05 1.95-1.2 4.35-.4 3.15 1.6 4.65 3.55.5.55.85 1.1 1.05 1.8 1.3 3.65m37 .7v.05q-.1 3 1.85 4.45 2.05 1.45 4.95.55.85-.25 1.65-.75 1.9-1.05 3.45-3.05.1-.2.25-.35 1.75-2.3 2-4.85.05-.3.05-.6 0-2.05-.95-3.4-.35-.65-1-1.2-2-1.4-4.95-.4-.15 0-.35.05-2.6 1.05-4.6 3.65-.35.45-.65.9-1.6 2.45-1.7 4.95m.65.05q.1-2.5 1.65-4.75 2.4-3.2 4.9-4.2 2.9-.95 4.65.25.65.55 1.1 1.3.65 1.05.6 2.7-.1 2.55-1.65 4.8-.25.35-.55.75-1.3 1.75-2.9 2.7-.9.55-1.9.85-2.5.8-4.3-.45-1.55-1.2-1.6-3.5v-.45Z"></path><path fill="#27528D" fill-opacity=".698" d="M54.5 81.15q-1.55-2.05-3.65-2.75-2.15-.7-3.55.3-1.45 1.1-1.35 3.25.05 2.2 1.65 4.4 1.6 2 3.75 2.7 2.05.7 3.55-.4 1.4-.95 1.4-3.2-.2-2.25-1.8-4.3m43.6 0q-1.6 2.05-1.75 4.3-.05 2.25 1.4 3.2 1.45 1.1 3.55.4 2.1-.7 3.75-2.7 1.55-2.2 1.65-4.4.05-2.15-1.4-3.25-1.4-1-3.55-.3-2.05.7-3.65 2.75Z"></path></g></defs><use xlink:href="#a_6_1"></use><use xlink:href="#b_6_0"></use></svg><svg xmlns="http://www.w3.org/2000/svg" xmlns:xlink="http://www.w3.org/1999/xlink" preserveAspectRatio="none" width="150" height="155" id="frame_8" display="none"><defs><path fill="#27528D" fill-opacity="0" d="M150.1 0H0v155.5h150.1V0Z" id="b_7_0"></path><g id="a_7_1"><path fill="#27528D" d="M31.45 76.2q10.35 37.85 34.65 28-23.5 1.2-34.65-28m32.5 6.4q1.15 1.85 2.15 3.65 4.15 7.75 3.55 14.6.05.05.1.15 3.05-9.35-.95-17.55-1-2.15-2.3-4.1-3.65-5.15-10.75-10.1-8.3-5.6-16.55-15.2Q45.45 64.25 53.4 71q6.75 5.95 10.55 11.6m-2.5-27.45q1.1-.7 3.1-1.95l-14.7-18.1 11.6 20.05m-32.8 43.7q-.75-2.45-1.4-5.3h-.15q-1.3 10.05 1.85 16.35.35.75.85 1.55 3.4 5.8 8.9 12.55 1.6 2 2.85 3.95 2.1 3.4 2.2 6.05.55 2.85-2.7.95-5.5-2.8-9.4-9.15-1.4.8-1.5.6 3.95 21.45 36.2 19.05 0-.2.1-.35.6-.75.45-1.15-.25-.2-.45-.35-.2-.25-.5-.4-1.35-.65-3.55-.95-.4-.1-.9-.15-.15-.05-.4-.1-1.45-.25-3.85-1.25-2.75-1.45-6.1-7-.85-1.45-1.8-2.95-4-6.8-7.65-10.3-1.05-.95-1.9-1.95-3.25-3.5-5.9-7.2-.25-.35-.45-.75-2.6-3.9-4.8-11.75M66 52.1q2.75-1.55 5.2-2.1l-9.3-18.9 4.1 21m10.05 55.65q-21.05 1.1-15.8 12.55 4.5-6.25 8.5-.85 3.9 5.35 8.1 3.9 5.7-1.9 7.6-4.5 1.85-2.6 8.9 1.7 3.75-11.7-17.3-12.8m50.1-11.8q-.3.1-.75-.15h-.1q-.75 2.85-1.55 5.25-1.7 5.2-3.65 8.25-1 1.55-2.1 2.9-2.45 3.15-5.45 6.25-.65.7-1.3 1.5-3.35 4.1-7.75 12.1-.3.45-.6.95-4.8 8.15-9.2 8.7-.45.05-.85.1-2.15.2-3.3.3-.2.05-.45.15-2.9.55-4.2 1.9-.15.15-.25.4-.1.05-.1.15-.15.3-.35.55 36.4 2.9 39.1-21.6-.15 0-.45-.15-4.95 10.55-13.1 12.6-.55.15-1 .15-2.7-2.25 3.9-10.3.1-.05.2-.2 5.4-6.45 9.15-12.25 1.95-2.95 2.9-5.85 1.8-4.9 1.25-11.7M121.3 76.2q-11.15 29.2-34.65 28 24.3 9.85 34.65-28M113 54.05l-.05.05q-8.45 9.75-16.75 15.35-6.5 4.6-9.95 9.3-1.75 2.55-3 5.25-3.8 8.2-.6 17.55-.95-7.4 3.6-15.7.85-1.4 1.75-2.9 3.9-5.9 11.05-12.2 7.85-6.65 13.95-16.7m-24.8-.55q2 1.15 2.9 2.35l11.5-20.75-14.4 18.4m32.7-17.85q-9.95 8.45-15.3 11.7-5.3 3.3-14.9 10.6-9.65 7.25-14.65 16-5-8.75-14.65-16-9.6-7.3-14.9-10.6-5.35-3.25-15.3-9.7 5.8 7.4 13.8 12.1 7.95 4.65 19.15 15.1 11.15 10.4 11.9 31.95.75-21.55 11.9-31.95 11.2-10.45 19.15-15.1 8-4.7 13.8-14.1m-39.85 14.3q2.25.55 5.15 2.05 2.1-10.8 4.3-21.5l-9.45 19.45m6.1 6.9q-.05 0-.05-.05-4.45-4.25-9-4.9-.9-.15-1.75-.15h-.15q-.8 0-1.6.15-.15 0-.25.05-.8.05-1.6.35-3.7 1.1-7.2 4.55 5.8 3.95 9.25 7.9.8.85 1.55 1.75 1.05-1.35 2.4-2.75 3.3-3.45 8.4-6.9M77.2 54.6h1.35q.35.35.25.5-.95 1.15-1.95 2.4.65.65 1.25 1.3.35.6.8 1.15.1.25 0 .35-.1.1-.2.1-1.45 0-2.95.05-.85.05-1.65.05-.15 0-.2-.1-.05-.05-.05-.15 0-.1.05-.2.1-.1.2-.25.9-1.1 1.75-2.2l-2-2.2-.25-.45q0-.05.05-.15 1.9-.2 3.55-.2m-1.7 4.1q-.5.5-1 1.1h.05q1 .1 1.95.2.5-.05 1.5-.1-.35-.5-.7-1.1-.45-.45-.9-.95-.2.25-.9.85m2.6-3.45q-.8-.05-2.15-.05-.7 0-1.45.05.75.85 1.4 1.6.25.2.75.05.65-.7 1.45-1.65m-4.15-5.8q1.1-.15 2.2-.15t2.2.15q.3 0 .6.1-.35-3.05-.7-6.15l-1.8-13.65h-.25L73.35 49.5l.6-.05Z"></path><path fill="#698CB5" fill-opacity=".651" d="M52.4 77.6q-.6-.35-1.2-.55h-.05q-2.75-.9-4.6.4-1.85 1.5-1.85 4.35.1 2.3 1.5 4.45.35.5.75 1 1.6 2.05 3.55 3.05.65.3 1.25.45 2.3.75 4-.15.3-.15.55-.35 1.75-1.3 1.75-3.9v-.3Q58 84.3 57.2 82.7q-.55-1.1-1.35-2.2-1.55-1.95-3.45-2.9m4.95 7.8q.1.35.1.7.1 2.3-1.35 3.5-.1.05-.15.15-1.7 1.2-4.1.45-.3-.1-.6-.25-2.15-.9-3.85-3.05-.5-.65-.9-1.3-1.05-1.75-1.15-3.7v-.15q-.1-2.5 1.55-3.75 1.8-1.15 4.1-.4 2.95 1.5 4.35 3.35.45.5.8 1 1 1.65 1.2 3.45m39.45-4.85q-.3.4-.6.85-1.45 2.25-1.55 4.65-.1 2.85 1.75 4.2 1.95 1.35 4.6.5.85-.2 1.6-.7 1.8-1 3.2-2.85.15-.15.3-.35 1.6-2.1 1.85-4.5.05-.3.05-.6 0-1.9-.9-3.2-.35-.6-1-1.1-1.85-1.3-4.6-.4l-.3.1q-2.5.95-4.4 3.4m-1.55 5.95v-.45q.1-2.3 1.55-4.45 2.25-2.95 4.6-3.85 2.8-.95 4.4.2.6.45.95 1.15.65 1.05.65 2.6-.1 2.4-1.6 4.45-.2.35-.45.7-1.25 1.65-2.75 2.55-.85.55-1.8.8-2.35.75-4-.45-1.5-1.1-1.55-3.25Z"></path><path fill="#27528D" fill-opacity=".651" d="M54.6 81.5q-1.45-1.95-3.45-2.6-2-.65-3.3.3-1.4 1.05-1.3 3.05.1 2.1 1.55 4.1 1.55 1.9 3.5 2.55 2 .65 3.4-.35 1.3-.95 1.3-3.1-.15-2-1.7-3.95m43.5 0q-1.55 1.95-1.65 3.95-.05 2.15 1.3 3.1 1.35 1 3.35.35 1.95-.65 3.5-2.55 1.5-2 1.55-4.1.1-2-1.3-3.05-1.3-.95-3.3-.3-2 .65-3.45 2.6Z"></path></g></defs><use xlink:href="#a_7_1"></use><use xlink:href="#b_7_0"></use></svg><svg xmlns="http://www.w3.org/2000/svg" xmlns:xlink="http://www.w3.org/1999/xlink" preserveAspectRatio="none" width="150" height="155" id="frame_9" display="none"><defs><path fill="#27528D" fill-opacity="0" d="M150.1 0H0v155.5h150.1V0Z" id="b_8_0"></path><g id="a_8_1"><path fill="#27528D" d="M33.05 80.4q10 33.15 33.05 23.8-22.45 1.15-33.05-23.8m8.85-23.1q6.4 9.1 13.4 15.4 6.1 5.7 9.4 11 1.05 1.75 1.9 3.4 3.7 7.35 3.15 13.55l.1-.1q2.75-8.65-.7-16.25-.9-1.95-2.05-3.75-3.15-4.75-9.7-9.55-7.4-5.2-15.5-13.7m20.6-1.4q.85-.5 2.7-1.65l-13.75-16.7L62.5 55.9m-33 40.6q-.05.05-.15.05-1.35 9.5 1.65 15.5.3.75.75 1.45 3.05 5.4 8.4 11.9 1.45 1.85 2.7 3.75 2.15 3.2 2.5 5.55 1.15 3.25-2.05 1.6-5.6-2.55-9.3-8.3-1.6-.05-2-1.05 3.4 20.6 33.95 18.5l.25-.25q.85-.6 1.15-.9-.2-.25-.4-.4-.15-.25-.4-.45-1.3-.7-3.35-1.05-.45-.05-.85-.1-.2-.1-.4-.15-1.25-.15-3.75-1-2.55-1.2-6.1-6.35-.8-1.35-1.8-2.75-4.05-6.25-7.35-9.65-.95-1-1.75-1.95-2.9-3.5-5.3-7-.25-.35-.45-.75-2.4-3.8-4.55-11.15-.75-2.3-1.4-5.05m37.05-43.3q2.6-1.5 4.85-2.05L62.7 33.7l3.85 19.5m9.5 54.55q-21.05 1.1-15.3 11.85 4.05-7.45 8.45-2.55 4.4 4.9 7.95 3.4 4.25-1.75 6.95-3.7 2.65-1.95 9.25 3 3.75-10.9-17.3-12m47.35-9.5q-.05 0-.15-.05-.7 2.7-1.5 5-1.55 4.85-3.4 7.9-.9 1.5-1.85 2.8-2.2 3.05-4.9 6.1-.6.7-1.15 1.45-3.05 3.95-7.6 11.35-.25.45-.6.9-5 7.65-8.9 8.15l-.8.1q-2.15.15-3.15.3-.2.05-.35.1-2.75.6-4.05 1.85-.1.15-.25.4-.05.05-.1.15-.1.25-.35.5 34.65 2.9 37.15-20.35-.25.3-.6.5-4.5 9.55-12.7 11.8-.5.1-.9.1-2.75-1.6 3.9-9.6.1-.1.15-.2 5.2-6.25 8.7-11.6 1.85-2.85 2.8-5.55 1.75-4.65 1.3-11.05-.3-.4-.7-1.05m-3.6-17.85q-10.6 24.95-33.05 23.8 23.05 9.35 33.05-23.8m-34.25-.35q-1.6 2.4-2.65 4.9-3.2 7.65-.35 16.25-.8-6.7 3.25-14.5.7-1.35 1.5-2.75 3.4-5.5 9.85-11.5 6.95-6.2 13.15-15.15-8.35 8.65-15.75 13.95-6.05 4.5-9 8.8M87.7 54.6q1.85 1.1 2.5 2.05l10.8-19.1L87.7 54.6M119.6 37q-8.65 7.1-14 10.35-5.3 3.3-14.9 10.6-9.65 7.25-14.65 16-5-8.75-14.65-16-9.6-7.3-14.9-10.6-5.35-3.25-14-8.05Q37 45.05 45 49.75q7.95 4.65 19.15 15.1 11.15 10.4 11.9 31.95.75-21.55 11.9-31.95 11.2-10.45 19.15-15.1 8-4.7 12.5-12.75M85.65 53q1.95-10 4.05-20l-8.85 18.1q2.1.55 4.8 1.9m.75 4.55q-.05 0-.1-.05-4.05-3.9-8.3-4.5-.8-.1-1.6-.1h-.1q-.75 0-1.5.1h-.25q-.75.1-1.5.3-3.4 1.05-6.7 4.25h.05q5.3 3.7 8.55 7.35.8.8 1.45 1.6 1-1.25 2.2-2.55 3.1-3.2 7.8-6.4m-9.2-2.05h1.25q.3.35.25.4l-1.8 2.3q.6.55 1.1 1.2.4.55.8 1 .05.3 0 .35-.1.1-.2.1-1.4.05-2.7.1-.8.05-1.6.05-.05 0-.15-.1-.1-.05-.1-.15 0-.1.1-.15.1-.15.15-.25.85-1.05 1.6-2.05-.95-1.05-1.9-2.05l-.2-.35q0-.15.1-.25 1.7-.1 3.3-.15M76 57.6q.2.2.7.05.55-.65 1.35-1.55-.75-.05-2-.1-.7.05-1.45.15.75.7 1.4 1.45m-.4 1.65q-.5.5-1 1.05h.05l1.9.2q.45-.05 1.4-.1-.3-.5-.65-1l-.8-.9-.9.75m2.55-14.15-1.7-12.7h-.25l-2.6 18.3.55-.1q1.05-.15 2.05-.15 1 .05 2 .2.3 0 .6.1-.35-2.85-.65-5.65Z"></path><path fill="#6487B2" fill-opacity=".6" d="M52.65 78.15q-.55-.25-1.15-.45h-.05q-2.55-.85-4.3.35-1.75 1.4-1.7 4.05.1 2.15 1.4 4.2l.7.9Q49 89.1 50.9 90q.55.3 1.15.5 2.1.65 3.75-.2.25-.15.5-.35 1.65-1.2 1.65-3.6v-.3q-.05-1.6-.85-3.15-.5-1-1.25-2-1.45-1.85-3.2-2.75m4.65 7.3q.05.35.05.65.1 2.2-1.25 3.25-.05.1-.15.2-1.6 1.1-3.85.4-.25-.1-.55-.2-2-.85-3.6-2.9-.45-.55-.8-1.2-1-1.6-1.15-3.4v-.15q0-2.4 1.5-3.55 1.7-1.05 3.8-.35 2.8 1.4 4.15 3.1.4.45.7.95.95 1.55 1.15 3.2m43.65-7.7q-2.25.95-4.05 3.2-.35.35-.55.75-1.45 2.15-1.5 4.35v.05q-.05 2.6 1.65 3.85 1.8 1.3 4.3.55.75-.25 1.45-.7 1.7-.9 3.05-2.65.15-.1.25-.3 1.55-2.05 1.75-4.25.05-.25.05-.55 0-1.75-.85-2.95-.35-.6-.95-1.05-1.7-1.25-4.25-.35-.2.05-.35.05m-5.55 8.7v-.35q.1-2.2 1.45-4.2 2.15-2.7 4.35-3.55 2.55-.95 4.05.15.55.5.9 1.15.65.95.6 2.35-.05 2.25-1.4 4.2-.25.3-.5.65-1.2 1.5-2.6 2.35-.75.45-1.6.75-2.25.7-3.85-.4-1.3-1.05-1.4-3.1Z"></path><path fill="#27528D" fill-opacity=".6" d="M54.7 81.85q-1.3-1.85-3.2-2.5-1.9-.55-3.1.35-1.3.95-1.2 2.85.05 1.95 1.4 3.8 1.45 1.75 3.3 2.35 1.8.6 3.1-.35 1.3-.85 1.3-2.8-.15-1.95-1.6-3.7m43.35 0q-1.4 1.75-1.55 3.7-.05 1.95 1.25 2.8 1.3.95 3.15.35 1.85-.6 3.3-2.35 1.3-1.85 1.4-3.8.1-1.9-1.2-2.85-1.2-.9-3.1-.35-1.9.65-3.25 2.5Z"></path></g></defs><use xlink:href="#a_8_1"></use><use xlink:href="#b_8_0"></use></svg><svg xmlns="http://www.w3.org/2000/svg" xmlns:xlink="http://www.w3.org/1999/xlink" preserveAspectRatio="none" width="150" height="155" id="frame_10" display="none"><defs><path fill="#27528D" fill-opacity="0" d="M150.1 0H0v155.5h150.1V0Z" id="b_9_0"></path><g id="a_9_1"><path fill="#27528D" d="M34.65 84.6q9.7 28.45 31.45 19.6-21.4 1.05-31.45-19.6m24.55 56.9q-2.35-.9-6.1-5.65-.85-1.2-1.85-2.55-4.1-5.7-7.05-9.1-.85-1-1.55-1.9-2.6-3.4-4.75-6.8-.25-.35-.45-.7-2.25-3.7-4.3-10.55-.75-2.25-1.4-4.8-.05.05-.1.05-1.4 9.05 1.35 14.65.3.7.7 1.45 2.75 4.9 7.8 11.25 1.4 1.7 2.65 3.45 2.15 3 2.8 5.2 1.75 3.6-1.4 2.15-5.65-2.35-9.25-7.45-1.8-.85-2.4-2.65 2.85 19.75 31.7 17.95.15-.1.35-.2 1.1-.4 1.9-.7-.25-.2-.35-.4-.2-.25-.45-.5-1.15-.7-3.05-1.1-.45-.05-.85-.15-.15-.1-.4-.1-1.05-.2-3.55-.85m-.1-68.75q-6.5-4.85-14.45-12.2 6.5 8.05 12.55 13.85 5.5 5.55 8.3 10.4.9 1.6 1.65 3.2 3.15 6.9 2.65 12.45.1-.2.2-.35 2.35-7.9-.55-14.95-.75-1.75-1.8-3.5-2.65-4.25-8.55-8.9m4.4-16.15q.55-.2 2.3-1.3L53.1 39.9l10.4 16.7m3.55-2.35q2.5-1.45 4.6-1.9l-8.05-16.1 3.45 18m49.6 58.6q-.8 1.5-1.6 2.75-2.05 2.95-4.4 5.95-.5.7-1 1.45-2.75 3.8-7.45 10.6l-.6.8q-5.15 7.1-8.65 7.6-.35.05-.7.05l-2.95.35q-.25.05-.35.1-2.6.55-3.8 1.75-.2.15-.25.35l-.1.2q-.15.2-.35.45 32.8 2.9 35.15-19.15-.3.65-.75 1.2-4.05 8.65-12.3 10.95-.45.1-.8.15-2.75-1 3.9-9 .05-.1.15-.2 5-6.05 8.2-10.95 1.8-2.75 2.65-5.2 1.8-4.35 1.35-10.45-.2-.85-.65-2-.05 0-.1-.05-.65 2.6-1.45 4.8-1.5 4.55-3.15 7.5m1.65-28.25q-10.05 20.65-31.45 19.6 21.8 8.85 31.45-19.6m-33.45-3.25q-1.4 2.2-2.3 4.6-2.65 7-.05 14.85-.7-5.9 2.75-13.3.6-1.25 1.35-2.55 2.8-5.05 8.7-10.8 6-5.75 12.3-13.6-8.2 7.55-14.7 12.5-5.55 4.35-8.05 8.3m2.3-25.65q1.7 1 2.1 1.8l10.2-17.6-12.3 15.8m31.2-17.35q-7.4 5.75-12.75 9-5.3 3.3-14.9 10.6-9.65 7.25-14.65 16-5-8.75-14.65-16-9.6-7.3-14.9-10.6-5.35-3.25-12.75-6.45Q37 45.05 45 49.75q7.95 4.65 19.15 15.1 11.15 10.4 11.9 31.95.75-21.55 11.9-31.95 11.2-10.45 19.15-15.1 8-4.7 11.25-11.4m-33.2 15.7q1.75-9.35 3.75-18.6L80.65 52.3q1.85.45 4.5 1.75m.45 4.25-.05-.05q-3.7-3.65-7.65-4.2-.7-.1-1.45-.1h-.1q-.75 0-1.4.1-.1.05-.2.05-.7.1-1.4.3-3.15.95-6.15 3.9 4.9 3.4 7.9 6.75.75.75 1.35 1.45.9-1.1 2-2.3 2.9-2.95 7.15-5.9m-11.25 3.1q-.05-.05-.05-.15 0-.1.05-.15l.2-.2 1.4-1.9-1.7-1.9-.25-.35q0-.1.05-.2 1.65-.15 3.1-.15h1.15q.3.3.25.4-.75 1-1.6 2.05.55.55 1 1.15.35.45.7.95.1.2 0 .3-.1.1-.2.1-1.25 0-2.5.05-.7.05-1.4.05-.1 0-.2-.05m1.7-3q.2.15.65.05.55-.65 1.25-1.55-.7-.05-1.85-.05-.65 0-1.35.1.7.75 1.3 1.45m-.35 1.4q-.45.5-.95 1h.05q.9.15 1.75.2.45 0 1.3-.05-.25-.5-.55-.95-.4-.45-.75-.9-.3.25-.85.7m.7-24.8h-.15L73.8 51.85l.5-.1q.95-.05 1.9-.05t1.9.1q.25 0 .45.1-.2-2.6-.5-5.15L76.5 35h-.1m-6.7 79.7q4.8 4.4 7.7 2.85 2.95-1.6 6.35-2.85 3.4-1.25 9.6 4.2 3.75-10.05-17.3-11.15-21.05 1.1-14.8 11.15 3.6-8.65 8.45-4.2Z"></path><path fill="#5F83AF" fill-opacity=".549" d="M52.85 78.75q-.45-.25-1.05-.4-2.4-.8-4 .35-1.65 1.3-1.6 3.75.1 2 1.3 3.85.3.45.65.85 1.35 1.8 3.1 2.6.55.25 1.1.45 2 .6 3.5-.2.25-.1.45-.3 1.55-1.1 1.55-3.35v-.3q-.05-1.5-.8-2.85-.45-.95-1.15-1.9-1.35-1.7-3.05-2.55m3.3 3.8q.9 1.4 1.1 2.95.05.3.05.6.05 2.05-1.2 3.05-.05.1-.15.15-1.45 1-3.55.35-.25-.05-.5-.15-1.9-.8-3.35-2.65-.45-.55-.8-1.1-.9-1.55-1.05-3.2v-.15q-.05-2.2 1.4-3.3 1.55-.95 3.55-.3 2.6 1.3 3.85 2.8.4.5.65.95m44.85-4.2q-.1.05-.25.05-2.15.85-3.8 2.9-.3.35-.5.75-1.3 1.95-1.4 4v.05q-.05 2.45 1.55 3.6 1.65 1.2 4 .5.7-.25 1.35-.6 1.6-.9 2.9-2.5.05-.1.2-.25 1.4-1.9 1.6-3.95.05-.25.05-.5 0-1.7-.8-2.75-.35-.6-.85-.95-1.65-1.15-4.05-.35m-5.45 8.1v-.35q.1-2 1.35-3.85 2-2.55 4.05-3.35 2.35-.8 3.8.2.5.4.85 1 .55.9.55 2.25-.05 2.1-1.3 3.85-.25.3-.45.65-1.15 1.4-2.45 2.15-.7.45-1.55.65-2 .65-3.5-.35-1.3-.95-1.35-2.85Z"></path><path fill="#27528D" fill-opacity=".549" d="M54.8 82.15q-1.2-1.65-2.95-2.25-1.75-.55-2.95.3-1.2.9-1.1 2.65.1 1.8 1.35 3.5 1.35 1.65 3.05 2.2 1.7.55 2.9-.3 1.2-.85 1.2-2.65-.1-1.75-1.5-3.45m43.25 0q-1.35 1.7-1.45 3.45-.05 1.8 1.15 2.65 1.25.85 2.9.3 1.75-.55 3.1-2.2 1.25-1.7 1.35-3.5.05-1.75-1.15-2.65-1.15-.85-2.95-.3-1.7.6-2.95 2.25Z"></path></g></defs><use xlink:href="#a_9_1"></use><use xlink:href="#b_9_0"></use></svg><svg xmlns="http://www.w3.org/2000/svg" xmlns:xlink="http://www.w3.org/1999/xlink" preserveAspectRatio="none" width="150" height="155" id="frame_11" display="none"><defs><path fill="#27528D" fill-opacity="0" d="M150.1 0H0v155.5h150.1V0Z" id="b_10_0"></path><g id="a_10_1"><path fill="#27528D" d="M36.3 88.75q9.3 23.8 29.8 15.45-20.35 1-29.8-15.45m23.95 53.15q-2.2-.6-6.1-5.05-.9-1.05-1.9-2.25-4.2-5.2-6.8-8.55-.75-1-1.4-1.85-2.25-3.4-4.15-6.6-.25-.35-.4-.7-2.1-3.6-4.1-9.95-.7-2.15-1.35-4.55-.05.1-.15.1-1.4 8.5 1.15 13.8.25.65.65 1.35 2.35 4.45 7.25 10.6l2.5 3.2q2.15 2.85 3.1 4.8 2.3 3.95-.7 2.8-5.75-2.15-9.25-6.6-2-1.75-2.85-4.4 2.35 19 29.5 17.45.2 0 .45-.1 1.35-.2 2.55-.45-.15-.25-.3-.4-.1-.35-.35-.55-1.05-.75-2.9-1.2-.35-.1-.75-.15-.15-.1-.3-.15-.95-.15-3.4-.6m6.05-56.05q.75 1.55 1.35 3 2.7 6.5 2.2 11.4.15-.3.25-.6 2.1-7.15-.3-13.55-.65-1.7-1.55-3.25-2.1-3.8-7.5-8.35-5.6-4.5-13.4-10.75 6.65 7 11.8 12.4 4.9 5.25 7.15 9.7m1.3-30.55q2.35-1.35 4.3-1.8l-7.45-14.7 3.15 16.5m8.5 52.5q-20.45.95-14.4 10 2.9-7.6 7.75-4.2 4.85 3.35 7.65 2.1 2.8-1.25 6.55-2.2 3.75-.95 9.25 4.3 3.6-9.05-16.8-10m38.85 6.9q-.75 1.4-1.45 2.6-1.75 2.85-3.8 5.8-.45.7-.9 1.45-2.35 3.6-7.25 9.8l-.6.8q-5.4 6.55-8.35 6.95l-.7.1q-2 .2-2.75.35-.15.05-.35.15-2.35.45-3.6 1.55-.1.15-.25.35-.05.1-.05.2-.1.25-.3.45 30.95 2.9 33.1-17.9-.35 1-.8 1.85-3.65 7.65-11.9 10.1-.5.15-.8.15-2.7-.3 3.85-8.35l.2-.2q4.85-5.8 7.75-10.3 1.7-2.65 2.6-4.85 1.7-4.05 1.3-9.85-.2-1.3-.55-2.85-.05 0-.1-.1-.7 2.45-1.45 4.55-1.4 4.25-2.85 7.2m1.8-25.95q-9.5 16.45-29.8 15.45 20.5 8.35 29.8-15.45m-11.85-25h-.05q-8.05 6.5-13.6 11.1-5.1 4.25-7.15 7.8-1.15 2.1-1.85 4.25-2.15 6.45.15 13.55-.55-5.2 2.4-12.15.5-1.15 1.05-2.35 2.35-4.6 7.55-10.15 5.1-5.25 11.5-12.05m12.15-24.05q-6.1 4.4-11.45 7.65-5.3 3.3-14.9 10.6-9.65 7.25-14.65 16-5-8.75-14.65-16-9.6-7.3-14.9-10.6-5.35-3.25-11.5-4.8 2 2.5 10 7.2 7.95 4.65 19.15 15.1 11.15 10.4 11.9 31.95.75-21.55 11.9-31.95 11.2-10.45 19.15-15.1 8-4.7 9.95-10.05M84.6 55.1q1.65-8.6 3.5-17.15l-7.65 15.5q1.65.45 4.15 1.65m.3 3.95-.05-.05q-3.45-3.3-7-3.8-.65-.1-1.35-.1h-.1q-.65 0-1.25.1-.15 0-.25.05-.6 0-1.25.25-2.9.85-5.65 3.55h.05q4.5 3.1 7.2 6.15.65.7 1.25 1.35.8-1.05 1.85-2.1 2.6-2.7 6.55-5.4m-10.35 2.7q0-.1.05-.1.05-.1.15-.2.65-.9 1.25-1.75-.75-.9-1.6-1.75l-.15-.35q0-.1.05-.1 1.5-.2 2.85-.25h1.05q.25.3.25.4-.7.9-1.45 1.9.5.5.9 1.05.3.4.65.85.05.2-.05.25-.05.1-.1.1-1.2.05-2.35.15-.65 0-1.3.05-.1 0-.15-.1-.05-.05-.05-.15m3.35-3.95q-.65-.05-1.7-.1l-1.3.1q.65.7 1.25 1.35.15.15.6 0 .5-.55 1.15-1.35m-2.1 2.6q-.45.4-.9.95h.05q.85.1 1.6.25.45-.05 1.25-.15-.25-.45-.45-.85-.4-.45-.8-.85-.2.2-.75.65m.65-22.75h-.1L74.05 53l.45-.05q.85-.1 1.7-.1.9.05 1.75.15.2 0 .45.05-.2-2.3-.45-4.65l-1.4-10.75h-.1m-11.9 19.7q.3.05 1.9-1l-11.75-14 9.85 15m22.05-.55q1.6.95 1.7 1.55l9.6-16L86.6 56.8Z"></path><path fill="#5A7FAC" fill-opacity=".502" d="M53.1 79.35q-.4-.2-.95-.35-2.25-.7-3.7.35-1.5 1.15-1.5 3.4.05 1.85 1.2 3.6l.6.8q1.3 1.6 2.9 2.35.45.25 1 .4 1.8.55 3.25-.2.2-.05.4-.25 1.45-1.05 1.45-3.1v-.25q-.05-1.4-.75-2.7-.4-.85-1.05-1.75-1.3-1.5-2.85-2.3m3.1 3.5q.8 1.3 1 2.75.05.25.05.55 0 1.9-1.1 2.8l-.2.1q-1.3.95-3.2.35-.3-.05-.55-.1-1.7-.75-3.05-2.45-.45-.5-.75-1.05-.85-1.35-.95-2.9v-.15q-.05-2.05 1.25-3.05 1.45-.85 3.3-.3 2.4 1.2 3.6 2.6.35.45.6.85M100.8 79q-.15.05-.25.05-2 .75-3.5 2.65-.3.35-.55.7-1.2 1.75-1.25 3.7-.05 2.25 1.45 3.35 1.55 1.1 3.65.45.65-.2 1.3-.6 1.5-.7 2.65-2.25.15-.1.2-.25 1.3-1.7 1.5-3.6.05-.25.05-.5 0-1.5-.75-2.55-.3-.5-.8-.85-1.5-1.05-3.7-.3m-5.05 7.45v-.35q.05-1.85 1.25-3.55 1.8-2.3 3.7-3.05 2.2-.75 3.5.15.5.4.8 1 .55.8.55 2.05-.05 1.9-1.25 3.55-.15.3-.4.55-1 1.3-2.3 2-.65.45-1.35.65-1.9.55-3.25-.4-1.2-.85-1.25-2.6Z"></path><path fill="#27528D" fill-opacity=".502" d="M54.95 82.5q-1.15-1.55-2.75-2.1-1.65-.45-2.7.3-1.15.85-1.05 2.45.05 1.65 1.2 3.25 1.25 1.5 2.85 1.95 1.55.55 2.7-.25 1.1-.75 1.1-2.4-.1-1.65-1.35-3.2m43.1 0q-1.25 1.55-1.35 3.2 0 1.65 1.05 2.4 1.15.8 2.75.25 1.6-.45 2.8-1.95 1.2-1.6 1.25-3.25.05-1.6-1.05-2.45-1.05-.75-2.7-.3-1.6.55-2.75 2.1Z"></path></g></defs><use xlink:href="#a_10_1"></use><use xlink:href="#b_10_0"></use></svg><svg xmlns="http://www.w3.org/2000/svg" xmlns:xlink="http://www.w3.org/1999/xlink" preserveAspectRatio="none" width="150" height="155" id="frame_12" display="none"><defs><path fill="#27528D" fill-opacity="0" d="M150.1 0H0v155.5h150.1V0Z" id="b_11_0"></path><g id="a_11_1"><path fill="#27528D" d="M65.3 58.35q.3.05 1.8-.95L56.3 44.7l9 13.65m-3.15 58.3q2.15-6.5 7.1-4.15 4.9 2.35 7.55 1.4 2.65-.95 6.75-1.55 4.05-.65 8.85 4.3 3.5-7.95-16.3-8.8-19.8.85-13.95 8.8m6-60.25q2.2-1.35 4-1.75l-6.85-13.3 2.85 15.05m17.95 1.45q1.4.9 1.55 1.5l8.7-14.65L86.1 57.85m-2.05-1.7q1.5-7.95 3.2-15.7l-7 14.15q1.45.35 3.8 1.55m.1 3.6h-.05q-3.1-3-6.3-3.5-.65-.05-1.25-.05h-.1q-.55 0-1.2.05-.05 0-.15.05-.55.05-1.15.2-2.6.8-5.15 3.25h.05q4.15 2.85 6.6 5.65l1.1 1.2q.7-1 1.65-1.95 2.35-2.4 5.95-4.9m-9.55-1-.2-.3q0-.05.1-.1 1.35-.2 2.6-.2h1q.2.25.15.3l-1.2 1.8.8.9.6.8q0 .2-.05.25-.05.05-.15.05-1.05.05-2.1.15-.6 0-1.2.05-.05 0-.1-.1l-.05-.05q0-.1.05-.2.05-.05.05-.1.05-.1.15-.2.5-.75 1-1.45-.75-.8-1.45-1.6m.45 3.05h.05q.8.2 1.5.3.35-.05 1.15-.15-.25-.4-.4-.8-.35-.4-.75-.75-.15.15-.7.6-.45.35-.85.8m2.8-3.15q-.6-.1-1.65-.15-.6.05-1.15.2.65.65 1.15 1.2.15.15.6 0 .45-.5 1.05-1.25m-1.4-18.4h-.05L74.3 54.2l.35-.1q.8-.1 1.55-.1.8.05 1.6.15l.4.1q-.15-2.1-.35-4.2l-1.3-9.8h-.1m38.8 52.7q-8.95 12.2-28.2 11.25 19.25 7.85 28.2-11.25m-77.35 0q8.95 19.1 28.2 11.25-19.25.95-28.2-11.25m79.45 12.5-.15-.1q-.65 2.3-1.4 4.25-1.95 5.9-3.8 9.35-1.85 3.45-4 7.1-2.2 3.7-7.7 9.8-5.55 6-8.05 6.4-2.55.35-3.2.45-.2 0-.3.1-2.25.5-3.4 1.5-.2.2-.35.55-.1.2-.25.4 29.1 2.9 31.1-16.65-2.7 8.65-12.45 11.8-4.2 1.3 3.35-7.75 7.55-9.1 9.7-14.2 2.3-5 .9-13m-70.6 27.2q7.55 9.05 3.35 7.75-9.75-3.15-12.45-11.8 1.95 19.55 31.1 16.65-.2-.2-.25-.4-.15-.35-.35-.55-1.2-1-3.4-1.5-.1-.1-.3-.1-.7-.1-3.2-.45-2.5-.4-8.05-6.4-5.55-6.1-7.7-9.8-2.15-3.65-4-7.1-1.9-3.45-3.85-9.35-.7-1.95-1.35-4.25l-.15.1q-1.4 8 .85 13 2.2 5.1 9.75 14.2m-1.1-68.55q-.012-.136-.05-.25v.05q.038.075.05.2m23.2 19.85Q65.65 77.55 50.1 67q13.6 12.05 17 19.95 3.35 7.9 2.85 13.1 2.7-8.55-1.1-16.1M102.2 67Q86.6 77.55 83.4 83.95q-3.75 7.55-1.1 16.1-.5-5.2 2.9-13.1 3.35-7.9 17-19.95m13.6-25.95q-4.85 3.05-10.2 6.3-5.3 3.3-14.9 10.6-9.65 7.25-14.65 16-5-8.75-14.65-16-9.6-7.3-14.9-10.6-5.35-3.25-10.25-3.2.75.9 8.75 5.6 7.95 4.65 19.15 15.1 11.15 10.4 11.9 31.95.75-21.55 11.9-31.95 11.2-10.45 19.15-15.1 8-4.7 8.7-8.7Z"></path><path fill="#547AA8" fill-opacity=".451" d="M53.4 80q-.45-.25-.9-.4h-.05q-2-.6-3.4.35-1.4 1-1.35 3.1 0 1.75 1.1 3.35.25.35.55.7 1.15 1.45 2.7 2.15.4.2.85.35 1.7.5 3-.2.2-.1.4-.25 1.3-.95 1.3-2.85v-.2q-.05-1.3-.7-2.5-.35-.75-.95-1.55-1.2-1.4-2.55-2.05m3.7 5.65q.05.25.05.5.05 1.7-1 2.55-.1.05-.2.15-1.25.85-2.95.3-.25-.05-.5-.15-1.55-.65-2.8-2.2-.4-.4-.7-.95-.8-1.25-.85-2.65v-.15q-.05-1.8 1.15-2.75 1.35-.8 3.05-.3 2.2 1.05 3.3 2.4.3.35.55.75.75 1.2.9 2.5m43.45-6.05q-.15.05-.25.05-1.85.7-3.2 2.45-.3.3-.5.6-1.1 1.65-1.15 3.4v.05q-.05 2.05 1.35 3.05 1.4 1 3.35.4.6-.2 1.15-.55 1.4-.65 2.5-2 .1-.15.15-.3 1.2-1.55 1.4-3.3V83q0-1.4-.7-2.35-.25-.4-.75-.75-1.3-.95-3.35-.3m-4.7 6.8v-.3q.1-1.65 1.2-3.2 1.65-2.15 3.4-2.8 2.05-.7 3.25.15.45.4.7.85.55.75.5 1.9 0 1.75-1.1 3.3-.2.25-.4.45-.95 1.2-2.1 1.85-.65.4-1.3.6-1.7.5-2.95-.35-1.1-.8-1.2-2.45Z"></path><path fill="#27528D" fill-opacity=".451" d="M55.05 82.85Q54 81.4 52.5 80.95q-1.5-.5-2.45.25-1.05.7-1 2.2.05 1.5 1.1 3 1.15 1.35 2.6 1.8 1.5.45 2.55-.25 1-.7 1-2.2-.1-1.55-1.25-2.9m42.95 0q-1.15 1.35-1.2 2.9 0 1.5.95 2.2 1.05.7 2.55.25 1.45-.45 2.6-1.8 1.05-1.5 1.1-3 .05-1.5-1-2.2-.95-.75-2.45-.25-1.5.45-2.55 1.9Z"></path></g></defs><use xlink:href="#a_11_1"></use><use xlink:href="#b_11_0"></use></svg><svg xmlns="http://www.w3.org/2000/svg" xmlns:xlink="http://www.w3.org/1999/xlink" preserveAspectRatio="none" width="150" height="155" id="frame_13" display="none"><defs><path fill="#27528D" fill-opacity="0" d="M150.1 0H0v155.5h150.1V0Z" id="b_12_0"></path><g id="a_12_1"><path fill="#27528D" d="M39.6 94.45q8.65 17.05 26.5 9.75-18.1.9-26.5-9.75m4.9 28q-.4-.7-.75-1.4-1.3-2.4-2.55-5.9-.4-1.15-.85-2.4-.65-1.9-1.2-3.75l-.05-.05q-.05 0-.1.05v.05q-1.2 7.2.85 11.65.1.3.25.6 2.1 4.6 8.4 12.15.6.75 1.1 1.4 5.05 6.3 2.25 5.65-.65 0-1.5-.3-7.2-2.7-9.4-9.4l-.1-.3q1 8.25 7.4 11.9 1.25.75 2.8 1.35 1.35.55 2.95.85 5.15 1.2 12.1.55.15 0 .3-.05t.4-.1q.75-.1 1.45-.3-.15-.15-.25-.4-.15-.25-.35-.4-.25-.2-.5-.35-.15-.05-.3-.15-.9-.45-2.25-.7-.1-.05-.25-.1l-.05-.05q-.8-.1-2.8-.55-.35-.15-.75-.35-1.95-1.15-6.2-5.7-.65-.65-1.25-1.3-4.2-4.6-5.85-7.3-.1-.1-.15-.2l-2.8-4.7M67.6 87.4q2.45 5.95 2.55 10.25.05.95-.05 1.75.2-.75.35-1.55 1.45-6.7-1.55-13.1-2.85-5.95-16.55-15.85Q64.6 80 67.6 87.4m-1.6-28q.35-.05 1.7-.95l-9.75-11.3L66 59.4m2.7-1.95q2.05-1.25 3.65-1.6L66.2 43.9l2.5 13.55m7.45 50.45q-19.25.7-13.55 7.6 1.4-5.45 6.45-4.1 4.9 1.35 7.5.75 2.5-.65 6.9-.95 4.35-.35 8.5 4.3 3.4-6.9-15.8-7.6m38.15 1.6q-.6 2-1.3 3.8-1.8 5.25-3.5 8.35-1.75 3.05-3.7 6.35-2.05 3.3-7.1 8.75-5.05 5.4-7.3 5.75-1.05.2-1.7.25-.8.15-1.15.2-.1.05-.25.1-.7.2-1.25.35-1.1.4-1.8.95-.2.25-.35.55 0 .1-.1.2l-.1.15q26.15 2.75 28.3-14.8-2.3 7.65-10.8 10.3-3.7 1.15 3.05-7 2.6-3.05 4.5-5.65 3.05-4.15 4.1-7 1.95-4.45.6-11.5-.05-.05-.15-.1m-.9-15.05q-8.4 10.65-26.5 9.75 17.9 7.3 26.5-9.75M99.9 69q-1.55 1-3.05 2-11.25 8.25-13.8 13.6-3.35 6.95-1 14.8v-.15Q82 98 82.2 96.7q.45-3.85 2.7-9.2 3.05-7.25 15-18.5M85.55 59q1.3.75 1.45 1.35l7.75-13.2L85.55 59m26.25-14.4q-.85.45-1.65 1-3.5 2.15-7.25 4.45-2.6 1.6-6.45 4.3-3.1 2.2-6.85 5.05-8.65 6.6-13.3 14.5-2.65-4.4-6.55-8.35-3-3.05-6.7-5.85-8.7-6.6-13.55-9.6-4.8-2.9-9.3-2.9.8.85 7.95 5.05Q55.35 56.5 65.4 66q10 9.5 10.65 29 .1-3.65.55-6.85 2-14.25 10.1-21.9 10.05-9.45 17.2-13.8 7.15-4.25 7.9-7.85M83.55 57.15q1.35-7.2 2.9-14.25l-6.4 12.9q1.2.3 3.5 1.35m-.2 3.35v-.05q-2.75-2.65-5.65-3.1-.55-.1-1.15-.1h-.05q-.55 0-1.05.1-.1 0-.15.05-.5.05-1 .2-2.4.7-4.65 2.9h.05q3.65 2.55 5.85 5.05.55.55 1 1.05.65-.85 1.55-1.7 2.1-2.2 5.25-4.4m-8.55-.9-.2-.25q0-.05.05-.1 1.25-.2 2.4-.2h.9q.2.2.2.3-.55.7-1.05 1.55.35.45.7.8.25.35.5.75 0 .2-.05.2-.05.05-.1.05-.95.1-1.95.2-.5 0-1 .05-.1 0-.15-.05-.05-.1-.05-.15 0-.05.05-.1l.1-.1q.1-.1.15-.2.7.15 1.3.3.35-.05 1.05-.2-.15-.35-.3-.75l-.7-.7q-.15.15-.7.55-.2.15-.4.4.3-.45.55-.95-.65-.65-1.3-1.4m1.45 1.1q.2.1.55 0 .45-.5 1-1.25-.6-.05-1.55-.05-.55 0-1.05.1.6.65 1.05 1.2m.3-17.8h-.1L74.5 55.35l.35-.1h1.35q.75 0 1.45.05.15.05.35.1-.1-1.85-.25-3.7l-1.2-8.8Z"></path><path fill="#4F76A5" fill-opacity=".4" d="M56.9 83.85q-.35-.7-.95-1.4-1.05-1.25-2.35-1.85-.35-.25-.8-.35-1.85-.6-3.1.3-1.3.95-1.25 2.85 0 1.55 1 3 .2.35.5.65 1.1 1.3 2.45 1.95.4.2.8.3 1.55.45 2.75-.15.2-.1.35-.25 1.2-.85 1.2-2.6v-.2q0-1.15-.6-2.25m-4.2-3.2q1.95.95 2.95 2.1.3.35.55.7.7 1.05.85 2.3.05.2.05.45 0 1.5-.95 2.3-.1.05-.15.1-1.15.75-2.7.3-.25-.05-.45-.15-1.45-.55-2.6-1.95-.35-.4-.65-.85-.7-1.15-.75-2.45v-.15q-.05-1.65 1.05-2.45 1.25-.75 2.8-.25m47.6-.4q-.1.05-.25.05-1.65.65-2.95 2.2-.2.25-.4.55-1 1.45-1.05 3.05v.05q-.05 1.9 1.2 2.8 1.3.85 3.1.35.55-.15 1.05-.45 1.25-.6 2.3-1.85.1-.15.15-.25 1.1-1.4 1.25-3v-.4q0-1.3-.65-2.15-.25-.4-.65-.7-1.25-.85-3.1-.25m-4.25 6.15v-.3q.05-1.5 1.05-2.9 1.55-1.9 3.1-2.55 1.85-.55 3 .2.35.3.65.75.45.65.45 1.75 0 1.55-1.05 2.95-.1.25-.35.45-.85 1.05-1.95 1.65-.55.35-1.15.55-1.55.4-2.7-.35-1-.75-1.05-2.2Z"></path><path fill="#27528D" fill-opacity=".4" d="M55.15 83.15q-.95-1.25-2.3-1.7-1.4-.45-2.3.2-.95.7-.9 2.05.05 1.4 1.05 2.7 1.05 1.25 2.35 1.65 1.35.4 2.3-.25.95-.65.95-2-.05-1.35-1.15-2.65m45.15-1.7q-1.35.45-2.3 1.7-1.1 1.3-1.15 2.65 0 1.35.9 2 .95.65 2.3.25 1.35-.4 2.4-1.65 1-1.3 1.05-2.7.05-1.35-.9-2.05-.95-.65-2.3-.2Z"></path></g></defs><use xlink:href="#a_12_1"></use><use xlink:href="#b_12_0"></use></svg><svg xmlns="http://www.w3.org/2000/svg" xmlns:xlink="http://www.w3.org/1999/xlink" preserveAspectRatio="none" width="150" height="155" id="frame_14" display="none"><defs><path fill="#27528D" fill-opacity="0" d="M150.1 0H0v155.5h150.1V0Z" id="b_13_0"></path><g id="a_13_1"><path fill="#27528D" d="M41.3 95.9q8.3 15 24.8 8.3-16.9.85-24.8-8.3m.5 16.7q-.95 6.35.85 10.4l.2.5q1.85 4.1 7.35 10.8.55.6 1 1.2 4.15 5.25 2.45 5.2-.35.25-1.25-.05-6.45-2.2-8.25-8.2l-.05-.05q1 7.2 6.75 10.4 1.15.6 2.55 1.15 1.2.4 2.55.7 4.65.95 10.85.15l.1-.1q.15-.1.25-.15.35-.25.65-.4l-.3-.3q-.15-.2-.3-.35-.25-.15-.55-.25-.1-.1-.2-.15-.75-.35-2.1-.6-.05 0-.15-.05h-.05q-.85-.1-2.4-.75-.3-.15-.6-.4-1.4-1.15-5.3-5.15l-1.1-1.2q-3.95-4.15-5.4-6.35-.1-.1-.15-.2-1.2-1.9-2.5-4.05-.35-.65-.7-1.2-1.15-2.1-2.25-5.2-.35-1.05-.7-2.15-.6-1.75-1.1-3.3-.05 0-.05-.05 0 .05-.1.1v.05m28.7-15.25q1.05-5.85-1.6-11.8-2.45-5.55-14.25-14.7 10.8 10.1 13.5 17.05 2.1 5.35 2.25 9.35 0 .662-.15 1.3.162-.587.25-1.2M66.75 60.4q.4-.05 1.6-.9l-8.8-10 7.2 10.9m2.45-1.9q1.95-1.2 3.4-1.5L67 46.45l2.2 12.05m6.95 49.45q-18.6.65-13.1 6.45.7-4.4 5.75-4.1 5 .3 7.4 0 2.4-.35 7.1-.3 4.7 0 8.15 4.4 3.3-5.8-15.3-6.45m35.4 5.8-.1-.1q-.55 1.75-1.2 3.35-1.7 4.6-3.3 7.35-1.6 2.7-3.4 5.6-1.95 2.9-6.4 7.7-4.55 4.75-6.55 5.15-.9.15-1.55.2-.65.15-.95.2-.15.05-.25.15-.6.15-1.1.3-.95.3-1.55.85-.25.15-.3.45-.05.05-.15.2l-.1.1q23.15 2.6 25.5-13-1.85 6.6-9.2 8.85-3.15.95 2.9-6.2 2.25-2.75 4-5.05 2.55-3.65 3.4-6.15 1.6-3.8.3-9.95m.05-17.8q-7.9 9.1-24.8 8.3 16.45 6.7 24.8-8.3M97.65 71q-1.45.85-2.75 1.65-9.95 7.55-12.2 12.6-2.95 6.3-.85 13.5v-.1q-.05-1.15.15-2.3.65-3.4 2.6-8.3Q87.3 81.4 97.65 71M93.2 49.5 85 60.05q1.2.75 1.35 1.3L93.2 49.5m14.55-1.35q-.65.35-1.4.85l-6.25 3.75q-2.2 1.35-5.5 3.65-2.7 1.95-6.1 4.55-7.75 5.85-11.95 12.85-2.35-3.8-5.95-7.15-2.65-2.75-5.95-5.3-7.75-5.8-12.15-8.5-4.3-2.6-8.3-2.65.75.8 7.1 4.55 6.5 3.85 15.3 12.4 8.9 8.55 9.4 26 .1-3.1.5-5.8 1.8-12.75 8.95-19.7Q94.3 59.1 100.7 55.2q6.35-3.8 7.05-7.05M83 58.2q1.2-6.5 2.65-12.85l-5.85 11.6q1.05.25 3.2 1.25m-.35 3.05q0-.05-.05-.05-2.45-2.4-5-2.75-.45-.05-1-.05h-.05q-.45 0-.95.05h-.1q-.45.05-.9.2-2.1.6-4.15 2.6h.1q3.2 2.25 5.2 4.45.45.45.85.9.6-.75 1.35-1.5 1.85-1.9 4.7-3.85m-7.7-.8-.1-.2q0-.1.05-.15 1.05-.15 2.1-.2h.8q.2.2.2.25-.45.7-.85 1.45l.6.7q.2.35.4.65v.2q-.05.05-.1.05-.85.05-1.7.15-.45 0-.95.05-.05 0-.1-.05t-.05-.1q0-.05.05-.1 0-.05.05-.1l.2-.2 1.1.3q.3-.05.95-.2-.1-.3-.25-.65-.3-.3-.6-.65-.2.15-.65.45-.15.1-.25.2.15-.3.35-.6-.65-.6-1.25-1.25m2.8-.1q-.55-.1-1.4-.15-.5.05-1.05.2.6.55 1.05 1.05.15.1.5-.05.35-.4.9-1.05m-1.2-14.8h-.05L74.7 56.5l.3-.05q.65-.05 1.25-.05.6.05 1.25.1.2 0 .3.05 0-1.6-.15-3.2l-1.1-7.8Z"></path><path fill="#4A71A2" fill-opacity=".349" d="M53.85 81.15q-.35-.15-.75-.25-1.65-.5-2.8.25-1.15.85-1.1 2.55 0 1.45.9 2.7.2.35.45.65.95 1.1 2.2 1.65.35.2.75.3 1.4.4 2.45-.15.2-.1.35-.2 1.1-.8 1.1-2.35v-.2q-.05-1-.6-2-.3-.65-.85-1.25-.95-1.15-2.1-1.7m2.35 2.55q.7 1 .8 2.1v.4q0 1.4-.85 2.1-.05.05-.15.05-1 .7-2.45.3l-.4-.1q-1.3-.5-2.35-1.8-.3-.35-.55-.75-.7-1-.75-2.2v-.1q0-1.5 1-2.25 1.1-.65 2.5-.2 1.85.8 2.75 1.85.25.3.45.6m39.6 2.4v.1q0 1.65 1.2 2.45 1.1.8 2.7.35.5-.15.95-.4 1.2-.55 2.15-1.65.1-.1.1-.2 1.05-1.3 1.15-2.75v-.35q0-1.15-.6-1.9-.25-.4-.6-.65-1.15-.75-2.8-.2-.1 0-.2.05-1.5.55-2.65 1.95-.25.25-.4.45-.95 1.35-1 2.75m.35.3v-.25q.1-1.35 1-2.6 1.4-1.7 2.85-2.25 1.6-.55 2.65.1.35.3.55.7.5.6.5 1.55 0 1.45-.9 2.7-.2.2-.35.4-.85.95-1.8 1.45-.5.3-1 .45-1.45.4-2.5-.3-.9-.65-1-1.95Z"></path><path fill="#27528D" fill-opacity=".349" d="M55.3 83.5q-.9-1.15-2.1-1.6-1.25-.3-2.05.3-.9.6-.85 1.75.05 1.25.9 2.45.9 1.1 2.2 1.45 1.15.4 2-.2.9-.6.9-1.8-.05-1.25-1-2.35m42.65 0q-.95 1.1-1 2.35 0 1.2.85 1.8.9.6 2.05.2 1.25-.35 2.15-1.45.9-1.2.9-2.45.05-1.15-.8-1.75-.8-.6-2.1-.3-1.2.45-2.05 1.6Z"></path></g></defs><use xlink:href="#a_13_1"></use><use xlink:href="#b_13_0"></use></svg><svg xmlns="http://www.w3.org/2000/svg" xmlns:xlink="http://www.w3.org/1999/xlink" preserveAspectRatio="none" width="150" height="155" id="frame_15" display="none"><defs><path fill="#27528D" fill-opacity="0" d="M150.1 0H0v155.5h150.1V0Z" id="b_14_0"></path><g id="a_14_1"><path fill="#27528D" d="M43.05 97.35q7.95 13 23.05 6.85-15.75.8-23.05-6.85M44.7 116v.1q-.8 5.55.7 9.15.15.2.25.4 1.55 3.65 6.25 9.4.45.55.85 1.05 3.3 4.15 2.65 4.7-.05.55-.95.3-5.7-1.7-7.15-6.95v.15q1.1 6.2 6.2 8.9.9.45 2.15 1 1.05.3 2.25.45 4.2.85 9.55-.2 0-.05.05-.15 0-.15-.05-.25 0-.25-.2-.5-.1-.1-.25-.2-.1-.15-.3-.25-.2-.1-.45-.2-.15-.05-.25-.1-.55-.25-1.8-.45H64q-.95-.2-1.95-.9-.25-.2-.45-.45-.95-1.2-4.4-4.75-.5-.45-1-.95-3.75-3.75-4.9-5.4-.15-.15-.2-.3-.95-1.4-2.2-3.4-.35-.5-.6-.95-1.05-1.85-1.95-4.45l-.7-1.9q-.55-1.6-.95-2.9m23.95-27.6q1.8 4.8 1.9 8.4v.15q.6-5.05-1.6-10.6-2.1-5.05-12.05-13.6 9.4 9.15 11.75 15.65M61.2 51.95l6.3 9.4q.35 0 1.45-.8l-7.75-8.6m8.6 7.6q1.8-1.1 3.05-1.4l-5-9.15 1.95 10.55m38.85 58.35q0-.05-.1-.1-.5 1.55-1.15 2.9-1.55 4-2.95 6.35-1.5 2.35-3.15 4.8-1.75 2.55-5.7 6.7-4.05 4.15-5.85 4.5-.75.15-1.3.25t-.8.15q-.15.05-.2.15-.55.1-.95.3-.85.25-1.45.7-.15.15-.25.35-.05.1-.15.2l-.1.1q20.2 2.45 22.75-11.15-1.5 5.6-7.55 7.35-2.65.8 2.6-5.45 2.1-2.35 3.6-4.45 2.1-3.05 2.75-5.15 1.25-3.3-.05-8.5m1.05-20.5q-7.3 7.65-23.05 6.85 15.1 6.15 23.05-6.85M81.9 96q.75-2.9 2.45-7.35 2.35-6.05 11-15.65-1.2.65-2.35 1.25-8.65 6.9-10.7 11.6-2.55 5.75-.7 12.25V98q.05-1 .3-2m9.75-44.05-7.2 9.2q1.1.65 1.25 1.2l5.95-10.4m1.15 6.5q-2.45 1.7-5.35 3.95-6.8 5.15-10.65 11.35-2.15-3.15-5.3-6-2.35-2.45-5.3-4.65-6.7-5.1-10.7-7.5-3.75-2.3-7.35-2.3.75.65 6.25 3.95 5.75 3.45 13.45 11.05 7.7 7.65 8.15 23 .05-2.6.4-4.85 1.6-11.2 7.85-17.4Q91.9 61.5 97.5 57.9q5.5-3.35 6.2-6.25-.55.35-1.15.7-2.5 1.5-5.15 3.1-1.85 1.05-4.6 3m-10.3.8q1.05-5.8 2.35-11.4l-5.25 10.3q.8.2 2.9 1.1M81.9 62q0-.05-.05-.05-2.1-2.1-4.35-2.45-.4-.05-.85-.05h-.05q-.4 0-.8.05-.05.05-.1.05-.45.05-.8.2-1.85.5-3.6 2.25h.1q2.8 1.95 4.5 3.85.4.4.75.8.55-.65 1.15-1.35 1.65-1.65 4.1-3.3m-6.75-.7-.15-.2q0-.05.05-.1 1-.2 1.9-.2h.75q.15.15.15.2-.35.6-.65 1.3l.5.6q.15.25.35.55 0 .15-.05.15h-.1q-.7.15-1.45.25-.45 0-.85.05-.05 0-.05-.05-.05-.05-.05-.1t.05-.1v-.05q.1-.1.15-.2.5.2.95.25.3-.05.85-.15-.05-.3-.15-.6-.25-.3-.55-.6-.2.1-.6.35l-.1.1q.05-.15.1-.35-.55-.55-1.05-1.1m2.5-.15q-.45-.1-1.25-.1-.5 0-.95.2.55.5.95 1 .15.05.45-.05.35-.45.8-1.05m-1.05-13h-.05L74.9 57.7l.3-.1q.55-.05 1.05-.05.6.05 1.15.15.1 0 .25.05 0-1.4-.1-2.75l-.95-6.85m-.4 59.8q-18 .55-12.7 5.3 0-3.35 5.1-4 5.05-.75 7.3-.75t7.35.35q4.95.3 7.75 4.4 3.2-4.75-14.8-5.3Z"></path><path fill="#456D9F" fill-opacity=".302" d="M53.45 81.5q-1.5-.4-2.5.25-1.1.8-1.05 2.3 0 1.25.85 2.35.15.35.4.6.9 1 1.95 1.45.35.2.7.25 1.25.35 2.15-.15.2-.05.35-.2.95-.65.95-2.05v-.15q0-.95-.5-1.85-.3-.55-.75-1.1-.85-.95-1.9-1.45-.3-.15-.65-.25m-2.3.55q.95-.6 2.2-.2 1.65.7 2.45 1.65l.4.5q.65.85.7 1.85.05.2 0 .4 0 1.2-.75 1.8-.05.05-.15.05-.9.65-2.15.25-.2 0-.4-.05-1.15-.45-2.05-1.55-.25-.35-.55-.65-.6-.95-.65-2V84q0-1.3.95-1.95m44.9 4.1v.05q0 1.5 1.05 2.2 1 .7 2.4.3.45-.1.85-.35 1.1-.45 1.9-1.45l.15-.15q.9-1.2 1-2.45v-.35q0-1.05-.55-1.7-.25-.35-.6-.55-.95-.65-2.45-.2-.1.05-.15.1-1.4.45-2.4 1.65-.2.25-.35.45-.85 1.15-.85 2.45m.3 0q.05-1.2.85-2.3 1.25-1.5 2.5-1.95 1.55-.5 2.45.1.3.25.45.55.5.6.5 1.45 0 1.25-.85 2.35-.1.2-.3.4-.7.8-1.6 1.3-.45.25-.95.35-1.25.35-2.15-.3-.8-.55-.9-1.7v-.25Z"></path><path fill="#27528D" fill-opacity=".302" d="M55.35 83.85q-.7-1.05-1.85-1.4-1.1-.3-1.85.2-.8.55-.75 1.6.05 1.15.85 2.15.8 1 1.9 1.3 1.05.35 1.85-.2.8-.5.8-1.6t-.95-2.05m44.45-1.4q-1.1.35-1.85 1.4-.9.95-.9 2.05 0 1.1.75 1.6.8.55 1.9.2 1.05-.3 1.9-1.3.75-1 .8-2.15.05-1.05-.75-1.6-.7-.5-1.85-.2Z"></path></g></defs><use xlink:href="#a_14_1"></use><use xlink:href="#b_14_0"></use></svg><svg xmlns="http://www.w3.org/2000/svg" xmlns:xlink="http://www.w3.org/1999/xlink" preserveAspectRatio="none" width="150" height="155" id="frame_16" display="none"><defs><path fill="#27528D" fill-opacity="0" d="M150.1 0H0v155.5h150.1V0Z" id="b_15_0"></path><g id="a_15_1"><path fill="#27528D" d="M44.75 98.85q7.65 10.95 21.35 5.35-14.6.75-21.35-5.35M70.6 94.3q-.2-3.35-1.6-7.15-1.8-4.6-9.85-12.45 8.05 8.2 10 14.2 1.05 2.95 1.45 5.4m0 2.15q0 .5-.05 1 .2-.5.2-1.05 0-1-.15-2.1.05 1.1 0 2.15m-1-34.8-6.8-7.35 5.45 8.1q.4-.1 1.35-.75m-5.45 51.4q.4-2.95 5.05-3.6 4.65-.7 6.7-.7 2.1.05 6.75.35 4.5.3 7.4 4 2.25-4.45-13.85-4.8-16.4.5-12.05 4.75m4.6-61.5 1.6 9.1q1.65-1.1 2.75-1.3l-4.35-7.8m37 70.45-.05-.05q-.55 1.3-1.05 2.4-1.45 3.4-2.75 5.4-1.3 2-2.8 4.05-1.65 2.15-5.05 5.65-3.6 3.55-5.1 3.9-.65.1-1.1.2-.45.1-.7.15l-.15.15q-.45.1-.8.3-.65.15-1.25.55l-.2.3q-.05.1-.15.2l-.05.05q16.55 2.25 19.65-8.5-1.25 3.85-5.65 5.05-2.1.6 2.35-4.65 1.8-2.05 3.15-3.85 1.7-2.55 2.05-4.25.9-2.7-.35-7.05m2.15-23.1q-6.8 6.1-21.4 5.35 13.75 5.6 21.4-5.35m-16.85-23Q83.7 82.1 82 86.5q-2.2 5.15-.65 10.95v-.1q.05-.9.35-1.7.9-2.45 2.35-6.45 2.05-5.35 9-14.15-1.05.45-2 .85m-7.1-13.6q.95.55 1.1 1.05l5-9.05-6.1 8M91 60.45Q88.9 62 86.35 63.9q-5.9 4.45-9.3 9.75-1.9-2.55-4.65-4.85-2-2.05-4.6-4-5.75-4.35-9.3-6.45-3.25-1.95-6.4-2.05.8.65 5.45 3.45 5.05 3.1 11.6 9.7 6.45 6.7 6.8 20 .05-2.05.35-3.85 1.4-9.7 6.65-15.15 6.5-6.55 11.35-9.8 4.7-2.95 5.4-5.45-.5.25-1 .55-1.9 1.15-4.1 2.4-1.4.8-3.6 2.3m-9.05-.1q.9-5.1 2.05-10.05l-4.6 9q.65.15 2.55 1.05m-.8 2.35-.05-.05q-1.75-1.7-3.65-2-.35-.05-.75-.05h-.05q-.35 0-.7.05h-.05q-.35.05-.65.1-1.6.5-3.1 1.95h.05q2.4 1.7 3.85 3.35.35.3.65.65.45-.55 1-1.15 1.4-1.4 3.45-2.85m-4.25-1.05h.65q.2.15.15.2-.2.5-.5 1.1.25.25.45.5.15.25.25.45v.2h-.1q-.6.15-1.25.2-.35.05-.7.05h-.1V64.2q.05 0 .05-.05.05-.1.1-.25.45.2.8.35.25-.1.75-.25-.05-.25-.1-.55-.2-.25-.5-.5.35-.35.75-.95-.4-.05-1.15-.1-.45.05-.9.2.6.5.95.9.09.045.3-.05-.168.088-.55.3h-.05q0-.05.05-.15-.45-.45-.9-.95l-.1-.15v-.1q.9-.2 1.65-.25m-1.55-2.85q.5-.05.9-.05.5 0 .95.1.15 0 .3.05v-2.25l-.85-5.85h-.1l-1.4 8.05.2-.05m-27.8 60.75-.05.05q-.55 5.1.9 8.25 1.45 3.4 5.95 8.9 4.3 5.3 2.2 4.8-5.05-1.2-6.05-5.75 1 5.5 5.6 7.8.8.35 1.85.8.9.2 1.95.3 3.7.6 8.25-.6-.1-.1-.15-.2-.1-.25-.2-.3-.7-.65-2.05-1.05-.1-.05-.15-.05-.45-.15-1.8-.3-1.35-.2-1.75-1.55-.5-1.4-4.45-5.05-3.9-3.75-4.6-4.75-.75-1-1.95-2.75-1.2-1.8-2.15-4.5l-1.35-4.05Z"></path><path fill="#40689C" fill-opacity=".251" d="M53.8 82.15h-.05q-1.3-.35-2.2.2-.9.7-.9 2 0 1.1.75 2.1.15.3.4.5.7.85 1.7 1.25.3.15.6.2 1.1.3 1.9-.1.2-.1.3-.2.85-.6.9-1.8v-.1q0-.85-.55-1.65-.2-.45-.65-.95-.7-.85-1.65-1.25-.3-.1-.55-.2m-2.3 4q-.55-.8-.6-1.75v-.05q0-1.15.85-1.7.85-.5 1.95-.2 1.45.6 2.15 1.4.2.25.4.45.55.8.65 1.65v.3q-.05 1.05-.75 1.6-.05 0-.1.05-.8.55-1.95.2-.15-.05-.3-.05-1.05-.35-1.85-1.3-.2-.3-.45-.6m48.05-4q-.1.05-.2.05-1.15.4-2.05 1.45-.2.2-.3.4-.75 1.05-.8 2.15v.05q.05 1.3.95 1.9.9.6 2.2.25.35-.05.7-.3.95-.4 1.75-1.25.05-.1.1-.1.8-1.05.85-2.2v-.25q-.05-.9-.55-1.5-.2-.25-.45-.45-.9-.55-2.2-.2M96.5 86.2q.05-1.05.75-2.05 1.15-1.25 2.25-1.65 1.3-.4 2.1.05.3.25.45.55.45.45.45 1.2 0 1.15-.75 2.1-.15.15-.25.35-.65.65-1.45 1.05-.4.25-.85.35-1.05.3-1.85-.25-.75-.5-.85-1.5v-.2Z"></path><path fill="#27528D" fill-opacity=".251" d="M51.5 84.5q.05 1 .75 1.9.75.85 1.7 1.15.95.25 1.65-.2.7-.4.7-1.4 0-.95-.8-1.8-.65-.9-1.65-1.2-1-.25-1.65.25-.7.45-.7 1.3m49.7-1.3q-.65-.5-1.65-.25-1 .3-1.65 1.2-.8.85-.8 1.8 0 1 .7 1.4.7.45 1.65.2.95-.3 1.75-1.15.65-.9.7-1.9 0-.85-.7-1.3Z"></path></g></defs><use xlink:href="#a_15_1"></use><use xlink:href="#b_15_0"></use></svg><svg xmlns="http://www.w3.org/2000/svg" xmlns:xlink="http://www.w3.org/1999/xlink" preserveAspectRatio="none" width="150" height="155" id="frame_17" display="none"><defs><path fill="#27528D" fill-opacity="0" d="M150.1 0H0v155.5h150.1V0Z" id="b_16_0"></path><g id="a_16_1"><path fill="#27528D" d="M46.45 100.3q7.3 8.95 19.65 3.9-13.4.65-19.65-3.9m8.3 32.95q-.65-.85-1.7-2.25-1.1-1.5-1.95-3.7-.85-2.15-1.3-3.25h-.05v.1q-.25 4.2 1.05 6.8 1.4 2.95 5.25 7.45 3.6 4.3 2.05 3.95-2.55-.6-3.65-2.45 1.35 2.8 4.2 4.05h.1q.5.25 1.35.65.35 0 .7.1l.8.1q.35.05.7.05 2.65.2 5.65-.75-.1-.1-.1-.15-.1-.2-.25-.3-.6-.55-1.7-.85-.1-.05-.2-.05-.4-.1-1.45-.25-1.2-.2-1.55-1.3-.6-1.15-3.9-4.15-3.3-3-4.05-3.8M61.4 76.6q6.2 7.15 7.6 11.35 1.45 4.65 1.7 8.05.05.4.05.75l.2-.7q0-2.95-1.3-6.7-1.55-5.5-8.25-12.75M69 63.4q.4-.15 1.2-.75l-5.8-5.95 4.6 6.7m.6-9.3 1.25 7.6q1.5-1 2.45-1.2l-3.7-6.4m6.6 54.5q-14.8.45-11.4 4.2.8-2.55 5-3.15 4.2-.65 6.15-.65 1.85.05 6.05.35 4.1.3 7.1 3.6 1.3-4.1-12.9-4.35m23.15 23.8q-1.2 1.6-2.45 3.35-1.55 1.8-4.35 4.65-3.15 2.9-4.4 3.25-.55.1-.9.15-.4.15-.55.2-.1.05-.15.1-.35.15-.65.25-.55.15-1 .45-.15.1-.25.25-.05.05-.1.15l-.05.05q12.15 1.9 16.05-5-1.15 1.45-3.25 1.95-1.5.35 2.15-3.9 1.5-1.75 2.75-3.25 1.15-2 1.35-3.35.55-2.15-.65-5.55l-.1-.1q-.45 1.1-.95 2.05-1.3 2.7-2.5 4.3m6.7-32q-6.2 4.55-19.6 3.9 12.3 5 19.6-3.9M90.8 77.05q-.85.3-1.7.5-6.05 5.5-7.45 9.6-1.85 4.6-.55 9.65v-.1q.15-.7.5-1.4.95-1.95 2.2-5.55 1.65-4.75 7-12.7m-7.4-13.7q.8.55 1 1l4.05-7.65-5.05 6.65m5.75-.8q-1.75 1.2-3.9 2.85-4.9 3.65-7.95 8.15-1.65-1.9-4-3.6-1.75-1.85-3.9-3.45-4.8-3.6-7.9-5.4-2.75-1.6-5.4-1.75.75.55 4.65 2.9 4.25 2.65 9.6 8.4t5.6 17q.05-1.55.25-2.85 1.15-8.2 5.5-12.9 5.4-5.7 9.45-8.5 3.8-2.5 4.5-4.65l-.7.4q-1.45.8-3.05 1.7-1.05.55-2.75 1.7m-7.75-1.2q.75-4.4 1.8-8.6l-4.05 7.65q.45.2 2.25.95m-5.25.35h-.1q-.25.05-.5.15-1.35.35-2.55 1.55 2 1.45 3.2 2.8.3.25.55.5.35-.45.75-.9 1.2-1.2 2.9-2.4-1.5-1.4-3.05-1.7-.3-.05-.6-.05h-.05q-.25 0-.55.05m1.3.85q.1.1.1.15-.05.1-.05.2-.35-.15-.95-.2-.45.05-.85.25.5.4.85.8-.1 0-.2.05l-.05.05v-.05q-.4-.4-.75-.85l-.1-.1q0-.05.05-.05.7-.2 1.35-.25h.6m.05.45v.05q-.15.25-.3.55.25.25.4.45.05.2.2.4v.1h-.1q-.5.1-1.1.25-.25.05-.55.05H76l-.05-.05q0-.05.05-.1.05-.15.15-.2.3.1.6.25.2-.1.65-.2-.05-.3-.05-.5-.15-.2-.4-.4l.25-.3q.1-.15.3-.35m-1.95-3q.35-.05.75-.05l.8.1h.15q.1-.85.1-1.75l-.7-4.85h-.05L75.35 60h.2Z"></path><path fill="#3B6499" fill-opacity=".2" d="M54.6 82.95q-.25-.05-.5-.15-1.1-.25-1.9.15-.8.6-.8 1.7 0 .95.6 1.85.15.25.35.4.7.7 1.55 1.05.25.1.5.15.9.25 1.65-.1.15-.05.25-.15.75-.5.75-1.55v-.1q0-.75-.45-1.4-.2-.4-.55-.85-.65-.7-1.45-1m-3 1.75v-.05q.05-.95.75-1.45.7-.4 1.7-.2 1.25.55 1.9 1.2l.3.4q.45.65.55 1.4v.3q-.05.85-.65 1.3l-.1.1q-.7.4-1.65.15-.15-.05-.3-.05-.85-.35-1.6-1.05-.2-.25-.4-.55-.45-.65-.5-1.5m49.6-1.75q-.8-.45-1.85-.15-.1 0-.2.05-1.05.35-1.75 1.2-.2.15-.3.3-.65.9-.65 1.85v.1q0 1.1.8 1.55.8.5 1.85.25.3-.05.6-.25.9-.3 1.6-1.1l.05-.05q.7-.9.75-1.9v-.2q-.05-.75-.5-1.3-.15-.2-.4-.35m-1.95.1q1.1-.3 1.8.1.25.2.4.4.4.45.45 1.1 0 .95-.65 1.75-.1.15-.25.3-.6.6-1.3.9-.35.2-.65.3-.95.2-1.65-.2-.65-.5-.75-1.35v-.15q.05-.9.7-1.7.9-1.1 1.9-1.45Z"></path><path fill="#27528D" fill-opacity=".2" d="M52.75 83.65q-.6.45-.6 1.15 0 .85.6 1.6.65.7 1.5 1 .8.2 1.4-.2.65-.35.65-1.15 0-.85-.65-1.55-.6-.75-1.45-1t-1.45.15m45.1.85q-.65.7-.7 1.55.05.8.65 1.15.6.4 1.45.2.85-.3 1.5-1 .55-.75.55-1.6 0-.7-.6-1.15-.55-.4-1.4-.15-.9.25-1.45 1Z"></path></g></defs><use xlink:href="#a_16_1"></use><use xlink:href="#b_16_0"></use></svg><svg xmlns="http://www.w3.org/2000/svg" xmlns:xlink="http://www.w3.org/1999/xlink" preserveAspectRatio="none" width="150" height="155" id="frame_18" display="none"><defs><path fill="#27528D" fill-opacity="0" d="M150.1 0H0v155.5h150.1V0Z" id="b_17_0"></path><g id="a_17_1"><path fill="#27528D" d="M48.2 101.8q6.95 6.85 17.9 2.4-12.25.6-17.9-2.4m10.65 41.1q-1.3-1.2-1.95-3.05.2 2.25 1.95 3.05m-6.9-14.35v.05q.1 3.35 1.3 5.5 1.4 2.45 4.55 5.95 2.85 3.3 1.85 3.1-.45-.1-.8-.25 1 .9 2.4 1.4h.05q.35.15.9.45.2.05.5.15.35 0 .6-.05.25.05.5 0 2 .1 3.95-.8l-.1-.1q-.1-.15-.15-.2-.55-.4-1.5-.7l-.1-.05q-.35-.1-1.25-.25-.95-.15-1.3-1-.65-.9-3.4-3.2-2.65-2.3-3.35-2.95-.65-.65-1.55-1.75-1-1.15-1.75-2.8-.8-1.65-1.25-2.5h-.1m11.7-50Q68 85 69.05 88.75q1.05 4.2 1.7 6.75l.1.6q.2-.25.3-.45 0-2.6-1-5.8-1.2-5.05-6.5-11.3m6.1-14.15q.35-.15 1.05-.7l-4.75-4.6 3.7 5.3m3.85-2.75-3.15-5 .95 6.1q1.4-.95 2.2-1.1m2.6 47.25q-13.15.45-10.75 3.75 1.2-2.15 5-2.75 3.8-.65 5.5-.6 1.75.05 5.4.35 3.65.3 6.85 3.15.35-3.8-12-3.9m21.1 33.2q1.3-.7 1.4-2.55-.55 1.5-1.4 2.55m2.7-11.85q-.05 0-.05-.05-.45.85-.9 1.55-1.15 2.1-2.25 3.35-1 1.25-2.1 2.6-1.45 1.4-3.7 3.6-2.65 2.25-3.65 2.65-.45.05-.7.1-.3.15-.45.25l-.05.05q-.3.15-.55.25-.4.05-.8.35-.15 0-.2.15-.05.05-.1.15h-.05q9.1 1.65 12.85-3.15-.5.3-1.2.45-1 .15 1.9-3.1 1.25-1.45 2.3-2.65.7-1.5.65-2.45.2-1.55-.95-4.1m4.2-28.4q-5.65 3.05-17.9 2.45 10.95 4.45 17.9-2.45m-15.7-22.8q-.7.1-1.35.15-4.75 4.8-5.85 8.6-1.45 4-.45 8.35v-.05q.2-.65.55-1.15 1.1-1.45 2.1-4.65 1.35-4.1 5-11.25M86.9 59.1l-4.05 5.35q.7.45.9.9l3.15-6.25m.45 5.45q-1.45 1-3.15 2.3-4.05 3-6.65 6.65-1.4-1.35-3.35-2.5-1.45-1.45-3.2-2.8-3.85-2.85-6.5-4.35-2.25-1.25-4.4-1.5.7.55 3.8 2.4 3.55 2.3 7.7 7.05 4.2 4.8 4.3 14 .05-1 .2-1.9.95-6.65 4.35-10.65 4.2-4.65 7.5-7.1 3-2.1 3.7-3.85-.3.1-.5.25-.95.45-2.05 1-.65.3-1.75 1m-8.4-2.95q.25.05 1.95.8.55-3.65 1.45-7.15l-3.4 6.35m-2.65 1.2q-.05 0-.05.05-.2 0-.4.05-1.1.3-2.05 1.25h.05q1.6 1.15 2.5 2.25.2.15.45.35.25-.4.6-.75.9-.9 2.25-1.85-1.2-1.15-2.4-1.35h-.95m.15 1.6-.1.1-.65-.65-.05-.15v-.05q.6-.15 1.2-.2h.45l.15.1q0 .05-.05.15-.3-.1-.85-.1-.35 0-.65.2.3.35.6.6h-.05m.6-.1q.05-.05.1-.05.1-.2.2-.35l-.1.4.3.3q0 .2.1.3v.1l-.05.05q-.35.1-.65.15.15-.05.35-.15 0-.2.1-.45-.2-.15-.35-.3m-.3.95h-.05q-.2.05-.45.1-.05 0-.05-.05v-.1q0-.05.05-.15l.15.05q.15.1.35.15m-1.05-4.1q.3-.05.6-.05.3.05.65.1.05.05.15.05.1-.65.15-1.3l-.55-3.9h-.05l-1.1 5.1h.15Z"></path><path fill="#365F96" fill-opacity=".149" d="M54.45 83.45h-.05q-.9-.25-1.6.15-.7.5-.7 1.4 0 .8.55 1.5.15.2.3.35.55.55 1.3.85.25.05.45.1.8.2 1.4-.1.1-.05.2-.15.6-.45.65-1.25v-.05q0-.7-.4-1.25-.2-.3-.5-.65-.55-.5-1.2-.8l-.4-.1m-2.1 1.6V85q0-.8.6-1.15.6-.4 1.4-.25 1.1.45 1.6 1 .2.15.3.3.4.55.45 1.2.05.1 0 .2-.05.75-.55 1.1h-.1q-.6.4-1.4.2-.1 0-.25-.05-.7-.25-1.3-.85-.2-.2-.35-.4-.45-.55-.4-1.25m46.7-1.6h-.1q-.9.3-1.5 1-.15.1-.3.25-.55.75-.55 1.55v.05q.05.9.75 1.3.65.45 1.55.2.25-.05.5-.15.75-.25 1.35-.9.05-.05.05-.1.6-.7.65-1.5v-.25q-.05-.65-.5-1.05-.1-.2-.3-.3-.65-.35-1.6-.1m-2.25 2.8q.05-.8.6-1.45.75-.9 1.65-1.15.9-.25 1.5.1.15.1.3.35.4.3.4.85.05.85-.55 1.45-.05.15-.15.25-.55.5-1.15.75-.3.15-.6.25-.75.15-1.35-.25-.55-.35-.65-1.05v-.1Z"></path><path fill="#27528D" fill-opacity=".149" d="M54.55 84q-.75-.15-1.25.15-.55.35-.55.95 0 .7.5 1.3.55.65 1.3.8.7.2 1.2-.15.55-.3.55-.95 0-.7-.6-1.3-.45-.6-1.15-.8m43.3.8q-.6.6-.6 1.3.05.65.55.95.55.35 1.25.15.7-.15 1.25-.8.5-.6.5-1.3 0-.6-.5-.95-.55-.3-1.25-.15-.7.2-1.2.8Z"></path></g></defs><use xlink:href="#a_17_1"></use><use xlink:href="#b_17_0"></use></svg><svg xmlns="http://www.w3.org/2000/svg" xmlns:xlink="http://www.w3.org/1999/xlink" preserveAspectRatio="none" width="150" height="155" id="frame_19" display="none"><defs><path fill="#27528D" fill-opacity="0" d="M150.1 0H0v155.5h150.1V0Z" id="b_18_0"></path><g id="a_18_1"><path fill="#27528D" d="M49.9 103.25q6.65 4.85 16.2.95-11.1.55-16.2-.95m10.25 39.1q-.05 1.45 1 1.6.4.05-1-1.6m0 0q-.05-.2 0-.4 1.2 2.15 3.65 2.65h.05l.45.3q.15.05.35.1.15-.05.35-.05.2-.05.35-.1 1.25-.1 2.2-.8l-.1-.1-.15-.15q-.4-.3-1.15-.5H66q-.3-.1-.95-.25-.75-.1-1.1-.7-.65-.7-2.8-2.3-2-1.6-2.8-2.1-.55-.45-1.25-1.2-.9-.8-1.65-1.95-.75-1.15-1.2-1.8 0 .05-.05.05.35 2.55 1.5 4.15 1.3 1.95 3.8 4.5.3.35.65.65m8.95-52.8q.65 3.8 1.65 5.55.15.15.3.35.15-.1.3-.25.05-2.2-.65-4.85-.9-4.55-4.8-9.9 2.5 5.8 3.2 9.1m2.35-24.8-3.8-3.25 2.8 3.9q.45-.15 1-.65m.5-.9q1.25-.9 1.85-1l-2.5-3.65.65 4.65m4.25 45.3q-11.5.45-10.15 3.3 1.65-1.8 5-2.35 3.4-.6 4.9-.55 1.55.05 4.8.35 3.2.3 6.55 2.7-.6-3.4-11.1-3.45m19.65 32.25q-.45.85-1 1.5 1.25 0 1-1.5m1.25-7-.05-.05q-.4.6-.8 1.1-1.05 1.45-1.95 2.4l-1.85 1.75q-1.25 1.05-3.05 2.6-2.15 1.65-2.9 2-.3.1-.45.1-.2.15-.25.25-.05.05-.1.05-.15.1-.35.25-.25 0-.7.15-.05.05-.1.15-.05.05-.15.1h-.05q7.05 1.6 10.5-2.35-.35-.1 1.65-2.35 1.05-1.1 1.9-2.05.3-.95 0-1.5-.2-1-1.3-2.6m5.25-31.05q-5.1 1.5-16.15.95 9.55 3.9 16.15-.95M86.2 81.05q-.45-.1-.95-.25-3.45 4.15-4.35 7.6-1 3.45-.3 7.1v-.05q.25-.5.7-.85 1.2-1 1.95-3.7 1-3.5 2.95-9.85m-.85-19.55-3.05 4q.55.4.8.9l2.25-4.9m.2 5.1q-1.15.8-2.45 1.75-3.05 2.3-5.3 5.1-1.2-.75-2.7-1.35-1.15-1.1-2.55-2.15-2.85-2.15-5.05-3.35-1.7-.95-3.5-1.15.8.4 3 1.8 2.8 1.9 5.85 5.65 2.987 3.933 3.05 10.95.006-.472.1-.8.75-5.15 3.25-8.35 3-3.7 5.5-5.85 2.15-1.65 2.8-3.05l-.2.1q-.45.15-.95.3-.25.05-.85.4m-6.8-3.85q.05.05 1.65.7.4-3 1.2-5.75l-2.85 5.05m.15 2.15h-.05q-.8-.85-1.65-1h-.75q-.2 0-.3.05-.8.25-1.55.95h.1q1.15.85 1.85 1.6.15.15.3.25.2-.25.4-.55.65-.65 1.65-1.3m-2.3-.5q-.3.05-.6.25.2.2.45.4-.1 0-.1.05-.25-.2-.45-.45l-.05-.05q0-.05.05-.05.45-.2.95-.25h.35q.1.05.1.1v.15q-.25-.1-.7-.15m.55.55q.05-.05.15-.2V65l.2.2v.3q-.176.044-.35.1.05-.025.05-.05.1-.15.2-.35l-.25-.25m-.4.85q-.15 0-.25.05l-.05-.05v-.05l-.05.05q.05-.1.05-.2l.3.2m-.05-7.1-.15.4-.75 3.2h.5q.25 0 .55.1h.05q.2-.4.3-.75l-.45-2.95h-.05Z"></path><path fill="#315B93" fill-opacity=".102" d="M54.75 84.05q-.75-.15-1.3.15-.6.4-.6 1.1-.05.65.45 1.25.1.15.25.25.5.45 1.1.6.15.1.35.15.65.1 1.1-.15.1 0 .2-.1.5-.35.55-1v-.05q.05-.55-.35-1.05-.2-.2-.4-.45-.45-.4-1-.6-.15-.05-.35-.1m-1.7 1.3v-.05q0-.6.5-.9.5-.3 1.1-.2.95.3 1.35.75.15.15.25.2.35.45.4 1 0 .1-.05.2 0 .55-.45.8 0 .05-.1.05-.45.3-1.05.15-.15 0-.3-.05-.55-.2-1-.6-.2-.15-.3-.3-.4-.5-.35-1.05m44.25-.3q-.5.55-.5 1.2v.1q.05.7.65 1 .55.35 1.25.2.15-.05.4-.15.65-.2 1.15-.7.05 0 .05-.05.5-.6.5-1.25v-.2q-.05-.5-.45-.8-.1-.2-.3-.25-.5-.3-1.25-.1-.05.05-.1.05-.7.2-1.25.7-.1.1-.15.25m-.3 1.2q0-.6.45-1.1.6-.65 1.3-.9.8-.2 1.25.05l.25.25q.4.25.4.75 0 .65-.4 1.15l-.2.2q-.4.4-.95.55-.25.15-.5.2-.55.1-1.05-.2-.45-.3-.55-.85v-.1Z"></path><path fill="#27528D" fill-opacity=".102" d="M53.85 84.65q-.45.25-.45.75 0 .55.35 1 .5.5 1.05.65.55.1 1-.15.5-.2.5-.8 0-.5-.45-.95-.4-.5-1-.65-.6-.1-1 .15m43.95.5q-.45.45-.45.95.05.6.5.8.45.25 1 .15.55-.15 1.05-.65.35-.45.4-1-.05-.5-.5-.75-.4-.25-1-.15-.6.15-1 .65Z"></path></g></defs><use xlink:href="#a_18_1"></use><use xlink:href="#b_18_0"></use></svg><svg xmlns="http://www.w3.org/2000/svg" xmlns:xlink="http://www.w3.org/1999/xlink" preserveAspectRatio="none" width="150" height="155" id="frame_20" display="none"><defs><path fill="#27528D" fill-opacity="0" d="M150.1 0H0v155.5h150.1V0Z" id="b_19_0"></path><g id="a_19_1"><path fill="#27528D" d="M51.6 104.75q6.3 2.8 14.5-.55-9.9.5-14.5.55m4.9 32.75q-.05 0-.1.05.7 1.6 1.75 2.85 1.3 1.35 3.05 2.95 1.45 1.3 1.5 1.4 0 .15.65-.8 1.3 1.1 3.05 1-.05 0 .05.1 0 .05.1.15.05-.1.15-.25.1 0 .2-.1.6-.25.45-.85-.05 0-.1-.05-.05 0-.05-.05-.35-.2-.95-.35h-.05q-.3-.1-.75-.2-.5-.1-.85-.45-.7-.45-2.25-1.35-1.4-.9-2.2-1.25-.5-.25-1.05-.7-.8-.45-1.45-1.1-.7-.65-1.15-1m12.6-47.15q.3 3.35 1.7 4.25.25.1.35.2h.4q.05-1.9-.35-3.95-.5-4.1-3-8.45.6 5.05.9 7.95m2.1-23.9q.45-.25.85-.6L69.3 63.9l1.9 2.55m1.25-1.55q1.2-.85 1.55-.9l-1.85-2.25.3 3.15m3.8 44.55q-9.95.45-9.55 2.75 2.05-1.35 5-1.9 2.9-.55 4.3-.45 1.35.05 4.1.35 2.8.3 6.25 2.25-1.55-3.1-10.1-3m9.45 35.05q-.15.05-.25.1-.1.1-.15.2-.05.05-.05.1l-.2.2q-.15-.1-.5.05l-.05.05q-.05 0-.15.05h-.05q5.25 1.75 8.7-2 .65.4.65.05.05-.25 1.45-1.6.7-.75 1.35-1.45-.15-.45-.65-.6-.55-.4-1.6-1.15-.35.35-.7.65-.9.8-1.75 1.35-.75.55-1.5 1.05-1.2.65-2.4 1.55-1.65 1-2.15 1.4m14.85-39.65q-4.6-.05-14.5-.5 8.15 3.3 14.5.5M83.95 83.1q-.35-.3-.65-.65-2.15 3.45-2.75 6.6-.6 2.85-.15 5.8.25-.4.7-.6 1.35-.5 1.85-2.8.65-2.85 1-8.35m-.2-19.2-2 2.75q.45.25.7.75l1.3-3.5m-.05 4.75q-.75.5-1.7 1.2-2.15 1.55-3.95 3.5-.9-.1-2.1-.15-.75-.85-1.8-1.55-1.9-1.4-3.65-2.3-1.2-.6-2.5-.9.75.35 2.15 1.3 2.1 1.5 3.9 4.35 1.85 3 1.85 8v.15q.55-3.65 2.1-6.15 1.8-2.8 3.55-4.5 1.35-1.25 2-2.25.05-.25.05-.4.15-.2.1-.3m-5.2-4.75q-.1 0 1.3.6.3-2.25.95-4.35L78.5 63.9M76.85 65h-.4q-.55.15-1 .6h.1q.65.6 1.1 1.1.15.05.2.05.15-.15.3-.25.4-.45 1-.9-.5-.45-1.05-.6h-.25m.5.85h.05v-.05l-.2-.2.1-.1q0 .05.05.15.05.05.1.15-.05.05-.05.1v.05q-.1.05-.2.15 0-.15.15-.25m-.55-.65h.35q.05.05.05.15-.2-.05-.5-.1-.3.05-.55.25l.2.2h-.05l-.2-.2h-.05v-.05q.35-.2.75-.25m-.1 1.05.05.05h-.15v-.15l.1.1m-.1-4.9L76 63.5h.35l.3.1h.05l.35-.35-.3-1.9h-.15Z"></path><path fill="#2C5690" fill-opacity=".051" d="M55.3 84.75q-.1 0-.25-.05-.55-.05-1 .1-.4.35-.45.85-.05.45.35.9.1.15.2.2.35.3.85.4l.3.1q.5.05.85-.15.1-.05.15-.05.4-.3.45-.75v-.05q0-.45-.35-.8-.1-.15-.3-.3-.35-.3-.8-.4m-1.25 1.65q-.35-.3-.35-.75.05-.5.45-.7.4-.15.85-.15.75.25 1.1.5.1.1.2.15.3.35.3.75v.15q-.1.4-.45.6h-.05q-.4.2-.85.1h-.2q-.45-.1-.8-.4-.15-.1-.2-.25m44.55-1.7h-.15q-.5.15-.9.5l-.15.15q-.4.45-.4.9v.1q.1.5.55.7.4.25.9.2l.3-.1q.6-.1 1-.5.45-.5.4-.95v-.15q-.1-.4-.45-.65 0-.1-.15-.1-.45-.2-.95-.1m-1.5 1.6q.05-.5.4-.85.5-.45 1.05-.65.55-.05.95.1.1.05.2.2.3.15.3.5.05.5-.3.85l-.1.2q-.4.25-.85.4-.15 0-.35.05-.4.05-.8-.15t-.5-.65Z"></path><path fill="#27528D" fill-opacity=".051" d="M54.35 85.15q-.3.2-.3.5 0 .45.25.8.35.3.8.4.45.1.8-.1.4-.15.4-.55.05-.4-.35-.75-.3-.3-.75-.45-.5-.05-.85.15m43.45.3q-.4.35-.35.75 0 .4.4.55.35.2.8.1.45-.1.8-.4.25-.35.25-.8 0-.3-.35-.5-.3-.2-.8-.15-.5.15-.75.45Z"></path></g></defs><use xlink:href="#a_19_1"></use><use xlink:href="#b_19_0"></use></svg><svg xmlns="http://www.w3.org/2000/svg" xmlns:xlink="http://www.w3.org/1999/xlink" preserveAspectRatio="none" width="150" height="155" id="frame_21" display="none"><defs><path fill="#27528D" fill-opacity="0" d="M150.1 0H0v155.5h150.1V0Z" id="b_20_0"></path><g id="a_20_1" fill="#27528D"><path d="M85.9 104.35q6.8 2.75 12.8 2-4.05-1.6-12.8-2M94.55 142q-1.3.3-3.25.7-6.35 1.4-6.45 2.15l-.05.45q0-.15-.55-.05 3.55 2.5 10.3-3.25m-41.2-35.8q5.95.8 12.75-2-8.75.45-12.75 2m15.05 38.65q-.15-.75-6.45-2.15-1.95-.4-3.3-.7 6.8 5.75 10.3 3.25-.5-.1-.5.05l-.05-.45M67.35 112q2.45-1 4.95-1.45 2.55-.55 3.7-.45 1.2.1 3.5.35 2.3.3 5.95 1.85-2.5-2.75-9.2-2.55-8.3.45-8.9 2.25M72 71.5q4.5 1.95 3.8 9.85.95-5.85 3.95-8.65 1.15-1.05 2.15-2.05-2.15 1.45-5.05 3.6Q75.3 72.7 72 71.5m-1.55 12.8q-2.9 9.75.4 9.85.55 0 .85.3.35-5.25-1.25-10.15m.45-18 1.05 1.15q.45-.25.75-.6l-1.8-.55m2.1-.35q1-.75 1.3-.75l-1.3-.9v1.65m5.3-.85q-.35-.05 1 .4.15-1.55.65-2.85L78.3 65.1m-1.45 1h-.1q-.25.05-.5.25.4.3.6.5l.15-.15q.2-.2.4-.35-.2-.2-.5-.25h-.05m-.15.15v-.05h.25v.05l-.1.15.1.1v.05h-.25v-.05l.1-.1-.1-.15m.05 0 .1.15.05-.15h-.15m.1.2-.1.05h.15l-.05-.05m.1-1.55-.25-1.3-.5 1.05q.5.1.75.25m4.05 29q3.25-.1.35-9.8Q79.8 89 80.1 94.2q.35-.3.9-.3m.25-26.15q.25.2.55.65l.4-2.1-.95 1.45Z"></path><path fill-opacity="0" d="M55.6 85.35q-.5-.05-.9.1-.35.2-.35.5-.05.35.25.65.3.25.75.3.5.1.85-.1.4-.15.4-.5.05-.35-.25-.6t-.75-.35m-.85.2q.35-.15.8-.1.45.05.75.35.25.2.25.5-.1.25-.4.45-.35.15-.8.05-.4-.05-.7-.3-.3-.2-.25-.55.05-.25.35-.4m.8-.05q-.35 0-.6.15-.3.15-.3.3 0 .3.15.5.25.2.6.25.3.05.55-.1.35-.1.35-.35.05-.25-.25-.45-.15-.2-.5-.3m42.7-.15q-.5.1-.8.35-.3.25-.25.6.05.35.45.5.35.2.8.1.5-.05.8-.3.3-.3.25-.65-.05-.3-.4-.5-.4-.15-.85-.1m-.7.45q.25-.3.75-.35.4-.05.75.1.3.15.35.4.05.35-.2.55-.3.25-.75.3-.4.1-.75-.05-.3-.2-.4-.45 0-.3.25-.5m.75-.3q-.35.1-.55.3-.3.2-.25.45.05.25.35.35.25.15.55.1.35-.05.65-.25.15-.2.15-.5-.05-.15-.3-.3t-.6-.15Z"></path></g></defs><use xlink:href="#a_20_1"></use><use xlink:href="#b_20_0"></use></svg><svg xmlns="http://www.w3.org/2000/svg" xmlns:xlink="http://www.w3.org/1999/xlink" preserveAspectRatio="none" width="150" height="155" id="frame_22" display="none"><defs><path fill="#27528D" fill-opacity="0" d="M150.1 0H0v155.5h150.1V0Z" id="b_21_0"></path><g id="a_21_1" fill="#27528D"><path fill-opacity=".749" d="M66.1 104.2q-6.95.45-10.15 2 4.75.8 10.15-2m2.85 41.05q-.446-.099-.45.05v-.45q-.1-.75-5.1-2.15-1.5-.4-2.6-.7 5.4 5.75 8.15 3.25m1.5-58.8q-2.9 7.7.4 7.75.55 0 .85.25.35-4.15-1.25-8m2.6-20.2L71.6 66l1 .8q.3-.25.45-.55m1.5-.95q-.5-.35-1.1-.75V66q.85-.65 1.1-.7m1.75 44.45q-6.5.25-7.05 2.35 2-1.15 3.95-1.55 2-.5 2.95-.45.9.05 2.75.4 1.8.35 4.65 1.7-1.9-2.5-7.25-2.45m7.95 35.5q2.8 2.5 8.1-3.25-1.05.3-2.6.7-4.9 1.4-5.05 2.15v.45q-.004-.149-.45-.05m11.25-39.4q-3.25-1.1-9.95-1 5.25 2.25 9.95 1M81 94q3.25-.1.35-7.7-1.55 3.8-1.25 7.9.35-.2.9-.2m.25-26.45.25-1.8q-.4.6-.8 1.1.3.3.55.7m-4.7 7.35q-1.2-1.35-3.7-2.35 3.4 1.65 2.95 7.85.7-4.3 2.8-6.55-.95.4-2.05 1.05m2.3-1.35q-.1.15-.25.3.95-.45 1.8-.65-.75-.2-1.55.35m.6-10.2q-.75 1-1.3 1.9-.2.15.95.65 0-1.35.35-2.55Z"></path><path fill-opacity="0" d="M55.6 85.35q-.5-.05-.9.1-.35.2-.35.5-.05.35.25.65.3.25.75.3.5.1.85-.1.4-.15.4-.5.05-.35-.25-.6t-.75-.35m-1.2.6q.05-.25.35-.4 1.8.45 1.8.75-.1.25-.4.45-.35.15-.8.05-.4-.05-.7-.3-.3-.2-.25-.55m.25 0q0 .3.15.5.25.2.6.25.3.05.9-.45.05-.25-1.35-.6-.3.15-.3.3m42.8-.25q-.3.25-.25.6.05.35.45.5.35.2.8.1.5-.05.8-.3.3-.3.25-.65-.05-.3-.4-.5-.4-.15-.85-.1-.5.1-.8.35m-.15.6q0-.3.25-.5 1.8-.1 1.85.15.05.35-.2.55-.3.25-.75.3-.4.1-.75-.05-.3-.2-.4-.45m.2-.05q.05.25.35.35.25.15.55.1.35-.05.8-.75-.05-.15-1.45-.15-.3.2-.25.45Z"></path></g></defs><use xlink:href="#a_21_1"></use><use xlink:href="#b_21_0"></use></svg><svg xmlns="http://www.w3.org/2000/svg" xmlns:xlink="http://www.w3.org/1999/xlink" preserveAspectRatio="none" width="150" height="155" id="frame_23" display="none"><defs><path fill="#27528D" fill-opacity="0" d="M150.1 0H0v155.5h150.1V0Z" id="b_22_0"></path><g id="a_22_1" fill="#27528D"><path fill-opacity=".502" d="M66.1 104.2q-5.2.45-7.6 2 3.55.8 7.6-2M63.05 142q3.85 5.75 5.9 3.25-.3-.1-.3.05l-.05-.45q-.05-.75-3.65-2.15-1.15-.4-1.9-.7m7.4-53.35q-2.9 5.55.4 5.6.55 0 .85.2.35-3-1.25-5.8m3-22.95h-1.2l1 .45q.15-.25.2-.45m1.4-.25q-.4-.25-.95-.65v1.25q.65-.5.95-.6m1.5 44.3q-4.65.15-5.15 2.4 1.45-1.3 2.9-1.65 1.45-.4 2.1-.4.7 0 2.05.4 1.35.35 3.4 1.65-1.3-2.25-5.3-2.4m7.95 35.5q1.95 2.5 5.85-3.25-.75.3-1.9.7-3.55 1.4-3.65 2.15l-.05.45q0-.15-.25-.05m8-39.9q-2.5-.6-7.1 0 3.75 1.75 7.1 0M81 94.1q3.25-.1.35-5.6-1.55 2.75-1.25 5.75.35-.15.9-.15m-.2-28.95q-.35.45-.65.9.25.3.55.7l.1-1.6m-3.55 10.2q-.5.05-1.05.15-.8-1.05-2.55-1.9 2.35 1.35 2.15 5.9.4-2.55 1.45-4.15m.7-.9q-.4.4-.7.9.9-.05 1.6.35-.45-1.35-.9-1.25M79 64.05q-.8.8-1.1 1.35.05.35.95.9-.05-1.15.15-2.25Z"></path><path fill-opacity="0" d="M55.6 85.35q-.5-.05-.9.1-.35.2-.35.5-.05.35.25.65.3.25.75.3.5.1.85-.1.4-.15.4-.5.05-.35-.25-.6t-.75-.35m-1.2.6q.05-.25.35-.4 1.8.45 1.8.75-.1.25-.4.45-.35.15-.8.05-.4-.05-.7-.3-.3-.2-.25-.55m.25 0q0 .3.15.5.25.2.6.25.3.05.9-.45.05-.25-1.35-.6-.3.15-.3.3m42.8-.25q-.3.25-.25.6.05.35.45.5.35.2.8.1.5-.05.8-.3.3-.3.25-.65-.05-.3-.4-.5-.4-.15-.85-.1-.5.1-.8.35m-.15.6q0-.3.25-.5 1.8-.1 1.85.15.05.35-.2.55-.3.25-.75.3-.4.1-.75-.05-.3-.2-.4-.45m.2-.05q.05.25.35.35.25.15.55.1.35-.05.8-.75-.05-.15-1.45-.15-.3.2-.25.45Z"></path></g></defs><use xlink:href="#a_22_1"></use><use xlink:href="#b_22_0"></use></svg><svg xmlns="http://www.w3.org/2000/svg" xmlns:xlink="http://www.w3.org/1999/xlink" preserveAspectRatio="none" width="150" height="155" id="frame_24" display="none"><defs><path fill="#27528D" fill-opacity="0" d="M150.1 0H0v155.5h150.1V0Z" id="b_23_0"></path><g id="a_23_1" fill="#27528D"><path fill-opacity=".251" d="M66.1 104.2q-3.45.45-5 2 2.3.8 5-2m.3 38.5q-.75-.4-1.2-.7 2.45 5.75 3.7 3.25-.145-.097-.15.05v-.45q-.05-.75-2.35-2.15m4.05-51.9q-2.9 3.5.4 3.55.55 0 .85.1.35-1.9-1.25-3.65m3.35-25.7-.85.3.95.05q0-.25-.1-.35m1.3.4q-.25-.05-.8-.45v1.05q.5-.35.8-.6m1.25 44.25q-2.8-.05-3.25 2.45 1.05-1.35 1.9-1.7.9-.35 1.35-.4.4-.05 1.3.45.85.4 2.05 1.55-.7-2.1-3.35-2.35m7.95 35.5q1.25 2.5 3.6-3.25-.45.3-1.15.7-2.2 1.4-2.25 2.15v.45q-.003-.148-.2-.05m4.75-40.4q-1.7-.1-4.2 1 2.2 1.25 4.2-1M81 94.15q3.25-.05.35-3.5-1.55 1.75-1.25 3.6.35-.1.9-.1m-.95-29.6q-.2.35-.4.65.25.3.45.7l-.05-1.35m-3.7 11.95q.55.55 1 1.65-.25-2.4-.25-2.9-.45.55-.75 1.25m-.45-.35q-.5-.85-1.35-1.5 1.25 1.05 1.2 3.9.15-1.15.6-2.05-.2-.2-.45-.35m2.6-11.35q-.7.45-.75.75.2.5.85 1.1-.15-.9-.1-1.85Z"></path><path fill-opacity="0" d="M55.6 85.35q-.5-.05-.9.1-.35.2-.35.5-.05.35.25.65.3.25.75.3.5.1.85-.1.4-.15.4-.5.05-.35-.25-.6t-.75-.35m-1.2.6q.05-.25.35-.4 1.8.45 1.8.75-.1.25-.4.45-.35.15-.8.05-.4-.05-.7-.3-.3-.2-.25-.55m.25 0q0 .3.15.5.25.2.6.25.3.05.9-.45.05-.25-1.35-.6-.3.15-.3.3m42.8-.25q-.3.25-.25.6.05.35.45.5.35.2.8.1.5-.05.8-.3.3-.3.25-.65-.05-.3-.4-.5-.4-.15-.85-.1-.5.1-.8.35m-.15.6q0-.3.25-.5 1.8-.1 1.85.15.05.35-.2.55-.3.25-.75.3-.4.1-.75-.05-.3-.2-.4-.45m.2-.05q.05.25.35.35.25.15.55.1.35-.05.8-.75-.05-.15-1.45-.15-.3.2-.25.45Z"></path></g></defs><use xlink:href="#a_23_1"></use><use xlink:href="#b_23_0"></use></svg><svg xmlns="http://www.w3.org/2000/svg" xmlns:xlink="http://www.w3.org/1999/xlink" preserveAspectRatio="none" width="150" height="155" id="frame_25" display="none"><defs><path fill="#27528D" fill-opacity="0" d="M85.85 104.35q-.95.4-1.35 2 .65.75 1.35-2m-.65 38.35q-.8 1.4-.85 2.15v.4q-.003-.094-.05 0 .45 2.5 1.4-3.25-.2.3-.5.7m-17.35 0q-.3-.4-.5-.7 1.05 5.75 1.55 3.25-.097-.097-.1.05v-.45q0-.75-.95-2.15m-4.2-36.5q1.1.8 2.45-2-1.7.45-2.45 2m12.8 3.9q.15-.1.55.45.4.45.8 1.45-.1-1.8-1.4-2.25-1-.2-1.4 2.55.55-1.55.9-1.85.35-.25.55-.35m-6-17.15q-2.9 1.45.4 1.45.55 0 .85.05.35-.8-1.25-1.5m5.4-12.3q0-3.55.35-4.5-.3.65-.45 1.45-.2-1.15-.4-1.9.1.45.2 1.1.2 1.25.3 3.85m-20.25 4.7q-.5-.05-.9.1-.35.2-.35.5-.05.35.25.65.3.25.75.3.5.1.85-.1.4-.15.4-.5.05-.35-.25-.6t-.75-.35m-.85.2q.35-.15.8-.1.45.05.75.35.25.2.25.5-.1.25-.4.45-.35.15-.8.05-.4-.05-.7-.3-.3-.2-.25-.55.05-.25.35-.4m.8-.05q-.35 0-.6.15-.3.15-.3.3 0 .3.15.5.25.2.6.25.3.05.55-.1.35-.1.35-.35.05-.25-.25-.45-.15-.2-.5-.3m18.6-21-.55.6.95-.3q-.2-.25-.4-.3m1.2 1.15q-.1 0-.65-.4v.9l.65-.5m1.3.85.15-.65q-.15.05-.4.1l.25.55m1.4-1-.55.2.9 1.35q-.3-.75-.35-1.55m-1.2-.6-.1-.1q-.15.1-.3.25.1.15.2.15H76.8q.1 0 .2-.15l-.15-.15m-.05 0v.05h-.15l.1.05-.1.1h.15v.05h-.15v-.05l.05-.1-.05-.05v-.05h.15m2.6-.95q-.2.25-.3.35l.45.8-.15-1.15M81 94.2q3.25-.05.35-1.35-1.55.65-1.25 1.4.35-.05.9-.05m17.25-8.85q-.5.1-.8.35-.3.25-.25.6.05.35.45.5.35.2.8.1.5-.05.8-.3.3-.3.25-.65-.05-.3-.4-.5-.4-.15-.85-.1m-.7.45q.25-.3.75-.35.4-.05.75.1.3.15.35.4.05.35-.2.55-.3.25-.75.3-.4.1-.75-.05-.3-.2-.4-.45 0-.3.25-.5m-.05.45q.05.25.35.35.25.15.55.1.35-.05.65-.25.15-.2.15-.5-.05-.15-.3-.3t-.6-.15q-.35.1-.55.3-.3.2-.25.45Z" id="a_24_0"></path><path fill="#27528D" fill-opacity="0" d="M150.1 0H0v155.5h150.1V0Z" id="b_24_1"></path></defs><use xlink:href="#a_24_0"></use><use xlink:href="#b_24_1"></use></svg></svg>