<svg xmlns="http://www.w3.org/2000/svg" externalresourcesrequired="true" width="165" height="166" viewBox="0 0 165 166" preserveAspectRatio="xMinYMin meet" style="width: 100%; height: auto;"><svg xmlns="http://www.w3.org/2000/svg" xmlns:xlink="http://www.w3.org/1999/xlink" preserveAspectRatio="xMinYMin meet" style="width: 100%; height: auto;" viewBox="0 0 165 166" id="frame_1" display="none"><defs><path fill="#1D4799" d="M166 166V0H0v166h166Z" id="a_0_0"></path></defs><use xlink:href="#a_0_0"></use></svg><svg xmlns="http://www.w3.org/2000/svg" xmlns:xlink="http://www.w3.org/1999/xlink" preserveAspectRatio="xMinYMin meet" style="width: 100%; height: auto;" viewBox="0 0 165 166" id="frame_2" display="none"><defs><path fill="#039" d="M166 117.95v-69.9L155.6 0v166l10.4-48.05Z" id="a_1_0"></path><path fill="#1D4799" d="M155.6 0 .05 6.35v153.3L155.6 166V0Z" id="b_1_1"></path></defs><use xlink:href="#a_1_0"></use><use xlink:href="#b_1_1"></use></svg><svg xmlns="http://www.w3.org/2000/svg" xmlns:xlink="http://www.w3.org/1999/xlink" preserveAspectRatio="xMinYMin meet" style="width: 100%; height: auto;" viewBox="0 0 165 166" id="frame_3" display="none"><defs><path fill="#039" d="M166 123V43L145.15 0v166L166 123Z" id="a_2_0"></path><path fill="#1D4799" d="M145.15 0 .1 12.75v140.5L145.15 166V0Z" id="b_2_1"></path></defs><use xlink:href="#a_2_0"></use><use xlink:href="#b_2_1"></use></svg><svg xmlns="http://www.w3.org/2000/svg" xmlns:xlink="http://www.w3.org/1999/xlink" preserveAspectRatio="xMinYMin meet" style="width: 100%; height: auto;" viewBox="0 0 165 166" id="frame_4" display="none"><defs><path fill="#039" d="M166.05 126.6V39.4L134.8 0v166l31.25-39.4Z" id="a_3_0"></path><path fill="#1D4799" d="M.15 19.1v127.8l134.6 19.1V0L.15 19.1Z" id="b_3_1"></path></defs><use xlink:href="#a_3_0"></use><use xlink:href="#b_3_1"></use></svg><svg xmlns="http://www.w3.org/2000/svg" xmlns:xlink="http://www.w3.org/1999/xlink" preserveAspectRatio="xMinYMin meet" style="width: 100%; height: auto;" viewBox="0 0 165 166" id="frame_5" display="none"><defs><path fill="#023599" d="M166.05 128.9V37.15L126.95.05v166l39.1-37.15Z" id="a_4_0"></path><path fill="#1D4799" d="M127 0 .15 21.3v123.45L127 166V0Z" id="b_4_1"></path></defs><use xlink:href="#a_4_0"></use><use xlink:href="#b_4_1"></use></svg><svg xmlns="http://www.w3.org/2000/svg" xmlns:xlink="http://www.w3.org/1999/xlink" preserveAspectRatio="xMinYMin meet" style="width: 100%; height: auto;" viewBox="0 0 165 166" id="frame_6" display="none"><defs><path fill="#043699" d="M166.05 131.15v-96.3L119.2 0v166l46.85-34.85Z" id="a_5_0"></path><path fill="#1D4799" d="M119.2 0 .1 23.45v119.1L119.2 166V0Z" id="b_5_1"></path></defs><use xlink:href="#a_5_0"></use><use xlink:href="#b_5_1"></use></svg><svg xmlns="http://www.w3.org/2000/svg" xmlns:xlink="http://www.w3.org/1999/xlink" preserveAspectRatio="xMinYMin meet" style="width: 100%; height: auto;" viewBox="0 0 165 166" id="frame_7" display="none"><defs><path fill="#073899" d="M166.15 133.45V32.6L111.35 0v166l54.8-32.55Z" id="a_6_0"></path><path fill="#1D4799" d="M.1 25.65V140.4L111.35 166V0L.1 25.65Z" id="b_6_1"></path></defs><use xlink:href="#a_6_0"></use><use xlink:href="#b_6_1"></use></svg><svg xmlns="http://www.w3.org/2000/svg" xmlns:xlink="http://www.w3.org/1999/xlink" preserveAspectRatio="xMinYMin meet" style="width: 100%; height: auto;" viewBox="0 0 165 166" id="frame_8" display="none"><defs><path fill="#093999" d="M166.25 135.7V30.3L103.55 0v166l62.7-30.3Z" id="a_7_0"></path><path fill="#1D4799" d="M.1 138.2 103.55 166V0L.1 27.8v110.4Z" id="b_7_1"></path></defs><use xlink:href="#a_7_0"></use><use xlink:href="#b_7_1"></use></svg><svg xmlns="http://www.w3.org/2000/svg" xmlns:xlink="http://www.w3.org/1999/xlink" preserveAspectRatio="xMinYMin meet" style="width: 100%; height: auto;" viewBox="0 0 165 166" id="frame_9" display="none"><defs><path fill="#0B3B99" d="M166.15 138V28.05L95.75 0v166l70.4-28Z" id="a_8_0"></path><path fill="#1B4599" d="M95.75 0 .1 29.95v106.1L95.75 166V0Z" id="b_8_1"></path></defs><use xlink:href="#a_8_0"></use><use xlink:href="#b_8_1"></use></svg><svg xmlns="http://www.w3.org/2000/svg" xmlns:xlink="http://www.w3.org/1999/xlink" preserveAspectRatio="xMinYMin meet" style="width: 100%; height: auto;" viewBox="0 0 165 166" id="frame_10" display="none"><defs><path fill="#0D3C99" d="M166 140.25V25.75L87.95 0v166L166 140.25Z" id="a_9_0"></path><path fill="#184499" d="M87.95 0 .05 32.15v101.7L87.95 166V0Z" id="b_9_1"></path></defs><use xlink:href="#a_9_0"></use><use xlink:href="#b_9_1"></use></svg><svg xmlns="http://www.w3.org/2000/svg" xmlns:xlink="http://www.w3.org/1999/xlink" preserveAspectRatio="xMinYMin meet" style="width: 100%; height: auto;" viewBox="0 0 165 166" id="frame_11" display="none"><defs><path fill="#0F3D99" d="M166 142.55V23.45L80.15 0v166L166 142.55Z" id="a_10_0"></path><path fill="#164299" d="M80.15 0 .05 34.3v97.4l80.1 34.3V0Z" id="b_10_1"></path></defs><use xlink:href="#a_10_0"></use><use xlink:href="#b_10_1"></use></svg><svg xmlns="http://www.w3.org/2000/svg" xmlns:xlink="http://www.w3.org/1999/xlink" preserveAspectRatio="xMinYMin meet" style="width: 100%; height: auto;" viewBox="0 0 165 166" id="frame_12" display="none"><defs><path fill="#113F99" d="M166 144.8V21.2L72.35 0v166L166 144.8Z" id="a_11_0"></path><path fill="#144199" d="M72.4 0 .05 36.5v93L72.4 166V0Z" id="b_11_1"></path></defs><use xlink:href="#a_11_0"></use><use xlink:href="#b_11_1"></use></svg><svg xmlns="http://www.w3.org/2000/svg" xmlns:xlink="http://www.w3.org/1999/xlink" preserveAspectRatio="xMinYMin meet" style="width: 100%; height: auto;" viewBox="0 0 165 166" id="frame_13" display="none"><defs><path fill="#134099" d="M166 147.1V18.9L64.6 0v166L166 147.1Z" id="a_12_0"></path><path fill="#123F99" d="M64.6 0 .05 38.65v88.7L64.6 166V0Z" id="b_12_1"></path></defs><use xlink:href="#a_12_0"></use><use xlink:href="#b_12_1"></use></svg><svg xmlns="http://www.w3.org/2000/svg" xmlns:xlink="http://www.w3.org/1999/xlink" preserveAspectRatio="xMinYMin meet" style="width: 100%; height: auto;" viewBox="0 0 165 166" id="frame_14" display="none"><defs><path fill="#154299" d="M166 149.35V16.65L56.8 0v166L166 149.35Z" id="a_13_0"></path><path fill="#0F3E99" d="M56.8 0 0 40.85v84.3L56.8 166V0Z" id="b_13_1"></path></defs><use xlink:href="#a_13_0"></use><use xlink:href="#b_13_1"></use></svg><svg xmlns="http://www.w3.org/2000/svg" xmlns:xlink="http://www.w3.org/1999/xlink" preserveAspectRatio="xMinYMin meet" style="width: 100%; height: auto;" viewBox="0 0 165 166" id="frame_15" display="none"><defs><path fill="#174399" d="M166 151.65V14.35L49 0v166l117-14.35Z" id="a_14_0"></path><path fill="#0D3C99" d="M49 0 0 43v80l49 43V0Z" id="b_14_1"></path></defs><use xlink:href="#a_14_0"></use><use xlink:href="#b_14_1"></use></svg><svg xmlns="http://www.w3.org/2000/svg" xmlns:xlink="http://www.w3.org/1999/xlink" preserveAspectRatio="xMinYMin meet" style="width: 100%; height: auto;" viewBox="0 0 165 166" id="frame_16" display="none"><defs><path fill="#184399" d="M166 153.25V12.75L43.55 0v166L166 153.25Z" id="a_15_0"></path><path fill="#0B3B99" d="M43.55 0 0 44.25v77.5L43.55 166V0Z" id="b_15_1"></path></defs><use xlink:href="#a_15_0"></use><use xlink:href="#b_15_1"></use></svg><svg xmlns="http://www.w3.org/2000/svg" xmlns:xlink="http://www.w3.org/1999/xlink" preserveAspectRatio="xMinYMin meet" style="width: 100%; height: auto;" viewBox="0 0 165 166" id="frame_17" display="none"><defs><path fill="#184499" d="M166 154.85V11.15L38.1 0v166L166 154.85Z" id="a_16_0"></path><path fill="#0A3A99" d="M38.15 0 .05 45.55v74.9L38.15 166V0Z" id="b_16_1"></path></defs><use xlink:href="#a_16_0"></use><use xlink:href="#b_16_1"></use></svg><svg xmlns="http://www.w3.org/2000/svg" xmlns:xlink="http://www.w3.org/1999/xlink" preserveAspectRatio="xMinYMin meet" style="width: 100%; height: auto;" viewBox="0 0 165 166" id="frame_18" display="none"><defs><path fill="#194499" d="M166 156.45V9.55L32.65 0v166L166 156.45Z" id="a_17_0"></path><path fill="#083999" d="M32.7 0 .05 46.8v72.4L32.7 166V0Z" id="b_17_1"></path></defs><use xlink:href="#a_17_0"></use><use xlink:href="#b_17_1"></use></svg><svg xmlns="http://www.w3.org/2000/svg" xmlns:xlink="http://www.w3.org/1999/xlink" preserveAspectRatio="xMinYMin meet" style="width: 100%; height: auto;" viewBox="0 0 165 166" id="frame_19" display="none"><defs><path fill="#1A4599" d="M166 158.05V7.95L27.2 0v166l138.8-7.95Z" id="a_18_0"></path><path fill="#073899" d="M27.25 0 .1 48.05v69.9L27.25 166V0Z" id="b_18_1"></path></defs><use xlink:href="#a_18_0"></use><use xlink:href="#b_18_1"></use></svg><svg xmlns="http://www.w3.org/2000/svg" xmlns:xlink="http://www.w3.org/1999/xlink" preserveAspectRatio="xMinYMin meet" style="width: 100%; height: auto;" viewBox="0 0 165 166" id="frame_20" display="none"><defs><path fill="#1A4599" d="M166 159.6V6.4L21.8 0v166l144.2-6.4Z" id="a_19_0"></path><path fill="#053699" d="M21.8 0 .1 49.3v67.35L21.8 166V0Z" id="b_19_1"></path></defs><use xlink:href="#a_19_0"></use><use xlink:href="#b_19_1"></use></svg><svg xmlns="http://www.w3.org/2000/svg" xmlns:xlink="http://www.w3.org/1999/xlink" preserveAspectRatio="xMinYMin meet" style="width: 100%; height: auto;" viewBox="0 0 165 166" id="frame_21" display="none"><defs><path fill="#1B4699" d="M166 161.2V4.8L16.35 0v166L166 161.2Z" id="a_20_0"></path><path fill="#033599" d="M16.4 0 .1 50.6v64.8L16.4 166V0Z" id="b_20_1"></path></defs><use xlink:href="#a_20_0"></use><use xlink:href="#b_20_1"></use></svg><svg xmlns="http://www.w3.org/2000/svg" xmlns:xlink="http://www.w3.org/1999/xlink" preserveAspectRatio="xMinYMin meet" style="width: 100%; height: auto;" viewBox="0 0 165 166" id="frame_22" display="none"><defs><path fill="#1C4699" d="M166 162.8V3.2L10.9 0v166l155.1-3.2Z" id="a_21_0"></path><path fill="#023499" d="M10.95 0 .15 51.85v62.25l10.8 51.9V0Z" id="b_21_1"></path></defs><use xlink:href="#a_21_0"></use><use xlink:href="#b_21_1"></use></svg><svg xmlns="http://www.w3.org/2000/svg" xmlns:xlink="http://www.w3.org/1999/xlink" preserveAspectRatio="xMinYMin meet" style="width: 100%; height: auto;" viewBox="0 0 165 166" id="frame_23" display="none"><defs><path fill="#1C4799" d="M166 164.4V1.6L5.45 0v166L166 164.4Z" id="a_22_0"></path><path fill="#039" d="M5.5 0 .15 53.1v59.75L5.5 166V0Z" id="b_22_1"></path></defs><use xlink:href="#a_22_0"></use><use xlink:href="#b_22_1"></use></svg><svg xmlns="http://www.w3.org/2000/svg" xmlns:xlink="http://www.w3.org/1999/xlink" preserveAspectRatio="xMinYMin meet" style="width: 100%; height: auto;" viewBox="0 0 165 166" id="frame_24" display="none"><defs><path fill="#1D4799" d="M166 166V0H0v166h166Z" id="a_23_0"></path></defs><use xlink:href="#a_23_0"></use></svg></svg>