<svg xmlns="http://www.w3.org/2000/svg" externalresourcesrequired="true" width="28" height="26" viewBox="0 0 28 26" preserveAspectRatio="xMinYMin meet" style="width: 100%; height: auto;"><svg xmlns="http://www.w3.org/2000/svg" xmlns:xlink="http://www.w3.org/1999/xlink" preserveAspectRatio="xMinYMin meet" style="width: 100%; height: auto;" viewBox="0 0 28 26" id="frame_1" display="none"><defs><linearGradient id="a_0_0" gradientUnits="userSpaceOnUse" x1="-14.325" y1=".85" x2="13.225" y2=".85" spreadMethod="pad"><stop offset="0%" stop-color="#143942"></stop><stop offset="31.765%" stop-color="#236270"></stop><stop offset="49.412%" stop-color="#286E7E"></stop><stop offset="76.863%" stop-color="#468C9C"></stop><stop offset="98.824%" stop-color="#A8EEFF"></stop></linearGradient><path fill="url(#a_0_0)" d="m-.5 12.8 13.75-23.9q-13.75 1.05-27.55 0L-.5 12.8Z" id="b_0_1"></path></defs><use xlink:href="#b_0_1" transform="matrix(.93932 0 0 .93932 14.5 12.9)"></use></svg><svg xmlns="http://www.w3.org/2000/svg" xmlns:xlink="http://www.w3.org/1999/xlink" preserveAspectRatio="xMinYMin meet" style="width: 100%; height: auto;" viewBox="0 0 28 26" id="frame_2" display="none"><defs><linearGradient id="a_1_0" gradientUnits="userSpaceOnUse" x1="-14.325" y1=".85" x2="13.225" y2=".85" spreadMethod="pad"><stop offset="0%" stop-color="#143942"></stop><stop offset="31.765%" stop-color="#236270"></stop><stop offset="49.412%" stop-color="#286E7E"></stop><stop offset="76.863%" stop-color="#468C9C"></stop><stop offset="98.824%" stop-color="#A8EEFF"></stop></linearGradient><path fill="url(#a_1_0)" d="m-.5 12.8 13.75-23.9q-13.75 1.05-27.55 0L-.5 12.8Z" id="b_1_1"></path></defs><use xlink:href="#b_1_1" transform="translate(14.5 13.1) scale(.9393)"></use></svg><svg xmlns="http://www.w3.org/2000/svg" xmlns:xlink="http://www.w3.org/1999/xlink" preserveAspectRatio="xMinYMin meet" style="width: 100%; height: auto;" viewBox="0 0 28 26" id="frame_3" display="none"><defs><linearGradient id="a_2_0" gradientUnits="userSpaceOnUse" x1="-14.313" y1=".05" x2="13.213" y2=".05" spreadMethod="pad"><stop offset="0%" stop-color="#143942"></stop><stop offset="31.765%" stop-color="#236270"></stop><stop offset="49.412%" stop-color="#286E7E"></stop><stop offset="76.863%" stop-color="#468C9C"></stop><stop offset="98.824%" stop-color="#A8EEFF"></stop></linearGradient><path fill="url(#a_2_0)" d="M13.25-10.75Q-.1-11.8-14.3-10.9-9.05.25-.55 11.85q8.6-11.4 13.8-22.6Z" id="b_2_1"></path></defs><use xlink:href="#b_2_1" transform="translate(14.5 13.35) scale(.9393)"></use></svg><svg xmlns="http://www.w3.org/2000/svg" xmlns:xlink="http://www.w3.org/1999/xlink" preserveAspectRatio="xMinYMin meet" style="width: 100%; height: auto;" viewBox="0 0 28 26" id="frame_4" display="none"><defs><linearGradient id="a_3_0" gradientUnits="userSpaceOnUse" x1="-14.3" y1="-.7" x2="13.2" y2="-.7" spreadMethod="pad"><stop offset="0%" stop-color="#143942"></stop><stop offset="31.765%" stop-color="#236270"></stop><stop offset="49.412%" stop-color="#286E7E"></stop><stop offset="76.863%" stop-color="#468C9C"></stop><stop offset="98.824%" stop-color="#A8EEFF"></stop></linearGradient><path fill="url(#a_3_0)" d="M13.25-10.4q-13-3.1-27.5-.25Q-10.7-.35-.6 10.9 9.7.05 13.25-10.4Z" id="b_3_1"></path></defs><use xlink:href="#b_3_1" transform="translate(14.5 13.55) scale(.9393)"></use></svg><svg xmlns="http://www.w3.org/2000/svg" xmlns:xlink="http://www.w3.org/1999/xlink" preserveAspectRatio="xMinYMin meet" style="width: 100%; height: auto;" viewBox="0 0 28 26" id="frame_5" display="none"><defs><linearGradient id="a_4_0" gradientUnits="userSpaceOnUse" x1="-14.288" y1="-1.5" x2="13.188" y2="-1.5" spreadMethod="pad"><stop offset="0%" stop-color="#143942"></stop><stop offset="31.765%" stop-color="#236270"></stop><stop offset="49.412%" stop-color="#286E7E"></stop><stop offset="76.863%" stop-color="#468C9C"></stop><stop offset="98.824%" stop-color="#A8EEFF"></stop></linearGradient><path fill="url(#a_4_0)" d="M13.2-10.05q-12.55-5.2-27.45-.4Q-12.35-.95-.7 9.9 11.35-.4 13.2-10.05Z" id="b_4_1"></path></defs><use xlink:href="#b_4_1" transform="translate(14.5 13.8) scale(.9393)"></use></svg><svg xmlns="http://www.w3.org/2000/svg" xmlns:xlink="http://www.w3.org/1999/xlink" preserveAspectRatio="xMinYMin meet" style="width: 100%; height: auto;" viewBox="0 0 28 26" id="frame_6" display="none"><defs><linearGradient id="a_5_0" gradientUnits="userSpaceOnUse" x1="-14.275" y1="-2.3" x2="13.175" y2="-2.3" spreadMethod="pad"><stop offset="0%" stop-color="#143942"></stop><stop offset="31.765%" stop-color="#236270"></stop><stop offset="49.412%" stop-color="#286E7E"></stop><stop offset="76.863%" stop-color="#468C9C"></stop><stop offset="98.824%" stop-color="#A8EEFF"></stop></linearGradient><path fill="url(#a_5_0)" d="M13.2-9.7Q1-17-14.25-10.25q.25 8.7 13.5 19.2Q13-.8 13.2-9.7Z" id="b_5_1"></path></defs><use xlink:href="#b_5_1" transform="translate(14.5 14) scale(.9393)"></use></svg><svg xmlns="http://www.w3.org/2000/svg" xmlns:xlink="http://www.w3.org/1999/xlink" preserveAspectRatio="xMinYMin meet" style="width: 100%; height: auto;" viewBox="0 0 28 26" id="frame_7" display="none"><defs><linearGradient id="a_6_0" gradientUnits="userSpaceOnUse" x1="-12.912" y1="-1.85" x2="12.013" y2="-1.85" spreadMethod="pad"><stop offset="0%" stop-color="#143942"></stop><stop offset="31.765%" stop-color="#236270"></stop><stop offset="49.412%" stop-color="#286E7E"></stop><stop offset="76.863%" stop-color="#468C9C"></stop><stop offset="98.824%" stop-color="#A8EEFF"></stop></linearGradient><path fill="url(#a_6_0)" d="M12-8.95q-12.15-4.9-24.9-.9Q-11.7-1.5-.55 8 10.4-.95 12-8.95Z" id="b_6_1"></path></defs><use xlink:href="#b_6_1" transform="translate(14.5 14.2) scale(.9393)"></use></svg><svg xmlns="http://www.w3.org/2000/svg" xmlns:xlink="http://www.w3.org/1999/xlink" preserveAspectRatio="xMinYMin meet" style="width: 100%; height: auto;" viewBox="0 0 28 26" id="frame_8" display="none"><defs><linearGradient id="a_7_0" gradientUnits="userSpaceOnUse" x1="-11.6" y1="-1.45" x2="10.8" y2="-1.45" spreadMethod="pad"><stop offset="0%" stop-color="#143942"></stop><stop offset="31.765%" stop-color="#236270"></stop><stop offset="49.412%" stop-color="#286E7E"></stop><stop offset="76.863%" stop-color="#468C9C"></stop><stop offset="98.824%" stop-color="#A8EEFF"></stop></linearGradient><path fill="url(#a_7_0)" d="M10.8-8.25q-12.1-2.45-22.4-1.2Q-9.45-1.45-.4 7 7.8-1.15 10.8-8.25Z" id="b_7_1"></path></defs><use xlink:href="#b_7_1" transform="translate(14.5 14.45) scale(.9393)"></use></svg><svg xmlns="http://www.w3.org/2000/svg" xmlns:xlink="http://www.w3.org/1999/xlink" preserveAspectRatio="xMinYMin meet" style="width: 100%; height: auto;" viewBox="0 0 28 26" id="frame_9" display="none"><defs><linearGradient id="a_8_0" gradientUnits="userSpaceOnUse" x1="-11.388" y1="-1.75" x2="11.188" y2="-1.75" spreadMethod="pad"><stop offset="0%" stop-color="#143942"></stop><stop offset="31.765%" stop-color="#236270"></stop><stop offset="49.412%" stop-color="#286E7E"></stop><stop offset="76.863%" stop-color="#468C9C"></stop><stop offset="98.824%" stop-color="#A8EEFF"></stop></linearGradient><path fill="url(#a_8_0)" d="M11.2-7.8q-12.8.6-22.55-.7Q-7.3-.2-.6 5.3 7.1-1.15 11.2-7.8Z" id="b_8_1"></path></defs><use xlink:href="#b_8_1" transform="translate(14.5 14.65) scale(.9393)"></use></svg><svg xmlns="http://www.w3.org/2000/svg" xmlns:xlink="http://www.w3.org/1999/xlink" preserveAspectRatio="xMinYMin meet" style="width: 100%; height: auto;" viewBox="0 0 28 26" id="frame_10" display="none"><defs><linearGradient id="a_9_0" gradientUnits="userSpaceOnUse" x1="-11.175" y1="-2.05" x2="11.575" y2="-2.05" spreadMethod="pad"><stop offset="0%" stop-color="#143942"></stop><stop offset="31.765%" stop-color="#236270"></stop><stop offset="49.412%" stop-color="#286E7E"></stop><stop offset="76.863%" stop-color="#468C9C"></stop><stop offset="98.824%" stop-color="#A8EEFF"></stop></linearGradient><path fill="url(#a_9_0)" d="M11.6-7.35Q-1.9-3.7-11.15-7.6-5.2 1-.8 3.55q7.2-4.7 12.4-10.9Z" id="b_9_1"></path></defs><use xlink:href="#b_9_1" transform="translate(14.5 14.85) scale(.9393)"></use></svg><svg xmlns="http://www.w3.org/2000/svg" xmlns:xlink="http://www.w3.org/1999/xlink" preserveAspectRatio="xMinYMin meet" style="width: 100%; height: auto;" viewBox="0 0 28 26" id="frame_11" display="none"><defs><linearGradient id="a_10_0" gradientUnits="userSpaceOnUse" x1="-10.513" y1="-2.55" x2="10.912" y2="-2.55" spreadMethod="pad"><stop offset="0%" stop-color="#143942"></stop><stop offset="31.765%" stop-color="#236270"></stop><stop offset="49.412%" stop-color="#286E7E"></stop><stop offset="76.863%" stop-color="#468C9C"></stop><stop offset="98.824%" stop-color="#A8EEFF"></stop></linearGradient><path fill="url(#a_10_0)" d="M10.95-6.8Q1-4.55-10.5-7.2q4.1 6.1 9.75 9.35 6.9-3.3 11.7-8.95Z" id="b_10_1"></path></defs><use xlink:href="#b_10_1" transform="translate(14.5 15.1) scale(.9393)"></use></svg><svg xmlns="http://www.w3.org/2000/svg" xmlns:xlink="http://www.w3.org/1999/xlink" preserveAspectRatio="xMinYMin meet" style="width: 100%; height: auto;" viewBox="0 0 28 26" id="frame_12" display="none"><defs><linearGradient id="a_11_0" gradientUnits="userSpaceOnUse" x1="-9.85" y1="-3.05" x2="10.25" y2="-3.05" spreadMethod="pad"><stop offset="0%" stop-color="#143942"></stop><stop offset="31.765%" stop-color="#236270"></stop><stop offset="49.412%" stop-color="#286E7E"></stop><stop offset="76.863%" stop-color="#468C9C"></stop><stop offset="98.824%" stop-color="#A8EEFF"></stop></linearGradient><path fill="url(#a_11_0)" d="M-.7.7q6.6-1.85 10.95-7-6.4.85-20.1-.5Q-7.65-3.2-.7.7Z" id="b_11_1"></path></defs><use xlink:href="#b_11_1" transform="translate(14.5 15.3) scale(.9393)"></use></svg><svg xmlns="http://www.w3.org/2000/svg" xmlns:xlink="http://www.w3.org/1999/xlink" preserveAspectRatio="xMinYMin meet" style="width: 100%; height: auto;" viewBox="0 0 28 26" id="frame_13" display="none"><defs><linearGradient id="a_12_0" gradientUnits="userSpaceOnUse" x1="-7.95" y1="-2.7" x2="8.85" y2="-2.7" spreadMethod="pad"><stop offset="0%" stop-color="#143942"></stop><stop offset="31.765%" stop-color="#236270"></stop><stop offset="49.412%" stop-color="#286E7E"></stop><stop offset="76.863%" stop-color="#468C9C"></stop><stop offset="98.824%" stop-color="#A8EEFF"></stop></linearGradient><path fill="url(#a_12_0)" d="M.25-.1q5.2-1.35 8.6-4.8-7.3.75-16.8-.45Q-5.7-2.1.25-.1Z" id="b_12_1"></path></defs><use xlink:href="#b_12_1" transform="translate(14.5 15.55) scale(.9393)"></use></svg><svg xmlns="http://www.w3.org/2000/svg" xmlns:xlink="http://www.w3.org/1999/xlink" preserveAspectRatio="xMinYMin meet" style="width: 100%; height: auto;" viewBox="0 0 28 26" id="frame_14" display="none"><defs><linearGradient id="a_13_0" gradientUnits="userSpaceOnUse" x1="-6.1" y1="-2.4" x2="7.4" y2="-2.4" spreadMethod="pad"><stop offset="0%" stop-color="#143942"></stop><stop offset="31.765%" stop-color="#236270"></stop><stop offset="49.412%" stop-color="#286E7E"></stop><stop offset="76.863%" stop-color="#468C9C"></stop><stop offset="98.824%" stop-color="#A8EEFF"></stop></linearGradient><path fill="url(#a_13_0)" d="M1.15-.9Q5-1.75 7.4-3.5q-8.2.65-13.5-.4 2.35 2.9 7.25 3Z" id="b_13_1"></path></defs><use xlink:href="#b_13_1" transform="translate(14.5 15.75) scale(.9393)"></use></svg><svg xmlns="http://www.w3.org/2000/svg" xmlns:xlink="http://www.w3.org/1999/xlink" preserveAspectRatio="xMinYMin meet" style="width: 100%; height: auto;" viewBox="0 0 28 26" id="frame_15" display="none"><defs><linearGradient id="a_14_0" gradientUnits="userSpaceOnUse" x1="-6.3" y1="-3" x2="7.6" y2="-3" spreadMethod="pad"><stop offset="0%" stop-color="#143942"></stop><stop offset="31.765%" stop-color="#236270"></stop><stop offset="49.412%" stop-color="#286E7E"></stop><stop offset="76.863%" stop-color="#468C9C"></stop><stop offset="98.824%" stop-color="#A8EEFF"></stop></linearGradient><path fill="url(#a_14_0)" d="m7.35-3.9.1-.2q-7.8.95-13.75-.3 2.9 2.9 7.65 2.8 3.35-.65 6-2.3Z" id="b_14_1"></path></defs><use xlink:href="#b_14_1" transform="translate(14.5 15.95) scale(.9393)"></use></svg><svg xmlns="http://www.w3.org/2000/svg" xmlns:xlink="http://www.w3.org/1999/xlink" preserveAspectRatio="xMinYMin meet" style="width: 100%; height: auto;" viewBox="0 0 28 26" id="frame_16" display="none"><defs><linearGradient id="a_15_0" gradientUnits="userSpaceOnUse" x1="-6.45" y1="-3.55" x2="7.85" y2="-3.55" spreadMethod="pad"><stop offset="0%" stop-color="#143942"></stop><stop offset="31.765%" stop-color="#236270"></stop><stop offset="49.412%" stop-color="#286E7E"></stop><stop offset="76.863%" stop-color="#468C9C"></stop><stop offset="98.824%" stop-color="#A8EEFF"></stop></linearGradient><path fill="url(#a_15_0)" d="M7.7-4.65h-.2q-7.45 1.2-13.95-.2Q-3-1.95 1.6-2.3q3.2-.55 6.1-2.35Z" id="b_15_1"></path></defs><use xlink:href="#b_15_1" transform="translate(14.5 16.2) scale(.9393)"></use></svg><svg xmlns="http://www.w3.org/2000/svg" xmlns:xlink="http://www.w3.org/1999/xlink" preserveAspectRatio="xMinYMin meet" style="width: 100%; height: auto;" viewBox="0 0 28 26" id="frame_17" display="none"><defs><linearGradient id="a_16_0" gradientUnits="userSpaceOnUse" x1="-6.65" y1="-4.15" x2="8.05" y2="-4.15" spreadMethod="pad"><stop offset="0%" stop-color="#143942"></stop><stop offset="31.765%" stop-color="#236270"></stop><stop offset="49.412%" stop-color="#286E7E"></stop><stop offset="76.863%" stop-color="#468C9C"></stop><stop offset="98.824%" stop-color="#A8EEFF"></stop></linearGradient><path fill="url(#a_16_0)" d="M8.05-5.35q-7.3 1.65-14.7 0Q.1-.5 8.05-5.35Z" id="b_16_1"></path></defs><use xlink:href="#b_16_1" transform="translate(14.5 16.4) scale(.9393)"></use></svg><svg xmlns="http://www.w3.org/2000/svg" xmlns:xlink="http://www.w3.org/1999/xlink" preserveAspectRatio="xMinYMin meet" style="width: 100%; height: auto;" viewBox="0 0 28 26" id="frame_18" display="none"><defs><linearGradient id="a_17_0" gradientUnits="userSpaceOnUse" x1="-7.563" y1="-5.1" x2="8.563" y2="-5.1" spreadMethod="pad"><stop offset="0%" stop-color="#143942"></stop><stop offset="31.765%" stop-color="#236270"></stop><stop offset="49.412%" stop-color="#286E7E"></stop><stop offset="76.863%" stop-color="#468C9C"></stop><stop offset="98.824%" stop-color="#A8EEFF"></stop></linearGradient><path fill="url(#a_17_0)" d="M8.15-5.55q-3.3-.05-6.7-.55-4.45.8-9 .9 6.75 3.25 15.6.1.05-.2.1-.45Z" id="b_17_1"></path></defs><use xlink:href="#b_17_1" transform="translate(14.5 16.6) scale(.9393)"></use></svg><svg xmlns="http://www.w3.org/2000/svg" xmlns:xlink="http://www.w3.org/1999/xlink" preserveAspectRatio="xMinYMin meet" style="width: 100%; height: auto;" viewBox="0 0 28 26" id="frame_19" display="none"><defs><linearGradient id="a_18_0" gradientUnits="userSpaceOnUse" x1="-8.463" y1="-6" x2="9.063" y2="-6" spreadMethod="pad"><stop offset="0%" stop-color="#143942"></stop><stop offset="31.765%" stop-color="#236270"></stop><stop offset="49.412%" stop-color="#286E7E"></stop><stop offset="76.863%" stop-color="#468C9C"></stop><stop offset="98.824%" stop-color="#A8EEFF"></stop></linearGradient><path fill="url(#a_18_0)" d="M8.3-5.8q-3.6-.8-7.15-1.8-4.8 1.45-9.6 2.5 7.1 2 17.25-.2l-.5-.5Z" id="b_18_1"></path></defs><use xlink:href="#b_18_1" transform="translate(14.5 16.85) scale(.9393)"></use></svg><svg xmlns="http://www.w3.org/2000/svg" xmlns:xlink="http://www.w3.org/1999/xlink" preserveAspectRatio="xMinYMin meet" style="width: 100%; height: auto;" viewBox="0 0 28 26" id="frame_20" display="none"><defs><linearGradient id="a_19_0" gradientUnits="userSpaceOnUse" x1="-9.375" y1="-6.95" x2="9.575" y2="-6.95" spreadMethod="pad"><stop offset="0%" stop-color="#143942"></stop><stop offset="31.765%" stop-color="#236270"></stop><stop offset="49.412%" stop-color="#286E7E"></stop><stop offset="76.863%" stop-color="#468C9C"></stop><stop offset="98.824%" stop-color="#A8EEFF"></stop></linearGradient><path fill="url(#a_19_0)" d="M9.6-5.5.8-9.15l-10.15 4.2Q-1.9-4.3 9.6-5.5Z" id="b_19_1"></path></defs><use xlink:href="#b_19_1" transform="translate(14.5 17.05) scale(.9393)"></use></svg><svg xmlns="http://www.w3.org/2000/svg" xmlns:xlink="http://www.w3.org/1999/xlink" preserveAspectRatio="xMinYMin meet" style="width: 100%; height: auto;" viewBox="0 0 28 26" id="frame_21" display="none"><defs><linearGradient id="a_20_0" gradientUnits="userSpaceOnUse" x1="-9.45" y1="-7.95" x2="10.15" y2="-7.95" spreadMethod="pad"><stop offset="0%" stop-color="#143942"></stop><stop offset="31.765%" stop-color="#236270"></stop><stop offset="49.412%" stop-color="#286E7E"></stop><stop offset="76.863%" stop-color="#468C9C"></stop><stop offset="98.824%" stop-color="#A8EEFF"></stop></linearGradient><path fill="url(#a_20_0)" d="M10.15-5.65Q6.4-8.5.6-10.85-5.25-8.4-9.4-5.2q7.65-.85 19.55-.45Z" id="b_20_1"></path></defs><use xlink:href="#b_20_1" transform="translate(14.5 17.3) scale(.9393)"></use></svg><svg xmlns="http://www.w3.org/2000/svg" xmlns:xlink="http://www.w3.org/1999/xlink" preserveAspectRatio="xMinYMin meet" style="width: 100%; height: auto;" viewBox="0 0 28 26" id="frame_22" display="none"><defs><linearGradient id="a_21_0" gradientUnits="userSpaceOnUse" x1="-9.513" y1="-8.95" x2="10.713" y2="-8.95" spreadMethod="pad"><stop offset="0%" stop-color="#143942"></stop><stop offset="31.765%" stop-color="#236270"></stop><stop offset="49.412%" stop-color="#286E7E"></stop><stop offset="76.863%" stop-color="#468C9C"></stop><stop offset="98.824%" stop-color="#A8EEFF"></stop></linearGradient><path fill="url(#a_21_0)" d="M10.75-5.8Q7.55-9.7.35-12.55-6.3-9.75-9.5-5.4q7.85-2.45 20.25-.4Z" id="b_21_1"></path></defs><use xlink:href="#b_21_1" transform="matrix(.93932 0 0 .93932 14.5 17.5)"></use></svg><svg xmlns="http://www.w3.org/2000/svg" xmlns:xlink="http://www.w3.org/1999/xlink" preserveAspectRatio="xMinYMin meet" style="width: 100%; height: auto;" viewBox="0 0 28 26" id="frame_23" display="none"><defs><linearGradient id="a_22_0" gradientUnits="userSpaceOnUse" x1="-9.588" y1="-9.95" x2="11.287" y2="-9.95" spreadMethod="pad"><stop offset="0%" stop-color="#143942"></stop><stop offset="31.765%" stop-color="#236270"></stop><stop offset="49.412%" stop-color="#286E7E"></stop><stop offset="76.863%" stop-color="#468C9C"></stop><stop offset="98.824%" stop-color="#A8EEFF"></stop></linearGradient><path fill="url(#a_22_0)" d="M11.3-5.95Q8.75-10.9.15-14.3q-7.45 3.15-9.7 8.65 8.05-3.95 20.85-.3Z" id="b_22_1"></path></defs><use xlink:href="#b_22_1" transform="translate(14.5 17.65) scale(.9393)"></use></svg><svg xmlns="http://www.w3.org/2000/svg" xmlns:xlink="http://www.w3.org/1999/xlink" preserveAspectRatio="xMinYMin meet" style="width: 100%; height: auto;" viewBox="0 0 28 26" id="frame_24" display="none"><defs><linearGradient id="a_23_0" gradientUnits="userSpaceOnUse" x1="-9.65" y1="-10.95" x2="11.85" y2="-10.95" spreadMethod="pad"><stop offset="0%" stop-color="#143942"></stop><stop offset="31.765%" stop-color="#236270"></stop><stop offset="49.412%" stop-color="#286E7E"></stop><stop offset="76.863%" stop-color="#468C9C"></stop><stop offset="98.824%" stop-color="#A8EEFF"></stop></linearGradient><path fill="url(#a_23_0)" d="M-.1-16q-8.25 3.5-9.55 10.1 8.25-5.5 21.5-.2Q9.9-12.1-.1-16Z" id="b_23_1"></path></defs><use xlink:href="#b_23_1" transform="translate(14.5 17.8) scale(.9393)"></use></svg><svg xmlns="http://www.w3.org/2000/svg" xmlns:xlink="http://www.w3.org/1999/xlink" preserveAspectRatio="xMinYMin meet" style="width: 100%; height: auto;" viewBox="0 0 28 26" id="frame_25" display="none"><defs><linearGradient id="a_24_0" gradientUnits="userSpaceOnUse" x1="-9.713" y1="-10.7" x2="11.613" y2="-10.7" spreadMethod="pad"><stop offset="0%" stop-color="#143942"></stop><stop offset="31.765%" stop-color="#236270"></stop><stop offset="49.412%" stop-color="#286E7E"></stop><stop offset="76.863%" stop-color="#468C9C"></stop><stop offset="98.824%" stop-color="#A8EEFF"></stop></linearGradient><path fill="url(#a_24_0)" d="M-.2-16.6q-7.25 4.65-9.55 11.75Q-1.4-10.9 11.6-5.1 8.9-12.2-.2-16.6Z" id="b_24_1"></path></defs><use xlink:href="#b_24_1" transform="translate(14.5 17.95) scale(.9393)"></use></svg><svg xmlns="http://www.w3.org/2000/svg" xmlns:xlink="http://www.w3.org/1999/xlink" preserveAspectRatio="xMinYMin meet" style="width: 100%; height: auto;" viewBox="0 0 28 26" id="frame_26" display="none"><defs><linearGradient id="a_25_0" gradientUnits="userSpaceOnUse" x1="-9.838" y1="-10.5" x2="11.338" y2="-10.5" spreadMethod="pad"><stop offset="0%" stop-color="#143942"></stop><stop offset="31.765%" stop-color="#236270"></stop><stop offset="49.412%" stop-color="#286E7E"></stop><stop offset="76.863%" stop-color="#468C9C"></stop><stop offset="98.824%" stop-color="#A8EEFF"></stop></linearGradient><path fill="url(#a_25_0)" d="M-.3-17.15q-6.2 5.75-9.5 13.4 8.45-6.6 21.15-.3-3.4-8.2-11.65-13.1Z" id="b_25_1"></path></defs><use xlink:href="#b_25_1" transform="translate(14.5 18.1) scale(.9393)"></use></svg><svg xmlns="http://www.w3.org/2000/svg" xmlns:xlink="http://www.w3.org/1999/xlink" preserveAspectRatio="xMinYMin meet" style="width: 100%; height: auto;" viewBox="0 0 28 26" id="frame_27" display="none"><defs><linearGradient id="a_26_0" gradientUnits="userSpaceOnUse" x1="-9.9" y1="-10.25" x2="11.1" y2="-10.25" spreadMethod="pad"><stop offset="0%" stop-color="#143942"></stop><stop offset="31.765%" stop-color="#236270"></stop><stop offset="49.412%" stop-color="#286E7E"></stop><stop offset="76.863%" stop-color="#468C9C"></stop><stop offset="98.824%" stop-color="#A8EEFF"></stop></linearGradient><path fill="url(#a_26_0)" d="M-.4-17.75q-5.2 6.9-9.5 15.05 8.55-7.15 21-.35-4.15-9.3-11.5-14.7Z" id="b_26_1"></path></defs><use xlink:href="#b_26_1" transform="translate(14.5 18.3) scale(.9393)"></use></svg><svg xmlns="http://www.w3.org/2000/svg" xmlns:xlink="http://www.w3.org/1999/xlink" preserveAspectRatio="xMinYMin meet" style="width: 100%; height: auto;" viewBox="0 0 28 26" id="frame_28" display="none"><defs><linearGradient id="a_27_0" gradientUnits="userSpaceOnUse" x1="-10.013" y1="-9.4" x2="10.813" y2="-9.4" spreadMethod="pad"><stop offset="0%" stop-color="#143942"></stop><stop offset="31.765%" stop-color="#236270"></stop><stop offset="49.412%" stop-color="#286E7E"></stop><stop offset="76.863%" stop-color="#468C9C"></stop><stop offset="98.824%" stop-color="#A8EEFF"></stop></linearGradient><path fill="url(#a_27_0)" d="M-.5-17.75q-6.85 7.7-9.5 16.7 8.65-7.7 20.85-.4Q7.2-12.35-.5-17.75Z" id="b_27_1"></path></defs><use xlink:href="#b_27_1" transform="matrix(.93929 0 0 .93929 14.5 18.4)"></use></svg><svg xmlns="http://www.w3.org/2000/svg" xmlns:xlink="http://www.w3.org/1999/xlink" preserveAspectRatio="xMinYMin meet" style="width: 100%; height: auto;" viewBox="0 0 28 26" id="frame_29" display="none"><defs><linearGradient id="a_28_0" gradientUnits="userSpaceOnUse" x1="-10.088" y1="-8.6" x2="10.588" y2="-8.6" spreadMethod="pad"><stop offset="0%" stop-color="#143942"></stop><stop offset="31.765%" stop-color="#236270"></stop><stop offset="49.412%" stop-color="#286E7E"></stop><stop offset="76.863%" stop-color="#468C9C"></stop><stop offset="98.824%" stop-color="#A8EEFF"></stop></linearGradient><path fill="url(#a_28_0)" d="M-.65-17.7Q-9.1-9.25-10.05.6q8.75-8.2 20.6-.45Q7.45-12.4-.65-17.7Z" id="b_28_1"></path></defs><use xlink:href="#b_28_1" transform="matrix(.93929 0 0 .93929 14.5 18.55)"></use></svg><svg xmlns="http://www.w3.org/2000/svg" xmlns:xlink="http://www.w3.org/1999/xlink" preserveAspectRatio="xMinYMin meet" style="width: 100%; height: auto;" viewBox="0 0 28 26" id="frame_30" display="none"><defs><linearGradient id="a_29_0" gradientUnits="userSpaceOnUse" x1="-10.2" y1="-7.75" x2="10.3" y2="-7.75" spreadMethod="pad"><stop offset="0%" stop-color="#143942"></stop><stop offset="31.765%" stop-color="#236270"></stop><stop offset="49.412%" stop-color="#286E7E"></stop><stop offset="76.863%" stop-color="#468C9C"></stop><stop offset="98.824%" stop-color="#A8EEFF"></stop></linearGradient><path fill="url(#a_29_0)" d="M-.75-17.7q-10.1 9.25-9.4 19.95 8.85-8.75 20.45-.5Q7.7-12.4-.75-17.7Z" id="b_29_1"></path></defs><use xlink:href="#b_29_1" transform="matrix(.93929 0 0 .93929 14.5 18.7)"></use></svg><svg xmlns="http://www.w3.org/2000/svg" xmlns:xlink="http://www.w3.org/1999/xlink" preserveAspectRatio="xMinYMin meet" style="width: 100%; height: auto;" viewBox="0 0 28 26" id="frame_31" display="none"><defs><linearGradient id="a_30_0" gradientUnits="userSpaceOnUse" x1="-10.25" y1="-7.3" x2="10.05" y2="-7.3" spreadMethod="pad"><stop offset="0%" stop-color="#143942"></stop><stop offset="31.765%" stop-color="#236270"></stop><stop offset="49.412%" stop-color="#286E7E"></stop><stop offset="76.863%" stop-color="#468C9C"></stop><stop offset="98.824%" stop-color="#A8EEFF"></stop></linearGradient><path fill="url(#a_30_0)" d="M-.85-18.05q-9.7 9.15-9.4 21.6Q-1.5-4.8 10.05 3 8.15-11.5-.85-18.05Z" id="b_30_1"></path></defs><use xlink:href="#b_30_1" transform="matrix(.93929 0 0 .93929 14.5 18.85)"></use></svg><svg xmlns="http://www.w3.org/2000/svg" xmlns:xlink="http://www.w3.org/1999/xlink" preserveAspectRatio="xMinYMin meet" style="width: 100%; height: auto;" viewBox="0 0 28 26" id="frame_32" display="none"><defs><linearGradient id="a_31_0" gradientUnits="userSpaceOnUse" x1="-10.35" y1="-6.8" x2="9.75" y2="-6.8" spreadMethod="pad"><stop offset="0%" stop-color="#143942"></stop><stop offset="31.765%" stop-color="#236270"></stop><stop offset="49.412%" stop-color="#286E7E"></stop><stop offset="76.863%" stop-color="#468C9C"></stop><stop offset="98.824%" stop-color="#A8EEFF"></stop></linearGradient><path fill="url(#a_31_0)" d="M-10.3 4.8q8.6-7.85 20.05-.55-1.1-14.8-10.7-22.65-9.3 9.05-9.35 23.2Z" id="b_31_1"></path></defs><use xlink:href="#b_31_1" transform="translate(14.5 19) scale(.9393)"></use></svg><svg xmlns="http://www.w3.org/2000/svg" xmlns:xlink="http://www.w3.org/1999/xlink" preserveAspectRatio="xMinYMin meet" style="width: 100%; height: auto;" viewBox="0 0 28 26" id="frame_33" display="none"><defs><linearGradient id="a_32_0" gradientUnits="userSpaceOnUse" x1="-10.4" y1="-6.35" x2="9.5" y2="-6.35" spreadMethod="pad"><stop offset="0%" stop-color="#143942"></stop><stop offset="31.765%" stop-color="#236270"></stop><stop offset="49.412%" stop-color="#286E7E"></stop><stop offset="76.863%" stop-color="#468C9C"></stop><stop offset="98.824%" stop-color="#A8EEFF"></stop></linearGradient><path fill="url(#a_32_0)" d="M9.5 5.5Q9.1-9.65-1.05-18.75-9.95-9.8-10.4 6.1q8.5-7.45 19.9-.6Z" id="b_32_1"></path></defs><use xlink:href="#b_32_1" transform="matrix(.93929 0 0 .93929 14.55 18.1)"></use></svg><svg xmlns="http://www.w3.org/2000/svg" xmlns:xlink="http://www.w3.org/1999/xlink" preserveAspectRatio="xMinYMin meet" style="width: 100%; height: auto;" viewBox="0 0 28 26" id="frame_34" display="none"><defs><linearGradient id="a_33_0" gradientUnits="userSpaceOnUse" x1="-10.425" y1="-4.75" x2="10.025" y2="-4.75" spreadMethod="pad"><stop offset="0%" stop-color="#143942"></stop><stop offset="31.765%" stop-color="#236270"></stop><stop offset="49.412%" stop-color="#286E7E"></stop><stop offset="76.863%" stop-color="#468C9C"></stop><stop offset="98.824%" stop-color="#A8EEFF"></stop></linearGradient><path fill="url(#a_33_0)" d="M-10.4 7.25Q-1.7.4 10 6.9 9.05-8.15-.65-16.85q-9.65 8.8-9.75 24.1Z" id="b_33_1"></path></defs><use xlink:href="#b_33_1" transform="matrix(.93929 0 0 .93929 14.55 17.25)"></use></svg><svg xmlns="http://www.w3.org/2000/svg" xmlns:xlink="http://www.w3.org/1999/xlink" preserveAspectRatio="xMinYMin meet" style="width: 100%; height: auto;" viewBox="0 0 28 26" id="frame_35" display="none"><defs><linearGradient id="a_34_0" gradientUnits="userSpaceOnUse" x1="-10.488" y1="-3.2" x2="10.488" y2="-3.2" spreadMethod="pad"><stop offset="0%" stop-color="#143942"></stop><stop offset="31.765%" stop-color="#236270"></stop><stop offset="49.412%" stop-color="#286E7E"></stop><stop offset="76.863%" stop-color="#468C9C"></stop><stop offset="98.824%" stop-color="#A8EEFF"></stop></linearGradient><path fill="url(#a_34_0)" d="M-10.4 8.45q8.85-6.3 20.9-.2Q8.95-6.6-.2-14.9-10.7-6.3-10.4 8.45Z" id="b_34_1"></path></defs><use xlink:href="#b_34_1" transform="translate(14.5 16.3) scale(.93927)"></use></svg><svg xmlns="http://www.w3.org/2000/svg" xmlns:xlink="http://www.w3.org/1999/xlink" preserveAspectRatio="xMinYMin meet" style="width: 100%; height: auto;" viewBox="0 0 28 26" id="frame_36" display="none"><defs><linearGradient id="a_35_0" gradientUnits="userSpaceOnUse" x1="-10.513" y1="-1.6" x2="11.013" y2="-1.6" spreadMethod="pad"><stop offset="0%" stop-color="#143942"></stop><stop offset="31.765%" stop-color="#236270"></stop><stop offset="49.412%" stop-color="#286E7E"></stop><stop offset="76.863%" stop-color="#468C9C"></stop><stop offset="98.824%" stop-color="#A8EEFF"></stop></linearGradient><path fill="url(#a_35_0)" d="M-10.45 9.6q9.1-5.75 21.45.05Q8.9-5.1.2-13-11.05-4.6-10.45 9.6Z" id="b_35_1"></path></defs><use xlink:href="#b_35_1" transform="matrix(.93929 0 0 .93929 14.5 15.45)"></use></svg><svg xmlns="http://www.w3.org/2000/svg" xmlns:xlink="http://www.w3.org/1999/xlink" preserveAspectRatio="xMinYMin meet" style="width: 100%; height: auto;" viewBox="0 0 28 26" id="frame_37" display="none"><defs><linearGradient id="a_36_0" gradientUnits="userSpaceOnUse" x1="-10.575" y1="-.05" x2="11.475" y2="-.05" spreadMethod="pad"><stop offset="0%" stop-color="#143942"></stop><stop offset="31.765%" stop-color="#236270"></stop><stop offset="49.412%" stop-color="#286E7E"></stop><stop offset="76.863%" stop-color="#468C9C"></stop><stop offset="98.824%" stop-color="#A8EEFF"></stop></linearGradient><path fill="url(#a_36_0)" d="M-10.45 10.75Q-1.2 5.6 11.5 11 8.8-3.6.6-11.1q-12.05 8.25-11.05 21.85Z" id="b_36_1"></path></defs><use xlink:href="#b_36_1" transform="matrix(.93925 0 0 .93925 14.55 15)"></use></svg><svg xmlns="http://www.w3.org/2000/svg" xmlns:xlink="http://www.w3.org/1999/xlink" preserveAspectRatio="xMinYMin meet" style="width: 100%; height: auto;" viewBox="0 0 28 26" id="frame_38" display="none"><defs><linearGradient id="a_37_0" gradientUnits="userSpaceOnUse" x1="-11.513" y1="-.3" x2="11.912" y2="-.3" spreadMethod="pad"><stop offset="0%" stop-color="#143942"></stop><stop offset="31.765%" stop-color="#236270"></stop><stop offset="49.412%" stop-color="#286E7E"></stop><stop offset="76.863%" stop-color="#468C9C"></stop><stop offset="98.824%" stop-color="#A8EEFF"></stop></linearGradient><path fill="url(#a_37_0)" d="M-11.4 10.75q10.4-4.1 23.35.2Q8.2-3 .35-11.6q-10.8 9.2-11.75 22.35Z" id="b_37_1"></path></defs><use xlink:href="#b_37_1" transform="matrix(.93929 0 0 .93929 14.55 14.5)"></use></svg><svg xmlns="http://www.w3.org/2000/svg" xmlns:xlink="http://www.w3.org/1999/xlink" preserveAspectRatio="xMinYMin meet" style="width: 100%; height: auto;" viewBox="0 0 28 26" id="frame_39" display="none"><defs><linearGradient id="a_38_0" gradientUnits="userSpaceOnUse" x1="-12.45" y1="-.6" x2="12.35" y2="-.6" spreadMethod="pad"><stop offset="0%" stop-color="#143942"></stop><stop offset="31.765%" stop-color="#236270"></stop><stop offset="49.412%" stop-color="#286E7E"></stop><stop offset="76.863%" stop-color="#468C9C"></stop><stop offset="98.824%" stop-color="#A8EEFF"></stop></linearGradient><path fill="url(#a_38_0)" d="M-12.35 10.8q11.5-3.1 24.75.1Q7.6-2.35.05-12.1-9.4-2-12.35 10.8Z" id="b_38_1"></path></defs><use xlink:href="#b_38_1" transform="matrix(.93929 0 0 .93929 14.5 14)"></use></svg><svg xmlns="http://www.w3.org/2000/svg" xmlns:xlink="http://www.w3.org/1999/xlink" preserveAspectRatio="xMinYMin meet" style="width: 100%; height: auto;" viewBox="0 0 28 26" id="frame_40" display="none"><defs><linearGradient id="a_39_0" gradientUnits="userSpaceOnUse" x1="-13.388" y1="-.85" x2="12.787" y2="-.85" spreadMethod="pad"><stop offset="0%" stop-color="#143942"></stop><stop offset="31.765%" stop-color="#236270"></stop><stop offset="49.412%" stop-color="#286E7E"></stop><stop offset="76.863%" stop-color="#468C9C"></stop><stop offset="98.824%" stop-color="#A8EEFF"></stop></linearGradient><path fill="url(#a_39_0)" d="M-13.35 10.8q12.7-2.1 26.15.05Q7-1.75-.2-12.6-8.4-1.55-13.35 10.8Z" id="b_39_1"></path></defs><use xlink:href="#b_39_1" transform="translate(14.5 13.5) scale(.9393)"></use></svg><svg xmlns="http://www.w3.org/2000/svg" xmlns:xlink="http://www.w3.org/1999/xlink" preserveAspectRatio="xMinYMin meet" style="width: 100%; height: auto;" viewBox="0 0 28 26" id="frame_41" display="none"><defs><linearGradient id="a_40_0" gradientUnits="userSpaceOnUse" x1="-14.325" y1="-1.15" x2="13.225" y2="-1.15" spreadMethod="pad"><stop offset="0%" stop-color="#143942"></stop><stop offset="31.765%" stop-color="#236270"></stop><stop offset="49.412%" stop-color="#286E7E"></stop><stop offset="76.863%" stop-color="#468C9C"></stop><stop offset="98.824%" stop-color="#A8EEFF"></stop></linearGradient><path fill="url(#a_40_0)" d="M13.25 10.8-.5-13.1l-13.8 23.9q13.8-1.05 27.55 0Z" id="b_40_1"></path></defs><use xlink:href="#b_40_1" transform="matrix(.93932 0 0 .93932 14.5 13)"></use></svg></svg>