
<svg xmlns="http://www.w3.org/2000/svg" version="1.1" xmlns:xlink="http://www.w3.org/1999/xlink" preserveAspectRatio="none" x="0px" y="0px" width="150px" height="155px" viewBox="0 0 150 155">
<defs>
<g id="Layer1_0_FILL">
<path fill="#27528D" stroke="none" d="
M 41.3 95.9
Q 49.6 110.9 66.1 104.2 49.2 105.05 41.3 95.9
M 41.8 112.6
Q 40.85 118.95 42.65 123 42.75 123.25 42.85 123.5 44.7 127.6 50.2 134.3 50.75 134.9 51.2 135.5 55.35 140.75 53.65 140.7 53.3 140.95 52.4 140.65 45.95 138.45 44.15 132.45
L 44.1 132.4
Q 45.1 139.6 50.85 142.8 52 143.4 53.4 143.95 54.6 144.35 55.95 144.65 60.6 145.6 66.8 144.8 66.85 144.75 66.9 144.7 67.05 144.6 67.15 144.55 67.5 144.3 67.8 144.15 67.6 143.95 67.5 143.85 67.35 143.65 67.2 143.5 66.95 143.35 66.65 143.25 66.55 143.15 66.45 143.1 65.7 142.75 64.35 142.5 64.3 142.5 64.2 142.45
L 64.15 142.45
Q 63.3 142.35 61.75 141.7 61.45 141.55 61.15 141.3 59.75 140.15 55.85 136.15 55.3 135.55 54.75 134.95 50.8 130.8 49.35 128.6 49.25 128.5 49.2 128.4 48 126.5 46.7 124.35 46.35 123.7 46 123.15 44.85 121.05 43.75 117.95 43.4 116.9 43.05 115.8 42.45 114.05 41.95 112.5 41.900390625 112.5 41.9 112.45 41.89921875 112.500390625 41.8 112.55
L 41.8 112.6
M 70.5 97.35
Q 71.55 91.5 68.9 85.55 66.45 80 54.65 70.85 65.45 80.95 68.15 87.9 70.25 93.25 70.4 97.25 70.4 97.912109375 70.25 98.55 70.4125 97.9625 70.5 97.35
M 66.75 60.4
Q 67.15 60.35 68.35 59.5
L 59.55 49.5 66.75 60.4
M 69.2 58.5
Q 71.15 57.3 72.6 57
L 67 46.45 69.2 58.5
M 76.15 107.95
Q 57.55 108.6 63.05 114.4 63.75 110 68.8 110.3 73.8 110.6 76.2 110.3 78.6 109.95 83.3 110 88 110 91.45 114.4 94.75 108.6 76.15 107.95
M 111.55 113.75
Q 111.5 113.7 111.45 113.65 110.9 115.4 110.25 117 108.55 121.6 106.95 124.35 105.35 127.05 103.55 129.95 101.6 132.85 97.15 137.65 92.6 142.4 90.6 142.8 89.7 142.95 89.05 143 88.4 143.15 88.1 143.2 87.95 143.25 87.85 143.35 87.25 143.5 86.75 143.65 85.8 143.95 85.2 144.5 84.95 144.65 84.9 144.95 84.85 145 84.75 145.15
L 84.65 145.25
Q 107.8 147.85 110.15 132.25 108.3 138.85 100.95 141.1 97.8 142.05 103.85 134.9 106.1 132.15 107.85 129.85 110.4 126.2 111.25 123.7 112.85 119.9 111.55 113.75
M 111.6 95.95
Q 103.7 105.05 86.8 104.25 103.25 110.95 111.6 95.95
M 97.65 71
Q 96.2 71.85 94.9 72.65 84.95 80.2 82.7 85.25 79.75 91.55 81.85 98.75
L 81.85 98.65
Q 81.8 97.5 82 96.35 82.65 92.95 84.6 88.05 87.3 81.4 97.65 71
M 93.2 49.5
L 85 60.05
Q 86.2 60.8 86.35 61.35
L 93.2 49.5
M 107.75 48.15
Q 107.1 48.5 106.35 49 103.35 50.8 100.1 52.75 97.9 54.1 94.6 56.4 91.9 58.35 88.5 60.95 80.75 66.8 76.55 73.8 74.2 70 70.6 66.65 67.95 63.9 64.65 61.35 56.9 55.55 52.5 52.85 48.2 50.25 44.2 50.2 44.95 51 51.3 54.75 57.8 58.6 66.6 67.15 75.5 75.7 76 93.15 76.1 90.05 76.5 87.35 78.3 74.6 85.45 67.65 94.3 59.1 100.7 55.2 107.05 51.4 107.75 48.15
M 83 58.2
Q 84.2 51.7 85.65 45.35
L 79.8 56.95
Q 80.85 57.2 83 58.2
M 82.65 61.25
Q 82.65 61.2 82.6 61.2 80.15 58.8 77.6 58.45 77.15 58.4 76.6 58.4
L 76.55 58.4
Q 76.1 58.4 75.6 58.45 75.55 58.45 75.5 58.45 75.05 58.5 74.6 58.65 72.5 59.25 70.45 61.25
L 70.55 61.25
Q 73.75 63.5 75.75 65.7 76.2 66.15 76.6 66.6 77.2 65.85 77.95 65.1 79.8 63.2 82.65 61.25
M 74.95 60.45
L 74.85 60.25
Q 74.85 60.15 74.9 60.1 75.95 59.95 77 59.9 77.6 59.9 77.8 59.9 78 60.1 78 60.15 77.55 60.85 77.15 61.6 77.45 61.95 77.75 62.3 77.95 62.65 78.15 62.95 78.15 63.1 78.15 63.15 78.1 63.2 78.05 63.2 77.2 63.25 76.35 63.35 75.9 63.35 75.4 63.4 75.35 63.4 75.3 63.35 75.25 63.3 75.25 63.25 75.25 63.2 75.3 63.15 75.3 63.1 75.35 63.05 75.45 62.95 75.55 62.85 76.1 63 76.65 63.15 76.95 63.1 77.6 62.95 77.5 62.65 77.35 62.3 77.05 62 76.75 61.65 76.55 61.8 76.1 62.1 75.95 62.2 75.85 62.3 76 62 76.2 61.7 75.55 61.1 74.95 60.45
M 77.75 60.35
Q 77.2 60.25 76.35 60.2 75.85 60.25 75.3 60.4 75.9 60.95 76.35 61.45 76.5 61.55 76.85 61.4 77.2 61 77.75 60.35
M 76.55 45.55
L 76.5 45.55 74.7 56.5 75 56.45
Q 75.65 56.4 76.25 56.4 76.85 56.45 77.5 56.5 77.7 56.5 77.8 56.55 77.8 54.95 77.65 53.35
L 76.55 45.55 Z"/>

<path fill="#4A71A2" fill-opacity="0.34901960784313724" stroke="none" d="
M 53.85 81.15
Q 53.5 81 53.1 80.9 51.45 80.4 50.3 81.15 49.15 82 49.2 83.7 49.2 85.15 50.1 86.4 50.3 86.75 50.55 87.05 51.5 88.15 52.75 88.7 53.1 88.9 53.5 89 54.9 89.4 55.95 88.85 56.15 88.75 56.3 88.65 57.4 87.85 57.4 86.3 57.4 86.25 57.4 86.1 57.35 85.1 56.8 84.1 56.5 83.45 55.95 82.85 55 81.7 53.85 81.15
M 56.2 83.7
Q 56.9 84.7 57 85.8 57 86 57 86.2 57 87.6 56.15 88.3 56.1 88.35 56 88.35 55 89.05 53.55 88.65 53.35 88.6 53.15 88.55 51.85 88.05 50.8 86.75 50.5 86.4 50.25 86 49.55 85 49.5 83.8
L 49.5 83.7
Q 49.5 82.2 50.5 81.45 51.6 80.8 53 81.25 54.85 82.05 55.75 83.1 56 83.4 56.2 83.7
M 95.8 86.1
L 95.8 86.2
Q 95.8 87.85 97 88.65 98.1 89.45 99.7 89 100.2 88.85 100.65 88.6 101.85 88.05 102.8 86.95 102.9 86.85 102.9 86.75 103.95 85.45 104.05 84 104.05 83.85 104.05 83.65 104.05 82.5 103.45 81.75 103.2 81.35 102.85 81.1 101.7 80.35 100.05 80.9 99.95 80.9 99.85 80.95 98.35 81.5 97.2 82.9 96.95 83.15 96.8 83.35 95.85 84.7 95.8 86.1
M 96.15 86.4
L 96.15 86.15
Q 96.25 84.8 97.15 83.55 98.55 81.85 100 81.3 101.6 80.75 102.65 81.4 103 81.7 103.2 82.1 103.7 82.7 103.7 83.65 103.7 85.1 102.8 86.35 102.6 86.55 102.45 86.75 101.6 87.7 100.65 88.2 100.15 88.5 99.65 88.65 98.2 89.05 97.15 88.35 96.25 87.7 96.15 86.4 Z"/>

<path fill="#27528D" fill-opacity="0.34901960784313724" stroke="none" d="
M 55.3 83.5
Q 54.4 82.35 53.2 81.9 51.95 81.6 51.15 82.2 50.25 82.8 50.3 83.95 50.35 85.2 51.2 86.4 52.1 87.5 53.4 87.85 54.55 88.25 55.4 87.65 56.3 87.05 56.3 85.85 56.25 84.6 55.3 83.5
M 97.95 83.5
Q 97 84.6 96.95 85.85 96.95 87.05 97.8 87.65 98.7 88.25 99.85 87.85 101.1 87.5 102 86.4 102.9 85.2 102.9 83.95 102.95 82.8 102.1 82.2 101.3 81.6 100 81.9 98.8 82.35 97.95 83.5 Z"/>
</g>

<g id="Layer0_0_FILL">
<path fill="#27528D" fill-opacity="0" stroke="none" d="
M 150.1 0
L 0 0 0 155.5 150.1 155.5 150.1 0 Z"/>
</g>
</defs>

<g transform="matrix( 1, 0, 0, 1, 0,0) ">
<use xlink:href="#Layer1_0_FILL"/>
</g>

<g transform="matrix( 1, 0, 0, 1, 0,0) ">
<use xlink:href="#Layer0_0_FILL"/>
</g>
</svg>
