
<svg xmlns="http://www.w3.org/2000/svg" version="1.1" xmlns:xlink="http://www.w3.org/1999/xlink" preserveAspectRatio="none" x="0px" y="0px" width="150px" height="155px" viewBox="0 0 150 155">
<defs>
<g id="Layer1_0_FILL">
<path fill="#27528D" fill-opacity="0" stroke="none" d="
M 85.85 104.35
Q 84.9 104.75 84.5 106.35 85.15 107.1 85.85 104.35
M 85.2 142.7
Q 84.4 144.1 84.35 144.85
L 84.35 145.25
Q 84.346875 145.15625 84.3 145.25 84.75 147.75 85.7 142 85.5 142.3 85.2 142.7
M 67.85 142.7
Q 67.55 142.3 67.35 142 68.4 147.75 68.9 145.25 68.803125 145.153125 68.8 145.3
L 68.8 144.85
Q 68.8 144.1 67.85 142.7
M 63.65 106.2
Q 64.75 107 66.1 104.2 64.4 104.65 63.65 106.2
M 76.45 110.1
Q 76.6 110 77 110.55 77.4 111 77.8 112 77.7 110.2 76.4 109.75 75.4 109.55 75 112.3 75.55 110.75 75.9 110.45 76.25 110.2 76.45 110.1
M 70.45 92.95
Q 67.55 94.4 70.85 94.4 71.4 94.4 71.7 94.45 72.05 93.65 70.45 92.95
M 75.85 80.65
Q 75.85 77.1 76.2 76.15 75.9 76.8 75.75 77.6 75.55 76.45 75.35 75.7 75.45 76.15 75.55 76.8 75.75 78.05 75.85 80.65
M 55.6 85.35
Q 55.1 85.3 54.7 85.45 54.35 85.65 54.35 85.95 54.3 86.3 54.6 86.6 54.9 86.85 55.35 86.9 55.85 87 56.2 86.8 56.6 86.65 56.6 86.3 56.65 85.95 56.35 85.7 56.05 85.45 55.6 85.35
M 54.75 85.55
Q 55.1 85.4 55.55 85.45 56 85.5 56.3 85.8 56.55 86 56.55 86.3 56.45 86.55 56.15 86.75 55.8 86.9 55.35 86.8 54.95 86.75 54.65 86.5 54.35 86.3 54.4 85.95 54.45 85.7 54.75 85.55
M 55.55 85.5
Q 55.2 85.5 54.95 85.65 54.65 85.8 54.65 85.95 54.65 86.25 54.8 86.45 55.05 86.65 55.4 86.7 55.7 86.75 55.95 86.6 56.3 86.5 56.3 86.25 56.35 86 56.05 85.8 55.9 85.6 55.55 85.5
M 74.15 64.5
L 73.6 65.1 74.55 64.8
Q 74.35 64.55 74.15 64.5
M 75.35 65.65
Q 75.25 65.65 74.7 65.25
L 74.7 66.15 75.35 65.65
M 76.65 66.5
L 76.8 65.85
Q 76.65 65.9 76.4 65.95
L 76.65 66.5
M 78.05 65.5
L 77.5 65.7 78.4 67.05
Q 78.1 66.3 78.05 65.5
M 76.85 64.9
Q 76.8 64.85 76.75 64.8 76.6 64.9 76.45 65.05 76.55 65.2 76.65 65.2 76.7 65.2 76.75 65.2
L 76.8 65.2
Q 76.9 65.2 77 65.05 76.9 64.95 76.85 64.9
M 76.8 64.9
L 76.8 64.95 76.65 64.95 76.75 65 76.65 65.1 76.8 65.1 76.8 65.15 76.65 65.15 76.65 65.1 76.7 65 76.65 64.95 76.65 64.9 76.8 64.9
M 79.4 63.95
Q 79.2 64.2 79.1 64.3
L 79.55 65.1 79.4 63.95
M 81 94.2
Q 84.25 94.15 81.35 92.85 79.8 93.5 80.1 94.25 80.45 94.2 81 94.2
M 98.25 85.35
Q 97.75 85.45 97.45 85.7 97.15 85.95 97.2 86.3 97.25 86.65 97.65 86.8 98 87 98.45 86.9 98.95 86.85 99.25 86.6 99.55 86.3 99.5 85.95 99.45 85.65 99.1 85.45 98.7 85.3 98.25 85.35
M 97.55 85.8
Q 97.8 85.5 98.3 85.45 98.7 85.4 99.05 85.55 99.35 85.7 99.4 85.95 99.45 86.3 99.2 86.5 98.9 86.75 98.45 86.8 98.05 86.9 97.7 86.75 97.4 86.55 97.3 86.3 97.3 86 97.55 85.8
M 97.5 86.25
Q 97.55 86.5 97.85 86.6 98.1 86.75 98.4 86.7 98.75 86.65 99.05 86.45 99.2 86.25 99.2 85.95 99.15 85.8 98.9 85.65 98.65 85.5 98.3 85.5 97.95 85.6 97.75 85.8 97.45 86 97.5 86.25 Z"/>
</g>

<g id="Layer0_0_FILL">
<path fill="#27528D" fill-opacity="0" stroke="none" d="
M 150.1 0
L 0 0 0 155.5 150.1 155.5 150.1 0 Z"/>
</g>
</defs>

<g transform="matrix( 1, 0, 0, 1, 0,0) ">
<use xlink:href="#Layer1_0_FILL"/>
</g>

<g transform="matrix( 1, 0, 0, 1, 0,0) ">
<use xlink:href="#Layer0_0_FILL"/>
</g>
</svg>
