
<svg xmlns="http://www.w3.org/2000/svg" version="1.1" xmlns:xlink="http://www.w3.org/1999/xlink" preserveAspectRatio="none" x="0px" y="0px" width="150px" height="155px" viewBox="0 0 150 155">
<defs>
<g id="Layer1_0_FILL">
<path fill="#27528D" fill-opacity="0.7490196078431373" stroke="none" d="
M 66.1 104.2
Q 59.15 104.65 55.95 106.2 60.7 107 66.1 104.2
M 68.95 145.25
Q 68.5041015625 145.1509765625 68.5 145.3
L 68.5 144.85
Q 68.4 144.1 63.4 142.7 61.9 142.3 60.8 142 66.2 147.75 68.95 145.25
M 70.45 86.45
Q 67.55 94.15 70.85 94.2 71.4 94.2 71.7 94.45 72.05 90.3 70.45 86.45
M 73.05 66.25
L 71.6 66 72.6 66.8
Q 72.9 66.55 73.05 66.25
M 74.55 65.3
Q 74.05 64.95 73.45 64.55
L 73.45 66
Q 74.3 65.35 74.55 65.3
M 76.3 109.75
Q 69.8 110 69.25 112.1 71.25 110.95 73.2 110.55 75.2 110.05 76.15 110.1 77.05 110.15 78.9 110.5 80.7 110.85 83.55 112.2 81.65 109.7 76.3 109.75
M 84.25 145.25
Q 87.05 147.75 92.35 142 91.3 142.3 89.75 142.7 84.85 144.1 84.7 144.85
L 84.7 145.3
Q 84.6958984375 145.1509765625 84.25 145.25
M 95.5 105.85
Q 92.25 104.75 85.55 104.85 90.8 107.1 95.5 105.85
M 81 94
Q 84.25 93.9 81.35 86.3 79.8 90.1 80.1 94.2 80.45 94 81 94
M 81.25 67.55
L 81.5 65.75
Q 81.1 66.35 80.7 66.85 81 67.15 81.25 67.55
M 76.55 74.9
Q 75.35 73.55 72.85 72.55 76.25 74.2 75.8 80.4 76.5 76.1 78.6 73.85 77.65 74.25 76.55 74.9
M 78.85 73.55
Q 78.75 73.7 78.6 73.85 79.55 73.4 80.4 73.2 79.65 73 78.85 73.55
M 79.45 63.35
Q 78.7 64.35 78.15 65.25 77.95 65.4 79.1 65.9 79.1 64.55 79.45 63.35 Z"/>

<path fill="#27528D" fill-opacity="0" stroke="none" d="
M 55.6 85.35
Q 55.1 85.3 54.7 85.45 54.35 85.65 54.35 85.95 54.3 86.3 54.6 86.6 54.9 86.85 55.35 86.9 55.85 87 56.2 86.8 56.6 86.65 56.6 86.3 56.65 85.95 56.35 85.7 56.05 85.45 55.6 85.35
M 54.4 85.95
Q 54.45 85.7 54.75 85.55 56.55 86 56.55 86.3 56.45 86.55 56.15 86.75 55.8 86.9 55.35 86.8 54.95 86.75 54.65 86.5 54.35 86.3 54.4 85.95
M 54.65 85.95
Q 54.65 86.25 54.8 86.45 55.05 86.65 55.4 86.7 55.7 86.75 56.3 86.25 56.35 86 54.95 85.65 54.65 85.8 54.65 85.95
M 97.45 85.7
Q 97.15 85.95 97.2 86.3 97.25 86.65 97.65 86.8 98 87 98.45 86.9 98.95 86.85 99.25 86.6 99.55 86.3 99.5 85.95 99.45 85.65 99.1 85.45 98.7 85.3 98.25 85.35 97.75 85.45 97.45 85.7
M 97.3 86.3
Q 97.3 86 97.55 85.8 99.35 85.7 99.4 85.95 99.45 86.3 99.2 86.5 98.9 86.75 98.45 86.8 98.05 86.9 97.7 86.75 97.4 86.55 97.3 86.3
M 97.5 86.25
Q 97.55 86.5 97.85 86.6 98.1 86.75 98.4 86.7 98.75 86.65 99.2 85.95 99.15 85.8 97.75 85.8 97.45 86 97.5 86.25 Z"/>
</g>

<g id="Layer0_0_FILL">
<path fill="#27528D" fill-opacity="0" stroke="none" d="
M 150.1 0
L 0 0 0 155.5 150.1 155.5 150.1 0 Z"/>
</g>
</defs>

<g transform="matrix( 1, 0, 0, 1, 0,0) ">
<use xlink:href="#Layer1_0_FILL"/>
</g>

<g transform="matrix( 1, 0, 0, 1, 0,0) ">
<use xlink:href="#Layer0_0_FILL"/>
</g>
</svg>
