
<svg xmlns="http://www.w3.org/2000/svg" version="1.1" xmlns:xlink="http://www.w3.org/1999/xlink" preserveAspectRatio="none" x="0px" y="0px" width="150px" height="155px" viewBox="0 0 150 155">
<defs>
<g id="Layer1_0_FILL">
<path fill="#27528D" stroke="none" d="
M 51.6 104.75
Q 57.9 107.55 66.1 104.2 56.2 104.7 51.6 104.75
M 56.5 137.5
Q 56.45 137.5 56.4 137.55 57.1 139.15 58.15 140.4 59.45 141.75 61.2 143.35 62.65 144.65 62.7 144.75 62.7 144.9 63.35 143.95 64.65 145.05 66.4 144.95 66.35 144.95 66.45 145.05 66.45 145.1 66.55 145.2 66.6 145.1 66.7 144.95 66.8 144.95 66.9 144.85 67.5 144.6 67.35 144 67.3 144 67.25 143.95 67.2 143.95 67.2 143.9 66.85 143.7 66.25 143.55
L 66.2 143.55
Q 65.9 143.45 65.45 143.35 64.95 143.25 64.6 142.9 63.9 142.45 62.35 141.55 60.95 140.65 60.15 140.3 59.65 140.05 59.1 139.6 58.3 139.15 57.65 138.5 56.95 137.85 56.5 137.5
M 69.1 90.35
Q 69.4 93.7 70.8 94.6 71.05 94.7 71.15 94.8 71.4 94.8 71.55 94.8 71.6 92.9 71.2 90.85 70.7 86.75 68.2 82.4 68.8 87.45 69.1 90.35
M 71.2 66.45
Q 71.65 66.2 72.05 65.85
L 69.3 63.9 71.2 66.45
M 72.45 64.9
Q 73.65 64.05 74 64
L 72.15 61.75 72.45 64.9
M 76.25 109.45
Q 66.3 109.9 66.7 112.2 68.75 110.85 71.7 110.3 74.6 109.75 76 109.85 77.35 109.9 80.1 110.2 82.9 110.5 86.35 112.45 84.8 109.35 76.25 109.45
M 85.7 144.5
Q 85.55 144.55 85.45 144.6 85.35 144.7 85.3 144.8 85.25 144.85 85.25 144.9 85.2 144.95 85.05 145.1 84.9 145 84.55 145.15
L 84.5 145.2
Q 84.45 145.2 84.35 145.25
L 84.3 145.25
Q 89.55 147 93 143.25 93.65 143.65 93.65 143.3 93.7 143.05 95.1 141.7 95.8 140.95 96.45 140.25 96.3 139.8 95.8 139.65 95.25 139.25 94.2 138.5 93.85 138.85 93.5 139.15 92.6 139.95 91.75 140.5 91 141.05 90.25 141.55 89.05 142.2 87.85 143.1 86.2 144.1 85.7 144.5
M 100.55 104.85
Q 95.95 104.8 86.05 104.35 94.2 107.65 100.55 104.85
M 83.95 83.1
Q 83.6 82.8 83.3 82.45 81.15 85.9 80.55 89.05 79.95 91.9 80.4 94.85 80.65 94.45 81.1 94.25 82.45 93.75 82.95 91.45 83.6 88.6 83.95 83.1
M 83.75 63.9
L 81.75 66.65
Q 82.2 66.9 82.45 67.4
L 83.75 63.9
M 83.7 68.65
Q 82.95 69.15 82 69.85 79.85 71.4 78.05 73.35 77.15 73.25 75.95 73.2 75.2 72.35 74.15 71.65 72.25 70.25 70.5 69.35 69.3 68.75 68 68.45 68.75 68.8 70.15 69.75 72.25 71.25 74.05 74.1 75.9 77.1 75.9 82.1 75.9 82.15 75.9 82.25 76.45 78.6 78 76.1 79.8 73.3 81.55 71.6 82.9 70.35 83.55 69.35 83.6 69.1 83.6 68.95 83.75 68.75 83.7 68.65
M 78.5 63.9
Q 78.4 63.9 79.8 64.5 80.1 62.25 80.75 60.15
L 78.5 63.9
M 76.85 65
Q 76.75 65 76.65 65 76.55 65 76.45 65 75.9 65.15 75.45 65.6
L 75.55 65.6
Q 76.2 66.2 76.65 66.7 76.8 66.75 76.85 66.75 77 66.6 77.15 66.5 77.55 66.05 78.15 65.6 77.65 65.15 77.1 65 77 65 76.85 65
M 77.35 65.85
L 77.4 65.85 77.4 65.8
Q 77.3 65.7 77.2 65.6 77.25 65.55 77.3 65.5 77.3 65.55 77.35 65.65 77.4 65.7 77.45 65.8 77.4 65.85 77.4 65.9
L 77.4 65.95
Q 77.3 66 77.2 66.1 77.2 65.95 77.35 65.85
M 76.8 65.2
Q 76.95 65.2 77.05 65.2
L 77.15 65.2
Q 77.2 65.25 77.2 65.35 77 65.3 76.7 65.25 76.4 65.3 76.15 65.5 76.2 65.55 76.35 65.7
L 76.3 65.7
Q 76.2 65.6 76.1 65.5
L 76.05 65.5 76.05 65.45
Q 76.4 65.25 76.8 65.2
M 76.7 66.25
L 76.75 66.3 76.6 66.3
Q 76.6 66.2 76.6 66.15 76.65 66.2 76.7 66.25
M 76.6 61.35
L 76 63.5 76.05 63.5
Q 76.2 63.5 76.35 63.5 76.5 63.55 76.65 63.6
L 76.7 63.6
Q 76.9 63.4 77.05 63.25
L 76.75 61.35 76.6 61.35 Z"/>

<path fill="#2C5690" fill-opacity="0.050980392156862744" stroke="none" d="
M 55.3 84.75
Q 55.2 84.75 55.05 84.7 54.5 84.65 54.05 84.8 53.65 85.15 53.6 85.65 53.55 86.1 53.95 86.55 54.05 86.7 54.15 86.75 54.5 87.05 55 87.15 55.15 87.2 55.3 87.25 55.8 87.3 56.15 87.1 56.25 87.05 56.3 87.05 56.7 86.75 56.75 86.3
L 56.75 86.25
Q 56.75 85.8 56.4 85.45 56.3 85.3 56.1 85.15 55.75 84.85 55.3 84.75
M 54.05 86.4
Q 53.7 86.1 53.7 85.65 53.75 85.15 54.15 84.95 54.55 84.8 55 84.8 55.75 85.05 56.1 85.3 56.2 85.4 56.3 85.45 56.6 85.8 56.6 86.2 56.6 86.3 56.6 86.35 56.5 86.75 56.15 86.95
L 56.1 86.95
Q 55.7 87.15 55.25 87.05 55.15 87.05 55.05 87.05 54.6 86.95 54.25 86.65 54.1 86.55 54.05 86.4
M 98.6 84.7
Q 98.5 84.7 98.45 84.7 97.95 84.85 97.55 85.2 97.45 85.3 97.4 85.35 97 85.8 97 86.25
L 97 86.35
Q 97.1 86.85 97.55 87.05 97.95 87.3 98.45 87.25 98.6 87.2 98.75 87.15 99.35 87.05 99.75 86.65 100.2 86.15 100.15 85.7 100.15 85.6 100.15 85.55 100.05 85.15 99.7 84.9 99.7 84.8 99.55 84.8 99.1 84.6 98.6 84.7
M 97.1 86.3
Q 97.15 85.8 97.5 85.45 98 85 98.55 84.8 99.1 84.75 99.5 84.9 99.6 84.95 99.7 85.1 100 85.25 100 85.6 100.05 86.1 99.7 86.45 99.65 86.55 99.6 86.65 99.2 86.9 98.75 87.05 98.6 87.05 98.4 87.1 98 87.15 97.6 86.95 97.2 86.75 97.1 86.3 Z"/>

<path fill="#27528D" fill-opacity="0.050980392156862744" stroke="none" d="
M 54.35 85.15
Q 54.05 85.35 54.05 85.65 54.05 86.1 54.3 86.45 54.65 86.75 55.1 86.85 55.55 86.95 55.9 86.75 56.3 86.6 56.3 86.2 56.35 85.8 55.95 85.45 55.65 85.15 55.2 85 54.7 84.95 54.35 85.15
M 97.8 85.45
Q 97.4 85.8 97.45 86.2 97.45 86.6 97.85 86.75 98.2 86.95 98.65 86.85 99.1 86.75 99.45 86.45 99.7 86.1 99.7 85.65 99.7 85.35 99.35 85.15 99.05 84.95 98.55 85 98.05 85.15 97.8 85.45 Z"/>
</g>

<g id="Layer0_0_FILL">
<path fill="#27528D" fill-opacity="0" stroke="none" d="
M 150.1 0
L 0 0 0 155.5 150.1 155.5 150.1 0 Z"/>
</g>
</defs>

<g transform="matrix( 1, 0, 0, 1, 0,0) ">
<use xlink:href="#Layer1_0_FILL"/>
</g>

<g transform="matrix( 1, 0, 0, 1, 0,0) ">
<use xlink:href="#Layer0_0_FILL"/>
</g>
</svg>
