
<svg xmlns="http://www.w3.org/2000/svg" version="1.1" xmlns:xlink="http://www.w3.org/1999/xlink" preserveAspectRatio="none" x="0px" y="0px" width="150px" height="155px" viewBox="0 0 150 155">
<defs>
<g id="Layer1_0_FILL">
<path fill="#27528D" stroke="none" d="
M 21.75 51.15
Q 34.2 117.1 66.1 104.2 36.25 105.7 21.75 51.15
M 55.4 50.7
Q 58 48.5 60.8 46.85
L 40.15 20.75 55.4 50.7
M 62.9 72.5
Q 56.3 64.5 45.85 58.65 32.1 51 22.85 34.65 28.45 51.2 41.85 60.65 52.25 68 59.15 76.15 61.2 78.6 63 81.1 70.05 91.25 69.2 102 69.15 102.85 69.05 103.75 73.95 89.95 66.85 78.15 65.05 75.2 62.9 72.5
M 13.65 75.9
Q 13.6 75.8 13.55 75.7 12.45 88.75 16.9 97.1 17.4 98.05 18 98.95 23.55 107.5 30.2 115.45 32.55 118.35 33.75 121 35.7 125.5 34.25 129.45 31.15 130.05 27.45 126.85 22.5 122.6 17.75 112.45 17.65 118.45 18.95 123.1 26 149.4 68.55 145.3 68.2 144.9 67.95 144.45 67.05 142.7 64.15 141.9 63.8 141.8 63.45 141.7 63.1 141.6 62.7 141.5 60.65 141.1 57.85 141.1 57.25 141.1 56.7 141.05 56.4 141 56.1 140.95 53.45 140.5 51.15 138.55 47.4 135.3 45.05 127.6 44.4 125.25 43.55 123.1 39.85 113.2 34.1 109.4 32.65 108.4 31.25 107.3 26.05 103.45 21.95 98.85 21.65 98.5 21.35 98.1 17.65 93.4 15.1 82.7 14.3 79.6 13.65 75.9
M 62.75 45.75
Q 66.25 43.8 69.8 43
L 56.75 15.8 62.75 45.75
M 76.05 107.75
Q 55 108.85 55.75 128.2 62.05 125 66.6 129.75 71.2 134.5 76.05 133.75 81.8 133.6 85.65 129.35 89.45 125.1 96.35 128.4 97.1 108.85 76.05 107.75
M 135.65 88.2
Q 133.35 95.2 130.4 98.55 128.85 100.35 127.05 102.05 123.15 105.85 118.3 109.1 117.2 109.85 116.15 110.8 110.8 115.9 107.4 127.35 107.15 128.05 106.95 128.7 103.2 140.1 95.9 140.95 95.35 141.05 94.75 141.05 92.25 141.1 90.35 141.3 90.05 141.35 89.7 141.4 85.75 142.1 84.25 144 84.1 144.2 84 144.35 83.95 144.5 83.85 144.6 83.6 144.95 83.3 145.25 130.7 148.3 134.45 116.15 134.7 114.2 134.65 112.15 127.15 128.55 119.25 129.7 118.6 129.8 117.95 129.75 115.1 123.8 121.85 115.7 121.95 115.65 122.1 115.5 128.5 107.65 134.1 99.3 136.35 95.75 137.55 91.4 139.4 84.8 138.7 76.05 138.2 78.85 137.55 81.3 137.5 81.4 137.45 81.55 136.65 85.2 135.65 88.2
M 130.45 51.15
Q 116 105.7 86.1 104.2 118 117.1 130.45 51.15
M 129.25 34.75
L 129.2 34.75
Q 119.95 51.05 106.2 58.7 96.8 63.95 90.55 71 87.5 74.4 85.2 78.25 78.15 90 83.1 103.8 81.5 92.05 89.15 81.05 90.6 79 92.3 77 99.3 68.35 110.3 60.6 123.6 51.2 129.25 34.75
M 112 20.75
L 91.45 46.85
Q 94.2 48.55 96.8 50.75
L 112 20.75
M 87.95 64.85
Q 99.15 54.4 107.1 49.75 115.1 45.05 128.45 27.65 110.95 44.1 105.6 47.35 100.3 50.65 90.7 57.95 81.05 65.2 76.05 73.95 71.05 65.2 61.4 57.95 51.8 50.65 46.5 47.35 41.15 44.1 23.65 27.9 37 45.05 45 49.75 52.95 54.4 64.15 64.85 75.3 75.25 76.05 96.8 76.8 75.25 87.95 64.85
M 95.4 15.7
L 82.35 43
Q 85.8 43.8 89.4 45.7 92.35 30.7 95.4 15.7
M 91.65 52.45
Q 91.6 52.4 91.55 52.35 85.2 46.25 78.6 45.3 77.35 45.15 76.1 45.15 76 45.15 75.9 45.15 74.75 45.15 73.6 45.3 73.35 45.35 73.2 45.4 72.05 45.55 70.9 45.9 65.6 47.5 60.55 52.45 68.85 58.1 73.9 63.75 75.05 65.05 76.1 66.4 77.6 64.4 79.55 62.35 84.3 57.45 91.65 52.45
M 77.45 49.3
Q 78.9 49.3 79.35 49.3 79.75 49.85 79.7 50.05 78.15 51.7 76.65 53.45 77.5 54.4 78.4 55.35 79.05 56.15 79.7 56.95 79.75 57.35 79.65 57.5 79.5 57.6 79.35 57.6 77.3 57.6 75.2 57.6 74 57.6 72.8 57.6 72.65 57.6 72.5 57.5 72.4 57.35 72.4 57.25 72.4 57.1 72.5 56.95 72.65 56.75 72.85 56.55 74.2 54.95 75.55 53.45 74.15 51.9 72.7 50.35
L 72.35 49.75
Q 72.35 49.55 72.5 49.45 75.15 49.3 77.45 49.3
M 77.25 55.35
Q 76.7 54.7 76.1 54.05 75.8 54.4 74.9 55.25 74.3 56 73.65 56.8 75 56.8 76.35 56.8 77.05 56.8 78.45 56.8 77.85 56.1 77.25 55.35
M 76.55 52.35
Q 77.35 51.45 78.45 50.15 77.4 50.1 75.6 50.1 74.65 50.1 73.65 50.15 74.6 51.2 75.55 52.2 75.8 52.5 76.55 52.35
M 76.1 13.95
Q 76 13.95 75.9 13.95
L 72.05 42.55 72.95 42.35
Q 74.5 42.2 76.05 42.2 77.65 42.2 79.2 42.35 79.65 42.4 80.05 42.55 79.45 38.05 78.85 33.5
L 76.25 13.95
Q 76.2 13.95 76.1 13.95 Z"/>

<path fill="#87A7C7" fill-opacity="0.9490196078431372" stroke="none" d="
M 49.2 73.25
Q 45.35 71.9 42.75 73.8 40.2 75.8 40.3 79.85 40.45 83.1 42.35 86.1 42.75 86.8 43.35 87.5 45.55 90.45 48.3 91.85 49.1 92.25 49.9 92.55 53.1 93.6 55.6 92.3 55.95 92.15 56.35 91.85 58.75 90 58.7 86.35 58.7 86.1 58.7 85.9 58.6 83.55 57.55 81.3 56.85 79.75 55.7 78.2 53.55 75.4 50.9 74 50.15 73.55 49.25 73.25
L 49.2 73.25
M 55 78.7
Q 55.65 79.45 56.05 80.2 57.45 82.5 57.75 84.95 57.85 85.45 57.9 85.95 58.05 89.3 56.1 90.9 55.95 91.05 55.85 91.2 53.5 92.85 50.15 91.75 49.75 91.6 49.35 91.45 46.35 90.15 44 87.05 43.3 86.1 42.75 85.15 41.35 82.7 41.15 80.05
L 41.15 79.8
Q 41 76.25 43.25 74.5 45.75 72.9 48.95 74 53.05 76.15 55 78.7
M 109.4 73.8
Q 106.85 71.9 102.95 73.25 102.8 73.3 102.6 73.4 99.1 74.75 96.45 78.2 96.05 78.75 95.65 79.4 93.6 82.55 93.5 85.9 93.3 89.9 95.8 91.85 98.5 93.8 102.25 92.55 103.45 92.2 104.5 91.5 106.9 90.1 108.85 87.5 109.05 87.25 109.25 87 111.45 84 111.85 80.65 111.9 80.3 111.9 79.85 111.95 77.15 110.85 75.4 110.3 74.5 109.4 73.8
M 94.3 86.6
L 94.3 85.9
Q 94.45 82.7 96.45 79.65 99.65 75.5 102.85 74.2 106.7 72.8 108.95 74.45 109.8 75.15 110.3 76.15 111.15 77.6 111.05 79.75 110.95 83.05 108.9 86.05 108.6 86.5 108.2 87 106.5 89.3 104.5 90.6 103.3 91.35 102 91.75 98.7 92.85 96.35 91.2 94.35 89.65 94.3 86.6 Z"/>

<path fill="#27528D" fill-opacity="0.9490196078431372" stroke="none" d="
M 56.25 85.15
Q 56 82.25 53.95 79.5 51.9 76.8 49.2 75.8 46.35 74.85 44.6 76.2 42.7 77.7 42.8 80.6 42.95 83.45 45 86.25 47.15 89 49.85 89.9 52.6 90.85 54.5 89.45 56.3 88.05 56.25 85.15
M 98.25 79.5
Q 96.15 82.25 95.95 85.15 95.85 88.05 97.7 89.45 99.6 90.85 102.3 89.9 105.05 89 107.15 86.25 109.25 83.45 109.35 80.6 109.5 77.7 107.6 76.2 105.8 74.85 103 75.8 100.3 76.8 98.25 79.5 Z"/>
</g>

<g id="Layer0_0_FILL">
<path fill="#27528D" fill-opacity="0" stroke="none" d="
M 150.1 0
L 0 0 0 155.5 150.1 155.5 150.1 0 Z"/>
</g>
</defs>

<g transform="matrix( 1, 0, 0, 1, 0,0) ">
<use xlink:href="#Layer1_0_FILL"/>
</g>

<g transform="matrix( 1, 0, 0, 1, 0,0) ">
<use xlink:href="#Layer0_0_FILL"/>
</g>
</svg>
