
<svg xmlns="http://www.w3.org/2000/svg" version="1.1" xmlns:xlink="http://www.w3.org/1999/xlink" preserveAspectRatio="none" x="0px" y="0px" width="150px" height="155px" viewBox="0 0 150 155">
<defs>
<g id="Layer1_0_FILL">
<path fill="#27528D" stroke="none" d="
M 43.05 97.35
Q 51 110.35 66.1 104.2 50.35 105 43.05 97.35
M 44.7 116
L 44.7 116.1
Q 43.9 121.65 45.4 125.25 45.55 125.45 45.65 125.65 47.2 129.3 51.9 135.05 52.35 135.6 52.75 136.1 56.05 140.25 55.4 140.8 55.35 141.35 54.45 141.1 48.75 139.4 47.3 134.15 47.3 134.2 47.3 134.3 48.4 140.5 53.5 143.2 54.4 143.65 55.65 144.2 56.7 144.5 57.9 144.65 62.1 145.5 67.45 144.45 67.45 144.4 67.5 144.3 67.5 144.15 67.45 144.05 67.45 143.8 67.25 143.55 67.15 143.45 67 143.35 66.9 143.2 66.7 143.1 66.5 143 66.25 142.9 66.1 142.85 66 142.8 65.45 142.55 64.2 142.35 64.1 142.35 64 142.35 63.05 142.15 62.05 141.45 61.8 141.25 61.6 141 60.65 139.8 57.2 136.25 56.7 135.8 56.2 135.3 52.45 131.55 51.3 129.9 51.15 129.75 51.1 129.6 50.15 128.2 48.9 126.2 48.55 125.7 48.3 125.25 47.25 123.4 46.35 120.8 46 119.85 45.65 118.9 45.1 117.3 44.7 116
M 68.65 88.4
Q 70.45 93.2 70.55 96.8 70.55 96.9 70.55 96.95 71.15 91.9 68.95 86.35 66.85 81.3 56.9 72.75 66.3 81.9 68.65 88.4
M 61.2 51.95
L 67.5 61.35
Q 67.85 61.35 68.95 60.55
L 61.2 51.95
M 69.8 59.55
Q 71.6 58.45 72.85 58.15
L 67.85 49 69.8 59.55
M 108.65 117.9
Q 108.65 117.85 108.55 117.8 108.05 119.35 107.4 120.7 105.85 124.7 104.45 127.05 102.95 129.4 101.3 131.85 99.55 134.4 95.6 138.55 91.55 142.7 89.75 143.05 89 143.2 88.45 143.3 87.9 143.4 87.65 143.45 87.5 143.5 87.45 143.6 86.9 143.7 86.5 143.9 85.65 144.15 85.05 144.6 84.9 144.75 84.8 144.95 84.75 145.05 84.65 145.15
L 84.55 145.25
Q 104.75 147.7 107.3 134.1 105.8 139.7 99.75 141.45 97.1 142.25 102.35 136 104.45 133.65 105.95 131.55 108.05 128.5 108.7 126.4 109.95 123.1 108.65 117.9
M 109.7 97.4
Q 102.4 105.05 86.65 104.25 101.75 110.4 109.7 97.4
M 81.9 96
Q 82.65 93.1 84.35 88.65 86.7 82.6 95.35 73 94.15 73.65 93 74.25 84.35 81.15 82.3 85.85 79.75 91.6 81.6 98.1
L 81.6 98
Q 81.65 97 81.9 96
M 91.65 51.95
L 84.45 61.15
Q 85.55 61.8 85.7 62.35
L 91.65 51.95
M 92.8 58.45
Q 90.35 60.15 87.45 62.4 80.65 67.55 76.8 73.75 74.65 70.6 71.5 67.75 69.15 65.3 66.2 63.1 59.5 58 55.5 55.6 51.75 53.3 48.15 53.3 48.9 53.95 54.4 57.25 60.15 60.7 67.85 68.3 75.55 75.95 76 91.3 76.05 88.7 76.4 86.45 78 75.25 84.25 69.05 91.9 61.5 97.5 57.9 103 54.55 103.7 51.65 103.15 52 102.55 52.35 100.05 53.85 97.4 55.45 95.55 56.5 92.8 58.45
M 82.5 59.25
Q 83.55 53.45 84.85 47.85
L 79.6 58.15
Q 80.4 58.35 82.5 59.25
M 81.9 62
Q 81.9 61.95 81.85 61.95 79.75 59.85 77.5 59.5 77.1 59.45 76.65 59.45
L 76.6 59.45
Q 76.2 59.45 75.8 59.5 75.75 59.55 75.7 59.55 75.25 59.6 74.9 59.75 73.05 60.25 71.3 62
L 71.4 62
Q 74.2 63.95 75.9 65.85 76.3 66.25 76.65 66.65 77.2 66 77.8 65.3 79.45 63.65 81.9 62
M 75.15 61.3
L 75 61.1
Q 75 61.05 75.05 61 76.05 60.8 76.95 60.8 77.5 60.8 77.7 60.8 77.85 60.95 77.85 61 77.5 61.6 77.2 62.3 77.45 62.6 77.7 62.9 77.85 63.15 78.05 63.45 78.05 63.6 78 63.6
L 77.9 63.6
Q 77.2 63.75 76.45 63.85 76 63.85 75.6 63.9 75.55 63.9 75.55 63.85 75.5 63.8 75.5 63.75 75.5 63.7 75.55 63.65
L 75.55 63.6
Q 75.65 63.5 75.7 63.4 76.2 63.6 76.65 63.65 76.95 63.6 77.5 63.5 77.45 63.2 77.35 62.9 77.1 62.6 76.8 62.3 76.6 62.4 76.2 62.65 76.15 62.7 76.1 62.75 76.15 62.6 76.2 62.4 75.65 61.85 75.15 61.3
M 77.65 61.15
Q 77.2 61.05 76.4 61.05 75.9 61.05 75.45 61.25 76 61.75 76.4 62.25 76.55 62.3 76.85 62.2 77.2 61.75 77.65 61.15
M 76.6 48.15
L 76.55 48.15 74.9 57.7 75.2 57.6
Q 75.75 57.55 76.25 57.55 76.85 57.6 77.4 57.7 77.5 57.7 77.65 57.75 77.65 56.35 77.55 55
L 76.6 48.15
M 76.2 107.95
Q 58.2 108.5 63.5 113.25 63.5 109.9 68.6 109.25 73.65 108.5 75.9 108.5 78.15 108.5 83.25 108.85 88.2 109.15 91 113.25 94.2 108.5 76.2 107.95 Z"/>

<path fill="#456D9F" fill-opacity="0.30196078431372547" stroke="none" d="
M 53.45 81.5
Q 51.95 81.1 50.95 81.75 49.85 82.55 49.9 84.05 49.9 85.3 50.75 86.4 50.9 86.75 51.15 87 52.05 88 53.1 88.45 53.45 88.65 53.8 88.7 55.05 89.05 55.95 88.55 56.15 88.5 56.3 88.35 57.25 87.7 57.25 86.3 57.25 86.25 57.25 86.15 57.25 85.2 56.75 84.3 56.45 83.75 56 83.2 55.15 82.25 54.1 81.75 53.8 81.6 53.45 81.5
M 51.15 82.05
Q 52.1 81.45 53.35 81.85 55 82.55 55.8 83.5 56 83.75 56.2 84 56.85 84.85 56.9 85.85 56.95 86.05 56.9 86.25 56.9 87.45 56.15 88.05 56.1 88.1 56 88.1 55.1 88.75 53.85 88.35 53.65 88.35 53.45 88.3 52.3 87.85 51.4 86.75 51.15 86.4 50.85 86.1 50.25 85.15 50.2 84.1
L 50.2 84
Q 50.2 82.7 51.15 82.05
M 96.05 86.15
L 96.05 86.2
Q 96.05 87.7 97.1 88.4 98.1 89.1 99.5 88.7 99.95 88.6 100.35 88.35 101.45 87.9 102.25 86.9 102.35 86.8 102.4 86.75 103.3 85.55 103.4 84.3 103.4 84.15 103.4 83.95 103.4 82.9 102.85 82.25 102.6 81.9 102.25 81.7 101.3 81.05 99.8 81.5 99.7 81.55 99.65 81.6 98.25 82.05 97.25 83.25 97.05 83.5 96.9 83.7 96.05 84.85 96.05 86.15
M 96.35 86.15
Q 96.4 84.95 97.2 83.85 98.45 82.35 99.7 81.9 101.25 81.4 102.15 82 102.45 82.25 102.6 82.55 103.1 83.15 103.1 84 103.1 85.25 102.25 86.35 102.15 86.55 101.95 86.75 101.25 87.55 100.35 88.05 99.9 88.3 99.4 88.4 98.15 88.75 97.25 88.1 96.45 87.55 96.35 86.4
L 96.35 86.15 Z"/>

<path fill="#27528D" fill-opacity="0.30196078431372547" stroke="none" d="
M 55.35 83.85
Q 54.65 82.8 53.5 82.45 52.4 82.15 51.65 82.65 50.85 83.2 50.9 84.25 50.95 85.4 51.75 86.4 52.55 87.4 53.65 87.7 54.7 88.05 55.5 87.5 56.3 87 56.3 85.9 56.3 84.8 55.35 83.85
M 99.8 82.45
Q 98.7 82.8 97.95 83.85 97.05 84.8 97.05 85.9 97.05 87 97.8 87.5 98.6 88.05 99.7 87.7 100.75 87.4 101.6 86.4 102.35 85.4 102.4 84.25 102.45 83.2 101.65 82.65 100.95 82.15 99.8 82.45 Z"/>
</g>

<g id="Layer0_0_FILL">
<path fill="#27528D" fill-opacity="0" stroke="none" d="
M 150.1 0
L 0 0 0 155.5 150.1 155.5 150.1 0 Z"/>
</g>
</defs>

<g transform="matrix( 1, 0, 0, 1, 0,0) ">
<use xlink:href="#Layer1_0_FILL"/>
</g>

<g transform="matrix( 1, 0, 0, 1, 0,0) ">
<use xlink:href="#Layer0_0_FILL"/>
</g>
</svg>
