
<svg xmlns="http://www.w3.org/2000/svg" version="1.1" xmlns:xlink="http://www.w3.org/1999/xlink" preserveAspectRatio="none" x="0px" y="0px" width="150px" height="155px" viewBox="0 0 150 155">
<defs>
<g id="Layer1_0_FILL">
<path fill="#27528D" stroke="none" d="
M 29.85 72.05
Q 40.5 114.6 66.1 104.2 41.5 105.4 29.85 72.05
M 60.45 54.4
Q 61.8 53.45 63.95 52.1
L 48.25 32.75 60.45 54.4
M 63.1 81.55
Q 64.45 83.5 65.6 85.4 70.2 93.5 69.55 101.05 69.6 101.25 69.6 101.5 73 91.35 68.5 82.55 67.35 80.3 65.9 78.25 61.75 72.6 54.1 67.45 44.9 61.55 36.45 50.8 42.65 62.05 51.45 69.25 58.85 75.45 63.1 81.55
M 26.4 96.15
Q 25.65 93.6 25 90.6 24.95 90.6 24.85 90.6 23.55 101.15 27 107.8 27.35 108.6 27.8 109.35 31.6 115.65 37.3 122.55 39 124.7 40.25 126.8 42.35 130.4 42.15 133.2 42.1 135.7 38.8 133.65 33.4 130.55 29.35 123.6 28.15 125.25 28.3 125.85 32.75 148.1 66.7 145.4 66.65 145.25 66.7 144.95 67.05 144.05 66.45 143.6 66.2 143.4 65.95 143.3 65.75 143 65.45 142.9 63.95 142.3 61.65 142.05 61.2 142 60.75 141.95 60.5 141.85 60.3 141.8 58.6 141.55 56.2 140.45 53.35 138.65 50.15 132.7 49.3 131.1 48.4 129.5 44.4 122.2 40.45 118.65 39.3 117.65 38.35 116.7 34.8 113.1 31.9 109.25 31.65 108.95 31.45 108.55 28.65 104.45 26.4 96.15
M 70.95 48.8
L 61.05 28.55 65.45 51.05
Q 68.3 49.45 70.95 48.8
M 76.05 107.75
Q 55 108.85 59.75 121 64.65 116 68.2 121.85 71.7 127.65 76.55 126.2 83.6 124.2 84.75 120.95 85.85 117.6 93.35 121.4 97.1 108.85 76.05 107.75
M 127.35 93.45
Q 126.6 96.4 125.7 98.95 123.95 104.4 121.85 107.5 120.7 109.1 119.55 110.55 116.8 113.75 113.5 116.9 112.8 117.6 112.1 118.45 108.35 122.7 104.15 131.25 103.85 131.75 103.6 132.3 98.95 141 94.1 141.6 93.6 141.65 93.15 141.7 90.95 141.8 89.7 142 89.45 142.05 89.2 142.1 86.15 142.7 84.8 144.15 84.65 144.3 84.55 144.5 84.5 144.6 84.4 144.7 84.25 145 84 145.25 122.3 148.2 125.15 122.4 125.1 122.1 124.75 121.6 119.45 133.15 111.3 135 110.75 135.15 110.3 135.15 107.55 132.35 114.15 124.3 114.3 124.15 114.4 124.05 119.95 117.35 124.05 111.15 126.05 108.1 127 104.95 128.8 99.75 128.25 92.6 127.95 93.15 127.45 93.4 127.4 93.45 127.35 93.45
M 122.85 72.05
Q 111.15 105.4 86.55 104.2 112.15 114.6 122.85 72.05
M 115.75 50.8
L 115.7 50.85
Q 107.1 61.7 97.9 67.65 90.85 72.35 86.95 77.45 85 80.15 83.6 83.05 79.25 91.9 82.7 101.95 81.7 93.8 86.75 85.1 87.65 83.55 88.75 81.95 93.15 75.55 100.9 69.05 109.65 61.95 115.75 50.8
M 88.75 52.35
Q 90.9 53.65 92.05 54.95
L 104.2 32.75 88.75 52.35
M 87.95 64.85
Q 99.15 54.4 107.1 49.75 115.1 45.05 122.15 34.35 110.95 44.1 105.6 47.35 100.3 50.65 90.7 57.95 81.05 65.2 76.05 73.95 71.05 65.2 61.4 57.95 51.8 50.65 46.5 47.35 41.15 44.1 29.95 36.05 37 45.05 45 49.75 52.95 54.4 64.15 64.85 75.3 75.25 76.05 96.8 76.8 75.25 87.95 64.85
M 91.3 28.05
L 81.3 48.8
Q 83.75 49.4 86.7 50.95 88.95 39.5 91.3 28.05
M 87.85 56.1
Q 87.8 56.1 87.8 56.05 83.1 51.5 78.15 50.8 77.25 50.7 76.3 50.7 76.25 50.7 76.2 50.7 75.3 50.7 74.45 50.8 74.3 50.8 74.15 50.85 73.3 50.95 72.45 51.2 68.5 52.4 64.7 56.1 70.9 60.35 74.65 64.55 75.55 65.5 76.3 66.5 77.45 65 78.85 63.55 82.45 59.8 87.85 56.1
M 77.25 53.7
Q 78.35 53.7 78.7 53.7 79.05 54.15 78.95 54.25 77.9 55.55 76.85 56.85 77.5 57.5 78.15 58.25 78.55 58.85 79.05 59.4 79.1 59.75 79.05 59.8 78.9 59.95 78.8 59.95 77.25 59.95 75.65 60 74.8 60.05 73.9 60.05 73.75 60.05 73.65 59.95 73.6 59.85 73.6 59.75 73.6 59.65 73.65 59.55 73.8 59.4 73.9 59.25 74.9 58.1 75.8 56.9 74.75 55.75 73.65 54.6
L 73.4 54.1
Q 73.4 53.95 73.5 53.9 75.5 53.75 77.25 53.7
M 75.4 58.15
Q 74.9 58.7 74.35 59.3
L 74.4 59.3
Q 75.45 59.4 76.5 59.45 77 59.4 78.1 59.4 77.7 58.8 77.3 58.25 76.85 57.75 76.35 57.2 76.1 57.5 75.4 58.15
M 75.9 54.3
Q 75.15 54.35 74.35 54.4 75.15 55.25 75.9 56.05 76.1 56.25 76.65 56.15 77.3 55.45 78.15 54.4 77.3 54.35 75.9 54.3
M 76.25 27.1
Q 76.2 27.1 76.15 27.1
L 73.15 48.35 73.8 48.25
Q 74.95 48.15 76.15 48.15 77.3 48.15 78.45 48.25 78.8 48.3 79.1 48.4 78.75 45.1 78.35 41.75
L 76.4 27.1
Q 76.35 27.1 76.25 27.1 Z"/>

<path fill="#6E90B8" fill-opacity="0.6980392156862745" stroke="none" d="
M 52.1 77
Q 51.5 76.65 50.85 76.45
L 50.8 76.45
Q 47.9 75.45 45.9 76.85 43.95 78.4 44 81.45 44.05 83.9 45.55 86.25 45.95 86.75 46.3 87.3 48 89.5 50.15 90.55 50.8 90.85 51.45 91.05 53.85 91.85 55.75 90.9 56.05 90.7 56.3 90.5 58.2 89.1 58.2 86.35 58.2 86.15 58.2 86 58.1 84.15 57.25 82.5 56.7 81.3 55.8 80.1 54.15 78.05 52.1 77
M 57.45 85.3
Q 57.5 85.7 57.55 86.05 57.6 88.55 56.1 89.8 56 89.9 55.95 90 54.1 91.25 51.55 90.45 51.25 90.35 50.95 90.25 48.65 89.25 46.85 86.9 46.3 86.25 45.9 85.5 44.75 83.65 44.65 81.6
L 44.65 81.45
Q 44.55 78.7 46.3 77.4 48.25 76.2 50.65 77 53.8 78.6 55.3 80.55 55.8 81.1 56.15 81.65 57.2 83.45 57.45 85.3
M 94.45 86
L 94.45 86.05
Q 94.35 89.05 96.3 90.5 98.35 91.95 101.25 91.05 102.1 90.8 102.9 90.3 104.8 89.25 106.35 87.25 106.45 87.05 106.6 86.9 108.35 84.6 108.6 82.05 108.65 81.75 108.65 81.45 108.65 79.4 107.7 78.05 107.35 77.4 106.7 76.85 104.7 75.45 101.75 76.45 101.6 76.45 101.4 76.5 98.8 77.55 96.8 80.15 96.45 80.6 96.15 81.05 94.55 83.5 94.45 86
M 95.1 86.05
Q 95.2 83.55 96.75 81.3 99.15 78.1 101.65 77.1 104.55 76.15 106.3 77.35 106.95 77.9 107.4 78.65 108.05 79.7 108 81.35 107.9 83.9 106.35 86.15 106.1 86.5 105.8 86.9 104.5 88.65 102.9 89.6 102 90.15 101 90.45 98.5 91.25 96.7 90 95.15 88.8 95.1 86.5
L 95.1 86.05 Z"/>

<path fill="#27528D" fill-opacity="0.6980392156862745" stroke="none" d="
M 54.5 81.15
Q 52.95 79.1 50.85 78.4 48.7 77.7 47.3 78.7 45.85 79.8 45.95 81.95 46 84.15 47.6 86.35 49.2 88.35 51.35 89.05 53.4 89.75 54.9 88.65 56.3 87.7 56.3 85.45 56.1 83.2 54.5 81.15
M 98.1 81.15
Q 96.5 83.2 96.35 85.45 96.3 87.7 97.75 88.65 99.2 89.75 101.3 89.05 103.4 88.35 105.05 86.35 106.6 84.15 106.7 81.95 106.75 79.8 105.3 78.7 103.9 77.7 101.75 78.4 99.7 79.1 98.1 81.15 Z"/>
</g>

<g id="Layer0_0_FILL">
<path fill="#27528D" fill-opacity="0" stroke="none" d="
M 150.1 0
L 0 0 0 155.5 150.1 155.5 150.1 0 Z"/>
</g>
</defs>

<g transform="matrix( 1, 0, 0, 1, 0,0) ">
<use xlink:href="#Layer1_0_FILL"/>
</g>

<g transform="matrix( 1, 0, 0, 1, 0,0) ">
<use xlink:href="#Layer0_0_FILL"/>
</g>
</svg>
