
<svg xmlns="http://www.w3.org/2000/svg" version="1.1" xmlns:xlink="http://www.w3.org/1999/xlink" preserveAspectRatio="none" x="0px" y="0px" width="150px" height="155px" viewBox="0 0 150 155">
<defs>
<g id="Layer1_0_FILL">
<path fill="#27528D" fill-opacity="0.5019607843137255" stroke="none" d="
M 66.1 104.2
Q 60.9 104.65 58.5 106.2 62.05 107 66.1 104.2
M 63.05 142
Q 66.9 147.75 68.95 145.25 68.65 145.15 68.65 145.3
L 68.6 144.85
Q 68.55 144.1 64.95 142.7 63.8 142.3 63.05 142
M 70.45 88.65
Q 67.55 94.2 70.85 94.25 71.4 94.25 71.7 94.45 72.05 91.45 70.45 88.65
M 73.45 65.7
L 72.25 65.7 73.25 66.15
Q 73.4 65.9 73.45 65.7
M 74.85 65.45
Q 74.45 65.2 73.9 64.8
L 73.9 66.05
Q 74.55 65.55 74.85 65.45
M 76.35 109.75
Q 71.7 109.9 71.2 112.15 72.65 110.85 74.1 110.5 75.55 110.1 76.2 110.1 76.9 110.1 78.25 110.5 79.6 110.85 81.65 112.15 80.35 109.9 76.35 109.75
M 84.3 145.25
Q 86.25 147.75 90.15 142 89.4 142.3 88.25 142.7 84.7 144.1 84.6 144.85
L 84.55 145.3
Q 84.55 145.15 84.3 145.25
M 92.3 105.35
Q 89.8 104.75 85.2 105.35 88.95 107.1 92.3 105.35
M 81 94.1
Q 84.25 94 81.35 88.5 79.8 91.25 80.1 94.25 80.45 94.1 81 94.1
M 80.8 65.15
Q 80.45 65.6 80.15 66.05 80.4 66.35 80.7 66.75
L 80.8 65.15
M 77.25 75.35
Q 76.75 75.4 76.2 75.5 75.4 74.45 73.65 73.6 76 74.95 75.8 79.5 76.2 76.95 77.25 75.35
M 77.95 74.45
Q 77.55 74.85 77.25 75.35 78.15 75.3 78.85 75.7 78.4 74.35 77.95 74.45
M 79 64.05
Q 78.2 64.85 77.9 65.4 77.95 65.75 78.85 66.3 78.8 65.15 79 64.05 Z"/>

<path fill="#27528D" fill-opacity="0" stroke="none" d="
M 55.6 85.35
Q 55.1 85.3 54.7 85.45 54.35 85.65 54.35 85.95 54.3 86.3 54.6 86.6 54.9 86.85 55.35 86.9 55.85 87 56.2 86.8 56.6 86.65 56.6 86.3 56.65 85.95 56.35 85.7 56.05 85.45 55.6 85.35
M 54.4 85.95
Q 54.45 85.7 54.75 85.55 56.55 86 56.55 86.3 56.45 86.55 56.15 86.75 55.8 86.9 55.35 86.8 54.95 86.75 54.65 86.5 54.35 86.3 54.4 85.95
M 54.65 85.95
Q 54.65 86.25 54.8 86.45 55.05 86.65 55.4 86.7 55.7 86.75 56.3 86.25 56.35 86 54.95 85.65 54.65 85.8 54.65 85.95
M 97.45 85.7
Q 97.15 85.95 97.2 86.3 97.25 86.65 97.65 86.8 98 87 98.45 86.9 98.95 86.85 99.25 86.6 99.55 86.3 99.5 85.95 99.45 85.65 99.1 85.45 98.7 85.3 98.25 85.35 97.75 85.45 97.45 85.7
M 97.3 86.3
Q 97.3 86 97.55 85.8 99.35 85.7 99.4 85.95 99.45 86.3 99.2 86.5 98.9 86.75 98.45 86.8 98.05 86.9 97.7 86.75 97.4 86.55 97.3 86.3
M 97.5 86.25
Q 97.55 86.5 97.85 86.6 98.1 86.75 98.4 86.7 98.75 86.65 99.2 85.95 99.15 85.8 97.75 85.8 97.45 86 97.5 86.25 Z"/>
</g>

<g id="Layer0_0_FILL">
<path fill="#27528D" fill-opacity="0" stroke="none" d="
M 150.1 0
L 0 0 0 155.5 150.1 155.5 150.1 0 Z"/>
</g>
</defs>

<g transform="matrix( 1, 0, 0, 1, 0,0) ">
<use xlink:href="#Layer1_0_FILL"/>
</g>

<g transform="matrix( 1, 0, 0, 1, 0,0) ">
<use xlink:href="#Layer0_0_FILL"/>
</g>
</svg>
