
<svg xmlns="http://www.w3.org/2000/svg" version="1.1" xmlns:xlink="http://www.w3.org/1999/xlink" preserveAspectRatio="none" x="0px" y="0px" width="150px" height="155px" viewBox="0 0 150 155">
<defs>
<g id="Layer1_0_FILL">
<path fill="#27528D" stroke="none" d="
M 48.2 101.8
Q 55.15 108.65 66.1 104.2 53.85 104.8 48.2 101.8
M 58.85 142.9
Q 57.55 141.7 56.9 139.85 57.1 142.1 58.85 142.9
M 51.95 128.55
L 51.95 128.6
Q 52.05 131.95 53.25 134.1 54.65 136.55 57.8 140.05 60.65 143.35 59.65 143.15 59.2 143.05 58.85 142.9 59.85 143.8 61.25 144.3
L 61.3 144.3
Q 61.65 144.45 62.2 144.75 62.4 144.8 62.7 144.9 63.05 144.9 63.3 144.85 63.55 144.9 63.8 144.85 65.8 144.95 67.75 144.05 67.7 144 67.65 143.95 67.55 143.8 67.5 143.75 66.95 143.35 66 143.05
L 65.9 143
Q 65.55 142.9 64.65 142.75 63.7 142.6 63.35 141.75 62.7 140.85 59.95 138.55 57.3 136.25 56.6 135.6 55.95 134.95 55.05 133.85 54.05 132.7 53.3 131.05 52.5 129.4 52.05 128.55 52 128.55 51.95 128.55
M 63.65 78.55
Q 68 85 69.05 88.75 70.1 92.95 70.75 95.5 70.8 95.8 70.85 96.1 71.05 95.85 71.15 95.65 71.15 93.05 70.15 89.85 68.95 84.8 63.65 78.55
M 69.75 64.4
Q 70.1 64.25 70.8 63.7
L 66.05 59.1 69.75 64.4
M 73.6 61.65
L 70.45 56.65 71.4 62.75
Q 72.8 61.8 73.6 61.65
M 76.2 108.9
Q 63.05 109.35 65.45 112.65 66.65 110.5 70.45 109.9 74.25 109.25 75.95 109.3 77.7 109.35 81.35 109.65 85 109.95 88.2 112.8 88.55 109 76.2 108.9
M 97.3 142.1
Q 98.6 141.4 98.7 139.55 98.15 141.05 97.3 142.1
M 100 130.25
Q 99.95 130.25 99.95 130.2 99.5 131.05 99.05 131.75 97.9 133.85 96.8 135.1 95.8 136.35 94.7 137.7 93.25 139.1 91 141.3 88.35 143.55 87.35 143.95 86.9 144 86.65 144.05 86.35 144.2 86.2 144.3
L 86.15 144.35
Q 85.85 144.5 85.6 144.6 85.2 144.65 84.8 144.95 84.65 144.95 84.6 145.1 84.55 145.15 84.5 145.25
L 84.45 145.25
Q 93.55 146.9 97.3 142.1 96.8 142.4 96.1 142.55 95.1 142.7 98 139.45 99.25 138 100.3 136.8 101 135.3 100.95 134.35 101.15 132.8 100 130.25
M 104.2 101.85
Q 98.55 104.9 86.3 104.3 97.25 108.75 104.2 101.85
M 88.5 79.05
Q 87.8 79.15 87.15 79.2 82.4 84 81.3 87.8 79.85 91.8 80.85 96.15
L 80.85 96.1
Q 81.05 95.45 81.4 94.95 82.5 93.5 83.5 90.3 84.85 86.2 88.5 79.05
M 86.9 59.1
L 82.85 64.45
Q 83.55 64.9 83.75 65.35
L 86.9 59.1
M 87.35 64.55
Q 85.9 65.55 84.2 66.85 80.15 69.85 77.55 73.5 76.15 72.15 74.2 71 72.75 69.55 71 68.2 67.15 65.35 64.5 63.85 62.25 62.6 60.1 62.35 60.8 62.9 63.9 64.75 67.45 67.05 71.6 71.8 75.8 76.6 75.9 85.8 75.95 84.8 76.1 83.9 77.05 77.25 80.45 73.25 84.65 68.6 87.95 66.15 90.95 64.05 91.65 62.3 91.35 62.4 91.15 62.55 90.2 63 89.1 63.55 88.45 63.85 87.35 64.55
M 78.95 61.6
Q 79.2 61.65 80.9 62.4 81.45 58.75 82.35 55.25
L 78.95 61.6
M 76.3 62.8
Q 76.25 62.8 76.25 62.85 76.05 62.85 75.85 62.9 74.75 63.2 73.8 64.15
L 73.85 64.15
Q 75.45 65.3 76.35 66.4 76.55 66.55 76.8 66.75 77.05 66.35 77.4 66 78.3 65.1 79.65 64.15 78.45 63 77.25 62.8 77 62.8 76.8 62.8
L 76.75 62.8
Q 76.55 62.8 76.3 62.8
M 76.45 64.4
Q 76.4 64.45 76.35 64.5 76.05 64.2 75.7 63.85
L 75.65 63.7 75.65 63.65
Q 76.25 63.5 76.85 63.45 77.2 63.45 77.3 63.45
L 77.45 63.55
Q 77.45 63.6 77.4 63.7 77.1 63.6 76.55 63.6 76.2 63.6 75.9 63.8 76.2 64.15 76.5 64.4
L 76.45 64.4
M 77.05 64.3
Q 77.1 64.25 77.15 64.25 77.25 64.05 77.35 63.9 77.3 64.1 77.25 64.3 77.4 64.45 77.55 64.6 77.55 64.8 77.65 64.9
L 77.65 65 77.6 65.05
Q 77.25 65.15 76.95 65.2 77.1 65.15 77.3 65.05 77.3 64.85 77.4 64.6 77.2 64.45 77.05 64.3
M 76.75 65.25
L 76.7 65.25
Q 76.5 65.3 76.25 65.35 76.2 65.35 76.2 65.3
L 76.2 65.2
Q 76.2 65.15 76.25 65.05
L 76.4 65.1
Q 76.55 65.2 76.75 65.25
M 75.7 61.15
Q 76 61.1 76.3 61.1 76.6 61.15 76.95 61.2 77 61.25 77.1 61.25 77.2 60.6 77.25 59.95
L 76.7 56.05 76.65 56.05 75.55 61.15 75.7 61.15 Z"/>

<path fill="#365F96" fill-opacity="0.14901960784313725" stroke="none" d="
M 54.45 83.45
L 54.4 83.45
Q 53.5 83.2 52.8 83.6 52.1 84.1 52.1 85 52.1 85.8 52.65 86.5 52.8 86.7 52.95 86.85 53.5 87.4 54.25 87.7 54.5 87.75 54.7 87.8 55.5 88 56.1 87.7 56.2 87.65 56.3 87.55 56.9 87.1 56.95 86.3
L 56.95 86.25
Q 56.95 85.55 56.55 85 56.35 84.7 56.05 84.35 55.5 83.85 54.85 83.55 54.65 83.5 54.45 83.45
M 52.35 85.05
L 52.35 85
Q 52.35 84.2 52.95 83.85 53.55 83.45 54.35 83.6 55.45 84.05 55.95 84.6 56.15 84.75 56.25 84.9 56.65 85.45 56.7 86.1 56.75 86.2 56.7 86.3 56.65 87.05 56.15 87.4 56.1 87.4 56.05 87.4 55.45 87.8 54.65 87.6 54.55 87.6 54.4 87.55 53.7 87.3 53.1 86.7 52.9 86.5 52.75 86.3 52.3 85.75 52.35 85.05
M 99.05 83.45
Q 99 83.45 98.95 83.45 98.05 83.75 97.45 84.45 97.3 84.55 97.15 84.7 96.6 85.45 96.6 86.25
L 96.6 86.3
Q 96.65 87.2 97.35 87.6 98 88.05 98.9 87.8 99.15 87.75 99.4 87.65 100.15 87.4 100.75 86.75 100.8 86.7 100.8 86.65 101.4 85.95 101.45 85.15 101.45 85 101.45 84.9 101.4 84.25 100.95 83.85 100.85 83.65 100.65 83.55 100 83.2 99.05 83.45
M 96.8 86.25
Q 96.85 85.45 97.4 84.8 98.15 83.9 99.05 83.65 99.95 83.4 100.55 83.75 100.7 83.85 100.85 84.1 101.25 84.4 101.25 84.95 101.3 85.8 100.7 86.4 100.65 86.55 100.55 86.65 100 87.15 99.4 87.4 99.1 87.55 98.8 87.65 98.05 87.8 97.45 87.4 96.9 87.05 96.8 86.35
L 96.8 86.25 Z"/>

<path fill="#27528D" fill-opacity="0.14901960784313725" stroke="none" d="
M 54.55 84
Q 53.8 83.85 53.3 84.15 52.75 84.5 52.75 85.1 52.75 85.8 53.25 86.4 53.8 87.05 54.55 87.2 55.25 87.4 55.75 87.05 56.3 86.75 56.3 86.1 56.3 85.4 55.7 84.8 55.25 84.2 54.55 84
M 97.85 84.8
Q 97.25 85.4 97.25 86.1 97.3 86.75 97.8 87.05 98.35 87.4 99.05 87.2 99.75 87.05 100.3 86.4 100.8 85.8 100.8 85.1 100.8 84.5 100.3 84.15 99.75 83.85 99.05 84 98.35 84.2 97.85 84.8 Z"/>
</g>

<g id="Layer0_0_FILL">
<path fill="#27528D" fill-opacity="0" stroke="none" d="
M 150.1 0
L 0 0 0 155.5 150.1 155.5 150.1 0 Z"/>
</g>
</defs>

<g transform="matrix( 1, 0, 0, 1, 0,0) ">
<use xlink:href="#Layer1_0_FILL"/>
</g>

<g transform="matrix( 1, 0, 0, 1, 0,0) ">
<use xlink:href="#Layer0_0_FILL"/>
</g>
</svg>
