
<svg xmlns="http://www.w3.org/2000/svg" version="1.1" xmlns:xlink="http://www.w3.org/1999/xlink" preserveAspectRatio="none" x="0px" y="0px" width="150px" height="155px" viewBox="0 0 150 155">
<defs>
<g id="Layer1_0_FILL">
<path fill="#27528D" stroke="none" d="
M 26.6 63.7
Q 38 115.6 66.1 104.2 39.4 105.5 26.6 63.7
M 58.45 52.9
Q 60.25 51.45 62.65 50.05
L 45 27.9 58.45 52.9
M 61.5 79.35
Q 63.15 81.55 64.55 83.7 70.1 92.6 69.45 101.45 69.45 101.9 69.4 102.4 73.35 90.8 67.85 80.8 66.45 78.3 64.65 75.95 59.55 69.35 50.8 63.9 39.8 57.35 31.05 44.35 37 57.75 47.6 65.8 56.2 72.45 61.5 79.35
M 21.85 90.8
Q 21.1 88 20.45 84.75 20.4 84.7 20.35 84.6 19.1 96.15 22.95 103.5 23.4 104.4 23.85 105.2 28.4 112.4 34.4 119.75 36.45 122.15 37.65 124.5 39.7 128.45 39 131.7 37.7 133.4 34.25 130.9 29.05 127.35 24.75 119.15 23.95 122.5 24.55 124.75 30 148.6 67.45 145.35 67.3 145.1 67.2 144.75 67.05 143.5 65.55 142.9 65.25 142.75 64.95 142.65 64.65 142.45 64.35 142.35 62.6 141.8 60.15 141.65 59.6 141.65 59.15 141.55 58.85 141.5 58.6 141.45 56.55 141.1 54.15 139.7 50.95 137.3 48.1 130.7 47.3 128.75 46.45 126.95 42.55 118.6 37.9 114.95 36.65 113.95 35.55 112.95 31.3 109.25 27.95 105.05 27.65 104.75 27.4 104.4 24.2 100 21.85 90.8
M 64.35 48.9
Q 67.55 47.2 70.45 46.5
L 59.3 23.45 64.35 48.9
M 131.4 88.65
Q 130.6 91.9 129.7 94.65 127.7 100.7 125.25 103.9 123.95 105.6 122.55 107.1 119.3 110.6 115.45 113.75 114.55 114.5 113.7 115.35 109.35 119.95 105.45 129.7 105.15 130.3 104.95 130.85 100.65 140.6 94.85 141.35 94.3 141.4 93.8 141.4 91.45 141.5 90 141.7 89.7 141.75 89.4 141.8 85.95 142.45 84.55 144.1 84.45 144.3 84.3 144.45 84.25 144.6 84.2 144.65 84 144.95 83.7 145.25 125.65 148.25 128.9 119.85 128.95 118.9 128.7 117.85 122.5 131.35 114.45 132.9 113.9 133 113.35 133 110.55 128.9 117.25 120.85 117.35 120.75 117.45 120.65 123.35 113.45 128.05 106.35 130.15 103.15 131.2 99.55 133.05 93.75 132.45 86 132.05 87.4 131.5 88.55 131.45 88.65 131.4 88.65
M 125.9 63.7
Q 113.1 105.5 86.4 104.2 114.45 115.6 125.9 63.7
M 121.15 44.35
L 121.1 44.4
Q 112.25 57.45 101.25 64.05 93.25 69.05 88.4 74.9 86 77.85 84.25 81.15 78.8 91.15 82.9 102.7 81.65 93.15 87.7 83.5 88.8 81.7 90.15 80 95.6 72.65 104.65 65.65 115.25 57.65 121.15 44.35
M 89.8 50.2
Q 92.2 51.6 93.95 53.3
L 107.3 27.9 89.8 50.2
M 87.95 64.85
Q 99.15 54.4 107.1 49.75 115.1 45.05 124.65 31.7 110.95 44.1 105.6 47.35 100.3 50.65 90.7 57.95 81.05 65.2 76.05 73.95 71.05 65.2 61.4 57.95 51.8 50.65 46.5 47.35 41.15 44.1 27.4 32.8 37 45.05 45 49.75 52.95 54.4 64.15 64.85 75.3 75.25 76.05 96.8 76.8 75.25 87.95 64.85
M 92.95 23.1
L 81.7 46.5
Q 84.55 47.15 87.8 48.8 90.35 35.95 92.95 23.1
M 89.4 54.65
Q 89.35 54.6 89.3 54.6 83.95 49.4 78.35 48.6 77.3 48.5 76.2 48.5 76.15 48.5 76.1 48.5 75.05 48.5 74.1 48.6 73.95 48.65 73.8 48.7 72.8 48.8 71.8 49.1 67.35 50.45 63.05 54.65 70.1 59.45 74.3 64.25 75.35 65.35 76.2 66.45 77.5 64.75 79.15 63.05 83.2 58.85 89.4 54.65
M 77.35 52
Q 78.55 52 78.95 52 79.35 52.4 79.25 52.55 78 53.95 76.8 55.5 77.5 56.25 78.2 57.1 78.8 57.8 79.3 58.45 79.4 58.75 79.25 58.9 79.15 59 79.05 59 77.25 59.05 75.5 59.05 74.45 59.05 73.45 59.1 73.3 59.1 73.2 58.95 73.1 58.85 73.1 58.75 73.1 58.6 73.2 58.5 73.3 58.35 73.45 58.15 74.6 56.85 75.7 55.55 74.5 54.2 73.3 52.9
L 73 52.35
Q 73 52.25 73.05 52.1 75.35 52 77.35 52
M 75.25 57
Q 74.65 57.6 74.1 58.3 75.25 58.35 76.4 58.4 77 58.4 78.2 58.35 77.8 57.75 77.3 57.1 76.8 56.5 76.25 55.95 75.95 56.25 75.25 57
M 76.55 54.65
Q 77.3 53.85 78.25 52.65 77.35 52.65 75.8 52.65 74.95 52.65 74.1 52.7 74.9 53.65 75.7 54.5 75.95 54.8 76.55 54.65
M 76.2 21.8
Q 76.15 21.8 76.05 21.8
L 72.7 46.05 73.45 45.9
Q 74.8 45.75 76.1 45.75 77.45 45.75 78.8 45.9 79.15 45.95 79.5 46.05 79.05 42.25 78.55 38.5
L 76.35 21.8
Q 76.25 21.8 76.2 21.8
M 67.25 126.6
Q 69.9 133.35 76.05 132 85.85 129.75 85.45 125.1 85 120.45 93.35 123.05 97.1 108.85 76.05 107.75 55 108.85 58.75 122.4 64.6 119.85 67.25 126.6 Z"/>

<path fill="#7899BE" fill-opacity="0.8" stroke="none" d="
M 58.4 85.95
Q 58.3 83.95 57.35 82 56.75 80.65 55.75 79.35 53.9 77 51.65 75.8 50.95 75.4 50.2 75.15
L 50.15 75.15
Q 46.85 74 44.65 75.65 42.45 77.4 42.5 80.85 42.6 83.6 44.3 86.15 44.7 86.75 45.15 87.4 47 89.9 49.4 91.05 50.1 91.4 50.8 91.65 53.6 92.55 55.65 91.45 56 91.25 56.35 91 58.4 89.45 58.4 86.35 58.4 86.15 58.4 85.95
M 56.1 81.05
Q 57.3 83.05 57.55 85.15 57.65 85.55 57.65 86 57.8 88.85 56.1 90.3 56 90.35 55.9 90.45 53.85 91.9 51 90.95 50.65 90.9 50.3 90.7 47.7 89.65 45.7 86.95 45.1 86.15 44.65 85.4 43.4 83.25 43.25 81
L 43.25 80.8
Q 43.1 77.75 45.05 76.2 47.25 74.85 49.95 75.8 53.5 77.65 55.2 79.8 55.7 80.45 56.1 81.05
M 96.65 79.35
Q 96.25 79.85 95.95 80.4 94.2 83.1 94.05 85.95 93.9 89.35 96.15 91.05 98.4 92.7 101.6 91.65 102.6 91.35 103.55 90.8 105.65 89.6 107.35 87.4 107.5 87.15 107.65 86.95 109.6 84.35 109.9 81.55 109.95 81.15 109.95 80.8 109.95 78.5 109 77 108.5 76.2 107.75 75.6 105.55 74 102.25 75.15 102.05 75.2 101.9 75.25 98.95 76.45 96.65 79.35
M 94.8 86.55
L 94.8 86
Q 94.9 83.2 96.6 80.65 99.35 77.1 102.15 75.95 105.45 74.8 107.4 76.2 108.1 76.8 108.55 77.65 109.3 78.85 109.2 80.7 109.1 83.55 107.4 86.1 107.1 86.5 106.75 86.95 105.3 88.9 103.55 90 102.55 90.6 101.4 90.95 98.55 91.9 96.55 90.45 94.85 89.15 94.8 86.55 Z"/>

<path fill="#27528D" fill-opacity="0.8" stroke="none" d="
M 56.25 85.3
Q 56.1 82.85 54.25 80.5 52.5 78.15 50.15 77.35 47.75 76.55 46.2 77.75 44.55 78.95 44.7 81.4 44.8 83.9 46.6 86.3 48.4 88.65 50.75 89.35 53.05 90.2 54.7 89 56.3 87.8 56.25 85.3
M 98.2 80.5
Q 96.35 82.85 96.2 85.3 96.15 87.8 97.75 89 99.35 90.2 101.7 89.35 104.05 88.65 105.85 86.3 107.65 83.9 107.75 81.4 107.9 78.95 106.25 77.75 104.7 76.55 102.25 77.35 99.95 78.15 98.2 80.5 Z"/>
</g>

<g id="Layer0_0_FILL">
<path fill="#27528D" fill-opacity="0" stroke="none" d="
M 150.1 0
L 0 0 0 155.5 150.1 155.5 150.1 0 Z"/>
</g>
</defs>

<g transform="matrix( 1, 0, 0, 1, 0,0) ">
<use xlink:href="#Layer1_0_FILL"/>
</g>

<g transform="matrix( 1, 0, 0, 1, 0,0) ">
<use xlink:href="#Layer0_0_FILL"/>
</g>
</svg>
