
<svg xmlns="http://www.w3.org/2000/svg" version="1.1" xmlns:xlink="http://www.w3.org/1999/xlink" preserveAspectRatio="none" x="0px" y="0px" width="150px" height="155px" viewBox="0 0 150 155">
<defs>
<g id="Layer1_0_FILL">
<path fill="#27528D" stroke="none" d="
M 25 59.5
Q 36.75 116.1 66.1 104.2 38.35 105.55 25 59.5
M 60.75 78.3
Q 62.5 80.55 64 82.85 70.1 92.2 69.35 101.6 69.35 102.2 69.25 102.8 73.6 90.55 67.5 79.95 65.95 77.25 64.05 74.8 58.5 67.75 49.2 62.15 37.25 55.25 28.3 41.1 34.1 55.55 45.7 64.05 54.9 71 60.75 78.3
M 18.2 81.8
Q 18.15 81.7 18.1 81.6 16.9 93.7 20.9 101.4 21.4 102.25 21.9 103.15 26.8 110.75 33 118.3 35.15 120.9 36.35 123.35 38.35 127.45 37.4 130.95 35.5 132.3 32 129.55 26.9 125.75 22.4 116.95 21.85 121.15 22.7 124.2 28.65 148.85 67.85 145.35 67.6 145 67.5 144.65 67.05 143.25 65.05 142.55 64.75 142.45 64.45 142.35 64.15 142.15 63.8 142.05 61.95 141.6 59.35 141.45 58.85 141.45 58.3 141.4 58.05 141.35 57.8 141.3 55.5 140.9 53.15 139.3 49.8 136.65 47.1 129.65 46.3 127.6 45.5 125.65 41.65 116.8 36.65 113.1 35.35 112.1 34.1 111.1 29.55 107.3 25.95 103 25.7 102.65 25.4 102.3 22 97.8 19.6 88.1 18.85 85.15 18.2 81.8
M 62.05 48.95
L 43.4 25.55 57.45 52.15
Q 59.5 50.45 62.05 48.95
M 63.8 47.85
Q 67.1 46.05 70.2 45.3
L 58.45 20.9 63.8 47.85
M 76.05 107.75
Q 55 108.85 57.75 124.35 63.7 121.55 67.05 127.65 70.35 133.75 76.05 132.6 84.5 131.05 85.55 126.55 86.5 122 94.35 124.8 97.1 108.85 76.05 107.75
M 133.45 86.3
Q 132.6 89.65 131.7 92.5 129.6 98.9 127 102.15 125.6 103.85 124.1 105.4 120.6 109 116.4 112.2 115.45 112.95 114.5 113.85 109.8 118.6 106.1 128.9 105.8 129.55 105.6 130.15 101.5 140.45 95.2 141.2 94.65 141.3 94.1 141.3 91.7 141.4 90.1 141.6 89.8 141.65 89.5 141.7 85.85 142.35 84.5 144.05 84.3 144.25 84.25 144.4 84.15 144.55 84.05 144.6 83.9 144.95 83.6 145.25 127.35 148.25 130.75 118.6 130.85 117.35 130.7 115.95 124.1 130.45 116.1 131.8 115.45 131.9 114.85 131.9 112.05 127.25 118.75 119.15 118.9 119.05 119 118.9 125.1 111.5 130.05 104 132.2 100.7 133.35 96.8 135.15 90.75 134.5 82.65 134.1 84.55 133.5 86.1 133.45 86.2 133.45 86.3
M 127.4 59.5
Q 114.05 105.55 86.3 104.2 115.65 116.1 127.4 59.5
M 88.15 82.65
Q 89.4 80.8 90.85 79 96.8 71.25 106.5 63.95 118 55.5 123.8 41.2 114.8 55.3 102.9 62.3 94.4 67.35 89.1 73.6 86.5 76.7 84.55 80.2 78.55 90.75 82.95 103.1 81.6 92.8 88.15 82.65
M 108.85 25.55
L 90.35 49.1
Q 92.9 50.6 94.9 52.45
L 108.85 25.55
M 87.95 64.85
Q 99.15 54.4 107.1 49.75 115.1 45.05 125.9 30.35 110.95 44.1 105.6 47.35 100.3 50.65 90.7 57.95 81.05 65.2 76.05 73.95 71.05 65.2 61.4 57.95 51.8 50.65 46.5 47.35 41.15 44.1 26.15 31.15 37 45.05 45 49.75 52.95 54.4 64.15 64.85 75.3 75.25 76.05 96.8 76.8 75.25 87.95 64.85
M 93.8 20.65
L 81.95 45.3
Q 84.95 46.05 88.3 47.8 91 34.2 93.8 20.65
M 90.1 53.95
Q 90.05 53.9 90.05 53.85 84.35 48.35 78.45 47.5 77.35 47.35 76.2 47.35 76.1 47.35 76.05 47.35 74.95 47.35 73.95 47.5 73.75 47.55 73.6 47.55 72.55 47.7 71.5 48.05 66.8 49.45 62.2 53.95
L 62.25 53.95
Q 69.65 59 74.2 64.05 75.25 65.2 76.2 66.4 77.55 64.65 79.3 62.85 83.6 58.4 90.1 53.95
M 77.35 51.05
Q 78.7 51.05 79.1 51.05 79.45 51.55 79.4 51.7 78.1 53.25 76.75 54.8 77.5 55.65 78.25 56.5 78.85 57.2 79.45 57.95 79.5 58.3 79.4 58.45 79.3 58.5 79.1 58.5 77.25 58.55 75.4 58.55 74.3 58.55 73.25 58.55 73.1 58.55 73 58.45 72.85 58.35 72.85 58.25 72.85 58.1 73 58 73.1 57.8 73.3 57.65 74.45 56.2 75.65 54.85 74.35 53.4 73.1 52
L 72.75 51.5
Q 72.75 51.35 72.9 51.25 75.25 51.05 77.35 51.05
M 75.15 56.4
Q 74.55 57.1 73.95 57.8 75.2 57.8 76.4 57.85 77.05 57.8 78.3 57.8 77.8 57.15 77.25 56.5 76.75 55.9 76.2 55.3 75.9 55.65 75.15 56.4
M 76.55 53.9
Q 77.3 53.05 78.35 51.85 77.35 51.8 75.75 51.8 74.9 51.8 73.95 51.85 74.8 52.8 75.65 53.75 75.9 54 76.55 53.9
M 76.2 19.2
Q 76.1 19.2 76 19.2
L 72.5 44.9 73.3 44.7
Q 74.7 44.6 76.1 44.6 77.5 44.6 78.9 44.75 79.35 44.75 79.7 44.9 79.15 40.85 78.65 36.85
L 76.3 19.2 76.2 19.2 Z"/>

<path fill="#7D9EC1" fill-opacity="0.8509803921568627" stroke="none" d="
M 58.5 86.35
Q 58.5 86.15 58.5 85.9 58.4 83.85 57.45 81.8 56.8 80.35 55.75 79 53.8 76.45 51.4 75.15 50.7 74.8 49.85 74.5 46.3 73.3 44.05 75 41.7 76.85 41.8 80.5 41.9 83.45 43.65 86.15 44.05 86.8 44.55 87.4 46.55 90.05 49.05 91.3 49.75 91.7 50.5 91.95 53.4 92.9 55.65 91.75 56 91.55 56.35 91.3 58.55 89.65 58.5 86.35
M 57.65 85.1
Q 57.7 85.5 57.75 86 57.9 89 56.1 90.5 56 90.6 55.9 90.7 53.75 92.2 50.75 91.25 50.35 91.1 50 90.95 47.25 89.8 45.1 87 44.5 86.15 44 85.3 42.75 83.1 42.5 80.65
L 42.5 80.45
Q 42.45 77.2 44.45 75.6 46.75 74.2 49.6 75.2 53.35 77.1 55.15 79.4 55.65 80.1 56.1 80.75 57.35 82.9 57.65 85.1
M 93.9 85.9
L 93.9 85.95
Q 93.75 89.55 96.05 91.3 98.45 93.05 101.85 91.95 102.9 91.6 103.85 91 106.1 89.75 107.85 87.4 108.05 87.2 108.2 87 110.25 84.2 110.55 81.25 110.6 80.9 110.6 80.5 110.6 78.05 109.6 76.45 109.1 75.65 108.35 75 106 73.3 102.5 74.5 102.3 74.55 102.1 74.65 99 75.85 96.6 79 96.15 79.5 95.85 80.05 94 82.9 93.9 85.9
M 94.6 85.95
Q 94.75 83.05 96.55 80.3 99.45 76.55 102.35 75.35 105.85 74.15 107.9 75.6 108.7 76.25 109.15 77.1 109.9 78.45 109.85 80.4 109.7 83.4 107.9 86.1 107.6 86.5 107.25 87 105.7 89 103.85 90.2 102.8 90.9 101.6 91.25 98.6 92.2 96.45 90.7 94.65 89.3 94.6 86.55
L 94.6 85.95 Z"/>

<path fill="#27528D" fill-opacity="0.8509803921568627" stroke="none" d="
M 56.25 85.25
Q 56.05 82.65 54.15 80.15 52.35 77.7 49.85 76.8 47.25 76 45.65 77.2 43.95 78.55 44.05 81.15 44.2 83.75 46.05 86.3 47.95 88.7 50.45 89.55 52.9 90.4 54.65 89.15 56.3 87.9 56.25 85.25
M 98.2 80.15
Q 96.3 82.65 96.15 85.25 96.05 87.9 97.75 89.15 99.45 90.4 101.95 89.55 104.4 88.7 106.3 86.3 108.15 83.75 108.3 81.15 108.4 78.55 106.7 77.2 105.1 76 102.55 76.8 100 77.7 98.2 80.15 Z"/>
</g>

<g id="Layer0_0_FILL">
<path fill="#27528D" fill-opacity="0" stroke="none" d="
M 150.1 0
L 0 0 0 155.5 150.1 155.5 150.1 0 Z"/>
</g>
</defs>

<g transform="matrix( 1, 0, 0, 1, 0,0) ">
<use xlink:href="#Layer1_0_FILL"/>
</g>

<g transform="matrix( 1, 0, 0, 1, 0,0) ">
<use xlink:href="#Layer0_0_FILL"/>
</g>
</svg>
