
<svg xmlns="http://www.w3.org/2000/svg" version="1.1" xmlns:xlink="http://www.w3.org/1999/xlink" preserveAspectRatio="none" x="0px" y="0px" width="150px" height="155px" viewBox="0 0 150 155">
<defs>
<g id="Layer1_0_FILL">
<path fill="#27528D" stroke="none" d="
M 23.4 55.3
Q 35.45 116.65 66.1 104.2 37.3 105.65 23.4 55.3
M 63.5 73.65
Q 57.4 66.15 47.5 60.4 34.65 53.1 25.6 37.85 31.3 53.35 43.8 62.35 53.6 69.45 59.95 77.2 61.85 79.55 63.5 81.95 70.1 91.7 69.25 101.85 69.2 102.55 69.15 103.3 73.8 90.25 67.2 79.05 65.55 76.2 63.5 73.65
M 15.95 78.85
Q 15.9 78.75 15.8 78.7 14.65 91.25 18.95 99.3 19.4 100.2 19.95 101.05 25.15 109.15 31.6 116.9 33.85 119.6 35.05 122.15 37.05 126.5 35.8 130.15 33.3 131.15 29.75 128.2 24.7 124.2 20.1 114.7 19.7 119.8 20.8 123.65 27.35 149.1 68.2 145.3 67.9 144.95 67.7 144.55 67.05 143 64.6 142.25 64.3 142.1 63.95 142.05 63.65 141.85 63.3 141.8 61.3 141.4 58.55 141.3 58.05 141.25 57.5 141.2 57.25 141.15 56.95 141.1 54.5 140.75 52.15 138.95 48.6 136 46.1 128.6 45.35 126.4 44.55 124.4 40.75 115.05 35.4 111.25 34 110.25 32.7 109.25 27.8 105.4 23.95 100.9 23.65 100.55 23.4 100.2 19.85 95.6 17.35 85.4 16.6 82.4 15.95 78.85
M 61.4 47.9
L 41.8 23.1 56.4 51.4
Q 58.75 49.5 61.4 47.9
M 63.3 46.8
Q 66.7 44.95 70 44.15
L 57.6 18.35 63.3 46.8
M 76.05 107.75
Q 55 108.85 56.75 126.3 62.9 123.25 66.85 128.7 70.75 134.1 76.05 133.2 83.15 132.3 85.55 127.95 88 123.55 95.35 126.6 97.1 108.85 76.05 107.75
M 135.4 83.9
Q 134.6 87.45 133.65 90.35 131.5 97.05 128.7 100.35 127.2 102.15 125.55 103.75 121.85 107.4 117.35 110.65 116.3 111.4 115.35 112.35 110.3 117.25 106.75 128.15 106.5 128.8 106.25 129.45 102.3 140.25 95.55 141.1 95 141.15 94.4 141.15 91.95 141.2 90.25 141.4 89.95 141.45 89.6 141.55 85.85 142.2 84.35 144 84.25 144.2 84.1 144.35 84 144.5 83.95 144.6 83.75 144.95 83.45 145.25 129 148.25 132.6 117.4 132.75 115.8 132.7 114.05 125.65 129.5 117.7 130.75 117.05 130.85 116.4 130.8 113.55 125.55 120.25 117.45 120.4 117.3 120.55 117.2 126.8 109.6 132.05 101.65 134.3 98.25 135.45 94.15 137.3 87.75 136.6 79.35 136.1 81.7 135.55 83.75 135.5 83.85 135.4 83.9
M 128.95 55.3
Q 115 105.65 86.2 104.2 116.8 116.65 128.95 55.3
M 126.55 37.85
Q 126.5 37.9 126.45 37.95 117.35 53.2 104.55 60.45 95.55 65.65 89.8 72.3 87.05 75.55 84.9 79.2 78.35 90.4 83 103.45 81.55 92.4 88.7 81.85 90.05 79.9 91.55 78 98.05 69.8 108.35 62.3 120.9 53.3 126.55 37.85
M 110.45 23.1
L 90.9 48
Q 93.55 49.55 95.8 51.65
L 110.45 23.1
M 87.95 64.85
Q 99.15 54.4 107.1 49.75 115.1 45.05 127.2 29 110.95 44.1 105.6 47.35 100.3 50.65 90.7 57.95 81.05 65.2 76.05 73.95 71.05 65.2 61.4 57.95 51.8 50.65 46.5 47.35 41.15 44.1 24.9 29.55 37 45.05 45 49.75 52.95 54.4 64.15 64.85 75.3 75.25 76.05 96.8 76.8 75.25 87.95 64.85
M 94.55 18.2
L 82.15 44.15
Q 85.4 44.95 88.8 46.75 91.65 32.45 94.55 18.2
M 90.85 53.2
Q 90.8 53.15 90.8 53.1 84.8 47.3 78.5 46.45 77.35 46.25 76.15 46.25 76.05 46.25 75.95 46.25 74.85 46.25 73.75 46.45 73.55 46.45 73.4 46.5 72.35 46.6 71.2 46.95 66.2 48.5 61.4 53.2 69.25 58.55 74 63.9 75.15 65.15 76.15 66.4 77.55 64.55 79.45 62.65 83.95 57.9 90.85 53.2
M 77.4 50.2
Q 78.8 50.2 79.2 50.2 79.6 50.75 79.5 50.85 78.15 52.45 76.7 54.1 77.5 55 78.35 55.95 78.95 56.7 79.55 57.45 79.65 57.8 79.5 57.95 79.4 58.1 79.25 58.1 77.3 58.1 75.25 58.1 74.15 58.1 73 58.1 72.85 58.1 72.75 58 72.65 57.85 72.65 57.75 72.65 57.6 72.75 57.5 72.9 57.3 73.05 57.1 74.3 55.6 75.55 54.15 74.3 52.65 72.95 51.2
L 72.6 50.6
Q 72.6 50.45 72.65 50.35 75.2 50.2 77.4 50.2
M 75 55.85
Q 74.4 56.55 73.8 57.25
L 73.85 57.25
Q 75.1 57.3 76.35 57.35 77.05 57.3 78.4 57.3 77.8 56.6 77.25 55.95 76.7 55.3 76.15 54.65 75.85 55 75 55.85
M 76.55 53.15
Q 77.35 52.3 78.4 51 77.35 51 75.7 51 74.75 51 73.8 51 74.7 52 75.55 53 75.9 53.3 76.55 53.15
M 76.15 16.6
Q 76.05 16.6 75.95 16.6
L 72.3 43.7 73.1 43.55
Q 74.6 43.4 76.1 43.4 77.55 43.4 79.05 43.55 79.45 43.6 79.85 43.7 79.3 39.45 78.75 35.15
L 76.25 16.6
Q 76.2 16.6 76.15 16.6 Z"/>

<path fill="#82A2C4" fill-opacity="0.8980392156862745" stroke="none" d="
M 49.55 73.9
L 49.5 73.9
Q 45.85 72.6 43.4 74.4 40.95 76.35 41.05 80.2 41.15 83.25 43 86.1 43.4 86.8 43.95 87.45 46 90.25 48.65 91.55 49.45 91.95 50.2 92.2 53.3 93.25 55.65 92.05 56 91.85 56.35 91.55 58.65 89.85 58.6 86.35 58.6 86.1 58.6 85.9 58.5 83.7 57.5 81.6 56.85 80.05 55.7 78.6 53.7 75.9 51.15 74.6 50.4 74.2 49.55 73.9
M 57.7 85
Q 57.8 85.45 57.85 85.95 57.95 89.1 56.1 90.7 55.95 90.8 55.9 90.9 53.65 92.55 50.45 91.5 50.05 91.35 49.7 91.25 46.8 89.95 44.55 87 43.9 86.1 43.4 85.2 42.05 82.9 41.8 80.35
L 41.8 80.15
Q 41.75 76.75 43.85 75.05 46.3 73.55 49.3 74.6 53.2 76.65 55.1 79.05 55.65 79.75 56.1 80.5 57.4 82.7 57.7 85
M 102.75 73.9
Q 102.55 73.9 102.3 74 99.05 75.3 96.55 78.6 96.15 79.15 95.75 79.7 93.85 82.75 93.65 85.9 93.55 89.7 95.9 91.55 98.45 93.4 102.05 92.2 103.2 91.9 104.2 91.25 106.45 89.95 108.35 87.45 108.55 87.2 108.7 87 110.85 84.15 111.2 80.95 111.25 80.6 111.25 80.2 111.25 77.65 110.2 75.9 109.7 75.1 108.9 74.4 106.45 72.6 102.75 73.9
M 94.45 86.55
L 94.45 85.95
Q 94.6 82.9 96.5 80 99.55 76 102.6 74.75 106.25 73.5 108.4 75.05 109.25 75.7 109.75 76.65 110.5 78.05 110.45 80.05 110.3 83.2 108.35 86.05 108.05 86.5 107.7 87 106.1 89.15 104.15 90.4 103.05 91.1 101.85 91.5 98.65 92.55 96.4 90.9 94.5 89.45 94.45 86.55 Z"/>

<path fill="#27528D" fill-opacity="0.8980392156862745" stroke="none" d="
M 56.25 85.2
Q 56.05 82.45 54.05 79.8 52.1 77.25 49.5 76.35 46.85 75.45 45.1 76.75 43.3 78.1 43.45 80.85 43.55 83.6 45.55 86.3 47.55 88.85 50.15 89.7 52.75 90.6 54.6 89.3 56.3 88 56.25 85.2
M 98.25 79.8
Q 96.2 82.45 96.05 85.2 95.95 88 97.7 89.3 99.5 90.6 102.1 89.7 104.75 88.85 106.75 86.3 108.7 83.6 108.8 80.85 109 78.1 107.15 76.75 105.45 75.45 102.75 76.35 100.15 77.25 98.25 79.8 Z"/>
</g>

<g id="Layer0_0_FILL">
<path fill="#27528D" fill-opacity="0" stroke="none" d="
M 150.1 0
L 0 0 0 155.5 150.1 155.5 150.1 0 Z"/>
</g>
</defs>

<g transform="matrix( 1, 0, 0, 1, 0,0) ">
<use xlink:href="#Layer1_0_FILL"/>
</g>

<g transform="matrix( 1, 0, 0, 1, 0,0) ">
<use xlink:href="#Layer0_0_FILL"/>
</g>
</svg>
