
<svg xmlns="http://www.w3.org/2000/svg" version="1.1" xmlns:xlink="http://www.w3.org/1999/xlink" preserveAspectRatio="none" x="0px" y="0px" width="150px" height="155px" viewBox="0 0 150 155">
<defs>
<g id="Layer1_0_FILL">
<path fill="#27528D" stroke="none" d="
M 28.2 67.85
Q 39.25 115.05 66.1 104.2 40.5 105.45 28.2 67.85
M 59.5 53.65
Q 61.05 52.45 63.3 51.05
L 46.65 30.35 59.5 53.65
M 62.35 80.45
Q 63.8 82.5 65.05 84.55 70.15 93.1 69.5 101.2 69.5 101.55 69.5 101.9 73.2 91.1 68.15 81.65 66.9 79.3 65.3 77.1 60.65 71 52.45 65.7 42.35 59.45 33.75 47.6 39.8 59.9 49.5 67.5 57.5 73.95 62.35 80.45
M 24.1 93.5
Q 23.35 90.8 22.7 87.7 22.65 87.65 22.6 87.6 21.35 98.65 24.95 105.65 25.4 106.45 25.85 107.3 30 114 35.85 121.15 37.75 123.45 38.9 125.65 41 129.4 40.6 132.45 39.9 134.55 36.5 132.25 31.2 128.95 27 121.35 26.05 123.9 26.4 125.3 31.35 148.35 67.1 145.4 67 145.15 66.95 144.9 67.05 143.8 65.95 143.25 65.7 143.1 65.45 142.95 65.2 142.75 64.9 142.65 63.25 142.05 60.9 141.85 60.4 141.8 59.9 141.7 59.7 141.7 59.45 141.65 57.55 141.35 55.2 140.05 52.1 137.95 49.1 131.75 48.3 129.9 47.4 128.2 43.45 120.4 39.15 116.8 38 115.8 37 114.8 33.05 111.2 29.9 107.15 29.65 106.8 29.4 106.45 26.4 102.2 24.1 93.5
M 70.75 47.65
L 60.15 26 64.95 50
Q 67.9 48.3 70.75 47.65
M 76.05 107.75
Q 55 108.85 59.25 121.7 64.65 117.95 67.75 124.25 70.8 130.5 76.3 129.1 84.75 126.95 85.1 123.05 85.45 119.05 93.35 122.2 97.1 108.85 76.05 107.75
M 129.35 91.05
Q 128.6 94.15 127.7 96.75 125.8 102.55 123.5 105.7 122.35 107.35 121.05 108.8 118.05 112.2 114.45 115.35 113.65 116.05 112.85 116.9 108.85 121.35 104.8 130.45 104.5 131.05 104.25 131.55 99.8 140.75 94.45 141.45 93.95 141.55 93.5 141.55 91.2 141.7 89.85 141.85 89.55 141.9 89.35 141.95 86.05 142.6 84.7 144.1 84.55 144.3 84.45 144.5 84.35 144.6 84.3 144.65 84.15 144.95 83.9 145.25 123.95 148.2 127 121.15 127 120.5 126.75 119.75 120.95 132.25 112.9 134 112.35 134.05 111.85 134.05 109 130.6 115.75 122.55 115.8 122.45 115.95 122.35 121.65 115.4 126.05 108.75 128.05 105.65 129.1 102.2 130.9 96.7 130.35 89.3 129.95 90.3 129.45 90.95 129.4 91 129.35 91.05
M 124.4 67.85
Q 112.1 105.45 86.5 104.2 113.3 115.05 124.4 67.85
M 118.4 47.6
L 118.35 47.65
Q 109.65 59.55 99.55 65.85 92.05 70.7 87.7 76.2 85.5 79 83.9 82.1 79 91.5 82.8 102.3 81.7 93.5 87.2 84.25 88.25 82.6 89.4 80.95 94.35 74.15 102.8 67.35 112.5 59.8 118.4 47.6
M 89.3 51.3
Q 91.55 52.65 93 54.15
L 105.75 30.35 89.3 51.3
M 87.95 64.85
Q 99.15 54.4 107.1 49.75 115.1 45.05 123.4 33.05 110.95 44.1 105.6 47.35 100.3 50.65 90.7 57.95 81.05 65.2 76.05 73.95 71.05 65.2 61.4 57.95 51.8 50.65 46.5 47.35 41.15 44.1 28.65 34.4 37 45.05 45 49.75 52.95 54.4 64.15 64.85 75.3 75.25 76.05 96.8 76.8 75.25 87.95 64.85
M 92.15 25.6
L 81.5 47.65
Q 84.15 48.25 87.25 49.9 89.65 37.7 92.15 25.6
M 88.65 55.4
Q 88.6 55.35 88.55 55.3 83.55 50.4 78.25 49.7 77.3 49.55 76.25 49.55 76.2 49.55 76.15 49.55 75.2 49.55 74.3 49.7 74.1 49.75 73.95 49.75 73.05 49.85 72.15 50.15 67.9 51.4 63.9 55.4 70.5 59.9 74.5 64.4 75.45 65.45 76.25 66.5 77.5 64.9 79.05 63.25 82.85 59.35 88.65 55.4
M 77.3 52.85
Q 78.45 52.85 78.8 52.85 79.15 53.3 79.1 53.4 77.95 54.75 76.85 56.2 77.5 56.9 78.15 57.7 78.7 58.3 79.15 58.95 79.25 59.25 79.15 59.4 79.05 59.45 78.9 59.45 77.25 59.5 75.55 59.5 74.6 59.55 73.65 59.55 73.55 59.55 73.45 59.45 73.35 59.35 73.35 59.25 73.35 59.1 73.45 59.05 73.6 58.85 73.65 58.75 74.75 57.5 75.75 56.2 74.6 54.95 73.5 53.7
L 73.2 53.25
Q 73.2 53.1 73.3 53 75.4 52.85 77.3 52.85
M 75.3 57.55
Q 74.75 58.15 74.25 58.75 75.35 58.85 76.45 58.9 77 58.9 78.15 58.85 77.75 58.25 77.3 57.7 76.85 57.15 76.3 56.6 76.05 56.85 75.3 57.55
M 76.6 55.4
Q 77.3 54.65 78.2 53.55 77.35 53.5 75.9 53.5 75.05 53.5 74.25 53.6 75.05 54.45 75.8 55.25 76.05 55.55 76.6 55.4
M 76.2 24.45
L 76.1 24.45 72.95 47.2 73.65 47.1
Q 74.9 46.95 76.15 46.95 77.4 46.95 78.65 47.1 79 47.15 79.35 47.2 78.9 43.65 78.45 40.1
L 76.35 24.45
Q 76.3 24.45 76.2 24.45 Z"/>

<path fill="#7395BB" fill-opacity="0.7490196078431373" stroke="none" d="
M 58.25 86
Q 58.2 84.1 57.3 82.25 56.75 81 55.8 79.75 54.05 77.5 51.9 76.4 51.25 76.05 50.55 75.8
L 50.5 75.8
Q 47.35 74.75 45.3 76.25 43.15 77.9 43.25 81.15 43.35 83.8 44.95 86.2 45.3 86.75 45.75 87.35 47.55 89.65 49.8 90.8 50.45 91.15 51.15 91.35 53.7 92.2 55.7 91.2 56.05 91 56.35 90.75 58.3 89.3 58.25 86.35 58.25 86.15 58.25 86
M 57.55 85.2
Q 57.55 85.65 57.6 86.05 57.7 88.7 56.1 90.05 56 90.15 55.95 90.25 54 91.6 51.3 90.7 50.95 90.6 50.65 90.5 48.2 89.45 46.3 86.95 45.7 86.2 45.25 85.45 44.05 83.5 43.95 81.3
L 43.95 81.1
Q 43.85 78.25 45.65 76.8 47.7 75.5 50.3 76.45 53.65 78.1 55.3 80.2 55.75 80.75 56.1 81.35 57.25 83.2 57.55 85.2
M 96.75 79.75
Q 96.35 80.25 96.05 80.7 94.4 83.3 94.25 86 94.15 89.25 96.2 90.8 98.4 92.35 101.45 91.35 102.35 91.05 103.2 90.55 105.2 89.4 106.85 87.35 107 87.1 107.1 86.95 109 84.5 109.25 81.8 109.3 81.45 109.3 81.15 109.35 78.95 108.35 77.5 107.95 76.8 107.25 76.25 105.15 74.75 102 75.8 101.85 75.8 101.65 75.9 98.85 77 96.75 79.75
M 94.9 86.5
L 94.9 86
Q 95.05 83.4 96.7 80.95 99.3 77.6 101.9 76.55 105 75.5 106.85 76.8 107.55 77.35 108 78.1 108.7 79.3 108.6 81.05 108.5 83.75 106.85 86.1 106.6 86.5 106.3 86.95 104.85 88.75 103.2 89.8 102.25 90.4 101.25 90.7 98.55 91.6 96.6 90.25 95 89 94.9 86.5 Z"/>

<path fill="#27528D" fill-opacity="0.7490196078431373" stroke="none" d="
M 56.3 85.4
Q 56.1 83.05 54.35 80.85 52.75 78.65 50.5 77.85 48.25 77.1 46.75 78.2 45.2 79.35 45.35 81.7 45.4 84.05 47.1 86.3 48.8 88.5 51.05 89.25 53.25 89.95 54.8 88.85 56.3 87.75 56.3 85.4
M 98.15 80.85
Q 96.45 83.05 96.3 85.4 96.2 87.75 97.75 88.85 99.3 89.95 101.5 89.25 103.75 88.5 105.45 86.3 107.1 84.05 107.2 81.7 107.35 79.35 105.8 78.2 104.3 77.1 102 77.85 99.8 78.65 98.15 80.85 Z"/>
</g>

<g id="Layer0_0_FILL">
<path fill="#27528D" fill-opacity="0" stroke="none" d="
M 150.1 0
L 0 0 0 155.5 150.1 155.5 150.1 0 Z"/>
</g>
</defs>

<g transform="matrix( 1, 0, 0, 1, 0,0) ">
<use xlink:href="#Layer1_0_FILL"/>
</g>

<g transform="matrix( 1, 0, 0, 1, 0,0) ">
<use xlink:href="#Layer0_0_FILL"/>
</g>
</svg>
