
<svg xmlns="http://www.w3.org/2000/svg" version="1.1" xmlns:xlink="http://www.w3.org/1999/xlink" preserveAspectRatio="none" x="0px" y="0px" width="150px" height="155px" viewBox="0 0 150 155">
<defs>
<g id="Layer1_0_FILL">
<path fill="#27528D" stroke="none" d="
M 65.3 58.35
Q 65.6 58.4 67.1 57.4
L 56.3 44.7 65.3 58.35
M 62.15 116.65
Q 64.3 110.15 69.25 112.5 74.15 114.85 76.8 113.9 79.45 112.95 83.55 112.35 87.6 111.7 92.4 116.65 95.9 108.7 76.1 107.85 56.3 108.7 62.15 116.65
M 68.15 56.4
Q 70.35 55.05 72.15 54.65
L 65.3 41.35 68.15 56.4
M 86.1 57.85
Q 87.5 58.75 87.65 59.35
L 96.35 44.7 86.1 57.85
M 84.05 56.15
Q 85.55 48.2 87.25 40.45
L 80.25 54.6
Q 81.7 54.95 84.05 56.15
M 84.15 59.75
L 84.1 59.75
Q 81 56.75 77.8 56.25 77.15 56.2 76.55 56.2 76.5 56.2 76.45 56.2 75.9 56.2 75.25 56.25 75.2 56.25 75.1 56.3 74.55 56.35 73.95 56.5 71.35 57.3 68.8 59.75
L 68.85 59.75
Q 73 62.6 75.45 65.4 76 66 76.55 66.6 77.25 65.6 78.2 64.65 80.55 62.25 84.15 59.75
M 74.6 58.75
L 74.4 58.45
Q 74.4 58.4 74.5 58.35 75.85 58.15 77.1 58.15 77.8 58.15 78.1 58.15 78.3 58.4 78.25 58.45 77.65 59.35 77.05 60.25 77.45 60.7 77.85 61.15 78.15 61.55 78.45 61.95 78.45 62.15 78.4 62.2 78.35 62.25 78.25 62.25 77.2 62.3 76.15 62.4 75.55 62.4 74.95 62.45 74.9 62.45 74.85 62.35
L 74.8 62.3
Q 74.8 62.2 74.85 62.1 74.9 62.05 74.9 62 74.95 61.9 75.05 61.8 75.55 61.05 76.05 60.35 75.3 59.55 74.6 58.75
M 75.05 61.8
L 75.1 61.8
Q 75.9 62 76.6 62.1 76.95 62.05 77.75 61.95 77.5 61.55 77.35 61.15 77 60.75 76.6 60.4 76.45 60.55 75.9 61 75.45 61.35 75.05 61.8
M 77.85 58.65
Q 77.25 58.55 76.2 58.5 75.6 58.55 75.05 58.7 75.7 59.35 76.2 59.9 76.35 60.05 76.8 59.9 77.25 59.4 77.85 58.65
M 76.45 40.25
L 76.4 40.25 74.3 54.2 74.65 54.1
Q 75.45 54 76.2 54 77 54.05 77.8 54.15 78 54.2 78.2 54.25 78.05 52.15 77.85 50.05
L 76.55 40.25
Q 76.5 40.25 76.45 40.25
M 115.25 92.95
Q 106.3 105.15 87.05 104.2 106.3 112.05 115.25 92.95
M 37.9 92.95
Q 46.85 112.05 66.1 104.2 46.85 105.15 37.9 92.95
M 117.35 105.45
L 117.2 105.35
Q 116.55 107.65 115.8 109.6 113.85 115.5 112 118.95 110.15 122.4 108 126.05 105.8 129.75 100.3 135.85 94.75 141.85 92.25 142.25 89.7 142.6 89.05 142.7 88.85 142.7 88.75 142.8 86.5 143.3 85.35 144.3 85.15 144.5 85 144.85 84.9 145.05 84.75 145.25 113.85 148.15 115.85 128.6 113.15 137.25 103.4 140.4 99.2 141.7 106.75 132.65 114.3 123.55 116.45 118.45 118.75 113.45 117.35 105.45
M 46.75 132.65
Q 54.3 141.7 50.1 140.4 40.35 137.25 37.65 128.6 39.6 148.15 68.75 145.25 68.55 145.05 68.5 144.85 68.35 144.5 68.15 144.3 66.95 143.3 64.75 142.8 64.65 142.7 64.45 142.7 63.75 142.6 61.25 142.25 58.75 141.85 53.2 135.85 47.65 129.75 45.5 126.05 43.35 122.4 41.5 118.95 39.6 115.5 37.65 109.6 36.95 107.65 36.3 105.35
L 36.15 105.45
Q 34.75 113.45 37 118.45 39.2 123.55 46.75 132.65
M 45.65 64.1
Q 45.637890625 63.963671875 45.6 63.85
L 45.6 63.9
Q 45.6375 63.975 45.65 64.1
M 68.85 83.95
Q 65.65 77.55 50.1 67 63.7 79.05 67.1 86.95 70.45 94.85 69.95 100.05 72.65 91.5 68.85 83.95
M 102.2 67
Q 86.6 77.55 83.4 83.95 79.65 91.5 82.3 100.05 81.8 94.85 85.2 86.95 88.55 79.05 102.2 67
M 115.8 41.05
Q 110.95 44.1 105.6 47.35 100.3 50.65 90.7 57.95 81.05 65.2 76.05 73.95 71.05 65.2 61.4 57.95 51.8 50.65 46.5 47.35 41.15 44.1 36.25 44.15 37 45.05 45 49.75 52.95 54.4 64.15 64.85 75.3 75.25 76.05 96.8 76.8 75.25 87.95 64.85 99.15 54.4 107.1 49.75 115.1 45.05 115.8 41.05 Z"/>

<path fill="#547AA8" fill-opacity="0.45098039215686275" stroke="none" d="
M 53.4 80
Q 52.95 79.75 52.5 79.6
L 52.45 79.6
Q 50.45 79 49.05 79.95 47.65 80.95 47.7 83.05 47.7 84.8 48.8 86.4 49.05 86.75 49.35 87.1 50.5 88.55 52.05 89.25 52.45 89.45 52.9 89.6 54.6 90.1 55.9 89.4 56.1 89.3 56.3 89.15 57.6 88.2 57.6 86.3 57.6 86.2 57.6 86.1 57.55 84.8 56.9 83.6 56.55 82.85 55.95 82.05 54.75 80.65 53.4 80
M 57.1 85.65
Q 57.15 85.9 57.15 86.15 57.2 87.85 56.15 88.7 56.05 88.75 55.95 88.85 54.7 89.7 53 89.15 52.75 89.1 52.5 89 50.95 88.35 49.7 86.8 49.3 86.4 49 85.85 48.2 84.6 48.15 83.2
L 48.15 83.05
Q 48.1 81.25 49.3 80.3 50.65 79.5 52.35 80 54.55 81.05 55.65 82.4 55.95 82.75 56.2 83.15 56.95 84.35 57.1 85.65
M 100.55 79.6
Q 100.4 79.65 100.3 79.65 98.45 80.35 97.1 82.1 96.8 82.4 96.6 82.7 95.5 84.35 95.45 86.1
L 95.45 86.15
Q 95.4 88.2 96.8 89.2 98.2 90.2 100.15 89.6 100.75 89.4 101.3 89.05 102.7 88.4 103.8 87.05 103.9 86.9 103.95 86.75 105.15 85.2 105.35 83.45 105.35 83.2 105.35 83 105.35 81.6 104.65 80.65 104.4 80.25 103.9 79.9 102.6 78.95 100.55 79.6
M 95.85 86.4
L 95.85 86.1
Q 95.95 84.45 97.05 82.9 98.7 80.75 100.45 80.1 102.5 79.4 103.7 80.25 104.15 80.65 104.4 81.1 104.95 81.85 104.9 83 104.9 84.75 103.8 86.3 103.6 86.55 103.4 86.75 102.45 87.95 101.3 88.6 100.65 89 100 89.2 98.3 89.7 97.05 88.85 95.95 88.05 95.85 86.4 Z"/>

<path fill="#27528D" fill-opacity="0.45098039215686275" stroke="none" d="
M 55.05 82.85
Q 54 81.4 52.5 80.95 51 80.45 50.05 81.2 49 81.9 49.05 83.4 49.1 84.9 50.15 86.4 51.3 87.75 52.75 88.2 54.25 88.65 55.3 87.95 56.3 87.25 56.3 85.75 56.2 84.2 55.05 82.85
M 98 82.85
Q 96.85 84.2 96.8 85.75 96.8 87.25 97.75 87.95 98.8 88.65 100.3 88.2 101.75 87.75 102.9 86.4 103.95 84.9 104 83.4 104.05 81.9 103 81.2 102.05 80.45 100.55 80.95 99.05 81.4 98 82.85 Z"/>
</g>

<g id="Layer0_0_FILL">
<path fill="#27528D" fill-opacity="0" stroke="none" d="
M 150.1 0
L 0 0 0 155.5 150.1 155.5 150.1 0 Z"/>
</g>
</defs>

<g transform="matrix( 1, 0, 0, 1, 0,0) ">
<use xlink:href="#Layer1_0_FILL"/>
</g>

<g transform="matrix( 1, 0, 0, 1, 0,0) ">
<use xlink:href="#Layer0_0_FILL"/>
</g>
</svg>
