
<svg xmlns="http://www.w3.org/2000/svg" version="1.1" xmlns:xlink="http://www.w3.org/1999/xlink" preserveAspectRatio="none" x="0px" y="0px" width="150px" height="155px" viewBox="0 0 150 155">
<defs>
<g id="Layer1_0_FILL">
<path fill="#27528D" stroke="none" d="
M 39.6 94.45
Q 48.25 111.5 66.1 104.2 48 105.1 39.6 94.45
M 44.5 122.45
Q 44.1 121.75 43.75 121.05 42.45 118.65 41.2 115.15 40.8 114 40.35 112.75 39.7 110.85 39.15 109
L 39.1 108.95
Q 39.05 108.95 39 109
L 39 109.05
Q 37.8 116.25 39.85 120.7 39.95 121 40.1 121.3 42.2 125.9 48.5 133.45 49.1 134.2 49.6 134.85 54.65 141.15 51.85 140.5 51.2 140.5 50.35 140.2 43.15 137.5 40.95 130.8 40.9 130.65 40.85 130.5 41.85 138.75 48.25 142.4 49.5 143.15 51.05 143.75 52.4 144.3 54 144.6 59.15 145.8 66.1 145.15 66.25 145.15 66.4 145.1 66.55 145.05 66.8 145 67.55 144.9 68.25 144.7 68.1 144.55 68 144.3 67.85 144.05 67.65 143.9 67.4 143.7 67.15 143.55 67 143.5 66.85 143.4 65.95 142.95 64.6 142.7 64.5 142.65 64.35 142.6
L 64.3 142.55
Q 63.5 142.45 61.5 142 61.15 141.85 60.75 141.65 58.8 140.5 54.55 135.95 53.9 135.3 53.3 134.65 49.1 130.05 47.45 127.35 47.35 127.25 47.3 127.15 45.9 124.8 44.5 122.45
M 67.6 87.4
Q 70.05 93.35 70.15 97.65 70.2 98.6 70.1 99.4 70.3 98.65 70.45 97.85 71.9 91.15 68.9 84.75 66.05 78.8 52.35 68.9 64.6 80 67.6 87.4
M 66 59.4
Q 66.35 59.35 67.7 58.45
L 57.95 47.15 66 59.4
M 68.7 57.45
Q 70.75 56.2 72.35 55.85
L 66.2 43.9 68.7 57.45
M 76.15 107.9
Q 56.9 108.6 62.6 115.5 64 110.05 69.05 111.4 73.95 112.75 76.55 112.15 79.05 111.5 83.45 111.2 87.8 110.85 91.95 115.5 95.35 108.6 76.15 107.9
M 114.3 109.5
Q 113.7 111.5 113 113.3 111.2 118.55 109.5 121.65 107.75 124.7 105.8 128 103.75 131.3 98.7 136.75 93.65 142.15 91.4 142.5 90.35 142.7 89.7 142.75 88.9 142.9 88.55 142.95 88.45 143 88.3 143.05 87.6 143.25 87.05 143.4 85.95 143.8 85.25 144.35 85.05 144.6 84.9 144.9 84.9 145 84.8 145.1
L 84.7 145.25
Q 110.85 148 113 130.45 110.7 138.1 102.2 140.75 98.5 141.9 105.25 133.75 107.85 130.7 109.75 128.1 112.8 123.95 113.85 121.1 115.8 116.65 114.45 109.6 114.4 109.55 114.3 109.5
M 113.4 94.45
Q 105 105.1 86.9 104.2 104.8 111.5 113.4 94.45
M 99.9 69
Q 98.35 70 96.85 71 85.6 79.25 83.05 84.6 79.7 91.55 82.05 99.4
L 82.05 99.25
Q 82 98 82.2 96.7 82.65 92.85 84.9 87.5 87.95 80.25 99.9 69
M 85.55 59
Q 86.85 59.75 87 60.35
L 94.75 47.15 85.55 59
M 111.8 44.6
Q 110.95 45.05 110.15 45.6 106.65 47.75 102.9 50.05 100.3 51.65 96.45 54.35 93.35 56.55 89.6 59.4 80.95 66 76.3 73.9 73.65 69.5 69.75 65.55 66.75 62.5 63.05 59.7 54.35 53.1 49.5 50.1 44.7 47.2 40.2 47.2 41 48.05 48.15 52.25 55.35 56.5 65.4 66 75.4 75.5 76.05 95 76.15 91.35 76.6 88.15 78.6 73.9 86.7 66.25 96.75 56.8 103.9 52.45 111.05 48.2 111.8 44.6
M 83.55 57.15
Q 84.9 49.95 86.45 42.9
L 80.05 55.8
Q 81.25 56.1 83.55 57.15
M 83.35 60.5
L 83.35 60.45
Q 80.6 57.8 77.7 57.35 77.15 57.25 76.55 57.25
L 76.5 57.25
Q 75.95 57.25 75.45 57.35 75.35 57.35 75.3 57.4 74.8 57.45 74.3 57.6 71.9 58.3 69.65 60.5
L 69.7 60.5
Q 73.35 63.05 75.55 65.55 76.1 66.1 76.55 66.6 77.2 65.75 78.1 64.9 80.2 62.7 83.35 60.5
M 74.8 59.6
L 74.6 59.35
Q 74.6 59.3 74.65 59.25 75.9 59.05 77.05 59.05 77.75 59.05 77.95 59.05 78.15 59.25 78.15 59.35 77.6 60.05 77.1 60.9 77.45 61.35 77.8 61.7 78.05 62.05 78.3 62.45 78.3 62.65 78.25 62.65 78.2 62.7 78.15 62.7 77.2 62.8 76.2 62.9 75.7 62.9 75.2 62.95 75.1 62.95 75.05 62.9 75 62.8 75 62.75 75 62.7 75.05 62.65 75.1 62.6 75.15 62.55 75.25 62.45 75.3 62.35 76 62.5 76.6 62.65 76.95 62.6 77.65 62.45 77.5 62.1 77.35 61.7 77 61.35 76.65 61 76.5 61.15 75.95 61.55 75.75 61.7 75.55 61.95 75.85 61.5 76.1 61 75.45 60.35 74.8 59.6
M 76.25 60.7
Q 76.45 60.8 76.8 60.7 77.25 60.2 77.8 59.45 77.2 59.4 76.25 59.4 75.7 59.4 75.2 59.5 75.8 60.15 76.25 60.7
M 76.55 42.9
L 76.45 42.9 74.5 55.35 74.85 55.25
Q 75.55 55.25 76.2 55.25 76.95 55.25 77.65 55.3 77.8 55.35 78 55.4 77.9 53.55 77.75 51.7
L 76.55 42.9 Z"/>

<path fill="#4F76A5" fill-opacity="0.4" stroke="none" d="
M 56.9 83.85
Q 56.55 83.15 55.95 82.45 54.9 81.2 53.6 80.6 53.25 80.35 52.8 80.25 50.95 79.65 49.7 80.55 48.4 81.5 48.45 83.4 48.45 84.95 49.45 86.4 49.65 86.75 49.95 87.05 51.05 88.35 52.4 89 52.8 89.2 53.2 89.3 54.75 89.75 55.95 89.15 56.15 89.05 56.3 88.9 57.5 88.05 57.5 86.3 57.5 86.2 57.5 86.1 57.5 84.95 56.9 83.85
M 52.7 80.65
Q 54.65 81.6 55.65 82.75 55.95 83.1 56.2 83.45 56.9 84.5 57.05 85.75 57.1 85.95 57.1 86.2 57.1 87.7 56.15 88.5 56.05 88.55 56 88.6 54.85 89.35 53.3 88.9 53.05 88.85 52.85 88.75 51.4 88.2 50.25 86.8 49.9 86.4 49.6 85.95 48.9 84.8 48.85 83.5
L 48.85 83.35
Q 48.8 81.7 49.9 80.9 51.15 80.15 52.7 80.65
M 100.3 80.25
Q 100.2 80.3 100.05 80.3 98.4 80.95 97.1 82.5 96.9 82.75 96.7 83.05 95.7 84.5 95.65 86.1
L 95.65 86.15
Q 95.6 88.05 96.85 88.95 98.15 89.8 99.95 89.3 100.5 89.15 101 88.85 102.25 88.25 103.3 87 103.4 86.85 103.45 86.75 104.55 85.35 104.7 83.75 104.7 83.55 104.7 83.35 104.7 82.05 104.05 81.2 103.8 80.8 103.4 80.5 102.15 79.65 100.3 80.25
M 96.05 86.4
L 96.05 86.1
Q 96.1 84.6 97.1 83.2 98.65 81.3 100.2 80.65 102.05 80.1 103.2 80.85 103.55 81.15 103.85 81.6 104.3 82.25 104.3 83.35 104.3 84.9 103.25 86.3 103.15 86.55 102.9 86.75 102.05 87.8 100.95 88.4 100.4 88.75 99.8 88.95 98.25 89.35 97.1 88.6 96.1 87.85 96.05 86.4 Z"/>

<path fill="#27528D" fill-opacity="0.4" stroke="none" d="
M 55.15 83.15
Q 54.2 81.9 52.85 81.45 51.45 81 50.55 81.65 49.6 82.35 49.65 83.7 49.7 85.1 50.7 86.4 51.75 87.65 53.05 88.05 54.4 88.45 55.35 87.8 56.3 87.15 56.3 85.8 56.25 84.45 55.15 83.15
M 100.3 81.45
Q 98.95 81.9 98 83.15 96.9 84.45 96.85 85.8 96.85 87.15 97.75 87.8 98.7 88.45 100.05 88.05 101.4 87.65 102.45 86.4 103.45 85.1 103.5 83.7 103.55 82.35 102.6 81.65 101.65 81 100.3 81.45 Z"/>
</g>

<g id="Layer0_0_FILL">
<path fill="#27528D" fill-opacity="0" stroke="none" d="
M 150.1 0
L 0 0 0 155.5 150.1 155.5 150.1 0 Z"/>
</g>
</defs>

<g transform="matrix( 1, 0, 0, 1, 0,0) ">
<use xlink:href="#Layer1_0_FILL"/>
</g>

<g transform="matrix( 1, 0, 0, 1, 0,0) ">
<use xlink:href="#Layer0_0_FILL"/>
</g>
</svg>
