
<svg xmlns="http://www.w3.org/2000/svg" version="1.1" xmlns:xlink="http://www.w3.org/1999/xlink" preserveAspectRatio="none" x="0px" y="0px" width="150px" height="155px" viewBox="0 0 150 155">
<defs>
<g id="Layer1_0_FILL">
<path fill="#27528D" stroke="none" d="
M 85.9 104.35
Q 92.7 107.1 98.7 106.35 94.65 104.75 85.9 104.35
M 94.55 142
Q 93.25 142.3 91.3 142.7 84.95 144.1 84.85 144.85
L 84.8 145.3
Q 84.8 145.15 84.25 145.25 87.8 147.75 94.55 142
M 53.35 106.2
Q 59.3 107 66.1 104.2 57.35 104.65 53.35 106.2
M 68.4 144.85
Q 68.25 144.1 61.95 142.7 60 142.3 58.65 142 65.45 147.75 68.95 145.25 68.45 145.15 68.45 145.3
L 68.4 144.85
M 67.35 112
Q 69.8 111 72.3 110.55 74.85 110 76 110.1 77.2 110.2 79.5 110.45 81.8 110.75 85.45 112.3 82.95 109.55 76.25 109.75 67.95 110.2 67.35 112
M 72 71.5
Q 76.5 73.45 75.8 81.35 76.75 75.5 79.75 72.7 80.9 71.65 81.9 70.65 79.75 72.1 76.85 74.25 75.3 72.7 72 71.5
M 70.45 84.3
Q 67.55 94.05 70.85 94.15 71.4 94.15 71.7 94.45 72.05 89.2 70.45 84.3
M 70.9 66.3
L 71.95 67.45
Q 72.4 67.2 72.7 66.85
L 70.9 66.3
M 73 65.95
Q 74 65.2 74.3 65.2
L 73 64.3 73 65.95
M 78.3 65.1
Q 77.95 65.05 79.3 65.5 79.45 63.95 79.95 62.65
L 78.3 65.1
M 76.85 66.1
Q 76.8 66.1 76.75 66.1 76.5 66.15 76.25 66.35 76.65 66.65 76.85 66.85 76.9 66.8 77 66.7 77.2 66.5 77.4 66.35 77.2 66.15 76.9 66.1
L 76.85 66.1
M 76.7 66.25
L 76.7 66.2 76.95 66.2 76.95 66.25 76.85 66.4 76.95 66.5 76.95 66.55 76.7 66.55 76.7 66.5 76.8 66.4 76.7 66.25
M 76.75 66.25
L 76.85 66.4 76.9 66.25 76.75 66.25
M 76.85 66.45
L 76.75 66.5 76.9 66.5 76.85 66.45
M 76.95 64.9
L 76.7 63.6 76.2 64.65
Q 76.7 64.75 76.95 64.9
M 81 93.9
Q 84.25 93.8 81.35 84.1 79.8 89 80.1 94.2 80.45 93.9 81 93.9
M 81.25 67.75
Q 81.5 67.95 81.8 68.4
L 82.2 66.3 81.25 67.75 Z"/>

<path fill="#27528D" fill-opacity="0" stroke="none" d="
M 55.6 85.35
Q 55.1 85.3 54.7 85.45 54.35 85.65 54.35 85.95 54.3 86.3 54.6 86.6 54.9 86.85 55.35 86.9 55.85 87 56.2 86.8 56.6 86.65 56.6 86.3 56.65 85.95 56.35 85.7 56.05 85.45 55.6 85.35
M 54.75 85.55
Q 55.1 85.4 55.55 85.45 56 85.5 56.3 85.8 56.55 86 56.55 86.3 56.45 86.55 56.15 86.75 55.8 86.9 55.35 86.8 54.95 86.75 54.65 86.5 54.35 86.3 54.4 85.95 54.45 85.7 54.75 85.55
M 55.55 85.5
Q 55.2 85.5 54.95 85.65 54.65 85.8 54.65 85.95 54.65 86.25 54.8 86.45 55.05 86.65 55.4 86.7 55.7 86.75 55.95 86.6 56.3 86.5 56.3 86.25 56.35 86 56.05 85.8 55.9 85.6 55.55 85.5
M 98.25 85.35
Q 97.75 85.45 97.45 85.7 97.15 85.95 97.2 86.3 97.25 86.65 97.65 86.8 98 87 98.45 86.9 98.95 86.85 99.25 86.6 99.55 86.3 99.5 85.95 99.45 85.65 99.1 85.45 98.7 85.3 98.25 85.35
M 97.55 85.8
Q 97.8 85.5 98.3 85.45 98.7 85.4 99.05 85.55 99.35 85.7 99.4 85.95 99.45 86.3 99.2 86.5 98.9 86.75 98.45 86.8 98.05 86.9 97.7 86.75 97.4 86.55 97.3 86.3 97.3 86 97.55 85.8
M 98.3 85.5
Q 97.95 85.6 97.75 85.8 97.45 86 97.5 86.25 97.55 86.5 97.85 86.6 98.1 86.75 98.4 86.7 98.75 86.65 99.05 86.45 99.2 86.25 99.2 85.95 99.15 85.8 98.9 85.65 98.65 85.5 98.3 85.5 Z"/>
</g>

<g id="Layer0_0_FILL">
<path fill="#27528D" fill-opacity="0" stroke="none" d="
M 150.1 0
L 0 0 0 155.5 150.1 155.5 150.1 0 Z"/>
</g>
</defs>

<g transform="matrix( 1, 0, 0, 1, 0,0) ">
<use xlink:href="#Layer1_0_FILL"/>
</g>

<g transform="matrix( 1, 0, 0, 1, 0,0) ">
<use xlink:href="#Layer0_0_FILL"/>
</g>
</svg>
