
<svg xmlns="http://www.w3.org/2000/svg" version="1.1" xmlns:xlink="http://www.w3.org/1999/xlink" preserveAspectRatio="none" x="0px" y="0px" width="150px" height="155px" viewBox="0 0 150 155">
<defs>
<g id="Layer1_0_FILL">
<path fill="#27528D" stroke="none" d="
M 36.3 88.75
Q 45.6 112.55 66.1 104.2 45.75 105.2 36.3 88.75
M 60.25 141.9
Q 58.05 141.3 54.15 136.85 53.25 135.8 52.25 134.6 48.05 129.4 45.45 126.05 44.7 125.05 44.05 124.2 41.8 120.8 39.9 117.6 39.65 117.25 39.5 116.9 37.4 113.3 35.4 106.95 34.7 104.8 34.05 102.4 34 102.5 33.9 102.5 32.5 111 35.05 116.3 35.3 116.95 35.7 117.65 38.05 122.1 42.95 128.25 44.2 129.85 45.45 131.45 47.6 134.3 48.55 136.25 50.85 140.2 47.85 139.05 42.1 136.9 38.6 132.45 36.6 130.7 35.75 128.05 38.1 147.05 65.25 145.5 65.45 145.5 65.7 145.4 67.05 145.2 68.25 144.95 68.1 144.7 67.95 144.55 67.85 144.2 67.6 144 66.55 143.25 64.7 142.8 64.35 142.7 63.95 142.65 63.8 142.55 63.65 142.5 62.7 142.35 60.25 141.9
M 66.3 85.85
Q 67.05 87.4 67.65 88.85 70.35 95.35 69.85 100.25 70 99.95 70.1 99.65 72.2 92.5 69.8 86.1 69.15 84.4 68.25 82.85 66.15 79.05 60.75 74.5 55.15 70 47.35 63.75 54 70.75 59.15 76.15 64.05 81.4 66.3 85.85
M 67.6 55.3
Q 69.95 53.95 71.9 53.5
L 64.45 38.8 67.6 55.3
M 76.1 107.8
Q 55.65 108.75 61.7 117.8 64.6 110.2 69.45 113.6 74.3 116.95 77.1 115.7 79.9 114.45 83.65 113.5 87.4 112.55 92.9 117.8 96.5 108.75 76.1 107.8
M 114.95 114.7
Q 114.2 116.1 113.5 117.3 111.75 120.15 109.7 123.1 109.25 123.8 108.8 124.55 106.45 128.15 101.55 134.35 101.25 134.75 100.95 135.15 95.55 141.7 92.6 142.1 92.25 142.15 91.9 142.2 89.9 142.4 89.15 142.55 89 142.6 88.8 142.7 86.45 143.15 85.2 144.25 85.1 144.4 84.95 144.6 84.9 144.7 84.9 144.8 84.8 145.05 84.6 145.25 115.55 148.15 117.7 127.35 117.35 128.35 116.9 129.2 113.25 136.85 105 139.3 104.5 139.45 104.2 139.45 101.5 139.15 108.05 131.1 108.15 131 108.25 130.9 113.1 125.1 116 120.6 117.7 117.95 118.6 115.75 120.3 111.7 119.9 105.9 119.7 104.6 119.35 103.05 119.3 103.05 119.25 102.95 118.55 105.4 117.8 107.5 116.4 111.75 114.95 114.7
M 116.75 88.75
Q 107.25 105.2 86.95 104.2 107.45 112.55 116.75 88.75
M 104.9 63.75
L 104.85 63.75
Q 96.8 70.25 91.25 74.85 86.15 79.1 84.1 82.65 82.95 84.75 82.25 86.9 80.1 93.35 82.4 100.45 81.85 95.25 84.8 88.3 85.3 87.15 85.85 85.95 88.2 81.35 93.4 75.8 98.5 70.55 104.9 63.75
M 117.05 39.7
Q 110.95 44.1 105.6 47.35 100.3 50.65 90.7 57.95 81.05 65.2 76.05 73.95 71.05 65.2 61.4 57.95 51.8 50.65 46.5 47.35 41.15 44.1 35 42.55 37 45.05 45 49.75 52.95 54.4 64.15 64.85 75.3 75.25 76.05 96.8 76.8 75.25 87.95 64.85 99.15 54.4 107.1 49.75 115.1 45.05 117.05 39.7
M 84.6 55.1
Q 86.25 46.5 88.1 37.95
L 80.45 53.45
Q 82.1 53.9 84.6 55.1
M 84.9 59.05
L 84.85 59
Q 81.4 55.7 77.85 55.2 77.2 55.1 76.5 55.1 76.45 55.1 76.4 55.1 75.75 55.1 75.15 55.2 75 55.2 74.9 55.25 74.3 55.25 73.65 55.5 70.75 56.35 68 59.05
L 68.05 59.05
Q 72.55 62.15 75.25 65.2 75.9 65.9 76.5 66.55 77.3 65.5 78.35 64.45 80.95 61.75 84.9 59.05
M 74.55 61.75
Q 74.55 61.65 74.6 61.65 74.65 61.55 74.75 61.45 75.4 60.55 76 59.7 75.25 58.8 74.4 57.95
L 74.25 57.6
Q 74.25 57.5 74.3 57.5 75.8 57.3 77.15 57.25 77.95 57.25 78.2 57.25 78.45 57.55 78.45 57.65 77.75 58.55 77 59.55 77.5 60.05 77.9 60.6 78.2 61 78.55 61.45 78.6 61.65 78.5 61.7 78.45 61.8 78.4 61.8 77.2 61.85 76.05 61.95 75.4 61.95 74.75 62 74.65 62 74.6 61.9 74.55 61.85 74.55 61.75
M 77.9 57.8
Q 77.25 57.75 76.2 57.7 75.55 57.75 74.9 57.8 75.55 58.5 76.15 59.15 76.3 59.3 76.75 59.15 77.25 58.6 77.9 57.8
M 75.8 60.4
Q 75.35 60.8 74.9 61.35
L 74.95 61.35
Q 75.8 61.45 76.55 61.6 77 61.55 77.8 61.45 77.55 61 77.35 60.6 76.95 60.15 76.55 59.75 76.35 59.95 75.8 60.4
M 76.45 37.65
Q 76.4 37.65 76.35 37.65
L 74.05 53 74.5 52.95
Q 75.35 52.85 76.2 52.85 77.1 52.9 77.95 53 78.15 53 78.4 53.05 78.2 50.75 77.95 48.4
L 76.55 37.65
Q 76.5 37.65 76.45 37.65
M 64.55 57.35
Q 64.85 57.4 66.45 56.35
L 54.7 42.35 64.55 57.35
M 86.6 56.8
Q 88.2 57.75 88.3 58.35
L 97.9 42.35 86.6 56.8 Z"/>

<path fill="#5A7FAC" fill-opacity="0.5019607843137255" stroke="none" d="
M 53.1 79.35
Q 52.7 79.15 52.15 79 49.9 78.3 48.45 79.35 46.95 80.5 46.95 82.75 47 84.6 48.15 86.35 48.45 86.75 48.75 87.15 50.05 88.75 51.65 89.5 52.1 89.75 52.65 89.9 54.45 90.45 55.9 89.7 56.1 89.65 56.3 89.45 57.75 88.4 57.75 86.35 57.75 86.2 57.75 86.1 57.7 84.7 57 83.4 56.6 82.55 55.95 81.65 54.65 80.15 53.1 79.35
M 56.2 82.85
Q 57 84.15 57.2 85.6 57.25 85.85 57.25 86.15 57.25 88.05 56.15 88.95 56.05 89 55.95 89.05 54.65 90 52.75 89.4 52.45 89.35 52.2 89.3 50.5 88.55 49.15 86.85 48.7 86.35 48.4 85.8 47.55 84.45 47.45 82.9
L 47.45 82.75
Q 47.4 80.7 48.7 79.7 50.15 78.85 52 79.4 54.4 80.6 55.6 82 55.95 82.45 56.2 82.85
M 100.8 79
Q 100.65 79.05 100.55 79.05 98.55 79.8 97.05 81.7 96.75 82.05 96.5 82.4 95.3 84.15 95.25 86.1 95.2 88.35 96.7 89.45 98.25 90.55 100.35 89.9 101 89.7 101.65 89.3 103.15 88.6 104.3 87.05 104.45 86.95 104.5 86.8 105.8 85.1 106 83.2 106.05 82.95 106.05 82.7 106.05 81.2 105.3 80.15 105 79.65 104.5 79.3 103 78.25 100.8 79
M 95.75 86.45
L 95.75 86.1
Q 95.8 84.25 97 82.55 98.8 80.25 100.7 79.5 102.9 78.75 104.2 79.65 104.7 80.05 105 80.65 105.55 81.45 105.55 82.7 105.5 84.6 104.3 86.25 104.15 86.55 103.9 86.8 102.9 88.1 101.6 88.8 100.95 89.25 100.25 89.45 98.35 90 97 89.05 95.8 88.2 95.75 86.45 Z"/>

<path fill="#27528D" fill-opacity="0.5019607843137255" stroke="none" d="
M 54.95 82.5
Q 53.8 80.95 52.2 80.4 50.55 79.95 49.5 80.7 48.35 81.55 48.45 83.15 48.5 84.8 49.65 86.4 50.9 87.9 52.5 88.35 54.05 88.9 55.2 88.1 56.3 87.35 56.3 85.7 56.2 84.05 54.95 82.5
M 98.05 82.5
Q 96.8 84.05 96.7 85.7 96.7 87.35 97.75 88.1 98.9 88.9 100.5 88.35 102.1 87.9 103.3 86.4 104.5 84.8 104.55 83.15 104.6 81.55 103.5 80.7 102.45 79.95 100.8 80.4 99.2 80.95 98.05 82.5 Z"/>
</g>

<g id="Layer0_0_FILL">
<path fill="#27528D" fill-opacity="0" stroke="none" d="
M 150.1 0
L 0 0 0 155.5 150.1 155.5 150.1 0 Z"/>
</g>
</defs>

<g transform="matrix( 1, 0, 0, 1, 0,0) ">
<use xlink:href="#Layer1_0_FILL"/>
</g>

<g transform="matrix( 1, 0, 0, 1, 0,0) ">
<use xlink:href="#Layer0_0_FILL"/>
</g>
</svg>
