
<svg xmlns="http://www.w3.org/2000/svg" version="1.1" xmlns:xlink="http://www.w3.org/1999/xlink" preserveAspectRatio="none" x="0px" y="0px" width="150px" height="155px" viewBox="0 0 150 155">
<defs>
<g id="Layer1_0_FILL">
<path fill="#27528D" stroke="none" d="
M 34.65 84.6
Q 44.35 113.05 66.1 104.2 44.7 105.25 34.65 84.6
M 59.2 141.5
Q 56.85 140.6 53.1 135.85 52.25 134.65 51.25 133.3 47.15 127.6 44.2 124.2 43.35 123.2 42.65 122.3 40.05 118.9 37.9 115.5 37.65 115.15 37.45 114.8 35.2 111.1 33.15 104.25 32.4 102 31.75 99.45 31.7 99.5 31.65 99.5 30.25 108.55 33 114.15 33.3 114.85 33.7 115.6 36.45 120.5 41.5 126.85 42.9 128.55 44.15 130.3 46.3 133.3 46.95 135.5 48.7 139.1 45.55 137.65 39.9 135.3 36.3 130.2 34.5 129.35 33.9 127.55 36.75 147.3 65.6 145.5 65.75 145.4 65.95 145.3 67.05 144.9 67.85 144.6 67.6 144.4 67.5 144.2 67.3 143.95 67.05 143.7 65.9 143 64 142.6 63.55 142.55 63.15 142.45 63 142.35 62.75 142.35 61.7 142.15 59.2 141.5
M 59.1 72.75
Q 52.6 67.9 44.65 60.55 51.15 68.6 57.2 74.4 62.7 79.95 65.5 84.8 66.4 86.4 67.15 88 70.3 94.9 69.8 100.45 69.9 100.25 70 100.1 72.35 92.2 69.45 85.15 68.7 83.4 67.65 81.65 65 77.4 59.1 72.75
M 63.5 56.6
Q 64.05 56.4 65.8 55.3
L 53.1 39.9 63.5 56.6
M 67.05 54.25
Q 69.55 52.8 71.65 52.35
L 63.6 36.25 67.05 54.25
M 116.65 112.85
Q 115.85 114.35 115.05 115.6 113 118.55 110.65 121.55 110.15 122.25 109.65 123 106.9 126.8 102.2 133.6 101.9 134 101.6 134.4 96.45 141.5 92.95 142 92.6 142.05 92.25 142.05 90.15 142.3 89.3 142.4 89.05 142.45 88.95 142.5 86.35 143.05 85.15 144.25 84.95 144.4 84.9 144.6 84.85 144.7 84.8 144.8 84.65 145 84.45 145.25 117.25 148.15 119.6 126.1 119.3 126.75 118.85 127.3 114.8 135.95 106.55 138.25 106.1 138.35 105.75 138.4 103 137.4 109.65 129.4 109.7 129.3 109.8 129.2 114.8 123.15 118 118.25 119.8 115.5 120.65 113.05 122.45 108.7 122 102.6 121.8 101.75 121.35 100.6 121.3 100.6 121.25 100.55 120.6 103.15 119.8 105.35 118.3 109.9 116.65 112.85
M 118.3 84.6
Q 108.25 105.25 86.85 104.2 108.65 113.05 118.3 84.6
M 84.85 81.35
Q 83.45 83.55 82.55 85.95 79.9 92.95 82.5 100.8 81.8 94.9 85.25 87.5 85.85 86.25 86.6 84.95 89.4 79.9 95.3 74.15 101.3 68.4 107.6 60.55 99.4 68.1 92.9 73.05 87.35 77.4 84.85 81.35
M 87.15 55.7
Q 88.85 56.7 89.25 57.5
L 99.45 39.9 87.15 55.7
M 118.35 38.35
Q 110.95 44.1 105.6 47.35 100.3 50.65 90.7 57.95 81.05 65.2 76.05 73.95 71.05 65.2 61.4 57.95 51.8 50.65 46.5 47.35 41.15 44.1 33.75 40.9 37 45.05 45 49.75 52.95 54.4 64.15 64.85 75.3 75.25 76.05 96.8 76.8 75.25 87.95 64.85 99.15 54.4 107.1 49.75 115.1 45.05 118.35 38.35
M 85.15 54.05
Q 86.9 44.7 88.9 35.45
L 80.65 52.3
Q 82.5 52.75 85.15 54.05
M 85.6 58.3
L 85.55 58.25
Q 81.85 54.6 77.9 54.05 77.2 53.95 76.45 53.95 76.4 53.95 76.35 53.95 75.6 53.95 74.95 54.05 74.85 54.1 74.75 54.1 74.05 54.2 73.35 54.4 70.2 55.35 67.2 58.3 72.1 61.7 75.1 65.05 75.85 65.8 76.45 66.5 77.35 65.4 78.45 64.2 81.35 61.25 85.6 58.3
M 74.35 61.4
Q 74.3 61.35 74.3 61.25 74.3 61.15 74.35 61.1 74.45 61 74.55 60.9 75.25 59.95 75.95 59 75.1 58.05 74.25 57.1
L 74 56.75
Q 74 56.65 74.05 56.55 75.7 56.4 77.15 56.4 78.05 56.4 78.3 56.4 78.6 56.7 78.55 56.8 77.8 57.8 76.95 58.85 77.5 59.4 77.95 60 78.3 60.45 78.65 60.95 78.75 61.15 78.65 61.25 78.55 61.35 78.45 61.35 77.2 61.35 75.95 61.4 75.25 61.45 74.55 61.45 74.45 61.45 74.35 61.4
M 76.05 58.4
Q 76.25 58.55 76.7 58.45 77.25 57.8 77.95 56.9 77.25 56.85 76.1 56.85 75.45 56.85 74.75 56.95 75.45 57.7 76.05 58.4
M 75.7 59.8
Q 75.25 60.3 74.75 60.8
L 74.8 60.8
Q 75.7 60.95 76.55 61 77 61 77.85 60.95 77.6 60.45 77.3 60 76.9 59.55 76.55 59.1 76.25 59.35 75.7 59.8
M 76.4 35
Q 76.35 35 76.25 35
L 73.8 51.85 74.3 51.75
Q 75.25 51.7 76.2 51.7 77.15 51.7 78.1 51.8 78.35 51.8 78.55 51.9 78.35 49.3 78.05 46.75
L 76.5 35
Q 76.45 35 76.4 35
M 69.7 114.7
Q 74.5 119.1 77.4 117.55 80.35 115.95 83.75 114.7 87.15 113.45 93.35 118.9 97.1 108.85 76.05 107.75 55 108.85 61.25 118.9 64.85 110.25 69.7 114.7 Z"/>

<path fill="#5F83AF" fill-opacity="0.5490196078431373" stroke="none" d="
M 52.85 78.75
Q 52.4 78.5 51.8 78.35 49.4 77.55 47.8 78.7 46.15 80 46.2 82.45 46.3 84.45 47.5 86.3 47.8 86.75 48.15 87.15 49.5 88.95 51.25 89.75 51.8 90 52.35 90.2 54.35 90.8 55.85 90 56.1 89.9 56.3 89.7 57.85 88.6 57.85 86.35 57.85 86.2 57.85 86.05 57.8 84.55 57.05 83.2 56.6 82.25 55.9 81.3 54.55 79.6 52.85 78.75
M 56.15 82.55
Q 57.05 83.95 57.25 85.5 57.3 85.8 57.3 86.1 57.35 88.15 56.1 89.15 56.05 89.25 55.95 89.3 54.5 90.3 52.4 89.65 52.15 89.6 51.9 89.5 50 88.7 48.55 86.85 48.1 86.3 47.75 85.75 46.85 84.2 46.7 82.55
L 46.7 82.4
Q 46.65 80.2 48.1 79.1 49.65 78.15 51.65 78.8 54.25 80.1 55.5 81.6 55.9 82.1 56.15 82.55
M 101 78.35
Q 100.9 78.4 100.75 78.4 98.6 79.25 96.95 81.3 96.65 81.65 96.45 82.05 95.15 84 95.05 86.05
L 95.05 86.1
Q 95 88.55 96.6 89.7 98.25 90.9 100.6 90.2 101.3 89.95 101.95 89.6 103.55 88.7 104.85 87.1 104.9 87 105.05 86.85 106.45 84.95 106.65 82.9 106.7 82.65 106.7 82.4 106.7 80.7 105.9 79.65 105.55 79.05 105.05 78.7 103.4 77.55 101 78.35
M 95.55 86.45
L 95.55 86.1
Q 95.65 84.1 96.9 82.25 98.9 79.7 100.95 78.9 103.3 78.1 104.75 79.1 105.25 79.5 105.6 80.1 106.15 81 106.15 82.35 106.1 84.45 104.85 86.2 104.6 86.5 104.4 86.85 103.25 88.25 101.95 89 101.25 89.45 100.4 89.65 98.4 90.3 96.9 89.3 95.6 88.35 95.55 86.45 Z"/>

<path fill="#27528D" fill-opacity="0.5490196078431373" stroke="none" d="
M 54.8 82.15
Q 53.6 80.5 51.85 79.9 50.1 79.35 48.9 80.2 47.7 81.1 47.8 82.85 47.9 84.65 49.15 86.35 50.5 88 52.2 88.55 53.9 89.1 55.1 88.25 56.3 87.4 56.3 85.6 56.2 83.85 54.8 82.15
M 98.05 82.15
Q 96.7 83.85 96.6 85.6 96.55 87.4 97.75 88.25 99 89.1 100.65 88.55 102.4 88 103.75 86.35 105 84.65 105.1 82.85 105.15 81.1 103.95 80.2 102.8 79.35 101 79.9 99.3 80.5 98.05 82.15 Z"/>
</g>

<g id="Layer0_0_FILL">
<path fill="#27528D" fill-opacity="0" stroke="none" d="
M 150.1 0
L 0 0 0 155.5 150.1 155.5 150.1 0 Z"/>
</g>
</defs>

<g transform="matrix( 1, 0, 0, 1, 0,0) ">
<use xlink:href="#Layer1_0_FILL"/>
</g>

<g transform="matrix( 1, 0, 0, 1, 0,0) ">
<use xlink:href="#Layer0_0_FILL"/>
</g>
</svg>
