
<svg xmlns="http://www.w3.org/2000/svg" version="1.1" xmlns:xlink="http://www.w3.org/1999/xlink" preserveAspectRatio="none" x="0px" y="0px" width="150px" height="155px" viewBox="0 0 150 155">
<defs>
<g id="Layer1_0_FILL">
<path fill="#27528D" stroke="none" d="
M 31.45 76.2
Q 41.8 114.05 66.1 104.2 42.6 105.4 31.45 76.2
M 63.95 82.6
Q 65.1 84.45 66.1 86.25 70.25 94 69.65 100.85 69.7 100.9 69.75 101 72.8 91.65 68.8 83.45 67.8 81.3 66.5 79.35 62.85 74.2 55.75 69.25 47.45 63.65 39.2 54.05 45.45 64.25 53.4 71 60.15 76.95 63.95 82.6
M 61.45 55.15
Q 62.55 54.45 64.55 53.2
L 49.85 35.1 61.45 55.15
M 28.65 98.85
Q 27.9 96.4 27.25 93.55 27.2 93.55 27.1 93.55 25.8 103.6 28.95 109.9 29.3 110.65 29.8 111.45 33.2 117.25 38.7 124 40.3 126 41.55 127.95 43.65 131.35 43.75 134 44.3 136.85 41.05 134.95 35.55 132.15 31.65 125.8 30.25 126.6 30.15 126.4 34.1 147.85 66.35 145.45 66.35 145.25 66.45 145.1 67.05 144.35 66.9 143.95 66.65 143.75 66.45 143.6 66.25 143.35 65.95 143.2 64.6 142.55 62.4 142.25 62 142.15 61.5 142.1 61.35 142.05 61.1 142 59.65 141.75 57.25 140.75 54.5 139.3 51.15 133.75 50.3 132.3 49.35 130.8 45.35 124 41.7 120.5 40.65 119.55 39.8 118.55 36.55 115.05 33.9 111.35 33.65 111 33.45 110.6 30.85 106.7 28.65 98.85
M 66 52.1
Q 68.75 50.55 71.2 50
L 61.9 31.1 66 52.1
M 76.05 107.75
Q 55 108.85 60.25 120.3 64.75 114.05 68.75 119.45 72.65 124.8 76.85 123.35 82.55 121.45 84.45 118.85 86.3 116.25 93.35 120.55 97.1 108.85 76.05 107.75
M 126.15 95.95
Q 125.85 96.05 125.4 95.8
L 125.3 95.8
Q 124.55 98.65 123.75 101.05 122.05 106.25 120.1 109.3 119.1 110.85 118 112.2 115.55 115.35 112.55 118.45 111.9 119.15 111.25 119.95 107.9 124.05 103.5 132.05 103.2 132.5 102.9 133 98.1 141.15 93.7 141.7 93.25 141.75 92.85 141.8 90.7 142 89.55 142.1 89.35 142.15 89.1 142.25 86.2 142.8 84.9 144.15 84.75 144.3 84.65 144.55 84.55 144.6 84.55 144.7 84.4 145 84.2 145.25 120.6 148.15 123.3 123.65 123.15 123.65 122.85 123.5 117.9 134.05 109.75 136.1 109.2 136.25 108.75 136.25 106.05 134 112.65 125.95 112.75 125.9 112.85 125.75 118.25 119.3 122 113.5 123.95 110.55 124.9 107.65 126.7 102.75 126.15 95.95
M 121.3 76.2
Q 110.15 105.4 86.65 104.2 110.95 114.05 121.3 76.2
M 113 54.05
L 112.95 54.1
Q 104.5 63.85 96.2 69.45 89.7 74.05 86.25 78.75 84.5 81.3 83.25 84 79.45 92.2 82.65 101.55 81.7 94.15 86.25 85.85 87.1 84.45 88 82.95 91.9 77.05 99.05 70.75 106.9 64.1 113 54.05
M 88.2 53.5
Q 90.2 54.65 91.1 55.85
L 102.6 35.1 88.2 53.5
M 120.9 35.65
Q 110.95 44.1 105.6 47.35 100.3 50.65 90.7 57.95 81.05 65.2 76.05 73.95 71.05 65.2 61.4 57.95 51.8 50.65 46.5 47.35 41.15 44.1 31.2 37.65 37 45.05 45 49.75 52.95 54.4 64.15 64.85 75.3 75.25 76.05 96.8 76.8 75.25 87.95 64.85 99.15 54.4 107.1 49.75 115.1 45.05 120.9 35.65
M 81.05 49.95
Q 83.3 50.5 86.2 52 88.3 41.2 90.5 30.5
L 81.05 49.95
M 87.15 56.85
Q 87.1 56.85 87.1 56.8 82.65 52.55 78.1 51.9 77.2 51.75 76.35 51.75 76.3 51.75 76.2 51.75 75.4 51.75 74.6 51.9 74.45 51.9 74.35 51.95 73.55 52 72.75 52.3 69.05 53.4 65.55 56.85 71.35 60.8 74.8 64.75 75.6 65.6 76.35 66.5 77.4 65.15 78.75 63.75 82.05 60.3 87.15 56.85
M 77.2 54.6
Q 78.25 54.6 78.55 54.6 78.9 54.95 78.8 55.1 77.85 56.25 76.85 57.5 77.5 58.15 78.1 58.8 78.45 59.4 78.9 59.95 79 60.2 78.9 60.3 78.8 60.4 78.7 60.4 77.25 60.4 75.75 60.45 74.9 60.5 74.1 60.5 73.95 60.5 73.9 60.4 73.85 60.35 73.85 60.25 73.85 60.15 73.9 60.05 74 59.95 74.1 59.8 75 58.7 75.85 57.6 74.85 56.5 73.85 55.4
L 73.6 54.95
Q 73.6 54.9 73.65 54.8 75.55 54.6 77.2 54.6
M 75.5 58.7
Q 75 59.2 74.5 59.8
L 74.55 59.8
Q 75.55 59.9 76.5 60 77 59.95 78 59.9 77.65 59.4 77.3 58.8 76.85 58.35 76.4 57.85 76.2 58.1 75.5 58.7
M 78.1 55.25
Q 77.3 55.2 75.95 55.2 75.25 55.2 74.5 55.25 75.25 56.1 75.9 56.85 76.15 57.05 76.65 56.9 77.3 56.2 78.1 55.25
M 73.95 49.45
Q 75.05 49.3 76.15 49.3 77.25 49.3 78.35 49.45 78.65 49.45 78.95 49.55 78.6 46.5 78.25 43.4
L 76.45 29.75
Q 76.35 29.75 76.3 29.75 76.25 29.75 76.2 29.75
L 73.35 49.5 73.95 49.45 Z"/>

<path fill="#698CB5" fill-opacity="0.6509803921568628" stroke="none" d="
M 52.4 77.6
Q 51.8 77.25 51.2 77.05
L 51.15 77.05
Q 48.4 76.15 46.55 77.45 44.7 78.95 44.7 81.8 44.8 84.1 46.2 86.25 46.55 86.75 46.95 87.25 48.55 89.3 50.5 90.3 51.15 90.6 51.75 90.75 54.05 91.5 55.75 90.6 56.05 90.45 56.3 90.25 58.05 88.95 58.05 86.35 58.05 86.15 58.05 86.05 58 84.3 57.2 82.7 56.65 81.6 55.85 80.5 54.3 78.55 52.4 77.6
M 57.35 85.4
Q 57.45 85.75 57.45 86.1 57.55 88.4 56.1 89.6 56 89.65 55.95 89.75 54.25 90.95 51.85 90.2 51.55 90.1 51.25 89.95 49.1 89.05 47.4 86.9 46.9 86.25 46.5 85.6 45.45 83.85 45.35 81.9
L 45.35 81.75
Q 45.25 79.25 46.9 78 48.7 76.85 51 77.6 53.95 79.1 55.35 80.95 55.8 81.45 56.15 81.95 57.15 83.6 57.35 85.4
M 96.8 80.55
Q 96.5 80.95 96.2 81.4 94.75 83.65 94.65 86.05 94.55 88.9 96.4 90.25 98.35 91.6 101 90.75 101.85 90.55 102.6 90.05 104.4 89.05 105.8 87.2 105.95 87.05 106.1 86.85 107.7 84.75 107.95 82.35 108 82.05 108 81.75 108 79.85 107.1 78.55 106.75 77.95 106.1 77.45 104.25 76.15 101.5 77.05 101.35 77.1 101.2 77.15 98.7 78.1 96.8 80.55
M 95.25 86.5
L 95.25 86.05
Q 95.35 83.75 96.8 81.6 99.05 78.65 101.4 77.75 104.2 76.8 105.8 77.95 106.4 78.4 106.75 79.1 107.4 80.15 107.4 81.7 107.3 84.1 105.8 86.15 105.6 86.5 105.35 86.85 104.1 88.5 102.6 89.4 101.75 89.95 100.8 90.2 98.45 90.95 96.8 89.75 95.3 88.65 95.25 86.5 Z"/>

<path fill="#27528D" fill-opacity="0.6509803921568628" stroke="none" d="
M 54.6 81.5
Q 53.15 79.55 51.15 78.9 49.15 78.25 47.85 79.2 46.45 80.25 46.55 82.25 46.65 84.35 48.1 86.35 49.65 88.25 51.6 88.9 53.6 89.55 55 88.55 56.3 87.6 56.3 85.45 56.15 83.45 54.6 81.5
M 98.1 81.5
Q 96.55 83.45 96.45 85.45 96.4 87.6 97.75 88.55 99.1 89.55 101.1 88.9 103.05 88.25 104.6 86.35 106.1 84.35 106.15 82.25 106.25 80.25 104.85 79.2 103.55 78.25 101.55 78.9 99.55 79.55 98.1 81.5 Z"/>
</g>

<g id="Layer0_0_FILL">
<path fill="#27528D" fill-opacity="0" stroke="none" d="
M 150.1 0
L 0 0 0 155.5 150.1 155.5 150.1 0 Z"/>
</g>
</defs>

<g transform="matrix( 1, 0, 0, 1, 0,0) ">
<use xlink:href="#Layer1_0_FILL"/>
</g>

<g transform="matrix( 1, 0, 0, 1, 0,0) ">
<use xlink:href="#Layer0_0_FILL"/>
</g>
</svg>
