
<svg xmlns="http://www.w3.org/2000/svg" version="1.1" xmlns:xlink="http://www.w3.org/1999/xlink" preserveAspectRatio="none" x="0px" y="0px" width="150px" height="155px" viewBox="0 0 150 155">
<defs>
<g id="Layer1_0_FILL">
<path fill="#27528D" fill-opacity="0.25098039215686274" stroke="none" d="
M 66.1 104.2
Q 62.65 104.65 61.1 106.2 63.4 107 66.1 104.2
M 66.4 142.7
Q 65.65 142.3 65.2 142 67.65 147.75 68.9 145.25 68.7546875 145.153125 68.75 145.3
L 68.75 144.85
Q 68.7 144.1 66.4 142.7
M 70.45 90.8
Q 67.55 94.3 70.85 94.35 71.4 94.35 71.7 94.45 72.05 92.55 70.45 90.8
M 73.8 65.1
L 72.95 65.4 73.9 65.45
Q 73.9 65.2 73.8 65.1
M 75.1 65.5
Q 74.85 65.45 74.3 65.05
L 74.3 66.1
Q 74.8 65.75 75.1 65.5
M 76.35 109.75
Q 73.55 109.7 73.1 112.2 74.15 110.85 75 110.5 75.9 110.15 76.35 110.1 76.75 110.05 77.65 110.55 78.5 110.95 79.7 112.1 79 110 76.35 109.75
M 84.3 145.25
Q 85.55 147.75 87.9 142 87.45 142.3 86.75 142.7 84.55 144.1 84.5 144.85
L 84.5 145.3
Q 84.496875 145.1515625 84.3 145.25
M 89.05 104.85
Q 87.35 104.75 84.85 105.85 87.05 107.1 89.05 104.85
M 81 94.15
Q 84.25 94.1 81.35 90.65 79.8 92.4 80.1 94.25 80.45 94.15 81 94.15
M 80.05 64.55
Q 79.85 64.9 79.65 65.2 79.9 65.5 80.1 65.9
L 80.05 64.55
M 76.35 76.5
Q 76.9 77.05 77.35 78.15 77.1 75.75 77.1 75.25 76.65 75.8 76.35 76.5
M 75.9 76.15
Q 75.4 75.3 74.55 74.65 75.8 75.7 75.75 78.55 75.9 77.4 76.35 76.5 76.15 76.3 75.9 76.15
M 78.5 64.8
Q 77.8 65.25 77.75 65.55 77.95 66.05 78.6 66.65 78.45 65.75 78.5 64.8 Z"/>

<path fill="#27528D" fill-opacity="0" stroke="none" d="
M 55.6 85.35
Q 55.1 85.3 54.7 85.45 54.35 85.65 54.35 85.95 54.3 86.3 54.6 86.6 54.9 86.85 55.35 86.9 55.85 87 56.2 86.8 56.6 86.65 56.6 86.3 56.65 85.95 56.35 85.7 56.05 85.45 55.6 85.35
M 54.4 85.95
Q 54.45 85.7 54.75 85.55 56.55 86 56.55 86.3 56.45 86.55 56.15 86.75 55.8 86.9 55.35 86.8 54.95 86.75 54.65 86.5 54.35 86.3 54.4 85.95
M 54.65 85.95
Q 54.65 86.25 54.8 86.45 55.05 86.65 55.4 86.7 55.7 86.75 56.3 86.25 56.35 86 54.95 85.65 54.65 85.8 54.65 85.95
M 97.45 85.7
Q 97.15 85.95 97.2 86.3 97.25 86.65 97.65 86.8 98 87 98.45 86.9 98.95 86.85 99.25 86.6 99.55 86.3 99.5 85.95 99.45 85.65 99.1 85.45 98.7 85.3 98.25 85.35 97.75 85.45 97.45 85.7
M 97.3 86.3
Q 97.3 86 97.55 85.8 99.35 85.7 99.4 85.95 99.45 86.3 99.2 86.5 98.9 86.75 98.45 86.8 98.05 86.9 97.7 86.75 97.4 86.55 97.3 86.3
M 97.5 86.25
Q 97.55 86.5 97.85 86.6 98.1 86.75 98.4 86.7 98.75 86.65 99.2 85.95 99.15 85.8 97.75 85.8 97.45 86 97.5 86.25 Z"/>
</g>

<g id="Layer0_0_FILL">
<path fill="#27528D" fill-opacity="0" stroke="none" d="
M 150.1 0
L 0 0 0 155.5 150.1 155.5 150.1 0 Z"/>
</g>
</defs>

<g transform="matrix( 1, 0, 0, 1, 0,0) ">
<use xlink:href="#Layer1_0_FILL"/>
</g>

<g transform="matrix( 1, 0, 0, 1, 0,0) ">
<use xlink:href="#Layer0_0_FILL"/>
</g>
</svg>
