
<svg xmlns="http://www.w3.org/2000/svg" version="1.1" xmlns:xlink="http://www.w3.org/1999/xlink" preserveAspectRatio="none" x="0px" y="0px" width="150px" height="155px" viewBox="0 0 150 155">
<defs>
<g id="Layer1_0_FILL">
<path fill="#27528D" stroke="none" d="
M 49.9 103.25
Q 56.55 108.1 66.1 104.2 55 104.75 49.9 103.25
M 60.15 142.35
Q 60.1 143.8 61.15 143.95 61.55 144 60.15 142.35
M 60.15 142.35
Q 60.1 142.15 60.15 141.95 61.35 144.1 63.8 144.6
L 63.85 144.6
Q 64 144.7 64.3 144.9 64.45 144.95 64.65 145 64.8 144.95 65 144.95 65.2 144.9 65.35 144.85 66.6 144.75 67.55 144.05 67.5 144 67.45 143.95 67.4 143.9 67.3 143.8 66.9 143.5 66.15 143.3 66.1 143.3 66 143.3 65.7 143.2 65.05 143.05 64.3 142.95 63.95 142.35 63.3 141.65 61.15 140.05 59.15 138.45 58.35 137.95 57.8 137.5 57.1 136.75 56.2 135.95 55.45 134.8 54.7 133.65 54.25 133 54.25 133.05 54.2 133.05 54.55 135.6 55.7 137.2 57 139.15 59.5 141.7 59.8 142.05 60.15 142.35
M 69.1 89.55
Q 69.75 93.35 70.75 95.1 70.9 95.25 71.05 95.45 71.2 95.35 71.35 95.2 71.4 93 70.7 90.35 69.8 85.8 65.9 80.45 68.4 86.25 69.1 89.55
M 71.45 64.75
L 67.65 61.5 70.45 65.4
Q 70.9 65.25 71.45 64.75
M 71.95 63.85
Q 73.2 62.95 73.8 62.85
L 71.3 59.2 71.95 63.85
M 76.2 109.15
Q 64.7 109.6 66.05 112.45 67.7 110.65 71.05 110.1 74.45 109.5 75.95 109.55 77.5 109.6 80.75 109.9 83.95 110.2 87.3 112.6 86.7 109.2 76.2 109.15
M 95.85 141.4
Q 95.4 142.25 94.85 142.9 96.1 142.9 95.85 141.4
M 97.1 134.4
L 97.05 134.35
Q 96.65 134.95 96.25 135.45 95.2 136.9 94.3 137.85 93.4 138.7 92.45 139.6 91.2 140.65 89.4 142.2 87.25 143.85 86.5 144.2 86.2 144.3 86.05 144.3 85.85 144.45 85.8 144.55 85.75 144.6 85.7 144.6 85.55 144.7 85.35 144.85 85.1 144.85 84.65 145 84.6 145.05 84.55 145.15 84.5 145.2 84.4 145.25
L 84.35 145.25
Q 91.4 146.85 94.85 142.9 94.5 142.8 96.5 140.55 97.55 139.45 98.4 138.5 98.7 137.55 98.4 137 98.2 136 97.1 134.4
M 102.35 103.35
Q 97.25 104.85 86.2 104.3 95.75 108.2 102.35 103.35
M 86.2 81.05
Q 85.75 80.95 85.25 80.8 81.8 84.95 80.9 88.4 79.9 91.85 80.6 95.5
L 80.6 95.45
Q 80.85 94.95 81.3 94.6 82.5 93.6 83.25 90.9 84.25 87.4 86.2 81.05
M 85.35 61.5
L 82.3 65.5
Q 82.85 65.9 83.1 66.4
L 85.35 61.5
M 85.55 66.6
Q 84.4 67.4 83.1 68.35 80.05 70.65 77.8 73.45 76.6 72.7 75.1 72.1 73.95 71 72.55 69.95 69.7 67.8 67.5 66.6 65.8 65.65 64 65.45 64.8 65.85 67 67.25 69.8 69.15 72.85 72.9 75.83671875 76.8326171875 75.9 83.85 75.90625 83.378125 76 83.05 76.75 77.9 79.25 74.7 82.25 71 84.75 68.85 86.9 67.2 87.55 65.8 87.45 65.85 87.35 65.9 86.9 66.05 86.4 66.2 86.15 66.25 85.55 66.6
M 78.75 62.75
Q 78.8 62.8 80.4 63.45 80.8 60.45 81.6 57.7
L 78.75 62.75
M 78.9 64.9
L 78.85 64.9
Q 78.05 64.05 77.2 63.9 77 63.9 76.85 63.9 76.65 63.9 76.5 63.9
L 76.45 63.9
Q 76.25 63.9 76.15 63.95 75.35 64.2 74.6 64.9
L 74.7 64.9
Q 75.85 65.75 76.55 66.5 76.7 66.65 76.85 66.75 77.05 66.5 77.25 66.2 77.9 65.55 78.9 64.9
M 76.6 64.4
Q 76.3 64.45 76 64.65 76.2 64.85 76.45 65.05 76.35 65.05 76.35 65.1 76.1 64.9 75.9 64.65
L 75.85 64.6
Q 75.85 64.55 75.9 64.55 76.35 64.35 76.85 64.3 77.1 64.3 77.2 64.3 77.3 64.35 77.3 64.4 77.3 64.45 77.3 64.55 77.05 64.45 76.6 64.4
M 77.15 64.95
Q 77.2 64.9 77.3 64.75 77.3 64.9 77.3 65 77.4 65.1 77.5 65.2 77.5 65.3 77.5 65.45
L 77.5 65.5
Q 77.32421875 65.5439453125 77.15 65.6 77.2 65.575390625 77.2 65.55 77.3 65.4 77.4 65.2 77.25 65.05 77.15 64.95
M 76.75 65.8
Q 76.6 65.8 76.5 65.85
L 76.45 65.8 76.45 65.75 76.4 65.8
Q 76.45 65.7 76.45 65.6 76.6 65.7 76.75 65.8
M 76.7 58.7
L 76.55 59.1 75.8 62.3 75.9 62.3
Q 76.15 62.3 76.3 62.3 76.55 62.3 76.85 62.4
L 76.9 62.4
Q 77.1 62 77.2 61.65
L 76.75 58.7 76.7 58.7 Z"/>

<path fill="#315B93" fill-opacity="0.10196078431372549" stroke="none" d="
M 54.75 84.05
Q 54 83.9 53.45 84.2 52.85 84.6 52.85 85.3 52.8 85.95 53.3 86.55 53.4 86.7 53.55 86.8 54.05 87.25 54.65 87.4 54.8 87.5 55 87.55 55.65 87.65 56.1 87.4 56.2 87.4 56.3 87.3 56.8 86.95 56.85 86.3
L 56.85 86.25
Q 56.9 85.7 56.5 85.2 56.3 85 56.1 84.75 55.65 84.35 55.1 84.15 54.95 84.1 54.75 84.05
M 53.05 85.35
L 53.05 85.3
Q 53.05 84.7 53.55 84.4 54.05 84.1 54.65 84.2 55.6 84.5 56 84.95 56.15 85.1 56.25 85.15 56.6 85.6 56.65 86.15 56.65 86.25 56.6 86.35 56.6 86.9 56.15 87.15 56.15 87.2 56.05 87.2 55.6 87.5 55 87.35 54.85 87.35 54.7 87.3 54.15 87.1 53.7 86.7 53.5 86.55 53.4 86.4 53 85.9 53.05 85.35
M 97.3 85.05
Q 96.8 85.6 96.8 86.25
L 96.8 86.35
Q 96.85 87.05 97.45 87.35 98 87.7 98.7 87.55 98.85 87.5 99.1 87.4 99.75 87.2 100.25 86.7 100.3 86.7 100.3 86.65 100.8 86.05 100.8 85.4 100.8 85.3 100.8 85.2 100.75 84.7 100.35 84.4 100.25 84.2 100.05 84.15 99.55 83.85 98.8 84.05 98.75 84.1 98.7 84.1 98 84.3 97.45 84.8 97.35 84.9 97.3 85.05
M 97 86.25
Q 97 85.65 97.45 85.15 98.05 84.5 98.75 84.25 99.55 84.05 100 84.3 100.15 84.45 100.25 84.55 100.65 84.8 100.65 85.3 100.65 85.95 100.25 86.45 100.15 86.55 100.05 86.65 99.65 87.05 99.1 87.2 98.85 87.35 98.6 87.4 98.05 87.5 97.55 87.2 97.1 86.9 97 86.35
L 97 86.25 Z"/>

<path fill="#27528D" fill-opacity="0.10196078431372549" stroke="none" d="
M 53.85 84.65
Q 53.4 84.9 53.4 85.4 53.4 85.95 53.75 86.4 54.25 86.9 54.8 87.05 55.35 87.15 55.8 86.9 56.3 86.7 56.3 86.1 56.3 85.6 55.85 85.15 55.45 84.65 54.85 84.5 54.25 84.4 53.85 84.65
M 97.8 85.15
Q 97.35 85.6 97.35 86.1 97.4 86.7 97.85 86.9 98.3 87.15 98.85 87.05 99.4 86.9 99.9 86.4 100.25 85.95 100.3 85.4 100.25 84.9 99.8 84.65 99.4 84.4 98.8 84.5 98.2 84.65 97.8 85.15 Z"/>
</g>

<g id="Layer0_0_FILL">
<path fill="#27528D" fill-opacity="0" stroke="none" d="
M 150.1 0
L 0 0 0 155.5 150.1 155.5 150.1 0 Z"/>
</g>
</defs>

<g transform="matrix( 1, 0, 0, 1, 0,0) ">
<use xlink:href="#Layer1_0_FILL"/>
</g>

<g transform="matrix( 1, 0, 0, 1, 0,0) ">
<use xlink:href="#Layer0_0_FILL"/>
</g>
</svg>
