
<svg xmlns="http://www.w3.org/2000/svg" version="1.1" xmlns:xlink="http://www.w3.org/1999/xlink" preserveAspectRatio="none" x="0px" y="0px" width="150px" height="155px" viewBox="0 0 150 155">
<defs>
<g id="Layer1_0_FILL">
<path fill="#27528D" stroke="none" d="
M 44.75 98.85
Q 52.4 109.8 66.1 104.2 51.5 104.95 44.75 98.85
M 70.6 94.3
Q 70.4 90.95 69 87.15 67.2 82.55 59.15 74.7 67.2 82.9 69.15 88.9 70.2 91.85 70.6 94.3
M 70.6 96.45
Q 70.6 96.95 70.55 97.45 70.75 96.95 70.75 96.4 70.75 95.4 70.6 94.3 70.65 95.4 70.6 96.45
M 69.6 61.65
L 62.8 54.3 68.25 62.4
Q 68.65 62.3 69.6 61.65
M 64.15 113.05
Q 64.55 110.1 69.2 109.45 73.85 108.75 75.9 108.75 78 108.8 82.65 109.1 87.15 109.4 90.05 113.1 92.3 108.65 76.2 108.3 59.8 108.8 64.15 113.05
M 68.75 51.55
L 70.35 60.65
Q 72 59.55 73.1 59.35
L 68.75 51.55
M 105.75 122
L 105.7 121.95
Q 105.15 123.25 104.65 124.35 103.2 127.75 101.9 129.75 100.6 131.75 99.1 133.8 97.45 135.95 94.05 139.45 90.45 143 88.95 143.35 88.3 143.45 87.85 143.55 87.4 143.65 87.15 143.7 87.1 143.75 87 143.85 86.55 143.95 86.2 144.15 85.55 144.3 84.95 144.7 84.85 144.85 84.75 145 84.7 145.1 84.6 145.2
L 84.55 145.25
Q 101.1 147.5 104.2 136.75 102.95 140.6 98.55 141.8 96.45 142.4 100.9 137.15 102.7 135.1 104.05 133.3 105.75 130.75 106.1 129.05 107 126.35 105.75 122
M 107.9 98.9
Q 101.1 105 86.5 104.25 100.25 109.85 107.9 98.9
M 91.05 75.9
Q 83.7 82.1 82 86.5 79.8 91.65 81.35 97.45
L 81.35 97.35
Q 81.4 96.45 81.7 95.65 82.6 93.2 84.05 89.2 86.1 83.85 93.05 75.05 92 75.5 91.05 75.9
M 83.95 62.3
Q 84.9 62.85 85.05 63.35
L 90.05 54.3 83.95 62.3
M 91 60.45
Q 88.9 62 86.35 63.9 80.45 68.35 77.05 73.65 75.15 71.1 72.4 68.8 70.4 66.75 67.8 64.8 62.05 60.45 58.5 58.35 55.25 56.4 52.1 56.3 52.9 56.95 57.55 59.75 62.6 62.85 69.15 69.45 75.6 76.15 75.95 89.45 76 87.4 76.3 85.6 77.7 75.9 82.95 70.45 89.45 63.9 94.3 60.65 99 57.7 99.7 55.2 99.2 55.45 98.7 55.75 96.8 56.9 94.6 58.15 93.2 58.95 91 60.45
M 81.95 60.35
Q 82.85 55.25 84 50.3
L 79.4 59.3
Q 80.05 59.45 81.95 60.35
M 81.15 62.7
L 81.1 62.65
Q 79.35 60.95 77.45 60.65 77.1 60.6 76.7 60.6
L 76.65 60.6
Q 76.3 60.6 75.95 60.65
L 75.9 60.65
Q 75.55 60.7 75.25 60.75 73.65 61.25 72.15 62.7
L 72.2 62.7
Q 74.6 64.4 76.05 66.05 76.4 66.35 76.7 66.7 77.15 66.15 77.7 65.55 79.1 64.15 81.15 62.7
M 76.9 61.65
Q 77.4 61.65 77.55 61.65 77.75 61.8 77.7 61.85 77.5 62.35 77.2 62.95 77.45 63.2 77.65 63.45 77.8 63.7 77.9 63.9 77.9 64.05 77.9 64.1 77.85 64.1 77.8 64.1 77.2 64.25 76.55 64.3 76.2 64.35 75.85 64.35 75.8 64.35 75.75 64.35 75.75 64.3 75.75 64.25
L 75.75 64.2
Q 75.8 64.2 75.8 64.15 75.85 64.05 75.9 63.9 76.35 64.1 76.7 64.25 76.95 64.15 77.45 64 77.4 63.75 77.35 63.45 77.15 63.2 76.85 62.95 77.2 62.6 77.6 62 77.2 61.95 76.45 61.9 76 61.95 75.55 62.1 76.15 62.6 76.5 63 76.5892578125 63.04453125 76.8 62.95 76.6322265625 63.0376953125 76.25 63.25
L 76.2 63.25
Q 76.2 63.2 76.25 63.1 75.8 62.65 75.35 62.15
L 75.25 62
Q 75.25 61.95 75.25 61.9 76.15 61.7 76.9 61.65
M 75.35 58.8
Q 75.85 58.75 76.25 58.75 76.75 58.75 77.2 58.85 77.35 58.85 77.5 58.9 77.5 57.8 77.5 56.65
L 76.65 50.8 76.55 50.8 75.15 58.85 75.35 58.8
M 47.55 119.55
L 47.5 119.6
Q 46.95 124.7 48.4 127.85 49.85 131.25 54.35 136.75 58.65 142.05 56.55 141.55 51.5 140.35 50.5 135.8 51.5 141.3 56.1 143.6 56.9 143.95 57.95 144.4 58.85 144.6 59.9 144.7 63.6 145.3 68.15 144.1 68.05 144 68 143.9 67.9 143.65 67.8 143.6 67.1 142.95 65.75 142.55 65.65 142.5 65.6 142.5 65.15 142.35 63.8 142.2 62.45 142 62.05 140.65 61.55 139.25 57.6 135.6 53.7 131.85 53 130.85 52.25 129.85 51.05 128.1 49.85 126.3 48.9 123.6 48 120.9 47.55 119.55 Z"/>

<path fill="#40689C" fill-opacity="0.25098039215686274" stroke="none" d="
M 53.8 82.15
L 53.75 82.15
Q 52.45 81.8 51.55 82.35 50.65 83.05 50.65 84.35 50.65 85.45 51.4 86.45 51.55 86.75 51.8 86.95 52.5 87.8 53.5 88.2 53.8 88.35 54.1 88.4 55.2 88.7 56 88.3 56.2 88.2 56.3 88.1 57.15 87.5 57.2 86.3 57.2 86.25 57.2 86.2 57.2 85.35 56.65 84.55 56.45 84.1 56 83.6 55.3 82.75 54.35 82.35 54.05 82.25 53.8 82.15
M 51.5 86.15
Q 50.95 85.35 50.9 84.4
L 50.9 84.35
Q 50.9 83.2 51.75 82.65 52.6 82.15 53.7 82.45 55.15 83.05 55.85 83.85 56.05 84.1 56.25 84.3 56.8 85.1 56.9 85.95 56.9 86.1 56.9 86.25 56.85 87.3 56.15 87.85 56.1 87.85 56.05 87.9 55.25 88.45 54.1 88.1 53.95 88.05 53.8 88.05 52.75 87.7 51.95 86.75 51.75 86.45 51.5 86.15
M 99.55 82.15
Q 99.45 82.2 99.35 82.2 98.2 82.6 97.3 83.65 97.1 83.85 97 84.05 96.25 85.1 96.2 86.2
L 96.2 86.25
Q 96.25 87.55 97.15 88.15 98.05 88.75 99.35 88.4 99.7 88.35 100.05 88.1 101 87.7 101.8 86.85 101.85 86.75 101.9 86.75 102.7 85.7 102.75 84.55 102.75 84.45 102.75 84.3 102.7 83.4 102.2 82.8 102 82.55 101.75 82.35 100.85 81.8 99.55 82.15
M 96.5 86.2
Q 96.55 85.15 97.25 84.15 98.4 82.9 99.5 82.5 100.8 82.1 101.6 82.55 101.9 82.8 102.05 83.1 102.5 83.55 102.5 84.3 102.5 85.45 101.75 86.4 101.6 86.55 101.5 86.75 100.85 87.4 100.05 87.8 99.65 88.05 99.2 88.15 98.15 88.45 97.35 87.9 96.6 87.4 96.5 86.4
L 96.5 86.2 Z"/>

<path fill="#27528D" fill-opacity="0.25098039215686274" stroke="none" d="
M 51.5 84.5
Q 51.55 85.5 52.25 86.4 53 87.25 53.95 87.55 54.9 87.8 55.6 87.35 56.3 86.95 56.3 85.95 56.3 85 55.5 84.15 54.85 83.25 53.85 82.95 52.85 82.7 52.2 83.2 51.5 83.65 51.5 84.5
M 101.2 83.2
Q 100.55 82.7 99.55 82.95 98.55 83.25 97.9 84.15 97.1 85 97.1 85.95 97.1 86.95 97.8 87.35 98.5 87.8 99.45 87.55 100.4 87.25 101.2 86.4 101.85 85.5 101.9 84.5 101.9 83.65 101.2 83.2 Z"/>
</g>

<g id="Layer0_0_FILL">
<path fill="#27528D" fill-opacity="0" stroke="none" d="
M 150.1 0
L 0 0 0 155.5 150.1 155.5 150.1 0 Z"/>
</g>
</defs>

<g transform="matrix( 1, 0, 0, 1, 0,0) ">
<use xlink:href="#Layer1_0_FILL"/>
</g>

<g transform="matrix( 1, 0, 0, 1, 0,0) ">
<use xlink:href="#Layer0_0_FILL"/>
</g>
</svg>
