
<svg xmlns="http://www.w3.org/2000/svg" version="1.1" xmlns:xlink="http://www.w3.org/1999/xlink" preserveAspectRatio="none" x="0px" y="0px" width="150px" height="155px" viewBox="0 0 150 155">
<defs>
<g id="Layer1_0_FILL">
<path fill="#27528D" stroke="none" d="
M 131.95 46.95
Q 116.95 105.7 86 104.2 119.15 117.6 131.95 46.95
M 66.1 104.2
Q 35.15 105.7 20.15 46.95 32.95 117.6 66.1 104.2
M 66.4 130.8
Q 71.65 134.85 76.05 134.35 80.45 134.85 85.7 130.8 90.95 126.65 97.35 130.15 97.1 108.85 76.05 107.75 55 108.85 54.75 130.15 61.15 126.65 66.4 130.8
M 38.55 18.3
L 54.35 49.95
Q 57.25 47.5 60.15 45.8
L 38.55 18.3
M 66.55 77.3
Q 58.85 64.9 44.2 56.85 29.55 48.85 20.15 31.45 25.65 49.05 39.95 58.9 54.25 68.75 62.45 80.25 70.65 91.7 68.9 104.2 74.2 89.65 66.55 77.3
M 56.25 85.1
Q 56 82.05 53.8 79.15 51.7 76.3 48.85 75.3 45.9 74.3 44.05 75.75 42.05 77.25 42.2 80.3 42.35 83.3 44.5 86.25 46.7 89.1 49.55 90.05 52.4 91.05 54.4 89.6 56.3 88.15 56.25 85.1
M 11.3 72.7
Q 10.05 87.85 16.05 96.9 21.95 105.9 28.75 114.05 35.5 122.1 32.65 128.65 24.1 129.2 15.45 110.25 15.65 150.55 68.95 145.25 68.5 144.85 68.2 144.3 66.15 140.95 57.05 140.9 47.9 140.85 44.05 126.6 40.2 112.25 32.85 107.55 25.45 102.8 19.95 96.75 14.45 90.7 11.3 72.7
M 78.7 44.25
Q 77.4 44.05 76.05 44.05 74.7 44.05 73.4 44.25 66.4 45.2 59.75 51.7 70.5 59.1 76.05 66.35 81.6 59.1 92.35 51.7 85.7 45.2 78.7 44.25
M 72.3 48.55
Q 72.4 48.45 72.6 48.45
L 79.45 48.45
Q 79.65 48.45 79.75 48.55 79.9 48.7 79.9 48.85 79.9 49 79.8 49.15
L 76.6 52.75 79.8 56.45
Q 79.9 56.55 79.9 56.75 79.9 56.85 79.75 57 79.65 57.15 79.45 57.15
L 72.6 57.15
Q 72.4 57.15 72.3 57 72.15 56.85 72.15 56.75 72.15 56.55 72.3 56.45
L 75.5 52.75 72.3 49.15
Q 72.15 49 72.15 48.85 72.15 48.7 72.3 48.55
M 76.05 53.4
L 73.55 56.25 78.5 56.25 76.05 53.4
M 78.5 49.3
L 73.55 49.3 76.05 52.1 78.5 49.3
M 62.2 44.65
Q 65.9 42.7 69.5 41.8
L 55.9 13.25 62.2 44.65
M 76.2 11.3
Q 76.15 11.3 76.05 11.3 75.95 11.3 75.9 11.3
L 71.85 41.4
Q 72.3 41.25 72.75 41.2 74.4 41.05 76.05 41.05 77.7 41.05 79.35 41.2 79.8 41.25 80.25 41.4
L 76.2 11.3
M 140.8 72.7
Q 137.65 90.7 132.15 96.75 126.65 102.8 119.25 107.55 111.9 112.25 108.05 126.6 104.2 140.85 95.05 140.9 85.95 140.95 83.9 144.3 83.6 144.85 83.15 145.25 135.7 148.5 136.65 110.25 128 129.2 119.45 128.65 116.6 122.1 123.35 114.05 130.15 105.9 136.05 96.9 142.05 87.85 140.8 72.7
M 87.95 64.85
Q 99.15 54.4 107.1 49.75 115.1 45.05 129.7 26.3 110.95 44.1 105.6 47.35 100.3 50.65 90.7 57.95 81.05 65.2 76.05 73.95 71.05 65.2 61.4 57.95 51.8 50.65 46.5 47.35 41.15 44.1 22.4 26.3 37 45.05 45 49.75 52.95 54.4 64.15 64.85 75.3 75.25 76.05 96.8 76.8 75.25 87.95 64.85
M 107.9 56.85
Q 93.25 64.9 85.55 77.3 77.9 89.65 83.2 104.2 81.45 91.7 89.65 80.25 97.85 68.75 112.15 58.9 126.45 49.05 131.95 31.45 122.55 48.85 107.9 56.85
M 98.3 79.15
Q 96.1 82.05 95.85 85.1 95.8 88.15 97.7 89.6 99.7 91.05 102.55 90.05 105.4 89.1 107.6 86.25 109.75 83.3 109.9 80.3 110.05 77.25 108.05 75.75 106.2 74.3 103.25 75.3 100.4 76.3 98.3 79.15
M 113.55 18.3
L 91.95 45.8
Q 94.85 47.5 97.75 49.95
L 113.55 18.3
M 96.2 13.25
L 82.6 41.8
Q 86.2 42.7 89.9 44.65
L 96.2 13.25 Z"/>

<path fill="#8CABCA" stroke="none" d="
M 48.9 72.6
Q 44.8 71.2 42.15 73.2 39.45 75.3 39.55 79.55 39.75 83.7 42.75 87.55 45.65 91.55 49.6 92.85 53.55 94.15 56.35 92.1 59 90.05 58.85 85.85 58.6 81.75 55.65 77.8 52.75 73.95 48.9 72.6
M 42.65 73.9
Q 45 72.15 48.6 73.4 52.2 74.75 55 78.35 57.75 82 57.95 85.9 58.15 89.65 55.85 91.4 53.4 93.15 49.85 92 46.2 90.75 43.4 87.05 40.6 83.45 40.45 79.5 40.3 75.75 42.65 73.9
M 109.95 73.2
Q 107.3 71.2 103.2 72.6 99.35 73.95 96.45 77.8 93.5 81.75 93.25 85.85 93.1 90.05 95.75 92.1 98.55 94.15 102.5 92.85 106.45 91.55 109.35 87.55 112.35 83.7 112.55 79.55 112.65 75.3 109.95 73.2
M 103.5 73.4
Q 107.1 72.15 109.45 73.9 111.8 75.75 111.65 79.5 111.5 83.45 108.7 87.05 105.9 90.75 102.25 92 98.7 93.15 96.25 91.4 93.95 89.65 94.15 85.9 94.35 82 97.1 78.35 99.9 74.75 103.55 73.4
L 103.5 73.4 Z"/>
</g>

<g id="Layer0_0_FILL">
<path fill="#27528D" fill-opacity="0" stroke="none" d="
M 150.1 0
L 0 0 0 155.5 150.1 155.5 150.1 0 Z"/>
</g>
</defs>

<g transform="matrix( 1, 0, 0, 1, 0,0) ">
<use xlink:href="#Layer1_0_FILL"/>
</g>

<g transform="matrix( 1, 0, 0, 1, 0,0) ">
<use xlink:href="#Layer0_0_FILL"/>
</g>
</svg>
