
<svg xmlns="http://www.w3.org/2000/svg" version="1.1" xmlns:xlink="http://www.w3.org/1999/xlink" preserveAspectRatio="none" x="0px" y="0px" width="150px" height="155px" viewBox="0 0 150 155">
<defs>
<g id="Layer1_0_FILL">
<path fill="#27528D" stroke="none" d="
M 46.45 100.3
Q 53.75 109.25 66.1 104.2 52.7 104.85 46.45 100.3
M 54.75 133.25
Q 54.1 132.4 53.05 131 51.95 129.5 51.1 127.3 50.25 125.15 49.8 124.05
L 49.75 124.05 49.75 124.15
Q 49.5 128.35 50.8 130.95 52.2 133.9 56.05 138.4 59.65 142.7 58.1 142.35 55.55 141.75 54.45 139.9 55.8 142.7 58.65 143.95 58.7 143.95 58.75 143.95 59.25 144.2 60.1 144.6 60.45 144.6 60.8 144.7 61.2 144.75 61.6 144.8 61.95 144.85 62.3 144.85 64.95 145.05 67.95 144.1 67.85 144 67.85 143.95 67.75 143.75 67.6 143.65 67 143.1 65.9 142.8 65.8 142.75 65.7 142.75 65.3 142.65 64.25 142.5 63.05 142.3 62.7 141.2 62.1 140.05 58.8 137.05 55.5 134.05 54.75 133.25
M 61.4 76.6
Q 67.6 83.75 69 87.95 70.45 92.6 70.7 96 70.75 96.4 70.75 96.75 70.85 96.4 70.95 96.05 70.95 93.1 69.65 89.35 68.1 83.85 61.4 76.6
M 69 63.4
Q 69.4 63.25 70.2 62.65
L 64.4 56.7 69 63.4
M 69.6 54.1
L 70.85 61.7
Q 72.35 60.7 73.3 60.5
L 69.6 54.1
M 76.2 108.6
Q 61.4 109.05 64.8 112.8 65.6 110.25 69.8 109.65 74 109 75.95 109 77.8 109.05 82 109.35 86.1 109.65 89.1 112.95 90.4 108.85 76.2 108.6
M 99.35 132.4
Q 98.15 134 96.9 135.75 95.35 137.55 92.55 140.4 89.4 143.3 88.15 143.65 87.6 143.75 87.25 143.8 86.85 143.95 86.7 144 86.6 144.05 86.55 144.1 86.2 144.25 85.9 144.35 85.35 144.5 84.9 144.8 84.75 144.9 84.65 145.05 84.6 145.1 84.55 145.2
L 84.5 145.25
Q 96.65 147.15 100.55 140.25 99.4 141.7 97.3 142.2 95.8 142.55 99.45 138.3 100.95 136.55 102.2 135.05 103.35 133.05 103.55 131.7 104.1 129.55 102.9 126.15 102.85 126.1 102.8 126.05 102.35 127.15 101.85 128.1 100.55 130.8 99.35 132.4
M 106.05 100.4
Q 99.85 104.95 86.45 104.3 98.75 109.3 106.05 100.4
M 90.8 77.05
Q 89.95 77.35 89.1 77.55 83.05 83.05 81.65 87.15 79.8 91.75 81.1 96.8
L 81.1 96.7
Q 81.25 96 81.6 95.3 82.55 93.35 83.8 89.75 85.45 85 90.8 77.05
M 83.4 63.35
Q 84.2 63.9 84.4 64.35
L 88.45 56.7 83.4 63.35
M 89.15 62.55
Q 87.4 63.75 85.25 65.4 80.35 69.05 77.3 73.55 75.65 71.65 73.3 69.95 71.55 68.1 69.4 66.5 64.6 62.9 61.5 61.1 58.75 59.5 56.1 59.35 56.85 59.9 60.75 62.25 65 64.9 70.35 70.65 75.7 76.4 75.95 87.65 76 86.1 76.2 84.8 77.35 76.6 81.7 71.9 87.1 66.2 91.15 63.4 94.95 60.9 95.65 58.75 95.3 58.95 94.95 59.15 93.5 59.95 91.9 60.85 90.85 61.4 89.15 62.55
M 81.4 61.35
Q 82.15 56.95 83.2 52.75
L 79.15 60.4
Q 79.6 60.6 81.4 61.35
M 76.15 61.7
Q 76.1 61.7 76.05 61.7 75.8 61.75 75.55 61.85 74.2 62.2 73 63.4 75 64.85 76.2 66.2 76.5 66.45 76.75 66.7 77.1 66.25 77.5 65.8 78.7 64.6 80.4 63.4 78.9 62 77.35 61.7 77.05 61.65 76.75 61.65
L 76.7 61.65
Q 76.45 61.65 76.15 61.7
M 77.45 62.55
Q 77.55 62.65 77.55 62.7 77.5 62.8 77.5 62.9 77.15 62.75 76.55 62.7 76.1 62.75 75.7 62.95 76.2 63.35 76.55 63.75 76.45 63.75 76.35 63.8
L 76.3 63.85 76.3 63.8
Q 75.9 63.4 75.55 62.95
L 75.45 62.85
Q 75.45 62.8 75.5 62.8 76.2 62.6 76.85 62.55 77.3 62.55 77.45 62.55
M 77.5 63
L 77.5 63.05
Q 77.35 63.3 77.2 63.6 77.45 63.85 77.6 64.05 77.65 64.25 77.8 64.45
L 77.8 64.55
Q 77.75 64.55 77.7 64.55 77.2 64.65 76.6 64.8 76.35 64.85 76.05 64.85
L 76 64.85 75.95 64.8
Q 75.95 64.75 76 64.7 76.05 64.55 76.15 64.5 76.45 64.6 76.75 64.75 76.95 64.65 77.4 64.55 77.35 64.25 77.35 64.05 77.2 63.85 76.95 63.65
L 77.2 63.35
Q 77.3 63.2 77.5 63
M 75.55 60
Q 75.9 59.95 76.3 59.95 76.7 60 77.1 60.05 77.2 60.05 77.25 60.05 77.35 59.2 77.35 58.3
L 76.65 53.45 76.6 53.45 75.35 60 75.55 60 Z"/>

<path fill="#3B6499" fill-opacity="0.2" stroke="none" d="
M 54.6 82.95
Q 54.35 82.9 54.1 82.8 53 82.55 52.2 82.95 51.4 83.55 51.4 84.65 51.4 85.6 52 86.5 52.15 86.75 52.35 86.9 53.05 87.6 53.9 87.95 54.15 88.05 54.4 88.1 55.3 88.35 56.05 88 56.2 87.95 56.3 87.85 57.05 87.35 57.05 86.3 57.05 86.25 57.05 86.2 57.05 85.45 56.6 84.8 56.4 84.4 56.05 83.95 55.4 83.25 54.6 82.95
M 51.6 84.7
L 51.6 84.65
Q 51.65 83.7 52.35 83.2 53.05 82.8 54.05 83 55.3 83.55 55.95 84.2 56.1 84.4 56.25 84.6 56.7 85.25 56.8 86 56.8 86.15 56.8 86.3 56.75 87.15 56.15 87.6 56.1 87.65 56.05 87.7 55.35 88.1 54.4 87.85 54.25 87.8 54.1 87.8 53.25 87.45 52.5 86.75 52.3 86.5 52.1 86.2 51.65 85.55 51.6 84.7
M 101.2 82.95
Q 100.4 82.5 99.35 82.8 99.25 82.8 99.15 82.85 98.1 83.2 97.4 84.05 97.2 84.2 97.1 84.35 96.45 85.25 96.45 86.2
L 96.45 86.3
Q 96.45 87.4 97.25 87.85 98.05 88.35 99.1 88.1 99.4 88.05 99.7 87.85 100.6 87.55 101.3 86.75
L 101.35 86.7
Q 102.05 85.8 102.1 84.8 102.1 84.75 102.1 84.6 102.05 83.85 101.6 83.3 101.45 83.1 101.2 82.95
M 99.25 83.05
Q 100.35 82.75 101.05 83.15 101.3 83.35 101.45 83.55 101.85 84 101.9 84.65 101.9 85.6 101.25 86.4 101.15 86.55 101 86.7 100.4 87.3 99.7 87.6 99.35 87.8 99.05 87.9 98.1 88.1 97.4 87.7 96.75 87.2 96.65 86.35
L 96.65 86.2
Q 96.7 85.3 97.35 84.5 98.25 83.4 99.25 83.05 Z"/>

<path fill="#27528D" fill-opacity="0.2" stroke="none" d="
M 52.75 83.65
Q 52.15 84.1 52.15 84.8 52.15 85.65 52.75 86.4 53.4 87.1 54.25 87.4 55.05 87.6 55.65 87.2 56.3 86.85 56.3 86.05 56.3 85.2 55.65 84.5 55.05 83.75 54.2 83.5 53.35 83.25 52.75 83.65
M 97.85 84.5
Q 97.2 85.2 97.15 86.05 97.2 86.85 97.8 87.2 98.4 87.6 99.25 87.4 100.1 87.1 100.75 86.4 101.3 85.65 101.3 84.8 101.3 84.1 100.7 83.65 100.15 83.25 99.3 83.5 98.4 83.75 97.85 84.5 Z"/>
</g>

<g id="Layer0_0_FILL">
<path fill="#27528D" fill-opacity="0" stroke="none" d="
M 150.1 0
L 0 0 0 155.5 150.1 155.5 150.1 0 Z"/>
</g>
</defs>

<g transform="matrix( 1, 0, 0, 1, 0,0) ">
<use xlink:href="#Layer1_0_FILL"/>
</g>

<g transform="matrix( 1, 0, 0, 1, 0,0) ">
<use xlink:href="#Layer0_0_FILL"/>
</g>
</svg>
